<?xml version="1.0" encoding="UTF-8" standalone="no"?>
<!DOCTYPE svg PUBLIC "-//W3C//DTD SVG 1.1//EN"
 "http://www.w3.org/Graphics/SVG/1.1/DTD/svg11.dtd">
<!-- Generated by graphviz version 2.38.0 (20140413.2041)
 -->
<!-- Title: Transmission::portOuvert Pages: 1 -->
<svg width="615pt" height="28pt"
 viewBox="0.00 0.00 615.00 28.00" xmlns="http://www.w3.org/2000/svg" xmlns:xlink="http://www.w3.org/1999/xlink">
<g id="graph0" class="graph" transform="scale(1 1) rotate(0) translate(4 24)">
<title>Transmission::portOuvert</title>
<polygon fill="white" stroke="none" points="-4,4 -4,-24 611,-24 611,4 -4,4"/>
<!-- Node1 -->
<g id="node1" class="node"><title>Node1</title>
<polygon fill="#bfbfbf" stroke="black" points="0,-0.5 0,-19.5 127,-19.5 127,-0.5 0,-0.5"/>
<text text-anchor="middle" x="63.5" y="-7.5" font-family="Helvetica,sans-Serif" font-size="10.00">Transmission::portOuvert</text>
</g>
<!-- Node2 -->
<g id="node2" class="node"><title>Node2</title>
<g id="a_node2"><a xlink:href="class_transmission.html#a41d15e65be472e058b28869f8dfad392" target="_top" xlink:title="Transmission::ouvrirPort">
<polygon fill="white" stroke="black" points="163,-0.5 163,-19.5 286,-19.5 286,-0.5 163,-0.5"/>
<text text-anchor="middle" x="224.5" y="-7.5" font-family="Helvetica,sans-Serif" font-size="10.00">Transmission::ouvrirPort</text>
</a>
</g>
</g>
<!-- Node1&#45;&gt;Node2 -->
<g id="edge1" class="edge"><title>Node1&#45;&gt;Node2</title>
<path fill="none" stroke="midnightblue" d="M137.604,-10C146.078,-10 154.651,-10 162.932,-10"/>
<polygon fill="midnightblue" stroke="midnightblue" points="137.341,-6.5001 127.341,-10 137.341,-13.5001 137.341,-6.5001"/>
</g>
<!-- Node3 -->
<g id="node3" class="node"><title>Node3</title>
<g id="a_node3"><a xlink:href="class_transmission.html#ab4e82ab30c181a8e0d0c0257ea0e1f56" target="_top" xlink:title="configure le port serie ">
<polygon fill="white" stroke="black" points="322,-0.5 322,-19.5 464,-19.5 464,-0.5 322,-0.5"/>
<text text-anchor="middle" x="393" y="-7.5" font-family="Helvetica,sans-Serif" font-size="10.00">Transmission::configurerPort</text>
</a>
</g>
</g>
<!-- Node2&#45;&gt;Node3 -->
<g id="edge2" class="edge"><title>Node2&#45;&gt;Node3</title>
<path fill="none" stroke="midnightblue" d="M296.296,-10C304.762,-10 313.403,-10 321.859,-10"/>
<polygon fill="midnightblue" stroke="midnightblue" points="296.081,-6.5001 286.081,-10 296.081,-13.5001 296.081,-6.5001"/>
</g>
<!-- Node4 -->
<g id="node4" class="node"><title>Node4</title>
<g id="a_node4"><a xlink:href="class_ihm.html#af0426507c2130aefd01bdb4f825ae168" target="_top" xlink:title="Méthode qui actualise l&#39;etat de la led dans ihm et change le radiobutton activer en fontion de l&#39;etat...">
<polygon fill="white" stroke="black" points="500,-0.5 500,-19.5 607,-19.5 607,-0.5 500,-0.5"/>
<text text-anchor="middle" x="553.5" y="-7.5" font-family="Helvetica,sans-Serif" font-size="10.00">Ihm::modifierEtatLed</text>
</a>
</g>
</g>
<!-- Node3&#45;&gt;Node4 -->
<g id="edge3" class="edge"><title>Node3&#45;&gt;Node4</title>
<path fill="none" stroke="midnightblue" d="M474.528,-10C483.132,-10 491.715,-10 499.873,-10"/>
<polygon fill="midnightblue" stroke="midnightblue" points="474.443,-6.5001 464.443,-10 474.443,-13.5001 474.443,-6.5001"/>
</g>
</g>
</svg>
