<?xml version="1.0" encoding="UTF-8" standalone="no"?>
<!DOCTYPE svg PUBLIC "-//W3C//DTD SVG 1.1//EN"
 "http://www.w3.org/Graphics/SVG/1.1/DTD/svg11.dtd">
<!-- Generated by graphviz version 2.38.0 (20140413.2041)
 -->
<!-- Title: Esp32::setCouleurLed Pages: 1 -->
<svg width="466pt" height="66pt"
 viewBox="0.00 0.00 466.00 66.00" xmlns="http://www.w3.org/2000/svg" xmlns:xlink="http://www.w3.org/1999/xlink">
<g id="graph0" class="graph" transform="scale(1 1) rotate(0) translate(4 62)">
<title>Esp32::setCouleurLed</title>
<polygon fill="white" stroke="none" points="-4,4 -4,-62 462,-62 462,4 -4,4"/>
<!-- Node1 -->
<g id="node1" class="node"><title>Node1</title>
<polygon fill="#bfbfbf" stroke="black" points="0,-19.5 0,-38.5 113,-38.5 113,-19.5 0,-19.5"/>
<text text-anchor="middle" x="56.5" y="-26.5" font-family="Helvetica,sans-Serif" font-size="10.00">Esp32::setCouleurLed</text>
</g>
<!-- Node2 -->
<g id="node2" class="node"><title>Node2</title>
<g id="a_node2"><a xlink:href="class_transmission.html#a14d36ad615852d6b630fbddf5787f3a3" target="_top" xlink:title="cette methode ferme le port serie ">
<polygon fill="white" stroke="black" points="149,-19.5 149,-38.5 276,-38.5 276,-19.5 149,-19.5"/>
<text text-anchor="middle" x="212.5" y="-26.5" font-family="Helvetica,sans-Serif" font-size="10.00">Transmission::fermerPort</text>
</a>
</g>
</g>
<!-- Node1&#45;&gt;Node2 -->
<g id="edge1" class="edge"><title>Node1&#45;&gt;Node2</title>
<path fill="none" stroke="midnightblue" d="M123.333,-29C131.822,-29 140.497,-29 148.932,-29"/>
<polygon fill="midnightblue" stroke="midnightblue" points="123.098,-25.5001 113.098,-29 123.097,-32.5001 123.098,-25.5001"/>
</g>
<!-- Node3 -->
<g id="node3" class="node"><title>Node3</title>
<g id="a_node3"><a xlink:href="class_ihm.html#af0426507c2130aefd01bdb4f825ae168" target="_top" xlink:title="Méthode qui actualise l&#39;etat de la led dans ihm et change le radiobutton activer en fontion de l&#39;etat...">
<polygon fill="white" stroke="black" points="331.5,-38.5 331.5,-57.5 438.5,-57.5 438.5,-38.5 331.5,-38.5"/>
<text text-anchor="middle" x="385" y="-45.5" font-family="Helvetica,sans-Serif" font-size="10.00">Ihm::modifierEtatLed</text>
</a>
</g>
</g>
<!-- Node2&#45;&gt;Node3 -->
<g id="edge2" class="edge"><title>Node2&#45;&gt;Node3</title>
<path fill="none" stroke="midnightblue" d="M286.363,-37.1196C301.46,-38.802 317.087,-40.5434 331.295,-42.1267"/>
<polygon fill="midnightblue" stroke="midnightblue" points="286.346,-33.5961 276.02,-35.967 285.571,-40.5531 286.346,-33.5961"/>
</g>
<!-- Node4 -->
<g id="node4" class="node"><title>Node4</title>
<g id="a_node4"><a xlink:href="class_transmission.html#adcdc6012d99ddb1d0c3159d50984e146" target="_top" xlink:title="destructeur de la classe Transmission ">
<polygon fill="white" stroke="black" points="312,-0.5 312,-19.5 458,-19.5 458,-0.5 312,-0.5"/>
<text text-anchor="middle" x="385" y="-7.5" font-family="Helvetica,sans-Serif" font-size="10.00">Transmission::~Transmission</text>
</a>
</g>
</g>
<!-- Node2&#45;&gt;Node4 -->
<g id="edge3" class="edge"><title>Node2&#45;&gt;Node4</title>
<path fill="none" stroke="midnightblue" d="M286.008,-20.92C294.603,-19.9621 303.376,-18.9845 311.965,-18.0274"/>
<polygon fill="midnightblue" stroke="midnightblue" points="285.571,-17.4469 276.02,-22.033 286.346,-24.4039 285.571,-17.4469"/>
</g>
</g>
</svg>
