<?xml version="1.0" encoding="UTF-8" standalone="no"?>
<!DOCTYPE svg PUBLIC "-//W3C//DTD SVG 1.1//EN"
 "http://www.w3.org/Graphics/SVG/1.1/DTD/svg11.dtd">
<!-- Generated by graphviz version 2.38.0 (20140413.2041)
 -->
<!-- Title: Esp32::setCouleurLed Pages: 1 -->
<svg width="995pt" height="83pt"
 viewBox="0.00 0.00 995.00 83.00" xmlns="http://www.w3.org/2000/svg" xmlns:xlink="http://www.w3.org/1999/xlink">
<g id="graph0" class="graph" transform="scale(1 1) rotate(0) translate(4 79)">
<title>Esp32::setCouleurLed</title>
<polygon fill="white" stroke="none" points="-4,4 -4,-79 991,-79 991,4 -4,4"/>
<!-- Node1 -->
<g id="node1" class="node"><title>Node1</title>
<polygon fill="#bfbfbf" stroke="black" points="0,-28 0,-47 113,-47 113,-28 0,-28"/>
<text text-anchor="middle" x="56.5" y="-35" font-family="Helvetica,sans-Serif" font-size="10.00">Esp32::setCouleurLed</text>
</g>
<!-- Node2 -->
<g id="node2" class="node"><title>Node2</title>
<g id="a_node2"><a xlink:href="class_transmission.html#aa2977705ec793b10bf3212a13e67b097" target="_top" xlink:title="Décompose la trame reçue. ">
<polygon fill="white" stroke="black" points="149,-28 149,-47 283,-47 283,-28 149,-28"/>
<text text-anchor="middle" x="216" y="-35" font-family="Helvetica,sans-Serif" font-size="10.00">Transmission::decomposer</text>
</a>
</g>
</g>
<!-- Node1&#45;&gt;Node2 -->
<g id="edge1" class="edge"><title>Node1&#45;&gt;Node2</title>
<path fill="none" stroke="midnightblue" d="M123.247,-37.5C131.732,-37.5 140.423,-37.5 148.913,-37.5"/>
<polygon fill="midnightblue" stroke="midnightblue" points="123.029,-34.0001 113.029,-37.5 123.029,-41.0001 123.029,-34.0001"/>
</g>
<!-- Node3 -->
<g id="node3" class="node"><title>Node3</title>
<g id="a_node3"><a xlink:href="class_transmission.html#aa54a695d9d1c728ccab04f1d8030da41" target="_top" xlink:title="Récupérer la trame émise. ">
<polygon fill="white" stroke="black" points="319,-28 319,-47 435,-47 435,-28 319,-28"/>
<text text-anchor="middle" x="377" y="-35" font-family="Helvetica,sans-Serif" font-size="10.00">Transmission::recevoir</text>
</a>
</g>
</g>
<!-- Node2&#45;&gt;Node3 -->
<g id="edge2" class="edge"><title>Node2&#45;&gt;Node3</title>
<path fill="none" stroke="midnightblue" d="M293.129,-37.5C301.757,-37.5 310.438,-37.5 318.765,-37.5"/>
<polygon fill="midnightblue" stroke="midnightblue" points="293.049,-34.0001 283.049,-37.5 293.049,-41.0001 293.049,-34.0001"/>
</g>
<!-- Node4 -->
<g id="node4" class="node"><title>Node4</title>
<g id="a_node4"><a xlink:href="class_transmission.html#a41d15e65be472e058b28869f8dfad392" target="_top" xlink:title="Transmission::ouvrirPort">
<polygon fill="white" stroke="black" points="489,-50 489,-69 612,-69 612,-50 489,-50"/>
<text text-anchor="middle" x="550.5" y="-57" font-family="Helvetica,sans-Serif" font-size="10.00">Transmission::ouvrirPort</text>
</a>
</g>
</g>
<!-- Node3&#45;&gt;Node4 -->
<g id="edge3" class="edge"><title>Node3&#45;&gt;Node4</title>
<path fill="none" stroke="midnightblue" d="M445.388,-46.1445C459.715,-47.9824 474.76,-49.9123 488.819,-51.7158"/>
<polygon fill="midnightblue" stroke="midnightblue" points="445.471,-42.6266 435.107,-44.8257 444.58,-49.5697 445.471,-42.6266"/>
</g>
<!-- Node7 -->
<g id="node7" class="node"><title>Node7</title>
<g id="a_node7"><a xlink:href="class_transmission.html#a5a21d201dd0096f96aec12264c2f03d9" target="_top" xlink:title="Permets de se connecter à un appareil. ">
<polygon fill="white" stroke="black" points="471,-0.5 471,-30.5 630,-30.5 630,-0.5 471,-0.5"/>
<text text-anchor="start" x="479" y="-18.5" font-family="Helvetica,sans-Serif" font-size="10.00">Transmission::connecterAppareil</text>
<text text-anchor="middle" x="550.5" y="-7.5" font-family="Helvetica,sans-Serif" font-size="10.00">Bluetooth</text>
</a>
</g>
</g>
<!-- Node3&#45;&gt;Node7 -->
<g id="edge6" class="edge"><title>Node3&#45;&gt;Node7</title>
<path fill="none" stroke="midnightblue" d="M445.249,-28.8733C453.685,-27.7911 462.372,-26.6768 470.961,-25.575"/>
<polygon fill="midnightblue" stroke="midnightblue" points="444.58,-25.4303 435.107,-30.1743 445.471,-32.3734 444.58,-25.4303"/>
</g>
<!-- Node5 -->
<g id="node5" class="node"><title>Node5</title>
<g id="a_node5"><a xlink:href="class_transmission.html#ab4e82ab30c181a8e0d0c0257ea0e1f56" target="_top" xlink:title="configure le port serie ">
<polygon fill="white" stroke="black" points="672,-50 672,-69 814,-69 814,-50 672,-50"/>
<text text-anchor="middle" x="743" y="-57" font-family="Helvetica,sans-Serif" font-size="10.00">Transmission::configurerPort</text>
</a>
</g>
</g>
<!-- Node4&#45;&gt;Node5 -->
<g id="edge4" class="edge"><title>Node4&#45;&gt;Node5</title>
<path fill="none" stroke="midnightblue" d="M622.04,-59.5C638.35,-59.5 655.699,-59.5 671.987,-59.5"/>
<polygon fill="midnightblue" stroke="midnightblue" points="622.037,-56.0001 612.037,-59.5 622.037,-63.0001 622.037,-56.0001"/>
</g>
<!-- Node6 -->
<g id="node6" class="node"><title>Node6</title>
<g id="a_node6"><a xlink:href="class_ihm.html#a9ce167b94baead6e318bbd0c5254f842" target="_top" xlink:title="bouton qui ouvre le port serie ">
<polygon fill="white" stroke="black" points="856,-44.5 856,-74.5 987,-74.5 987,-44.5 856,-44.5"/>
<text text-anchor="start" x="864" y="-62.5" font-family="Helvetica,sans-Serif" font-size="10.00">Ihm::on_pushButtonOuvrir</text>
<text text-anchor="middle" x="921.5" y="-51.5" font-family="Helvetica,sans-Serif" font-size="10.00">Port_clicked</text>
</a>
</g>
</g>
<!-- Node5&#45;&gt;Node6 -->
<g id="edge5" class="edge"><title>Node5&#45;&gt;Node6</title>
<path fill="none" stroke="midnightblue" d="M824.099,-59.5C834.693,-59.5 845.445,-59.5 855.738,-59.5"/>
<polygon fill="midnightblue" stroke="midnightblue" points="824.011,-56.0001 814.011,-59.5 824.011,-63.0001 824.011,-56.0001"/>
</g>
<!-- Node8 -->
<g id="node8" class="node"><title>Node8</title>
<g id="a_node8"><a xlink:href="class_ihm.html#ac154e42263a45f12d696a03a7ed6890f" target="_top" xlink:title="fonction appelée quand le bouton connexion est cliqué ">
<polygon fill="white" stroke="black" points="666,-0.5 666,-30.5 820,-30.5 820,-0.5 666,-0.5"/>
<text text-anchor="start" x="674" y="-18.5" font-family="Helvetica,sans-Serif" font-size="10.00">Ihm::on_pushButtonConnection</text>
<text text-anchor="middle" x="743" y="-7.5" font-family="Helvetica,sans-Serif" font-size="10.00">_clicked</text>
</a>
</g>
</g>
<!-- Node7&#45;&gt;Node8 -->
<g id="edge7" class="edge"><title>Node7&#45;&gt;Node8</title>
<path fill="none" stroke="midnightblue" d="M640.095,-15.5C648.666,-15.5 657.309,-15.5 665.745,-15.5"/>
<polygon fill="midnightblue" stroke="midnightblue" points="640.084,-12.0001 630.083,-15.5 640.083,-19.0001 640.084,-12.0001"/>
</g>
</g>
</svg>
