<?xml version="1.0" encoding="UTF-8" standalone="no"?>
<!DOCTYPE svg PUBLIC "-//W3C//DTD SVG 1.1//EN"
 "http://www.w3.org/Graphics/SVG/1.1/DTD/svg11.dtd">
<!-- Generated by graphviz version 2.38.0 (20140413.2041)
 -->
<!-- Title: Esp32::setHumidite Pages: 1 -->
<svg width="937pt" height="39pt"
 viewBox="0.00 0.00 937.00 39.00" xmlns="http://www.w3.org/2000/svg" xmlns:xlink="http://www.w3.org/1999/xlink">
<g id="graph0" class="graph" transform="scale(1 1) rotate(0) translate(4 35)">
<title>Esp32::setHumidite</title>
<polygon fill="white" stroke="none" points="-4,4 -4,-35 933,-35 933,4 -4,4"/>
<!-- Node1 -->
<g id="node1" class="node"><title>Node1</title>
<polygon fill="#bfbfbf" stroke="black" points="0,-6 0,-25 103,-25 103,-6 0,-6"/>
<text text-anchor="middle" x="51.5" y="-13" font-family="Helvetica,sans-Serif" font-size="10.00">Esp32::setHumidite</text>
</g>
<!-- Node2 -->
<g id="node2" class="node"><title>Node2</title>
<g id="a_node2"><a xlink:href="class_transmission.html#aa2977705ec793b10bf3212a13e67b097" target="_top" xlink:title="Décompose la trame reçue. ">
<polygon fill="white" stroke="black" points="139,-6 139,-25 273,-25 273,-6 139,-6"/>
<text text-anchor="middle" x="206" y="-13" font-family="Helvetica,sans-Serif" font-size="10.00">Transmission::decomposer</text>
</a>
</g>
</g>
<!-- Node1&#45;&gt;Node2 -->
<g id="edge1" class="edge"><title>Node1&#45;&gt;Node2</title>
<path fill="none" stroke="midnightblue" d="M113.386,-15.5C121.8,-15.5 130.475,-15.5 138.977,-15.5"/>
<polygon fill="midnightblue" stroke="midnightblue" points="113.28,-12.0001 103.28,-15.5 113.28,-19.0001 113.28,-12.0001"/>
</g>
<!-- Node3 -->
<g id="node3" class="node"><title>Node3</title>
<g id="a_node3"><a xlink:href="class_transmission.html#aa54a695d9d1c728ccab04f1d8030da41" target="_top" xlink:title="Récupérer la trame émise. ">
<polygon fill="white" stroke="black" points="309,-6 309,-25 425,-25 425,-6 309,-6"/>
<text text-anchor="middle" x="367" y="-13" font-family="Helvetica,sans-Serif" font-size="10.00">Transmission::recevoir</text>
</a>
</g>
</g>
<!-- Node2&#45;&gt;Node3 -->
<g id="edge2" class="edge"><title>Node2&#45;&gt;Node3</title>
<path fill="none" stroke="midnightblue" d="M283.129,-15.5C291.757,-15.5 300.438,-15.5 308.765,-15.5"/>
<polygon fill="midnightblue" stroke="midnightblue" points="283.049,-12.0001 273.049,-15.5 283.049,-19.0001 283.049,-12.0001"/>
</g>
<!-- Node4 -->
<g id="node4" class="node"><title>Node4</title>
<g id="a_node4"><a xlink:href="class_transmission.html#a41d15e65be472e058b28869f8dfad392" target="_top" xlink:title="Transmission::ouvrirPort">
<polygon fill="white" stroke="black" points="461,-6 461,-25 584,-25 584,-6 461,-6"/>
<text text-anchor="middle" x="522.5" y="-13" font-family="Helvetica,sans-Serif" font-size="10.00">Transmission::ouvrirPort</text>
</a>
</g>
</g>
<!-- Node3&#45;&gt;Node4 -->
<g id="edge3" class="edge"><title>Node3&#45;&gt;Node4</title>
<path fill="none" stroke="midnightblue" d="M435.418,-15.5C443.917,-15.5 452.57,-15.5 460.953,-15.5"/>
<polygon fill="midnightblue" stroke="midnightblue" points="435.158,-12.0001 425.158,-15.5 435.158,-19.0001 435.158,-12.0001"/>
</g>
<!-- Node5 -->
<g id="node5" class="node"><title>Node5</title>
<g id="a_node5"><a xlink:href="class_transmission.html#ab4e82ab30c181a8e0d0c0257ea0e1f56" target="_top" xlink:title="configure le port serie ">
<polygon fill="white" stroke="black" points="620,-6 620,-25 762,-25 762,-6 620,-6"/>
<text text-anchor="middle" x="691" y="-13" font-family="Helvetica,sans-Serif" font-size="10.00">Transmission::configurerPort</text>
</a>
</g>
</g>
<!-- Node4&#45;&gt;Node5 -->
<g id="edge4" class="edge"><title>Node4&#45;&gt;Node5</title>
<path fill="none" stroke="midnightblue" d="M594.296,-15.5C602.762,-15.5 611.403,-15.5 619.859,-15.5"/>
<polygon fill="midnightblue" stroke="midnightblue" points="594.081,-12.0001 584.081,-15.5 594.081,-19.0001 594.081,-12.0001"/>
</g>
<!-- Node6 -->
<g id="node6" class="node"><title>Node6</title>
<g id="a_node6"><a xlink:href="class_ihm.html#a9ce167b94baead6e318bbd0c5254f842" target="_top" xlink:title="bouton qui ouvre le port serie ">
<polygon fill="white" stroke="black" points="798,-0.5 798,-30.5 929,-30.5 929,-0.5 798,-0.5"/>
<text text-anchor="start" x="806" y="-18.5" font-family="Helvetica,sans-Serif" font-size="10.00">Ihm::on_pushButtonOuvrir</text>
<text text-anchor="middle" x="863.5" y="-7.5" font-family="Helvetica,sans-Serif" font-size="10.00">Port_clicked</text>
</a>
</g>
</g>
<!-- Node5&#45;&gt;Node6 -->
<g id="edge5" class="edge"><title>Node5&#45;&gt;Node6</title>
<path fill="none" stroke="midnightblue" d="M772.591,-15.5C781.043,-15.5 789.557,-15.5 797.798,-15.5"/>
<polygon fill="midnightblue" stroke="midnightblue" points="772.333,-12.0001 762.333,-15.5 772.333,-19.0001 772.333,-12.0001"/>
</g>
</g>
</svg>
