<?xml version="1.0" encoding="UTF-8" standalone="no"?>
<!DOCTYPE svg PUBLIC "-//W3C//DTD SVG 1.1//EN"
 "http://www.w3.org/Graphics/SVG/1.1/DTD/svg11.dtd">
<!-- Generated by graphviz version 2.38.0 (20140413.2041)
 -->
<!-- Title: Esp32::setLuminosite Pages: 1 -->
<svg width="945pt" height="39pt"
 viewBox="0.00 0.00 945.00 39.00" xmlns="http://www.w3.org/2000/svg" xmlns:xlink="http://www.w3.org/1999/xlink">
<g id="graph0" class="graph" transform="scale(1 1) rotate(0) translate(4 35)">
<title>Esp32::setLuminosite</title>
<polygon fill="white" stroke="none" points="-4,4 -4,-35 941,-35 941,4 -4,4"/>
<!-- Node1 -->
<g id="node1" class="node"><title>Node1</title>
<polygon fill="#bfbfbf" stroke="black" points="0,-6 0,-25 111,-25 111,-6 0,-6"/>
<text text-anchor="middle" x="55.5" y="-13" font-family="Helvetica,sans-Serif" font-size="10.00">Esp32::setLuminosite</text>
</g>
<!-- Node2 -->
<g id="node2" class="node"><title>Node2</title>
<g id="a_node2"><a xlink:href="class_transmission.html#aa2977705ec793b10bf3212a13e67b097" target="_top" xlink:title="Décompose la trame reçue. ">
<polygon fill="white" stroke="black" points="147,-6 147,-25 281,-25 281,-6 147,-6"/>
<text text-anchor="middle" x="214" y="-13" font-family="Helvetica,sans-Serif" font-size="10.00">Transmission::decomposer</text>
</a>
</g>
</g>
<!-- Node1&#45;&gt;Node2 -->
<g id="edge1" class="edge"><title>Node1&#45;&gt;Node2</title>
<path fill="none" stroke="midnightblue" d="M121.411,-15.5C129.862,-15.5 138.526,-15.5 146.995,-15.5"/>
<polygon fill="midnightblue" stroke="midnightblue" points="121.236,-12.0001 111.236,-15.5 121.236,-19.0001 121.236,-12.0001"/>
</g>
<!-- Node3 -->
<g id="node3" class="node"><title>Node3</title>
<g id="a_node3"><a xlink:href="class_transmission.html#aa54a695d9d1c728ccab04f1d8030da41" target="_top" xlink:title="Récupérer la trame émise. ">
<polygon fill="white" stroke="black" points="317,-6 317,-25 433,-25 433,-6 317,-6"/>
<text text-anchor="middle" x="375" y="-13" font-family="Helvetica,sans-Serif" font-size="10.00">Transmission::recevoir</text>
</a>
</g>
</g>
<!-- Node2&#45;&gt;Node3 -->
<g id="edge2" class="edge"><title>Node2&#45;&gt;Node3</title>
<path fill="none" stroke="midnightblue" d="M291.129,-15.5C299.757,-15.5 308.438,-15.5 316.765,-15.5"/>
<polygon fill="midnightblue" stroke="midnightblue" points="291.049,-12.0001 281.049,-15.5 291.049,-19.0001 291.049,-12.0001"/>
</g>
<!-- Node4 -->
<g id="node4" class="node"><title>Node4</title>
<g id="a_node4"><a xlink:href="class_transmission.html#a41d15e65be472e058b28869f8dfad392" target="_top" xlink:title="Transmission::ouvrirPort">
<polygon fill="white" stroke="black" points="469,-6 469,-25 592,-25 592,-6 469,-6"/>
<text text-anchor="middle" x="530.5" y="-13" font-family="Helvetica,sans-Serif" font-size="10.00">Transmission::ouvrirPort</text>
</a>
</g>
</g>
<!-- Node3&#45;&gt;Node4 -->
<g id="edge3" class="edge"><title>Node3&#45;&gt;Node4</title>
<path fill="none" stroke="midnightblue" d="M443.418,-15.5C451.917,-15.5 460.57,-15.5 468.953,-15.5"/>
<polygon fill="midnightblue" stroke="midnightblue" points="443.158,-12.0001 433.158,-15.5 443.158,-19.0001 443.158,-12.0001"/>
</g>
<!-- Node5 -->
<g id="node5" class="node"><title>Node5</title>
<g id="a_node5"><a xlink:href="class_transmission.html#ab4e82ab30c181a8e0d0c0257ea0e1f56" target="_top" xlink:title="configure le port serie ">
<polygon fill="white" stroke="black" points="628,-6 628,-25 770,-25 770,-6 628,-6"/>
<text text-anchor="middle" x="699" y="-13" font-family="Helvetica,sans-Serif" font-size="10.00">Transmission::configurerPort</text>
</a>
</g>
</g>
<!-- Node4&#45;&gt;Node5 -->
<g id="edge4" class="edge"><title>Node4&#45;&gt;Node5</title>
<path fill="none" stroke="midnightblue" d="M602.296,-15.5C610.762,-15.5 619.403,-15.5 627.859,-15.5"/>
<polygon fill="midnightblue" stroke="midnightblue" points="602.081,-12.0001 592.081,-15.5 602.081,-19.0001 602.081,-12.0001"/>
</g>
<!-- Node6 -->
<g id="node6" class="node"><title>Node6</title>
<g id="a_node6"><a xlink:href="class_ihm.html#a9ce167b94baead6e318bbd0c5254f842" target="_top" xlink:title="bouton qui ouvre le port serie ">
<polygon fill="white" stroke="black" points="806,-0.5 806,-30.5 937,-30.5 937,-0.5 806,-0.5"/>
<text text-anchor="start" x="814" y="-18.5" font-family="Helvetica,sans-Serif" font-size="10.00">Ihm::on_pushButtonOuvrir</text>
<text text-anchor="middle" x="871.5" y="-7.5" font-family="Helvetica,sans-Serif" font-size="10.00">Port_clicked</text>
</a>
</g>
</g>
<!-- Node5&#45;&gt;Node6 -->
<g id="edge5" class="edge"><title>Node5&#45;&gt;Node6</title>
<path fill="none" stroke="midnightblue" d="M780.591,-15.5C789.043,-15.5 797.557,-15.5 805.798,-15.5"/>
<polygon fill="midnightblue" stroke="midnightblue" points="780.333,-12.0001 770.333,-15.5 780.333,-19.0001 780.333,-12.0001"/>
</g>
</g>
</svg>
