<?xml version="1.0" encoding="UTF-8" standalone="no"?>
<!DOCTYPE svg PUBLIC "-//W3C//DTD SVG 1.1//EN"
 "http://www.w3.org/Graphics/SVG/1.1/DTD/svg11.dtd">
<!-- Generated by graphviz version 2.38.0 (20140413.2041)
 -->
<!-- Title: Transmission::ouvrirPort Pages: 1 -->
<svg width="631pt" height="484pt"
 viewBox="0.00 0.00 631.00 484.00" xmlns="http://www.w3.org/2000/svg" xmlns:xlink="http://www.w3.org/1999/xlink">
<g id="graph0" class="graph" transform="scale(1 1) rotate(0) translate(4 480)">
<title>Transmission::ouvrirPort</title>
<polygon fill="white" stroke="none" points="-4,4 -4,-480 627,-480 627,4 -4,4"/>
<!-- Node1 -->
<g id="node1" class="node"><title>Node1</title>
<polygon fill="#bfbfbf" stroke="black" points="0,-228.5 0,-247.5 123,-247.5 123,-228.5 0,-228.5"/>
<text text-anchor="middle" x="61.5" y="-235.5" font-family="Helvetica,sans-Serif" font-size="10.00">Transmission::ouvrirPort</text>
</g>
<!-- Node2 -->
<g id="node2" class="node"><title>Node2</title>
<g id="a_node2"><a xlink:href="class_transmission.html#aa54a695d9d1c728ccab04f1d8030da41" target="_top" xlink:title="Récupérer la trame émise. ">
<polygon fill="white" stroke="black" points="159,-228.5 159,-247.5 275,-247.5 275,-228.5 159,-228.5"/>
<text text-anchor="middle" x="217" y="-235.5" font-family="Helvetica,sans-Serif" font-size="10.00">Transmission::recevoir</text>
</a>
</g>
</g>
<!-- Node1&#45;&gt;Node2 -->
<g id="edge1" class="edge"><title>Node1&#45;&gt;Node2</title>
<path fill="none" stroke="midnightblue" d="M123.167,-238C131.508,-238 140.114,-238 148.567,-238"/>
<polygon fill="midnightblue" stroke="midnightblue" points="148.774,-241.5 158.774,-238 148.774,-234.5 148.774,-241.5"/>
</g>
<!-- Node3 -->
<g id="node3" class="node"><title>Node3</title>
<g id="a_node3"><a xlink:href="class_transmission.html#aa2977705ec793b10bf3212a13e67b097" target="_top" xlink:title="Décompose la trame reçue. ">
<polygon fill="white" stroke="black" points="311,-228.5 311,-247.5 445,-247.5 445,-228.5 311,-228.5"/>
<text text-anchor="middle" x="378" y="-235.5" font-family="Helvetica,sans-Serif" font-size="10.00">Transmission::decomposer</text>
</a>
</g>
</g>
<!-- Node2&#45;&gt;Node3 -->
<g id="edge2" class="edge"><title>Node2&#45;&gt;Node3</title>
<path fill="none" stroke="midnightblue" d="M275.403,-238C283.561,-238 292.056,-238 300.505,-238"/>
<polygon fill="midnightblue" stroke="midnightblue" points="300.764,-241.5 310.764,-238 300.764,-234.5 300.764,-241.5"/>
</g>
<!-- Node4 -->
<g id="node4" class="node"><title>Node4</title>
<g id="a_node4"><a xlink:href="class_esp32.html#a8e7a509ed5704bee4bc527ae297f14f0" target="_top" xlink:title="modifie la variable température avec celle&#45;ci passer en paramètre ">
<polygon fill="white" stroke="black" points="492.5,-456.5 492.5,-475.5 611.5,-475.5 611.5,-456.5 492.5,-456.5"/>
<text text-anchor="middle" x="552" y="-463.5" font-family="Helvetica,sans-Serif" font-size="10.00">Esp32::setTemperature</text>
</a>
</g>
</g>
<!-- Node3&#45;&gt;Node4 -->
<g id="edge3" class="edge"><title>Node3&#45;&gt;Node4</title>
<path fill="none" stroke="midnightblue" d="M380.77,-247.643C387.381,-280.843 413.789,-391.426 481,-447 483.038,-448.685 485.213,-450.222 487.488,-451.623"/>
<polygon fill="midnightblue" stroke="midnightblue" points="486.195,-454.895 496.685,-456.382 489.412,-448.678 486.195,-454.895"/>
</g>
<!-- Node5 -->
<g id="node5" class="node"><title>Node5</title>
<g id="a_node5"><a xlink:href="class_esp32.html#a709c261e1cea7b6bbd2ea1b09b1d7ec0" target="_top" xlink:title="modifie la variable de l&#39;uniter utiliser pour la temperature ">
<polygon fill="white" stroke="black" points="481,-418.5 481,-437.5 623,-437.5 623,-418.5 481,-418.5"/>
<text text-anchor="middle" x="552" y="-425.5" font-family="Helvetica,sans-Serif" font-size="10.00">Esp32::setTemperatureUnite</text>
</a>
</g>
</g>
<!-- Node3&#45;&gt;Node5 -->
<g id="edge4" class="edge"><title>Node3&#45;&gt;Node5</title>
<path fill="none" stroke="midnightblue" d="M381.961,-247.907C391.279,-277.335 422.891,-364.917 481,-409 483.478,-410.88 486.13,-412.574 488.899,-414.101"/>
<polygon fill="midnightblue" stroke="midnightblue" points="487.533,-417.326 498.07,-418.429 490.52,-410.996 487.533,-417.326"/>
</g>
<!-- Node6 -->
<g id="node6" class="node"><title>Node6</title>
<g id="a_node6"><a xlink:href="class_esp32.html#a85dc760b771c9233fa094a49679d9286" target="_top" xlink:title="modifie la variable ressentie avec celle&#45;ci passer en paramètre ">
<polygon fill="white" stroke="black" points="498,-380.5 498,-399.5 606,-399.5 606,-380.5 498,-380.5"/>
<text text-anchor="middle" x="552" y="-387.5" font-family="Helvetica,sans-Serif" font-size="10.00">Esp32::setRessentie</text>
</a>
</g>
</g>
<!-- Node3&#45;&gt;Node6 -->
<g id="edge5" class="edge"><title>Node3&#45;&gt;Node6</title>
<path fill="none" stroke="midnightblue" d="M383.633,-247.776C395.853,-272.474 431.459,-337.772 481,-371 484.056,-373.05 487.326,-374.879 490.721,-376.511"/>
<polygon fill="midnightblue" stroke="midnightblue" points="489.368,-379.739 499.942,-380.389 492.081,-373.286 489.368,-379.739"/>
</g>
<!-- Node7 -->
<g id="node7" class="node"><title>Node7</title>
<g id="a_node7"><a xlink:href="class_esp32.html#abf8a7f9942150b6c17cc5d1cc7b0fc8a" target="_top" xlink:title="modifie la variable de l&#39;uniter utiliser pour le ressentie ">
<polygon fill="white" stroke="black" points="486.5,-342.5 486.5,-361.5 617.5,-361.5 617.5,-342.5 486.5,-342.5"/>
<text text-anchor="middle" x="552" y="-349.5" font-family="Helvetica,sans-Serif" font-size="10.00">Esp32::setRessentieUnite</text>
</a>
</g>
</g>
<!-- Node3&#45;&gt;Node7 -->
<g id="edge6" class="edge"><title>Node3&#45;&gt;Node7</title>
<path fill="none" stroke="midnightblue" d="M386.589,-247.705C402.164,-266.951 439.758,-310.068 481,-333 485.008,-335.229 489.293,-337.208 493.695,-338.964"/>
<polygon fill="midnightblue" stroke="midnightblue" points="492.859,-342.382 503.454,-342.459 495.22,-335.792 492.859,-342.382"/>
</g>
<!-- Node8 -->
<g id="node8" class="node"><title>Node8</title>
<g id="a_node8"><a xlink:href="class_esp32.html#add0a064335e1ac6d96e1bbb7818d299a" target="_top" xlink:title="modifie la variable de l&#39;humidite ">
<polygon fill="white" stroke="black" points="500.5,-304.5 500.5,-323.5 603.5,-323.5 603.5,-304.5 500.5,-304.5"/>
<text text-anchor="middle" x="552" y="-311.5" font-family="Helvetica,sans-Serif" font-size="10.00">Esp32::setHumidite</text>
</a>
</g>
</g>
<!-- Node3&#45;&gt;Node8 -->
<g id="edge7" class="edge"><title>Node3&#45;&gt;Node8</title>
<path fill="none" stroke="midnightblue" d="M393.632,-247.695C412.941,-260.127 448.317,-281.668 481,-295 486.892,-297.403 493.185,-299.598 499.492,-301.573"/>
<polygon fill="midnightblue" stroke="midnightblue" points="498.775,-305.011 509.357,-304.494 500.762,-298.299 498.775,-305.011"/>
</g>
<!-- Node9 -->
<g id="node9" class="node"><title>Node9</title>
<g id="a_node9"><a xlink:href="class_esp32.html#ae9b2704f36bcd246668354d0ac06ea35" target="_top" xlink:title="modifie la variable de l&#39;uniter utiliser pour l&#39;humidite ">
<polygon fill="white" stroke="black" points="489,-266.5 489,-285.5 615,-285.5 615,-266.5 489,-266.5"/>
<text text-anchor="middle" x="552" y="-273.5" font-family="Helvetica,sans-Serif" font-size="10.00">Esp32::setHumiditeUnite</text>
</a>
</g>
</g>
<!-- Node3&#45;&gt;Node9 -->
<g id="edge8" class="edge"><title>Node3&#45;&gt;Node9</title>
<path fill="none" stroke="midnightblue" d="M422.403,-247.589C445.407,-252.671 473.851,-258.955 498.134,-264.32"/>
<polygon fill="midnightblue" stroke="midnightblue" points="497.39,-267.74 507.909,-266.48 498.9,-260.905 497.39,-267.74"/>
</g>
<!-- Node10 -->
<g id="node10" class="node"><title>Node10</title>
<g id="a_node10"><a xlink:href="class_esp32.html#ae60b48e8c808a5108402d5b9f03590ac" target="_top" xlink:title="modifie la variable de la luminosite ">
<polygon fill="white" stroke="black" points="496.5,-228.5 496.5,-247.5 607.5,-247.5 607.5,-228.5 496.5,-228.5"/>
<text text-anchor="middle" x="552" y="-235.5" font-family="Helvetica,sans-Serif" font-size="10.00">Esp32::setLuminosite</text>
</a>
</g>
</g>
<!-- Node3&#45;&gt;Node10 -->
<g id="edge9" class="edge"><title>Node3&#45;&gt;Node10</title>
<path fill="none" stroke="midnightblue" d="M445.008,-238C458.521,-238 472.731,-238 486.202,-238"/>
<polygon fill="midnightblue" stroke="midnightblue" points="486.334,-241.5 496.334,-238 486.334,-234.5 486.334,-241.5"/>
</g>
<!-- Node11 -->
<g id="node11" class="node"><title>Node11</title>
<g id="a_node11"><a xlink:href="class_esp32.html#a36450bcd23e7676d1f0a46e8bec31275" target="_top" xlink:title="modifie la variable de l&#39;uniter utiliser pour la luminosite ">
<polygon fill="white" stroke="black" points="485,-190.5 485,-209.5 619,-209.5 619,-190.5 485,-190.5"/>
<text text-anchor="middle" x="552" y="-197.5" font-family="Helvetica,sans-Serif" font-size="10.00">Esp32::setLuminositeUnite</text>
</a>
</g>
</g>
<!-- Node3&#45;&gt;Node11 -->
<g id="edge10" class="edge"><title>Node3&#45;&gt;Node11</title>
<path fill="none" stroke="midnightblue" d="M422.403,-228.411C445.407,-223.329 473.851,-217.045 498.134,-211.68"/>
<polygon fill="midnightblue" stroke="midnightblue" points="498.9,-215.095 507.909,-209.52 497.39,-208.26 498.9,-215.095"/>
</g>
<!-- Node12 -->
<g id="node12" class="node"><title>Node12</title>
<g id="a_node12"><a xlink:href="class_esp32.html#a583358abbf0b279dabb5a2976f1783de" target="_top" xlink:title="modifie la variable de la pression ">
<polygon fill="white" stroke="black" points="501,-152.5 501,-171.5 603,-171.5 603,-152.5 501,-152.5"/>
<text text-anchor="middle" x="552" y="-159.5" font-family="Helvetica,sans-Serif" font-size="10.00">Esp32::setPression</text>
</a>
</g>
</g>
<!-- Node3&#45;&gt;Node12 -->
<g id="edge11" class="edge"><title>Node3&#45;&gt;Node12</title>
<path fill="none" stroke="midnightblue" d="M393.632,-228.305C412.941,-215.873 448.317,-194.332 481,-181 486.892,-178.597 493.185,-176.402 499.492,-174.427"/>
<polygon fill="midnightblue" stroke="midnightblue" points="500.762,-177.701 509.357,-171.506 498.775,-170.989 500.762,-177.701"/>
</g>
<!-- Node13 -->
<g id="node13" class="node"><title>Node13</title>
<g id="a_node13"><a xlink:href="class_esp32.html#a3c6dd57f955aef0738c48be705538337" target="_top" xlink:title="modifie la variable de l&#39;uniter utiliser pour la pression ">
<polygon fill="white" stroke="black" points="489.5,-114.5 489.5,-133.5 614.5,-133.5 614.5,-114.5 489.5,-114.5"/>
<text text-anchor="middle" x="552" y="-121.5" font-family="Helvetica,sans-Serif" font-size="10.00">Esp32::setPressionUnite</text>
</a>
</g>
</g>
<!-- Node3&#45;&gt;Node13 -->
<g id="edge12" class="edge"><title>Node3&#45;&gt;Node13</title>
<path fill="none" stroke="midnightblue" d="M386.589,-228.295C402.164,-209.049 439.758,-165.932 481,-143 485.008,-140.771 489.293,-138.792 493.695,-137.036"/>
<polygon fill="midnightblue" stroke="midnightblue" points="495.22,-140.208 503.454,-133.541 492.859,-133.618 495.22,-140.208"/>
</g>
<!-- Node14 -->
<g id="node14" class="node"><title>Node14</title>
<g id="a_node14"><a xlink:href="class_esp32.html#aeb2268155501f27e36e6a7c6caa15412" target="_top" xlink:title="modifie la variable altitude passer en paramètre ">
<polygon fill="white" stroke="black" points="503.5,-76.5 503.5,-95.5 600.5,-95.5 600.5,-76.5 503.5,-76.5"/>
<text text-anchor="middle" x="552" y="-83.5" font-family="Helvetica,sans-Serif" font-size="10.00">Esp32::setAltitude</text>
</a>
</g>
</g>
<!-- Node3&#45;&gt;Node14 -->
<g id="edge13" class="edge"><title>Node3&#45;&gt;Node14</title>
<path fill="none" stroke="midnightblue" d="M383.633,-228.224C395.853,-203.526 431.459,-138.228 481,-105 484.974,-102.335 489.311,-100.042 493.815,-98.0697"/>
<polygon fill="midnightblue" stroke="midnightblue" points="495.15,-101.306 503.232,-94.4558 492.642,-94.7709 495.15,-101.306"/>
</g>
<!-- Node15 -->
<g id="node15" class="node"><title>Node15</title>
<g id="a_node15"><a xlink:href="class_esp32.html#a69b0c6a1c0a31e043b715be3fc40ded1" target="_top" xlink:title="modifie la variable de l&#39;uniter utiliser pour l&#39;altitude ">
<polygon fill="white" stroke="black" points="492,-38.5 492,-57.5 612,-57.5 612,-38.5 492,-38.5"/>
<text text-anchor="middle" x="552" y="-45.5" font-family="Helvetica,sans-Serif" font-size="10.00">Esp32::setAltitudeUnite</text>
</a>
</g>
</g>
<!-- Node3&#45;&gt;Node15 -->
<g id="edge14" class="edge"><title>Node3&#45;&gt;Node15</title>
<path fill="none" stroke="midnightblue" d="M381.961,-228.093C391.279,-198.665 422.891,-111.083 481,-67 483.478,-65.1199 486.13,-63.4257 488.899,-61.8991"/>
<polygon fill="midnightblue" stroke="midnightblue" points="490.52,-65.0041 498.07,-57.5712 487.533,-58.6735 490.52,-65.0041"/>
</g>
<!-- Node16 -->
<g id="node16" class="node"><title>Node16</title>
<g id="a_node16"><a xlink:href="class_esp32.html#a32d0d1abb41a3762a54e9f5a33b3b247" target="_top" xlink:title="modifie la variable de l&#39;etat de la led ">
<polygon fill="white" stroke="black" points="495.5,-0.5 495.5,-19.5 608.5,-19.5 608.5,-0.5 495.5,-0.5"/>
<text text-anchor="middle" x="552" y="-7.5" font-family="Helvetica,sans-Serif" font-size="10.00">Esp32::setCouleurLed</text>
</a>
</g>
</g>
<!-- Node3&#45;&gt;Node16 -->
<g id="edge15" class="edge"><title>Node3&#45;&gt;Node16</title>
<path fill="none" stroke="midnightblue" d="M380.77,-228.357C387.381,-195.157 413.789,-84.5736 481,-29 483.038,-27.3149 485.213,-25.7784 487.488,-24.3774"/>
<polygon fill="midnightblue" stroke="midnightblue" points="489.412,-27.3225 496.685,-19.6184 486.195,-21.1054 489.412,-27.3225"/>
</g>
</g>
</svg>
