<?xml version="1.0" encoding="UTF-8" standalone="no"?>
<!DOCTYPE svg PUBLIC "-//W3C//DTD SVG 1.1//EN"
 "http://www.w3.org/Graphics/SVG/1.1/DTD/svg11.dtd">
<!-- Generated by graphviz version 2.38.0 (20140413.2041)
 -->
<!-- Title: Transmission::fermerPort Pages: 1 -->
<svg width="317pt" height="66pt"
 viewBox="0.00 0.00 317.00 66.00" xmlns="http://www.w3.org/2000/svg" xmlns:xlink="http://www.w3.org/1999/xlink">
<g id="graph0" class="graph" transform="scale(1 1) rotate(0) translate(4 62)">
<title>Transmission::fermerPort</title>
<polygon fill="white" stroke="none" points="-4,4 -4,-62 313,-62 313,4 -4,4"/>
<!-- Node1 -->
<g id="node1" class="node"><title>Node1</title>
<polygon fill="#bfbfbf" stroke="black" points="0,-19.5 0,-38.5 127,-38.5 127,-19.5 0,-19.5"/>
<text text-anchor="middle" x="63.5" y="-26.5" font-family="Helvetica,sans-Serif" font-size="10.00">Transmission::fermerPort</text>
</g>
<!-- Node2 -->
<g id="node2" class="node"><title>Node2</title>
<g id="a_node2"><a xlink:href="class_ihm.html#af0426507c2130aefd01bdb4f825ae168" target="_top" xlink:title="Méthode qui actualise l&#39;etat de la led dans ihm et change le radiobutton activer en fontion de l&#39;etat...">
<polygon fill="white" stroke="black" points="182.5,-38.5 182.5,-57.5 289.5,-57.5 289.5,-38.5 182.5,-38.5"/>
<text text-anchor="middle" x="236" y="-45.5" font-family="Helvetica,sans-Serif" font-size="10.00">Ihm::modifierEtatLed</text>
</a>
</g>
</g>
<!-- Node1&#45;&gt;Node2 -->
<g id="edge1" class="edge"><title>Node1&#45;&gt;Node2</title>
<path fill="none" stroke="midnightblue" d="M137.363,-37.1196C152.46,-38.802 168.087,-40.5434 182.295,-42.1267"/>
<polygon fill="midnightblue" stroke="midnightblue" points="137.346,-33.5961 127.02,-35.967 136.571,-40.5531 137.346,-33.5961"/>
</g>
<!-- Node3 -->
<g id="node3" class="node"><title>Node3</title>
<g id="a_node3"><a xlink:href="class_transmission.html#adcdc6012d99ddb1d0c3159d50984e146" target="_top" xlink:title="destructeur de la classe Transmission ">
<polygon fill="white" stroke="black" points="163,-0.5 163,-19.5 309,-19.5 309,-0.5 163,-0.5"/>
<text text-anchor="middle" x="236" y="-7.5" font-family="Helvetica,sans-Serif" font-size="10.00">Transmission::~Transmission</text>
</a>
</g>
</g>
<!-- Node1&#45;&gt;Node3 -->
<g id="edge2" class="edge"><title>Node1&#45;&gt;Node3</title>
<path fill="none" stroke="midnightblue" d="M137.008,-20.92C145.603,-19.9621 154.376,-18.9845 162.965,-18.0274"/>
<polygon fill="midnightblue" stroke="midnightblue" points="136.571,-17.4469 127.02,-22.033 137.346,-24.4039 136.571,-17.4469"/>
</g>
</g>
</svg>
