<?xml version="1.0" encoding="UTF-8" standalone="no"?>
<!DOCTYPE svg PUBLIC "-//W3C//DTD SVG 1.1//EN"
 "http://www.w3.org/Graphics/SVG/1.1/DTD/svg11.dtd">
<!-- Generated by graphviz version 2.38.0 (20140413.2041)
 -->
<!-- Title: Transmission Pages: 1 -->
<svg width="219pt" height="783pt"
 viewBox="0.00 0.00 219.00 783.00" xmlns="http://www.w3.org/2000/svg" xmlns:xlink="http://www.w3.org/1999/xlink">
<g id="graph0" class="graph" transform="scale(1 1) rotate(0) translate(4 779)">
<title>Transmission</title>
<polygon fill="white" stroke="none" points="-4,4 -4,-779 215,-779 215,4 -4,4"/>
<!-- Node1 -->
<g id="node1" class="node"><title>Node1</title>
<polygon fill="#bfbfbf" stroke="black" points="0,-0.5 0,-332.5 151,-332.5 151,-0.5 0,-0.5"/>
<text text-anchor="middle" x="75.5" y="-320.5" font-family="Helvetica,sans-Serif" font-size="10.00">Transmission</text>
<polyline fill="none" stroke="black" points="0,-313.5 151,-313.5 "/>
<text text-anchor="start" x="8" y="-301.5" font-family="Helvetica,sans-Serif" font-size="10.00">&#45; port</text>
<text text-anchor="start" x="8" y="-290.5" font-family="Helvetica,sans-Serif" font-size="10.00">&#45; scan</text>
<text text-anchor="start" x="8" y="-279.5" font-family="Helvetica,sans-Serif" font-size="10.00">&#45; m_controller</text>
<text text-anchor="start" x="8" y="-268.5" font-family="Helvetica,sans-Serif" font-size="10.00">&#45; socket</text>
<text text-anchor="start" x="8" y="-257.5" font-family="Helvetica,sans-Serif" font-size="10.00">&#45; trame</text>
<text text-anchor="start" x="8" y="-246.5" font-family="Helvetica,sans-Serif" font-size="10.00">&#45; statutBluetooth</text>
<text text-anchor="start" x="8" y="-235.5" font-family="Helvetica,sans-Serif" font-size="10.00">&#45; appareilDisponible</text>
<polyline fill="none" stroke="black" points="0,-228.5 151,-228.5 "/>
<text text-anchor="start" x="8" y="-216.5" font-family="Helvetica,sans-Serif" font-size="10.00">+ Transmission()</text>
<text text-anchor="start" x="8" y="-205.5" font-family="Helvetica,sans-Serif" font-size="10.00">+ ~Transmission()</text>
<text text-anchor="start" x="8" y="-194.5" font-family="Helvetica,sans-Serif" font-size="10.00">+ getTrame()</text>
<text text-anchor="start" x="8" y="-183.5" font-family="Helvetica,sans-Serif" font-size="10.00">+ getEsp32()</text>
<text text-anchor="start" x="8" y="-172.5" font-family="Helvetica,sans-Serif" font-size="10.00">+ getAppareilDisponible()</text>
<text text-anchor="start" x="8" y="-161.5" font-family="Helvetica,sans-Serif" font-size="10.00">+ getStatutBluetooth()</text>
<text text-anchor="start" x="8" y="-150.5" font-family="Helvetica,sans-Serif" font-size="10.00">+ setStatutBluetooth()</text>
<text text-anchor="start" x="8" y="-139.5" font-family="Helvetica,sans-Serif" font-size="10.00">+ setAppareilDisponible()</text>
<text text-anchor="start" x="8" y="-128.5" font-family="Helvetica,sans-Serif" font-size="10.00">+ configurerPort()</text>
<text text-anchor="start" x="8" y="-117.5" font-family="Helvetica,sans-Serif" font-size="10.00">+ fermerPort()</text>
<text text-anchor="start" x="8" y="-106.5" font-family="Helvetica,sans-Serif" font-size="10.00">+ envoyerDonnees()</text>
<text text-anchor="start" x="8" y="-95.5" font-family="Helvetica,sans-Serif" font-size="10.00">+ ouvrirPort()</text>
<text text-anchor="start" x="8" y="-84.5" font-family="Helvetica,sans-Serif" font-size="10.00">+ demarrerScan()</text>
<text text-anchor="start" x="8" y="-73.5" font-family="Helvetica,sans-Serif" font-size="10.00">+ connecterAppareilBluetooth()</text>
<text text-anchor="start" x="8" y="-62.5" font-family="Helvetica,sans-Serif" font-size="10.00">+ recevoir()</text>
<text text-anchor="start" x="8" y="-51.5" font-family="Helvetica,sans-Serif" font-size="10.00">+ ajouterAppareil()</text>
<text text-anchor="start" x="8" y="-40.5" font-family="Helvetica,sans-Serif" font-size="10.00">+ scanTerminer()</text>
<text text-anchor="start" x="8" y="-29.5" font-family="Helvetica,sans-Serif" font-size="10.00">+ socketConnected()</text>
<text text-anchor="start" x="8" y="-18.5" font-family="Helvetica,sans-Serif" font-size="10.00">+ socketDisconnected()</text>
<text text-anchor="start" x="8" y="-7.5" font-family="Helvetica,sans-Serif" font-size="10.00">&#45; decomposer()</text>
</g>
<!-- Node2 -->
<g id="node2" class="node"><title>Node2</title>
<polygon fill="white" stroke="#bfbfbf" points="61,-717.5 61,-774.5 114,-774.5 114,-717.5 61,-717.5"/>
<text text-anchor="middle" x="87.5" y="-762.5" font-family="Helvetica,sans-Serif" font-size="10.00">QObject</text>
<polyline fill="none" stroke="#bfbfbf" points="61,-755.5 114,-755.5 "/>
<text text-anchor="middle" x="87.5" y="-743.5" font-family="Helvetica,sans-Serif" font-size="10.00"> </text>
<polyline fill="none" stroke="#bfbfbf" points="61,-736.5 114,-736.5 "/>
<text text-anchor="middle" x="87.5" y="-724.5" font-family="Helvetica,sans-Serif" font-size="10.00"> </text>
</g>
<!-- Node2&#45;&gt;Node1 -->
<g id="edge1" class="edge"><title>Node2&#45;&gt;Node1</title>
<path fill="none" stroke="midnightblue" d="M81.4036,-707.152C80.2106,-698.268 79.1337,-688.821 78.5,-680 70.1793,-564.183 69.5623,-433.267 70.9569,-332.741"/>
<polygon fill="none" stroke="midnightblue" points="77.9664,-707.841 82.8379,-717.25 84.8968,-706.857 77.9664,-707.841"/>
</g>
<!-- Node3 -->
<g id="node3" class="node"><title>Node3</title>
<g id="a_node3"><a xlink:href="class_esp32.html" target="_top" xlink:title="Declaration de la classe Esp32. ">
<polygon fill="white" stroke="black" points="88,-380.5 88,-679.5 211,-679.5 211,-380.5 88,-380.5"/>
<text text-anchor="middle" x="149.5" y="-667.5" font-family="Helvetica,sans-Serif" font-size="10.00">Esp32</text>
<polyline fill="none" stroke="black" points="88,-660.5 211,-660.5 "/>
<text text-anchor="start" x="96" y="-648.5" font-family="Helvetica,sans-Serif" font-size="10.00">&#45; temperature</text>
<text text-anchor="start" x="96" y="-637.5" font-family="Helvetica,sans-Serif" font-size="10.00">&#45; temperatureUnite</text>
<text text-anchor="start" x="96" y="-626.5" font-family="Helvetica,sans-Serif" font-size="10.00">&#45; ressentie</text>
<text text-anchor="start" x="96" y="-615.5" font-family="Helvetica,sans-Serif" font-size="10.00">&#45; ressentieUnite</text>
<text text-anchor="start" x="96" y="-604.5" font-family="Helvetica,sans-Serif" font-size="10.00">&#45; humidite</text>
<text text-anchor="start" x="96" y="-593.5" font-family="Helvetica,sans-Serif" font-size="10.00">&#45; humiditeUnite</text>
<text text-anchor="start" x="96" y="-582.5" font-family="Helvetica,sans-Serif" font-size="10.00">&#45; luminosite</text>
<text text-anchor="start" x="96" y="-571.5" font-family="Helvetica,sans-Serif" font-size="10.00">&#45; luminositeUnite</text>
<text text-anchor="start" x="96" y="-560.5" font-family="Helvetica,sans-Serif" font-size="10.00">&#45; pression</text>
<text text-anchor="start" x="96" y="-549.5" font-family="Helvetica,sans-Serif" font-size="10.00">&#45; pressionUnite</text>
<text text-anchor="start" x="96" y="-538.5" font-family="Helvetica,sans-Serif" font-size="10.00">&#45; altitude</text>
<text text-anchor="start" x="96" y="-527.5" font-family="Helvetica,sans-Serif" font-size="10.00">&#45; altitudeUnite</text>
<text text-anchor="start" x="96" y="-516.5" font-family="Helvetica,sans-Serif" font-size="10.00">&#45; couleur</text>
<polyline fill="none" stroke="black" points="88,-509.5 211,-509.5 "/>
<text text-anchor="start" x="96" y="-497.5" font-family="Helvetica,sans-Serif" font-size="10.00">+ Esp32()</text>
<text text-anchor="start" x="96" y="-486.5" font-family="Helvetica,sans-Serif" font-size="10.00">+ getTemperature()</text>
<text text-anchor="start" x="96" y="-475.5" font-family="Helvetica,sans-Serif" font-size="10.00">+ getRessentie()</text>
<text text-anchor="start" x="96" y="-464.5" font-family="Helvetica,sans-Serif" font-size="10.00">+ getTemperatureUnite()</text>
<text text-anchor="start" x="96" y="-453.5" font-family="Helvetica,sans-Serif" font-size="10.00">+ getRessentieUnite()</text>
<text text-anchor="start" x="96" y="-442.5" font-family="Helvetica,sans-Serif" font-size="10.00">+ getHumidite()</text>
<text text-anchor="start" x="96" y="-431.5" font-family="Helvetica,sans-Serif" font-size="10.00">+ getLuminosite()</text>
<text text-anchor="start" x="96" y="-420.5" font-family="Helvetica,sans-Serif" font-size="10.00">+ getHumiditeUnite()</text>
<text text-anchor="start" x="96" y="-409.5" font-family="Helvetica,sans-Serif" font-size="10.00">+ getLuminositeUnite()</text>
<text text-anchor="start" x="96" y="-398.5" font-family="Helvetica,sans-Serif" font-size="10.00">+ getPression()</text>
<text text-anchor="start" x="96" y="-387.5" font-family="Helvetica,sans-Serif" font-size="10.00">et 17 de plus...</text>
</a>
</g>
</g>
<!-- Node2&#45;&gt;Node3 -->
<g id="edge3" class="edge"><title>Node2&#45;&gt;Node3</title>
<path fill="none" stroke="midnightblue" d="M98.3093,-707.69C100.758,-699.238 103.505,-689.759 106.42,-679.696"/>
<polygon fill="none" stroke="midnightblue" points="94.8996,-706.882 95.4785,-717.461 101.623,-708.83 94.8996,-706.882"/>
</g>
<!-- Node3&#45;&gt;Node1 -->
<g id="edge2" class="edge"><title>Node3&#45;&gt;Node1</title>
<path fill="none" stroke="#404040" d="M119.081,-380.399C116.659,-368.569 114.199,-356.548 111.743,-344.55"/>
<polygon fill="none" stroke="#404040" points="111.696,-344.323 106.574,-339.247 109.29,-332.566 114.412,-337.642 111.696,-344.323"/>
<text text-anchor="middle" x="131" y="-354" font-family="Helvetica,sans-Serif" font-size="10.00"> &#45;esp32</text>
</g>
</g>
</svg>
