<?xml version="1.0" encoding="UTF-8" standalone="no"?>
<!DOCTYPE svg PUBLIC "-//W3C//DTD SVG 1.1//EN"
 "http://www.w3.org/Graphics/SVG/1.1/DTD/svg11.dtd">
<!-- Generated by graphviz version 2.38.0 (20140413.2041)
 -->
<!-- Title: Transmission::portFerme Pages: 1 -->
<svg width="506pt" height="66pt"
 viewBox="0.00 0.00 506.00 66.00" xmlns="http://www.w3.org/2000/svg" xmlns:xlink="http://www.w3.org/1999/xlink">
<g id="graph0" class="graph" transform="scale(1 1) rotate(0) translate(4 62)">
<title>Transmission::portFerme</title>
<polygon fill="white" stroke="none" points="-4,4 -4,-62 502,-62 502,4 -4,4"/>
<!-- Node1 -->
<g id="node1" class="node"><title>Node1</title>
<polygon fill="#bfbfbf" stroke="black" points="0,-19.5 0,-38.5 125,-38.5 125,-19.5 0,-19.5"/>
<text text-anchor="middle" x="62.5" y="-26.5" font-family="Helvetica,sans-Serif" font-size="10.00">Transmission::portFerme</text>
</g>
<!-- Node2 -->
<g id="node2" class="node"><title>Node2</title>
<g id="a_node2"><a xlink:href="class_transmission.html#a14d36ad615852d6b630fbddf5787f3a3" target="_top" xlink:title="cette methode ferme le port serie ">
<polygon fill="white" stroke="black" points="175,-0.5 175,-19.5 302,-19.5 302,-0.5 175,-0.5"/>
<text text-anchor="middle" x="238.5" y="-7.5" font-family="Helvetica,sans-Serif" font-size="10.00">Transmission::fermerPort</text>
</a>
</g>
</g>
<!-- Node1&#45;&gt;Node2 -->
<g id="edge1" class="edge"><title>Node1&#45;&gt;Node2</title>
<path fill="none" stroke="midnightblue" d="M135.293,-21.1606C148.462,-19.7225 162.112,-18.232 174.984,-16.8265"/>
<polygon fill="midnightblue" stroke="midnightblue" points="134.897,-17.6829 125.336,-22.2478 135.657,-24.6415 134.897,-17.6829"/>
</g>
<!-- Node5 -->
<g id="node5" class="node"><title>Node5</title>
<g id="a_node5"><a xlink:href="class_transmission.html#a21e35372ada18cd35411c0e8c0984fd7" target="_top" xlink:title="envoyer les données par le port serie ">
<polygon fill="white" stroke="black" points="161,-38.5 161,-57.5 316,-57.5 316,-38.5 161,-38.5"/>
<text text-anchor="middle" x="238.5" y="-45.5" font-family="Helvetica,sans-Serif" font-size="10.00">Transmission::envoyerDonnees</text>
</a>
</g>
</g>
<!-- Node1&#45;&gt;Node5 -->
<g id="edge4" class="edge"><title>Node1&#45;&gt;Node5</title>
<path fill="none" stroke="midnightblue" d="M135.471,-36.8589C143.876,-37.7767 152.475,-38.7157 160.94,-39.64"/>
<polygon fill="midnightblue" stroke="midnightblue" points="135.657,-33.3585 125.336,-35.7522 134.897,-40.3171 135.657,-33.3585"/>
</g>
<!-- Node3 -->
<g id="node3" class="node"><title>Node3</title>
<g id="a_node3"><a xlink:href="class_ihm.html#af0426507c2130aefd01bdb4f825ae168" target="_top" xlink:title="Méthode qui actualise l&#39;etat de la led dans ihm et change le radiobutton activer en fontion de l&#39;etat...">
<polygon fill="white" stroke="black" points="371.5,-38.5 371.5,-57.5 478.5,-57.5 478.5,-38.5 371.5,-38.5"/>
<text text-anchor="middle" x="425" y="-45.5" font-family="Helvetica,sans-Serif" font-size="10.00">Ihm::modifierEtatLed</text>
</a>
</g>
</g>
<!-- Node2&#45;&gt;Node3 -->
<g id="edge2" class="edge"><title>Node2&#45;&gt;Node3</title>
<path fill="none" stroke="midnightblue" d="M295.867,-21.6095C322.107,-27.014 352.936,-33.3635 377.778,-38.4799"/>
<polygon fill="midnightblue" stroke="midnightblue" points="296.558,-18.1783 286.057,-19.589 295.145,-25.0344 296.558,-18.1783"/>
</g>
<!-- Node4 -->
<g id="node4" class="node"><title>Node4</title>
<g id="a_node4"><a xlink:href="class_transmission.html#adcdc6012d99ddb1d0c3159d50984e146" target="_top" xlink:title="destructeur de la classe Transmission ">
<polygon fill="white" stroke="black" points="352,-0.5 352,-19.5 498,-19.5 498,-0.5 352,-0.5"/>
<text text-anchor="middle" x="425" y="-7.5" font-family="Helvetica,sans-Serif" font-size="10.00">Transmission::~Transmission</text>
</a>
</g>
</g>
<!-- Node2&#45;&gt;Node4 -->
<g id="edge3" class="edge"><title>Node2&#45;&gt;Node4</title>
<path fill="none" stroke="midnightblue" d="M312.491,-10C325.465,-10 338.971,-10 351.92,-10"/>
<polygon fill="midnightblue" stroke="midnightblue" points="312.221,-6.5001 302.221,-10 312.221,-13.5001 312.221,-6.5001"/>
</g>
<!-- Node5&#45;&gt;Node3 -->
<g id="edge5" class="edge"><title>Node5&#45;&gt;Node3</title>
<path fill="none" stroke="midnightblue" d="M326.242,-48C341.684,-48 357.333,-48 371.45,-48"/>
<polygon fill="midnightblue" stroke="midnightblue" points="326.142,-44.5001 316.142,-48 326.142,-51.5001 326.142,-44.5001"/>
</g>
</g>
</svg>
