<?xml version="1.0" encoding="UTF-8" standalone="no"?>
<!DOCTYPE svg PUBLIC "-//W3C//DTD SVG 1.1//EN"
 "http://www.w3.org/Graphics/SVG/1.1/DTD/svg11.dtd">
<!-- Generated by graphviz version 2.38.0 (20140413.2041)
 -->
<!-- Title: Transmission::ouvrirPort Pages: 1 -->
<svg width="452pt" height="28pt"
 viewBox="0.00 0.00 452.00 28.00" xmlns="http://www.w3.org/2000/svg" xmlns:xlink="http://www.w3.org/1999/xlink">
<g id="graph0" class="graph" transform="scale(1 1) rotate(0) translate(4 24)">
<title>Transmission::ouvrirPort</title>
<polygon fill="white" stroke="none" points="-4,4 -4,-24 448,-24 448,4 -4,4"/>
<!-- Node1 -->
<g id="node1" class="node"><title>Node1</title>
<polygon fill="#bfbfbf" stroke="black" points="0,-0.5 0,-19.5 123,-19.5 123,-0.5 0,-0.5"/>
<text text-anchor="middle" x="61.5" y="-7.5" font-family="Helvetica,sans-Serif" font-size="10.00">Transmission::ouvrirPort</text>
</g>
<!-- Node2 -->
<g id="node2" class="node"><title>Node2</title>
<g id="a_node2"><a xlink:href="class_transmission.html#ab4e82ab30c181a8e0d0c0257ea0e1f56" target="_top" xlink:title="configure le port serie ">
<polygon fill="white" stroke="black" points="159,-0.5 159,-19.5 301,-19.5 301,-0.5 159,-0.5"/>
<text text-anchor="middle" x="230" y="-7.5" font-family="Helvetica,sans-Serif" font-size="10.00">Transmission::configurerPort</text>
</a>
</g>
</g>
<!-- Node1&#45;&gt;Node2 -->
<g id="edge1" class="edge"><title>Node1&#45;&gt;Node2</title>
<path fill="none" stroke="midnightblue" d="M133.296,-10C141.762,-10 150.403,-10 158.859,-10"/>
<polygon fill="midnightblue" stroke="midnightblue" points="133.081,-6.5001 123.081,-10 133.081,-13.5001 133.081,-6.5001"/>
</g>
<!-- Node3 -->
<g id="node3" class="node"><title>Node3</title>
<g id="a_node3"><a xlink:href="class_ihm.html#af0426507c2130aefd01bdb4f825ae168" target="_top" xlink:title="Méthode qui actualise l&#39;etat de la led dans ihm et change le radiobutton activer en fontion de l&#39;etat...">
<polygon fill="white" stroke="black" points="337,-0.5 337,-19.5 444,-19.5 444,-0.5 337,-0.5"/>
<text text-anchor="middle" x="390.5" y="-7.5" font-family="Helvetica,sans-Serif" font-size="10.00">Ihm::modifierEtatLed</text>
</a>
</g>
</g>
<!-- Node2&#45;&gt;Node3 -->
<g id="edge2" class="edge"><title>Node2&#45;&gt;Node3</title>
<path fill="none" stroke="midnightblue" d="M311.528,-10C320.132,-10 328.715,-10 336.873,-10"/>
<polygon fill="midnightblue" stroke="midnightblue" points="311.443,-6.5001 301.443,-10 311.443,-13.5001 311.443,-6.5001"/>
</g>
</g>
</svg>
