<?xml version="1.0" encoding="UTF-8" standalone="no"?>
<!DOCTYPE svg PUBLIC "-//W3C//DTD SVG 1.1//EN"
 "http://www.w3.org/Graphics/SVG/1.1/DTD/svg11.dtd">
<!-- Generated by graphviz version 2.38.0 (20140413.2041)
 -->
<!-- Title: Esp32::setLuminosite Pages: 1 -->
<svg width="993pt" height="83pt"
 viewBox="0.00 0.00 993.00 83.00" xmlns="http://www.w3.org/2000/svg" xmlns:xlink="http://www.w3.org/1999/xlink">
<g id="graph0" class="graph" transform="scale(1 1) rotate(0) translate(4 79)">
<title>Esp32::setLuminosite</title>
<polygon fill="white" stroke="none" points="-4,4 -4,-79 989,-79 989,4 -4,4"/>
<!-- Node1 -->
<g id="node1" class="node"><title>Node1</title>
<polygon fill="#bfbfbf" stroke="black" points="0,-28 0,-47 111,-47 111,-28 0,-28"/>
<text text-anchor="middle" x="55.5" y="-35" font-family="Helvetica,sans-Serif" font-size="10.00">Esp32::setLuminosite</text>
</g>
<!-- Node2 -->
<g id="node2" class="node"><title>Node2</title>
<g id="a_node2"><a xlink:href="class_transmission.html#aa2977705ec793b10bf3212a13e67b097" target="_top" xlink:title="Décompose la trame reçue. ">
<polygon fill="white" stroke="black" points="147,-28 147,-47 281,-47 281,-28 147,-28"/>
<text text-anchor="middle" x="214" y="-35" font-family="Helvetica,sans-Serif" font-size="10.00">Transmission::decomposer</text>
</a>
</g>
</g>
<!-- Node1&#45;&gt;Node2 -->
<g id="edge1" class="edge"><title>Node1&#45;&gt;Node2</title>
<path fill="none" stroke="midnightblue" d="M121.411,-37.5C129.862,-37.5 138.526,-37.5 146.995,-37.5"/>
<polygon fill="midnightblue" stroke="midnightblue" points="121.236,-34.0001 111.236,-37.5 121.236,-41.0001 121.236,-34.0001"/>
</g>
<!-- Node3 -->
<g id="node3" class="node"><title>Node3</title>
<g id="a_node3"><a xlink:href="class_transmission.html#aa54a695d9d1c728ccab04f1d8030da41" target="_top" xlink:title="Récupérer la trame émise. ">
<polygon fill="white" stroke="black" points="317,-28 317,-47 433,-47 433,-28 317,-28"/>
<text text-anchor="middle" x="375" y="-35" font-family="Helvetica,sans-Serif" font-size="10.00">Transmission::recevoir</text>
</a>
</g>
</g>
<!-- Node2&#45;&gt;Node3 -->
<g id="edge2" class="edge"><title>Node2&#45;&gt;Node3</title>
<path fill="none" stroke="midnightblue" d="M291.129,-37.5C299.757,-37.5 308.438,-37.5 316.765,-37.5"/>
<polygon fill="midnightblue" stroke="midnightblue" points="291.049,-34.0001 281.049,-37.5 291.049,-41.0001 291.049,-34.0001"/>
</g>
<!-- Node4 -->
<g id="node4" class="node"><title>Node4</title>
<g id="a_node4"><a xlink:href="class_transmission.html#a41d15e65be472e058b28869f8dfad392" target="_top" xlink:title="Transmission::ouvrirPort">
<polygon fill="white" stroke="black" points="487,-50 487,-69 610,-69 610,-50 487,-50"/>
<text text-anchor="middle" x="548.5" y="-57" font-family="Helvetica,sans-Serif" font-size="10.00">Transmission::ouvrirPort</text>
</a>
</g>
</g>
<!-- Node3&#45;&gt;Node4 -->
<g id="edge3" class="edge"><title>Node3&#45;&gt;Node4</title>
<path fill="none" stroke="midnightblue" d="M443.388,-46.1445C457.715,-47.9824 472.76,-49.9123 486.819,-51.7158"/>
<polygon fill="midnightblue" stroke="midnightblue" points="443.471,-42.6266 433.107,-44.8257 442.58,-49.5697 443.471,-42.6266"/>
</g>
<!-- Node7 -->
<g id="node7" class="node"><title>Node7</title>
<g id="a_node7"><a xlink:href="class_transmission.html#a5a21d201dd0096f96aec12264c2f03d9" target="_top" xlink:title="Permets de se connecter à un appareil. ">
<polygon fill="white" stroke="black" points="469,-0.5 469,-30.5 628,-30.5 628,-0.5 469,-0.5"/>
<text text-anchor="start" x="477" y="-18.5" font-family="Helvetica,sans-Serif" font-size="10.00">Transmission::connecterAppareil</text>
<text text-anchor="middle" x="548.5" y="-7.5" font-family="Helvetica,sans-Serif" font-size="10.00">Bluetooth</text>
</a>
</g>
</g>
<!-- Node3&#45;&gt;Node7 -->
<g id="edge6" class="edge"><title>Node3&#45;&gt;Node7</title>
<path fill="none" stroke="midnightblue" d="M443.249,-28.8733C451.685,-27.7911 460.372,-26.6768 468.961,-25.575"/>
<polygon fill="midnightblue" stroke="midnightblue" points="442.58,-25.4303 433.107,-30.1743 443.471,-32.3734 442.58,-25.4303"/>
</g>
<!-- Node5 -->
<g id="node5" class="node"><title>Node5</title>
<g id="a_node5"><a xlink:href="class_transmission.html#ab4e82ab30c181a8e0d0c0257ea0e1f56" target="_top" xlink:title="configure le port serie ">
<polygon fill="white" stroke="black" points="670,-50 670,-69 812,-69 812,-50 670,-50"/>
<text text-anchor="middle" x="741" y="-57" font-family="Helvetica,sans-Serif" font-size="10.00">Transmission::configurerPort</text>
</a>
</g>
</g>
<!-- Node4&#45;&gt;Node5 -->
<g id="edge4" class="edge"><title>Node4&#45;&gt;Node5</title>
<path fill="none" stroke="midnightblue" d="M620.04,-59.5C636.35,-59.5 653.699,-59.5 669.987,-59.5"/>
<polygon fill="midnightblue" stroke="midnightblue" points="620.037,-56.0001 610.037,-59.5 620.037,-63.0001 620.037,-56.0001"/>
</g>
<!-- Node6 -->
<g id="node6" class="node"><title>Node6</title>
<g id="a_node6"><a xlink:href="class_ihm.html#a9ce167b94baead6e318bbd0c5254f842" target="_top" xlink:title="bouton qui ouvre le port serie ">
<polygon fill="white" stroke="black" points="854,-44.5 854,-74.5 985,-74.5 985,-44.5 854,-44.5"/>
<text text-anchor="start" x="862" y="-62.5" font-family="Helvetica,sans-Serif" font-size="10.00">Ihm::on_pushButtonOuvrir</text>
<text text-anchor="middle" x="919.5" y="-51.5" font-family="Helvetica,sans-Serif" font-size="10.00">Port_clicked</text>
</a>
</g>
</g>
<!-- Node5&#45;&gt;Node6 -->
<g id="edge5" class="edge"><title>Node5&#45;&gt;Node6</title>
<path fill="none" stroke="midnightblue" d="M822.099,-59.5C832.693,-59.5 843.445,-59.5 853.738,-59.5"/>
<polygon fill="midnightblue" stroke="midnightblue" points="822.011,-56.0001 812.011,-59.5 822.011,-63.0001 822.011,-56.0001"/>
</g>
<!-- Node8 -->
<g id="node8" class="node"><title>Node8</title>
<g id="a_node8"><a xlink:href="class_ihm.html#ac154e42263a45f12d696a03a7ed6890f" target="_top" xlink:title="fonction appelée quand le bouton connexion est cliqué ">
<polygon fill="white" stroke="black" points="664,-0.5 664,-30.5 818,-30.5 818,-0.5 664,-0.5"/>
<text text-anchor="start" x="672" y="-18.5" font-family="Helvetica,sans-Serif" font-size="10.00">Ihm::on_pushButtonConnection</text>
<text text-anchor="middle" x="741" y="-7.5" font-family="Helvetica,sans-Serif" font-size="10.00">_clicked</text>
</a>
</g>
</g>
<!-- Node7&#45;&gt;Node8 -->
<g id="edge7" class="edge"><title>Node7&#45;&gt;Node8</title>
<path fill="none" stroke="midnightblue" d="M638.095,-15.5C646.666,-15.5 655.309,-15.5 663.745,-15.5"/>
<polygon fill="midnightblue" stroke="midnightblue" points="638.084,-12.0001 628.083,-15.5 638.083,-19.0001 638.084,-12.0001"/>
</g>
</g>
</svg>
