<?xml version="1.0" encoding="UTF-8" standalone="no"?>
<!DOCTYPE svg PUBLIC "-//W3C//DTD SVG 1.1//EN"
 "http://www.w3.org/Graphics/SVG/1.1/DTD/svg11.dtd">
<!-- Generated by graphviz version 2.38.0 (20140413.2041)
 -->
<!-- Title: Transmission::configurerPort Pages: 1 -->
<svg width="809pt" height="484pt"
 viewBox="0.00 0.00 809.00 484.00" xmlns="http://www.w3.org/2000/svg" xmlns:xlink="http://www.w3.org/1999/xlink">
<g id="graph0" class="graph" transform="scale(1 1) rotate(0) translate(4 480)">
<title>Transmission::configurerPort</title>
<polygon fill="white" stroke="none" points="-4,4 -4,-480 805,-480 805,4 -4,4"/>
<!-- Node1 -->
<g id="node1" class="node"><title>Node1</title>
<polygon fill="#bfbfbf" stroke="black" points="0,-228.5 0,-247.5 142,-247.5 142,-228.5 0,-228.5"/>
<text text-anchor="middle" x="71" y="-235.5" font-family="Helvetica,sans-Serif" font-size="10.00">Transmission::configurerPort</text>
</g>
<!-- Node2 -->
<g id="node2" class="node"><title>Node2</title>
<g id="a_node2"><a xlink:href="class_transmission.html#a41d15e65be472e058b28869f8dfad392" target="_top" xlink:title="Transmission::ouvrirPort">
<polygon fill="white" stroke="black" points="178,-228.5 178,-247.5 301,-247.5 301,-228.5 178,-228.5"/>
<text text-anchor="middle" x="239.5" y="-235.5" font-family="Helvetica,sans-Serif" font-size="10.00">Transmission::ouvrirPort</text>
</a>
</g>
</g>
<!-- Node1&#45;&gt;Node2 -->
<g id="edge1" class="edge"><title>Node1&#45;&gt;Node2</title>
<path fill="none" stroke="midnightblue" d="M142.128,-238C150.595,-238 159.247,-238 167.723,-238"/>
<polygon fill="midnightblue" stroke="midnightblue" points="167.95,-241.5 177.95,-238 167.95,-234.5 167.95,-241.5"/>
</g>
<!-- Node3 -->
<g id="node3" class="node"><title>Node3</title>
<g id="a_node3"><a xlink:href="class_transmission.html#aa54a695d9d1c728ccab04f1d8030da41" target="_top" xlink:title="Récupérer la trame émise. ">
<polygon fill="white" stroke="black" points="337,-228.5 337,-247.5 453,-247.5 453,-228.5 337,-228.5"/>
<text text-anchor="middle" x="395" y="-235.5" font-family="Helvetica,sans-Serif" font-size="10.00">Transmission::recevoir</text>
</a>
</g>
</g>
<!-- Node2&#45;&gt;Node3 -->
<g id="edge2" class="edge"><title>Node2&#45;&gt;Node3</title>
<path fill="none" stroke="midnightblue" d="M301.167,-238C309.508,-238 318.114,-238 326.567,-238"/>
<polygon fill="midnightblue" stroke="midnightblue" points="326.774,-241.5 336.774,-238 326.774,-234.5 326.774,-241.5"/>
</g>
<!-- Node4 -->
<g id="node4" class="node"><title>Node4</title>
<g id="a_node4"><a xlink:href="class_transmission.html#aa2977705ec793b10bf3212a13e67b097" target="_top" xlink:title="Décompose la trame reçue. ">
<polygon fill="white" stroke="black" points="489,-228.5 489,-247.5 623,-247.5 623,-228.5 489,-228.5"/>
<text text-anchor="middle" x="556" y="-235.5" font-family="Helvetica,sans-Serif" font-size="10.00">Transmission::decomposer</text>
</a>
</g>
</g>
<!-- Node3&#45;&gt;Node4 -->
<g id="edge3" class="edge"><title>Node3&#45;&gt;Node4</title>
<path fill="none" stroke="midnightblue" d="M453.403,-238C461.561,-238 470.056,-238 478.505,-238"/>
<polygon fill="midnightblue" stroke="midnightblue" points="478.764,-241.5 488.764,-238 478.764,-234.5 478.764,-241.5"/>
</g>
<!-- Node5 -->
<g id="node5" class="node"><title>Node5</title>
<g id="a_node5"><a xlink:href="class_esp32.html#a8e7a509ed5704bee4bc527ae297f14f0" target="_top" xlink:title="modifie la variable température avec celle&#45;ci passer en paramètre ">
<polygon fill="white" stroke="black" points="670.5,-456.5 670.5,-475.5 789.5,-475.5 789.5,-456.5 670.5,-456.5"/>
<text text-anchor="middle" x="730" y="-463.5" font-family="Helvetica,sans-Serif" font-size="10.00">Esp32::setTemperature</text>
</a>
</g>
</g>
<!-- Node4&#45;&gt;Node5 -->
<g id="edge4" class="edge"><title>Node4&#45;&gt;Node5</title>
<path fill="none" stroke="midnightblue" d="M558.77,-247.643C565.381,-280.843 591.789,-391.426 659,-447 661.038,-448.685 663.213,-450.222 665.488,-451.623"/>
<polygon fill="midnightblue" stroke="midnightblue" points="664.195,-454.895 674.685,-456.382 667.412,-448.678 664.195,-454.895"/>
</g>
<!-- Node6 -->
<g id="node6" class="node"><title>Node6</title>
<g id="a_node6"><a xlink:href="class_esp32.html#a709c261e1cea7b6bbd2ea1b09b1d7ec0" target="_top" xlink:title="modifie la variable de l&#39;uniter utiliser pour la temperature ">
<polygon fill="white" stroke="black" points="659,-418.5 659,-437.5 801,-437.5 801,-418.5 659,-418.5"/>
<text text-anchor="middle" x="730" y="-425.5" font-family="Helvetica,sans-Serif" font-size="10.00">Esp32::setTemperatureUnite</text>
</a>
</g>
</g>
<!-- Node4&#45;&gt;Node6 -->
<g id="edge5" class="edge"><title>Node4&#45;&gt;Node6</title>
<path fill="none" stroke="midnightblue" d="M559.961,-247.907C569.279,-277.335 600.891,-364.917 659,-409 661.478,-410.88 664.13,-412.574 666.899,-414.101"/>
<polygon fill="midnightblue" stroke="midnightblue" points="665.533,-417.326 676.07,-418.429 668.52,-410.996 665.533,-417.326"/>
</g>
<!-- Node7 -->
<g id="node7" class="node"><title>Node7</title>
<g id="a_node7"><a xlink:href="class_esp32.html#a85dc760b771c9233fa094a49679d9286" target="_top" xlink:title="modifie la variable ressentie avec celle&#45;ci passer en paramètre ">
<polygon fill="white" stroke="black" points="676,-380.5 676,-399.5 784,-399.5 784,-380.5 676,-380.5"/>
<text text-anchor="middle" x="730" y="-387.5" font-family="Helvetica,sans-Serif" font-size="10.00">Esp32::setRessentie</text>
</a>
</g>
</g>
<!-- Node4&#45;&gt;Node7 -->
<g id="edge6" class="edge"><title>Node4&#45;&gt;Node7</title>
<path fill="none" stroke="midnightblue" d="M561.633,-247.776C573.853,-272.474 609.459,-337.772 659,-371 662.056,-373.05 665.326,-374.879 668.721,-376.511"/>
<polygon fill="midnightblue" stroke="midnightblue" points="667.368,-379.739 677.942,-380.389 670.081,-373.286 667.368,-379.739"/>
</g>
<!-- Node8 -->
<g id="node8" class="node"><title>Node8</title>
<g id="a_node8"><a xlink:href="class_esp32.html#abf8a7f9942150b6c17cc5d1cc7b0fc8a" target="_top" xlink:title="modifie la variable de l&#39;uniter utiliser pour le ressentie ">
<polygon fill="white" stroke="black" points="664.5,-342.5 664.5,-361.5 795.5,-361.5 795.5,-342.5 664.5,-342.5"/>
<text text-anchor="middle" x="730" y="-349.5" font-family="Helvetica,sans-Serif" font-size="10.00">Esp32::setRessentieUnite</text>
</a>
</g>
</g>
<!-- Node4&#45;&gt;Node8 -->
<g id="edge7" class="edge"><title>Node4&#45;&gt;Node8</title>
<path fill="none" stroke="midnightblue" d="M564.589,-247.705C580.164,-266.951 617.758,-310.068 659,-333 663.008,-335.229 667.293,-337.208 671.695,-338.964"/>
<polygon fill="midnightblue" stroke="midnightblue" points="670.859,-342.382 681.454,-342.459 673.22,-335.792 670.859,-342.382"/>
</g>
<!-- Node9 -->
<g id="node9" class="node"><title>Node9</title>
<g id="a_node9"><a xlink:href="class_esp32.html#add0a064335e1ac6d96e1bbb7818d299a" target="_top" xlink:title="modifie la variable de l&#39;humidite ">
<polygon fill="white" stroke="black" points="678.5,-304.5 678.5,-323.5 781.5,-323.5 781.5,-304.5 678.5,-304.5"/>
<text text-anchor="middle" x="730" y="-311.5" font-family="Helvetica,sans-Serif" font-size="10.00">Esp32::setHumidite</text>
</a>
</g>
</g>
<!-- Node4&#45;&gt;Node9 -->
<g id="edge8" class="edge"><title>Node4&#45;&gt;Node9</title>
<path fill="none" stroke="midnightblue" d="M571.632,-247.695C590.941,-260.127 626.317,-281.668 659,-295 664.892,-297.403 671.185,-299.598 677.492,-301.573"/>
<polygon fill="midnightblue" stroke="midnightblue" points="676.775,-305.011 687.357,-304.494 678.762,-298.299 676.775,-305.011"/>
</g>
<!-- Node10 -->
<g id="node10" class="node"><title>Node10</title>
<g id="a_node10"><a xlink:href="class_esp32.html#ae9b2704f36bcd246668354d0ac06ea35" target="_top" xlink:title="modifie la variable de l&#39;uniter utiliser pour l&#39;humidite ">
<polygon fill="white" stroke="black" points="667,-266.5 667,-285.5 793,-285.5 793,-266.5 667,-266.5"/>
<text text-anchor="middle" x="730" y="-273.5" font-family="Helvetica,sans-Serif" font-size="10.00">Esp32::setHumiditeUnite</text>
</a>
</g>
</g>
<!-- Node4&#45;&gt;Node10 -->
<g id="edge9" class="edge"><title>Node4&#45;&gt;Node10</title>
<path fill="none" stroke="midnightblue" d="M600.403,-247.589C623.407,-252.671 651.851,-258.955 676.134,-264.32"/>
<polygon fill="midnightblue" stroke="midnightblue" points="675.39,-267.74 685.909,-266.48 676.9,-260.905 675.39,-267.74"/>
</g>
<!-- Node11 -->
<g id="node11" class="node"><title>Node11</title>
<g id="a_node11"><a xlink:href="class_esp32.html#ae60b48e8c808a5108402d5b9f03590ac" target="_top" xlink:title="modifie la variable de la luminosite ">
<polygon fill="white" stroke="black" points="674.5,-228.5 674.5,-247.5 785.5,-247.5 785.5,-228.5 674.5,-228.5"/>
<text text-anchor="middle" x="730" y="-235.5" font-family="Helvetica,sans-Serif" font-size="10.00">Esp32::setLuminosite</text>
</a>
</g>
</g>
<!-- Node4&#45;&gt;Node11 -->
<g id="edge10" class="edge"><title>Node4&#45;&gt;Node11</title>
<path fill="none" stroke="midnightblue" d="M623.008,-238C636.521,-238 650.731,-238 664.202,-238"/>
<polygon fill="midnightblue" stroke="midnightblue" points="664.334,-241.5 674.334,-238 664.334,-234.5 664.334,-241.5"/>
</g>
<!-- Node12 -->
<g id="node12" class="node"><title>Node12</title>
<g id="a_node12"><a xlink:href="class_esp32.html#a36450bcd23e7676d1f0a46e8bec31275" target="_top" xlink:title="modifie la variable de l&#39;uniter utiliser pour la luminosite ">
<polygon fill="white" stroke="black" points="663,-190.5 663,-209.5 797,-209.5 797,-190.5 663,-190.5"/>
<text text-anchor="middle" x="730" y="-197.5" font-family="Helvetica,sans-Serif" font-size="10.00">Esp32::setLuminositeUnite</text>
</a>
</g>
</g>
<!-- Node4&#45;&gt;Node12 -->
<g id="edge11" class="edge"><title>Node4&#45;&gt;Node12</title>
<path fill="none" stroke="midnightblue" d="M600.403,-228.411C623.407,-223.329 651.851,-217.045 676.134,-211.68"/>
<polygon fill="midnightblue" stroke="midnightblue" points="676.9,-215.095 685.909,-209.52 675.39,-208.26 676.9,-215.095"/>
</g>
<!-- Node13 -->
<g id="node13" class="node"><title>Node13</title>
<g id="a_node13"><a xlink:href="class_esp32.html#a583358abbf0b279dabb5a2976f1783de" target="_top" xlink:title="modifie la variable de la pression ">
<polygon fill="white" stroke="black" points="679,-152.5 679,-171.5 781,-171.5 781,-152.5 679,-152.5"/>
<text text-anchor="middle" x="730" y="-159.5" font-family="Helvetica,sans-Serif" font-size="10.00">Esp32::setPression</text>
</a>
</g>
</g>
<!-- Node4&#45;&gt;Node13 -->
<g id="edge12" class="edge"><title>Node4&#45;&gt;Node13</title>
<path fill="none" stroke="midnightblue" d="M571.632,-228.305C590.941,-215.873 626.317,-194.332 659,-181 664.892,-178.597 671.185,-176.402 677.492,-174.427"/>
<polygon fill="midnightblue" stroke="midnightblue" points="678.762,-177.701 687.357,-171.506 676.775,-170.989 678.762,-177.701"/>
</g>
<!-- Node14 -->
<g id="node14" class="node"><title>Node14</title>
<g id="a_node14"><a xlink:href="class_esp32.html#a3c6dd57f955aef0738c48be705538337" target="_top" xlink:title="modifie la variable de l&#39;uniter utiliser pour la pression ">
<polygon fill="white" stroke="black" points="667.5,-114.5 667.5,-133.5 792.5,-133.5 792.5,-114.5 667.5,-114.5"/>
<text text-anchor="middle" x="730" y="-121.5" font-family="Helvetica,sans-Serif" font-size="10.00">Esp32::setPressionUnite</text>
</a>
</g>
</g>
<!-- Node4&#45;&gt;Node14 -->
<g id="edge13" class="edge"><title>Node4&#45;&gt;Node14</title>
<path fill="none" stroke="midnightblue" d="M564.589,-228.295C580.164,-209.049 617.758,-165.932 659,-143 663.008,-140.771 667.293,-138.792 671.695,-137.036"/>
<polygon fill="midnightblue" stroke="midnightblue" points="673.22,-140.208 681.454,-133.541 670.859,-133.618 673.22,-140.208"/>
</g>
<!-- Node15 -->
<g id="node15" class="node"><title>Node15</title>
<g id="a_node15"><a xlink:href="class_esp32.html#aeb2268155501f27e36e6a7c6caa15412" target="_top" xlink:title="modifie la variable altitude passer en paramètre ">
<polygon fill="white" stroke="black" points="681.5,-76.5 681.5,-95.5 778.5,-95.5 778.5,-76.5 681.5,-76.5"/>
<text text-anchor="middle" x="730" y="-83.5" font-family="Helvetica,sans-Serif" font-size="10.00">Esp32::setAltitude</text>
</a>
</g>
</g>
<!-- Node4&#45;&gt;Node15 -->
<g id="edge14" class="edge"><title>Node4&#45;&gt;Node15</title>
<path fill="none" stroke="midnightblue" d="M561.633,-228.224C573.853,-203.526 609.459,-138.228 659,-105 662.974,-102.335 667.311,-100.042 671.815,-98.0697"/>
<polygon fill="midnightblue" stroke="midnightblue" points="673.15,-101.306 681.232,-94.4558 670.642,-94.7709 673.15,-101.306"/>
</g>
<!-- Node16 -->
<g id="node16" class="node"><title>Node16</title>
<g id="a_node16"><a xlink:href="class_esp32.html#a69b0c6a1c0a31e043b715be3fc40ded1" target="_top" xlink:title="modifie la variable de l&#39;uniter utiliser pour l&#39;altitude ">
<polygon fill="white" stroke="black" points="670,-38.5 670,-57.5 790,-57.5 790,-38.5 670,-38.5"/>
<text text-anchor="middle" x="730" y="-45.5" font-family="Helvetica,sans-Serif" font-size="10.00">Esp32::setAltitudeUnite</text>
</a>
</g>
</g>
<!-- Node4&#45;&gt;Node16 -->
<g id="edge15" class="edge"><title>Node4&#45;&gt;Node16</title>
<path fill="none" stroke="midnightblue" d="M559.961,-228.093C569.279,-198.665 600.891,-111.083 659,-67 661.478,-65.1199 664.13,-63.4257 666.899,-61.8991"/>
<polygon fill="midnightblue" stroke="midnightblue" points="668.52,-65.0041 676.07,-57.5712 665.533,-58.6735 668.52,-65.0041"/>
</g>
<!-- Node17 -->
<g id="node17" class="node"><title>Node17</title>
<g id="a_node17"><a xlink:href="class_esp32.html#a32d0d1abb41a3762a54e9f5a33b3b247" target="_top" xlink:title="modifie la variable de l&#39;etat de la led ">
<polygon fill="white" stroke="black" points="673.5,-0.5 673.5,-19.5 786.5,-19.5 786.5,-0.5 673.5,-0.5"/>
<text text-anchor="middle" x="730" y="-7.5" font-family="Helvetica,sans-Serif" font-size="10.00">Esp32::setCouleurLed</text>
</a>
</g>
</g>
<!-- Node4&#45;&gt;Node17 -->
<g id="edge16" class="edge"><title>Node4&#45;&gt;Node17</title>
<path fill="none" stroke="midnightblue" d="M558.77,-228.357C565.381,-195.157 591.789,-84.5736 659,-29 661.038,-27.3149 663.213,-25.7784 665.488,-24.3774"/>
<polygon fill="midnightblue" stroke="midnightblue" points="667.412,-27.3225 674.685,-19.6184 664.195,-21.1054 667.412,-27.3225"/>
</g>
</g>
</svg>
