<?xml version="1.0" encoding="UTF-8" standalone="no"?>
<!DOCTYPE svg PUBLIC "-//W3C//DTD SVG 1.1//EN"
 "http://www.w3.org/Graphics/SVG/1.1/DTD/svg11.dtd">
<!-- Generated by graphviz version 2.38.0 (20140413.2041)
 -->
<!-- Title: Transmission::portFerme Pages: 1 -->
<svg width="512pt" height="323pt"
 viewBox="0.00 0.00 512.00 323.00" xmlns="http://www.w3.org/2000/svg" xmlns:xlink="http://www.w3.org/1999/xlink">
<g id="graph0" class="graph" transform="scale(1 1) rotate(0) translate(4 319)">
<title>Transmission::portFerme</title>
<polygon fill="white" stroke="none" points="-4,4 -4,-319 508,-319 508,4 -4,4"/>
<!-- Node1 -->
<g id="node1" class="node"><title>Node1</title>
<polygon fill="#bfbfbf" stroke="black" points="0,-199 0,-218 125,-218 125,-199 0,-199"/>
<text text-anchor="middle" x="62.5" y="-206" font-family="Helvetica,sans-Serif" font-size="10.00">Transmission::portFerme</text>
</g>
<!-- Node2 -->
<g id="node2" class="node"><title>Node2</title>
<g id="a_node2"><a xlink:href="class_transmission.html#a14d36ad615852d6b630fbddf5787f3a3" target="_top" xlink:title="cette methode ferme le port serie ">
<polygon fill="white" stroke="black" points="175,-246 175,-265 302,-265 302,-246 175,-246"/>
<text text-anchor="middle" x="238.5" y="-253" font-family="Helvetica,sans-Serif" font-size="10.00">Transmission::fermerPort</text>
</a>
</g>
</g>
<!-- Node1&#45;&gt;Node2 -->
<g id="edge1" class="edge"><title>Node1&#45;&gt;Node2</title>
<path fill="none" stroke="midnightblue" d="M108.635,-220.692C137.744,-228.555 175.064,-238.635 202.043,-245.922"/>
<polygon fill="midnightblue" stroke="midnightblue" points="109.278,-217.24 98.7115,-218.011 107.453,-223.998 109.278,-217.24"/>
</g>
<!-- Node5 -->
<g id="node5" class="node"><title>Node5</title>
<g id="a_node5"><a xlink:href="class_transmission.html#a21e35372ada18cd35411c0e8c0984fd7" target="_top" xlink:title="envoyer les données par le port serie ">
<polygon fill="white" stroke="black" points="161,-128 161,-147 316,-147 316,-128 161,-128"/>
<text text-anchor="middle" x="238.5" y="-135" font-family="Helvetica,sans-Serif" font-size="10.00">Transmission::envoyerDonnees</text>
</a>
</g>
</g>
<!-- Node1&#45;&gt;Node5 -->
<g id="edge4" class="edge"><title>Node1&#45;&gt;Node5</title>
<path fill="none" stroke="midnightblue" d="M96.5639,-195.008C130.938,-180.982 183.865,-159.385 214.128,-147.037"/>
<polygon fill="midnightblue" stroke="midnightblue" points="94.9029,-191.906 86.9664,-198.925 97.5476,-198.387 94.9029,-191.906"/>
</g>
<!-- Node3 -->
<g id="node3" class="node"><title>Node3</title>
<g id="a_node3"><a xlink:href="class_ihm.html#abcdae03ce7e83266fb9d3e795df8a171" target="_top" xlink:title="bouton qui ferme le port serie ">
<polygon fill="white" stroke="black" points="360.5,-284.5 360.5,-314.5 495.5,-314.5 495.5,-284.5 360.5,-284.5"/>
<text text-anchor="start" x="368.5" y="-302.5" font-family="Helvetica,sans-Serif" font-size="10.00">Ihm::on_pushButtonFermer</text>
<text text-anchor="middle" x="428" y="-291.5" font-family="Helvetica,sans-Serif" font-size="10.00">Port_clicked</text>
</a>
</g>
</g>
<!-- Node2&#45;&gt;Node3 -->
<g id="edge2" class="edge"><title>Node2&#45;&gt;Node3</title>
<path fill="none" stroke="midnightblue" d="M290.142,-267.384C312.51,-272.633 339.063,-278.864 362.801,-284.435"/>
<polygon fill="midnightblue" stroke="midnightblue" points="290.72,-263.925 280.185,-265.047 289.121,-270.739 290.72,-263.925"/>
</g>
<!-- Node4 -->
<g id="node4" class="node"><title>Node4</title>
<g id="a_node4"><a xlink:href="class_transmission.html#adcdc6012d99ddb1d0c3159d50984e146" target="_top" xlink:title="destructeur de la classe Transmission ">
<polygon fill="white" stroke="black" points="355,-246 355,-265 501,-265 501,-246 355,-246"/>
<text text-anchor="middle" x="428" y="-253" font-family="Helvetica,sans-Serif" font-size="10.00">Transmission::~Transmission</text>
</a>
</g>
</g>
<!-- Node2&#45;&gt;Node4 -->
<g id="edge3" class="edge"><title>Node2&#45;&gt;Node4</title>
<path fill="none" stroke="midnightblue" d="M312.269,-255.5C326.289,-255.5 340.97,-255.5 354.967,-255.5"/>
<polygon fill="midnightblue" stroke="midnightblue" points="312.196,-252 302.195,-255.5 312.195,-259 312.196,-252"/>
</g>
<!-- Node6 -->
<g id="node6" class="node"><title>Node6</title>
<g id="a_node6"><a xlink:href="class_ihm.html#afd32da9e614eba44bb1d3630b48e6075" target="_top" xlink:title="recuperer le texte de la lineEdit dans l&#39;onglet operateur pour l&#39;envoyer par le port serie ...">
<polygon fill="white" stroke="black" points="358,-196.5 358,-226.5 498,-226.5 498,-196.5 358,-196.5"/>
<text text-anchor="start" x="366" y="-214.5" font-family="Helvetica,sans-Serif" font-size="10.00">Ihm::on_pushButtonEnvoyer</text>
<text text-anchor="middle" x="428" y="-203.5" font-family="Helvetica,sans-Serif" font-size="10.00">Trame_clicked</text>
</a>
</g>
</g>
<!-- Node5&#45;&gt;Node6 -->
<g id="edge5" class="edge"><title>Node5&#45;&gt;Node6</title>
<path fill="none" stroke="midnightblue" d="M268.461,-151.414C290.971,-161.972 323.118,-176.498 352,-187.5 360.049,-190.566 368.678,-193.576 377.115,-196.373"/>
<polygon fill="midnightblue" stroke="midnightblue" points="269.68,-148.119 259.143,-147.011 266.69,-154.448 269.68,-148.119"/>
</g>
<!-- Node7 -->
<g id="node7" class="node"><title>Node7</title>
<g id="a_node7"><a xlink:href="class_ihm.html#a731ee780915cb90a5dfb11f2e02144c9" target="_top" xlink:title="envoit une trame pour allumer la led en rouge ">
<polygon fill="white" stroke="black" points="353.5,-147.5 353.5,-177.5 502.5,-177.5 502.5,-147.5 353.5,-147.5"/>
<text text-anchor="start" x="361.5" y="-165.5" font-family="Helvetica,sans-Serif" font-size="10.00">Ihm::on_radioButtonLedRouge</text>
<text text-anchor="middle" x="428" y="-154.5" font-family="Helvetica,sans-Serif" font-size="10.00">_clicked</text>
</a>
</g>
</g>
<!-- Node5&#45;&gt;Node7 -->
<g id="edge6" class="edge"><title>Node5&#45;&gt;Node7</title>
<path fill="none" stroke="midnightblue" d="M321.1,-148.38C331.804,-149.807 342.724,-151.263 353.288,-152.672"/>
<polygon fill="midnightblue" stroke="midnightblue" points="321.295,-144.875 310.921,-147.023 320.37,-151.814 321.295,-144.875"/>
</g>
<!-- Node8 -->
<g id="node8" class="node"><title>Node8</title>
<g id="a_node8"><a xlink:href="class_ihm.html#afef5bfaa83383427e615d21d9474f466" target="_top" xlink:title="envoit une trame pour allumer la led en vert ">
<polygon fill="white" stroke="black" points="359,-98.5 359,-128.5 497,-128.5 497,-98.5 359,-98.5"/>
<text text-anchor="start" x="367" y="-116.5" font-family="Helvetica,sans-Serif" font-size="10.00">Ihm::on_radioButtonLedVert</text>
<text text-anchor="middle" x="428" y="-105.5" font-family="Helvetica,sans-Serif" font-size="10.00">_clicked</text>
</a>
</g>
</g>
<!-- Node5&#45;&gt;Node8 -->
<g id="edge7" class="edge"><title>Node5&#45;&gt;Node8</title>
<path fill="none" stroke="midnightblue" d="M324.037,-126.679C335.678,-125.189 347.51,-123.675 358.806,-122.229"/>
<polygon fill="midnightblue" stroke="midnightblue" points="323.349,-123.239 313.874,-127.98 324.238,-130.182 323.349,-123.239"/>
</g>
<!-- Node9 -->
<g id="node9" class="node"><title>Node9</title>
<g id="a_node9"><a xlink:href="class_ihm.html#a7e000e198b11fc38a4459f7749561ded" target="_top" xlink:title="envoit une trame pour allumer la led en orange ">
<polygon fill="white" stroke="black" points="352,-49.5 352,-79.5 504,-79.5 504,-49.5 352,-49.5"/>
<text text-anchor="start" x="360" y="-67.5" font-family="Helvetica,sans-Serif" font-size="10.00">Ihm::on_radioButtonLedOrange</text>
<text text-anchor="middle" x="428" y="-56.5" font-family="Helvetica,sans-Serif" font-size="10.00">_clicked</text>
</a>
</g>
</g>
<!-- Node5&#45;&gt;Node9 -->
<g id="edge8" class="edge"><title>Node5&#45;&gt;Node9</title>
<path fill="none" stroke="midnightblue" d="M269.791,-123.781C292.281,-113.79 323.809,-100.192 352,-89.5 360.983,-86.0929 370.661,-82.6798 379.983,-79.5188"/>
<polygon fill="midnightblue" stroke="midnightblue" points="268.143,-120.684 260.441,-127.958 270.998,-127.075 268.143,-120.684"/>
</g>
<!-- Node10 -->
<g id="node10" class="node"><title>Node10</title>
<g id="a_node10"><a xlink:href="class_ihm.html#a1e328a2e8165bbef347e901f1bc5534d" target="_top" xlink:title="envoit une trame pour eteindre la led ">
<polygon fill="white" stroke="black" points="361,-0.5 361,-30.5 495,-30.5 495,-0.5 361,-0.5"/>
<text text-anchor="start" x="369" y="-18.5" font-family="Helvetica,sans-Serif" font-size="10.00">Ihm::on_radioButtonLedOff</text>
<text text-anchor="middle" x="428" y="-7.5" font-family="Helvetica,sans-Serif" font-size="10.00">_clicked</text>
</a>
</g>
</g>
<!-- Node5&#45;&gt;Node10 -->
<g id="edge9" class="edge"><title>Node5&#45;&gt;Node10</title>
<path fill="none" stroke="midnightblue" d="M255.108,-120.439C275.509,-99.0505 313.229,-62.5268 352,-40.5 358.564,-36.7711 365.769,-33.4905 373.037,-30.6377"/>
<polygon fill="midnightblue" stroke="midnightblue" points="252.46,-118.146 248.171,-127.834 257.565,-122.935 252.46,-118.146"/>
</g>
</g>
</svg>
