<?xml version="1.0" encoding="UTF-8" standalone="no"?>
<!DOCTYPE svg PUBLIC "-//W3C//DTD SVG 1.1//EN"
 "http://www.w3.org/Graphics/SVG/1.1/DTD/svg11.dtd">
<!-- Generated by graphviz version 2.38.0 (20140413.2041)
 -->
<!-- Title: Esp32::getEtatLed Pages: 1 -->
<svg width="492pt" height="28pt"
 viewBox="0.00 0.00 492.00 28.00" xmlns="http://www.w3.org/2000/svg" xmlns:xlink="http://www.w3.org/1999/xlink">
<g id="graph0" class="graph" transform="scale(1 1) rotate(0) translate(4 24)">
<title>Esp32::getEtatLed</title>
<polygon fill="white" stroke="none" points="-4,4 -4,-24 488,-24 488,4 -4,4"/>
<!-- Node1 -->
<g id="node1" class="node"><title>Node1</title>
<polygon fill="#bfbfbf" stroke="black" points="0,-0.5 0,-19.5 98,-19.5 98,-0.5 0,-0.5"/>
<text text-anchor="middle" x="49" y="-7.5" font-family="Helvetica,sans-Serif" font-size="10.00">Esp32::getEtatLed</text>
</g>
<!-- Node2 -->
<g id="node2" class="node"><title>Node2</title>
<g id="a_node2"><a xlink:href="class_ihm.html#af0426507c2130aefd01bdb4f825ae168" target="_top" xlink:title="Méthode qui actualise l&#39;etat de la led dans ihm et change le radiobutton activer en fontion de l&#39;etat...">
<polygon fill="white" stroke="black" points="134,-0.5 134,-19.5 241,-19.5 241,-0.5 134,-0.5"/>
<text text-anchor="middle" x="187.5" y="-7.5" font-family="Helvetica,sans-Serif" font-size="10.00">Ihm::modifierEtatLed</text>
</a>
</g>
</g>
<!-- Node1&#45;&gt;Node2 -->
<g id="edge1" class="edge"><title>Node1&#45;&gt;Node2</title>
<path fill="none" stroke="midnightblue" d="M108.284,-10C116.726,-10 125.376,-10 133.703,-10"/>
<polygon fill="midnightblue" stroke="midnightblue" points="108.125,-6.5001 98.1248,-10 108.125,-13.5001 108.125,-6.5001"/>
</g>
<!-- Node3 -->
<g id="node3" class="node"><title>Node3</title>
<g id="a_node3"><a xlink:href="class_ihm.html#a7c0a160f30e11a4f8d56b174e07566fe" target="_top" xlink:title="Ihm::actualiserDonnee">
<polygon fill="white" stroke="black" points="277,-0.5 277,-19.5 392,-19.5 392,-0.5 277,-0.5"/>
<text text-anchor="middle" x="334.5" y="-7.5" font-family="Helvetica,sans-Serif" font-size="10.00">Ihm::actualiserDonnee</text>
</a>
</g>
</g>
<!-- Node2&#45;&gt;Node3 -->
<g id="edge2" class="edge"><title>Node2&#45;&gt;Node3</title>
<path fill="none" stroke="midnightblue" d="M251.379,-10C259.772,-10 268.34,-10 276.623,-10"/>
<polygon fill="midnightblue" stroke="midnightblue" points="251.259,-6.5001 241.259,-10 251.258,-13.5001 251.259,-6.5001"/>
</g>
<!-- Node4 -->
<g id="node4" class="node"><title>Node4</title>
<g id="a_node4"><a xlink:href="class_ihm.html#a50a7a15775452923868348bdbe4fa51e" target="_top" xlink:title="constructeur de la classe Ihm ">
<polygon fill="white" stroke="black" points="428,-0.5 428,-19.5 484,-19.5 484,-0.5 428,-0.5"/>
<text text-anchor="middle" x="456" y="-7.5" font-family="Helvetica,sans-Serif" font-size="10.00">Ihm::Ihm</text>
</a>
</g>
</g>
<!-- Node3&#45;&gt;Node4 -->
<g id="edge3" class="edge"><title>Node3&#45;&gt;Node4</title>
<path fill="none" stroke="midnightblue" d="M402.291,-10C411.276,-10 420.045,-10 427.77,-10"/>
<polygon fill="midnightblue" stroke="midnightblue" points="402.1,-6.5001 392.1,-10 402.1,-13.5001 402.1,-6.5001"/>
</g>
</g>
</svg>
