<?xml version="1.0" encoding="UTF-8" standalone="no"?>
<!DOCTYPE svg PUBLIC "-//W3C//DTD SVG 1.1//EN"
 "http://www.w3.org/Graphics/SVG/1.1/DTD/svg11.dtd">
<!-- Generated by graphviz version 2.38.0 (20140413.2041)
 -->
<!-- Title: Esp32::setHumidite Pages: 1 -->
<svg width="985pt" height="83pt"
 viewBox="0.00 0.00 985.00 83.00" xmlns="http://www.w3.org/2000/svg" xmlns:xlink="http://www.w3.org/1999/xlink">
<g id="graph0" class="graph" transform="scale(1 1) rotate(0) translate(4 79)">
<title>Esp32::setHumidite</title>
<polygon fill="white" stroke="none" points="-4,4 -4,-79 981,-79 981,4 -4,4"/>
<!-- Node1 -->
<g id="node1" class="node"><title>Node1</title>
<polygon fill="#bfbfbf" stroke="black" points="0,-28 0,-47 103,-47 103,-28 0,-28"/>
<text text-anchor="middle" x="51.5" y="-35" font-family="Helvetica,sans-Serif" font-size="10.00">Esp32::setHumidite</text>
</g>
<!-- Node2 -->
<g id="node2" class="node"><title>Node2</title>
<g id="a_node2"><a xlink:href="class_transmission.html#aa2977705ec793b10bf3212a13e67b097" target="_top" xlink:title="Décompose la trame reçue. ">
<polygon fill="white" stroke="black" points="139,-28 139,-47 273,-47 273,-28 139,-28"/>
<text text-anchor="middle" x="206" y="-35" font-family="Helvetica,sans-Serif" font-size="10.00">Transmission::decomposer</text>
</a>
</g>
</g>
<!-- Node1&#45;&gt;Node2 -->
<g id="edge1" class="edge"><title>Node1&#45;&gt;Node2</title>
<path fill="none" stroke="midnightblue" d="M113.386,-37.5C121.8,-37.5 130.475,-37.5 138.977,-37.5"/>
<polygon fill="midnightblue" stroke="midnightblue" points="113.28,-34.0001 103.28,-37.5 113.28,-41.0001 113.28,-34.0001"/>
</g>
<!-- Node3 -->
<g id="node3" class="node"><title>Node3</title>
<g id="a_node3"><a xlink:href="class_transmission.html#aa54a695d9d1c728ccab04f1d8030da41" target="_top" xlink:title="Récupérer la trame émise. ">
<polygon fill="white" stroke="black" points="309,-28 309,-47 425,-47 425,-28 309,-28"/>
<text text-anchor="middle" x="367" y="-35" font-family="Helvetica,sans-Serif" font-size="10.00">Transmission::recevoir</text>
</a>
</g>
</g>
<!-- Node2&#45;&gt;Node3 -->
<g id="edge2" class="edge"><title>Node2&#45;&gt;Node3</title>
<path fill="none" stroke="midnightblue" d="M283.129,-37.5C291.757,-37.5 300.438,-37.5 308.765,-37.5"/>
<polygon fill="midnightblue" stroke="midnightblue" points="283.049,-34.0001 273.049,-37.5 283.049,-41.0001 283.049,-34.0001"/>
</g>
<!-- Node4 -->
<g id="node4" class="node"><title>Node4</title>
<g id="a_node4"><a xlink:href="class_transmission.html#a41d15e65be472e058b28869f8dfad392" target="_top" xlink:title="Transmission::ouvrirPort">
<polygon fill="white" stroke="black" points="479,-50 479,-69 602,-69 602,-50 479,-50"/>
<text text-anchor="middle" x="540.5" y="-57" font-family="Helvetica,sans-Serif" font-size="10.00">Transmission::ouvrirPort</text>
</a>
</g>
</g>
<!-- Node3&#45;&gt;Node4 -->
<g id="edge3" class="edge"><title>Node3&#45;&gt;Node4</title>
<path fill="none" stroke="midnightblue" d="M435.388,-46.1445C449.715,-47.9824 464.76,-49.9123 478.819,-51.7158"/>
<polygon fill="midnightblue" stroke="midnightblue" points="435.471,-42.6266 425.107,-44.8257 434.58,-49.5697 435.471,-42.6266"/>
</g>
<!-- Node7 -->
<g id="node7" class="node"><title>Node7</title>
<g id="a_node7"><a xlink:href="class_transmission.html#a5a21d201dd0096f96aec12264c2f03d9" target="_top" xlink:title="Permets de se connecter à un appareil. ">
<polygon fill="white" stroke="black" points="461,-0.5 461,-30.5 620,-30.5 620,-0.5 461,-0.5"/>
<text text-anchor="start" x="469" y="-18.5" font-family="Helvetica,sans-Serif" font-size="10.00">Transmission::connecterAppareil</text>
<text text-anchor="middle" x="540.5" y="-7.5" font-family="Helvetica,sans-Serif" font-size="10.00">Bluetooth</text>
</a>
</g>
</g>
<!-- Node3&#45;&gt;Node7 -->
<g id="edge6" class="edge"><title>Node3&#45;&gt;Node7</title>
<path fill="none" stroke="midnightblue" d="M435.249,-28.8733C443.685,-27.7911 452.372,-26.6768 460.961,-25.575"/>
<polygon fill="midnightblue" stroke="midnightblue" points="434.58,-25.4303 425.107,-30.1743 435.471,-32.3734 434.58,-25.4303"/>
</g>
<!-- Node5 -->
<g id="node5" class="node"><title>Node5</title>
<g id="a_node5"><a xlink:href="class_transmission.html#ab4e82ab30c181a8e0d0c0257ea0e1f56" target="_top" xlink:title="configure le port serie ">
<polygon fill="white" stroke="black" points="662,-50 662,-69 804,-69 804,-50 662,-50"/>
<text text-anchor="middle" x="733" y="-57" font-family="Helvetica,sans-Serif" font-size="10.00">Transmission::configurerPort</text>
</a>
</g>
</g>
<!-- Node4&#45;&gt;Node5 -->
<g id="edge4" class="edge"><title>Node4&#45;&gt;Node5</title>
<path fill="none" stroke="midnightblue" d="M612.04,-59.5C628.35,-59.5 645.699,-59.5 661.987,-59.5"/>
<polygon fill="midnightblue" stroke="midnightblue" points="612.037,-56.0001 602.037,-59.5 612.037,-63.0001 612.037,-56.0001"/>
</g>
<!-- Node6 -->
<g id="node6" class="node"><title>Node6</title>
<g id="a_node6"><a xlink:href="class_ihm.html#a9ce167b94baead6e318bbd0c5254f842" target="_top" xlink:title="bouton qui ouvre le port serie ">
<polygon fill="white" stroke="black" points="846,-44.5 846,-74.5 977,-74.5 977,-44.5 846,-44.5"/>
<text text-anchor="start" x="854" y="-62.5" font-family="Helvetica,sans-Serif" font-size="10.00">Ihm::on_pushButtonOuvrir</text>
<text text-anchor="middle" x="911.5" y="-51.5" font-family="Helvetica,sans-Serif" font-size="10.00">Port_clicked</text>
</a>
</g>
</g>
<!-- Node5&#45;&gt;Node6 -->
<g id="edge5" class="edge"><title>Node5&#45;&gt;Node6</title>
<path fill="none" stroke="midnightblue" d="M814.099,-59.5C824.693,-59.5 835.445,-59.5 845.738,-59.5"/>
<polygon fill="midnightblue" stroke="midnightblue" points="814.011,-56.0001 804.011,-59.5 814.011,-63.0001 814.011,-56.0001"/>
</g>
<!-- Node8 -->
<g id="node8" class="node"><title>Node8</title>
<g id="a_node8"><a xlink:href="class_ihm.html#ac154e42263a45f12d696a03a7ed6890f" target="_top" xlink:title="fonction appelée quand le bouton connexion est cliqué ">
<polygon fill="white" stroke="black" points="656,-0.5 656,-30.5 810,-30.5 810,-0.5 656,-0.5"/>
<text text-anchor="start" x="664" y="-18.5" font-family="Helvetica,sans-Serif" font-size="10.00">Ihm::on_pushButtonConnection</text>
<text text-anchor="middle" x="733" y="-7.5" font-family="Helvetica,sans-Serif" font-size="10.00">_clicked</text>
</a>
</g>
</g>
<!-- Node7&#45;&gt;Node8 -->
<g id="edge7" class="edge"><title>Node7&#45;&gt;Node8</title>
<path fill="none" stroke="midnightblue" d="M630.095,-15.5C638.666,-15.5 647.309,-15.5 655.745,-15.5"/>
<polygon fill="midnightblue" stroke="midnightblue" points="630.084,-12.0001 620.083,-15.5 630.083,-19.0001 630.084,-12.0001"/>
</g>
</g>
</svg>
