<?xml version="1.0" encoding="UTF-8" standalone="no"?>
<!DOCTYPE svg PUBLIC "-//W3C//DTD SVG 1.1//EN"
 "http://www.w3.org/Graphics/SVG/1.1/DTD/svg11.dtd">
<!-- Generated by graphviz version 2.38.0 (20140413.2041)
 -->
<!-- Title: Esp32::setAltitude Pages: 1 -->
<svg width="979pt" height="83pt"
 viewBox="0.00 0.00 979.00 83.00" xmlns="http://www.w3.org/2000/svg" xmlns:xlink="http://www.w3.org/1999/xlink">
<g id="graph0" class="graph" transform="scale(1 1) rotate(0) translate(4 79)">
<title>Esp32::setAltitude</title>
<polygon fill="white" stroke="none" points="-4,4 -4,-79 975,-79 975,4 -4,4"/>
<!-- Node1 -->
<g id="node1" class="node"><title>Node1</title>
<polygon fill="#bfbfbf" stroke="black" points="0,-28 0,-47 97,-47 97,-28 0,-28"/>
<text text-anchor="middle" x="48.5" y="-35" font-family="Helvetica,sans-Serif" font-size="10.00">Esp32::setAltitude</text>
</g>
<!-- Node2 -->
<g id="node2" class="node"><title>Node2</title>
<g id="a_node2"><a xlink:href="class_transmission.html#aa2977705ec793b10bf3212a13e67b097" target="_top" xlink:title="Décompose la trame reçue. ">
<polygon fill="white" stroke="black" points="133,-28 133,-47 267,-47 267,-28 133,-28"/>
<text text-anchor="middle" x="200" y="-35" font-family="Helvetica,sans-Serif" font-size="10.00">Transmission::decomposer</text>
</a>
</g>
</g>
<!-- Node1&#45;&gt;Node2 -->
<g id="edge1" class="edge"><title>Node1&#45;&gt;Node2</title>
<path fill="none" stroke="midnightblue" d="M107.281,-37.5C115.681,-37.5 124.384,-37.5 132.933,-37.5"/>
<polygon fill="midnightblue" stroke="midnightblue" points="107.214,-34.0001 97.2138,-37.5 107.214,-41.0001 107.214,-34.0001"/>
</g>
<!-- Node3 -->
<g id="node3" class="node"><title>Node3</title>
<g id="a_node3"><a xlink:href="class_transmission.html#aa54a695d9d1c728ccab04f1d8030da41" target="_top" xlink:title="Récupérer la trame émise. ">
<polygon fill="white" stroke="black" points="303,-28 303,-47 419,-47 419,-28 303,-28"/>
<text text-anchor="middle" x="361" y="-35" font-family="Helvetica,sans-Serif" font-size="10.00">Transmission::recevoir</text>
</a>
</g>
</g>
<!-- Node2&#45;&gt;Node3 -->
<g id="edge2" class="edge"><title>Node2&#45;&gt;Node3</title>
<path fill="none" stroke="midnightblue" d="M277.129,-37.5C285.757,-37.5 294.438,-37.5 302.765,-37.5"/>
<polygon fill="midnightblue" stroke="midnightblue" points="277.049,-34.0001 267.049,-37.5 277.049,-41.0001 277.049,-34.0001"/>
</g>
<!-- Node4 -->
<g id="node4" class="node"><title>Node4</title>
<g id="a_node4"><a xlink:href="class_transmission.html#a41d15e65be472e058b28869f8dfad392" target="_top" xlink:title="Transmission::ouvrirPort">
<polygon fill="white" stroke="black" points="473,-50 473,-69 596,-69 596,-50 473,-50"/>
<text text-anchor="middle" x="534.5" y="-57" font-family="Helvetica,sans-Serif" font-size="10.00">Transmission::ouvrirPort</text>
</a>
</g>
</g>
<!-- Node3&#45;&gt;Node4 -->
<g id="edge3" class="edge"><title>Node3&#45;&gt;Node4</title>
<path fill="none" stroke="midnightblue" d="M429.388,-46.1445C443.715,-47.9824 458.76,-49.9123 472.819,-51.7158"/>
<polygon fill="midnightblue" stroke="midnightblue" points="429.471,-42.6266 419.107,-44.8257 428.58,-49.5697 429.471,-42.6266"/>
</g>
<!-- Node7 -->
<g id="node7" class="node"><title>Node7</title>
<g id="a_node7"><a xlink:href="class_transmission.html#a5a21d201dd0096f96aec12264c2f03d9" target="_top" xlink:title="Permets de se connecter à un appareil. ">
<polygon fill="white" stroke="black" points="455,-0.5 455,-30.5 614,-30.5 614,-0.5 455,-0.5"/>
<text text-anchor="start" x="463" y="-18.5" font-family="Helvetica,sans-Serif" font-size="10.00">Transmission::connecterAppareil</text>
<text text-anchor="middle" x="534.5" y="-7.5" font-family="Helvetica,sans-Serif" font-size="10.00">Bluetooth</text>
</a>
</g>
</g>
<!-- Node3&#45;&gt;Node7 -->
<g id="edge6" class="edge"><title>Node3&#45;&gt;Node7</title>
<path fill="none" stroke="midnightblue" d="M429.249,-28.8733C437.685,-27.7911 446.372,-26.6768 454.961,-25.575"/>
<polygon fill="midnightblue" stroke="midnightblue" points="428.58,-25.4303 419.107,-30.1743 429.471,-32.3734 428.58,-25.4303"/>
</g>
<!-- Node5 -->
<g id="node5" class="node"><title>Node5</title>
<g id="a_node5"><a xlink:href="class_transmission.html#ab4e82ab30c181a8e0d0c0257ea0e1f56" target="_top" xlink:title="configure le port serie ">
<polygon fill="white" stroke="black" points="656,-50 656,-69 798,-69 798,-50 656,-50"/>
<text text-anchor="middle" x="727" y="-57" font-family="Helvetica,sans-Serif" font-size="10.00">Transmission::configurerPort</text>
</a>
</g>
</g>
<!-- Node4&#45;&gt;Node5 -->
<g id="edge4" class="edge"><title>Node4&#45;&gt;Node5</title>
<path fill="none" stroke="midnightblue" d="M606.04,-59.5C622.35,-59.5 639.699,-59.5 655.987,-59.5"/>
<polygon fill="midnightblue" stroke="midnightblue" points="606.037,-56.0001 596.037,-59.5 606.037,-63.0001 606.037,-56.0001"/>
</g>
<!-- Node6 -->
<g id="node6" class="node"><title>Node6</title>
<g id="a_node6"><a xlink:href="class_ihm.html#a9ce167b94baead6e318bbd0c5254f842" target="_top" xlink:title="bouton qui ouvre le port serie ">
<polygon fill="white" stroke="black" points="840,-44.5 840,-74.5 971,-74.5 971,-44.5 840,-44.5"/>
<text text-anchor="start" x="848" y="-62.5" font-family="Helvetica,sans-Serif" font-size="10.00">Ihm::on_pushButtonOuvrir</text>
<text text-anchor="middle" x="905.5" y="-51.5" font-family="Helvetica,sans-Serif" font-size="10.00">Port_clicked</text>
</a>
</g>
</g>
<!-- Node5&#45;&gt;Node6 -->
<g id="edge5" class="edge"><title>Node5&#45;&gt;Node6</title>
<path fill="none" stroke="midnightblue" d="M808.099,-59.5C818.693,-59.5 829.445,-59.5 839.738,-59.5"/>
<polygon fill="midnightblue" stroke="midnightblue" points="808.011,-56.0001 798.011,-59.5 808.011,-63.0001 808.011,-56.0001"/>
</g>
<!-- Node8 -->
<g id="node8" class="node"><title>Node8</title>
<g id="a_node8"><a xlink:href="class_ihm.html#ac154e42263a45f12d696a03a7ed6890f" target="_top" xlink:title="fonction appelée quand le bouton connexion est cliqué ">
<polygon fill="white" stroke="black" points="650,-0.5 650,-30.5 804,-30.5 804,-0.5 650,-0.5"/>
<text text-anchor="start" x="658" y="-18.5" font-family="Helvetica,sans-Serif" font-size="10.00">Ihm::on_pushButtonConnection</text>
<text text-anchor="middle" x="727" y="-7.5" font-family="Helvetica,sans-Serif" font-size="10.00">_clicked</text>
</a>
</g>
</g>
<!-- Node7&#45;&gt;Node8 -->
<g id="edge7" class="edge"><title>Node7&#45;&gt;Node8</title>
<path fill="none" stroke="midnightblue" d="M624.095,-15.5C632.666,-15.5 641.309,-15.5 649.745,-15.5"/>
<polygon fill="midnightblue" stroke="midnightblue" points="624.084,-12.0001 614.083,-15.5 624.083,-19.0001 624.084,-12.0001"/>
</g>
</g>
</svg>
