<?xml version="1.0" encoding="UTF-8" standalone="no"?>
<!DOCTYPE svg PUBLIC "-//W3C//DTD SVG 1.1//EN"
 "http://www.w3.org/Graphics/SVG/1.1/DTD/svg11.dtd">
<!-- Generated by graphviz version 2.38.0 (20140413.2041)
 -->
<!-- Title: Esp32::setAltitude Pages: 1 -->
<svg width="450pt" height="66pt"
 viewBox="0.00 0.00 450.00 66.00" xmlns="http://www.w3.org/2000/svg" xmlns:xlink="http://www.w3.org/1999/xlink">
<g id="graph0" class="graph" transform="scale(1 1) rotate(0) translate(4 62)">
<title>Esp32::setAltitude</title>
<polygon fill="white" stroke="none" points="-4,4 -4,-62 446,-62 446,4 -4,4"/>
<!-- Node1 -->
<g id="node1" class="node"><title>Node1</title>
<polygon fill="#bfbfbf" stroke="black" points="0,-19.5 0,-38.5 97,-38.5 97,-19.5 0,-19.5"/>
<text text-anchor="middle" x="48.5" y="-26.5" font-family="Helvetica,sans-Serif" font-size="10.00">Esp32::setAltitude</text>
</g>
<!-- Node2 -->
<g id="node2" class="node"><title>Node2</title>
<g id="a_node2"><a xlink:href="class_transmission.html#a14d36ad615852d6b630fbddf5787f3a3" target="_top" xlink:title="cette methode ferme le port serie ">
<polygon fill="white" stroke="black" points="133,-19.5 133,-38.5 260,-38.5 260,-19.5 133,-19.5"/>
<text text-anchor="middle" x="196.5" y="-26.5" font-family="Helvetica,sans-Serif" font-size="10.00">Transmission::fermerPort</text>
</a>
</g>
</g>
<!-- Node1&#45;&gt;Node2 -->
<g id="edge1" class="edge"><title>Node1&#45;&gt;Node2</title>
<path fill="none" stroke="midnightblue" d="M107.388,-29C115.794,-29 124.479,-29 132.971,-29"/>
<polygon fill="midnightblue" stroke="midnightblue" points="107.306,-25.5001 97.3059,-29 107.306,-32.5001 107.306,-25.5001"/>
</g>
<!-- Node3 -->
<g id="node3" class="node"><title>Node3</title>
<g id="a_node3"><a xlink:href="class_ihm.html#af0426507c2130aefd01bdb4f825ae168" target="_top" xlink:title="Méthode qui actualise l&#39;etat de la led dans ihm et change le radiobutton activer en fontion de l&#39;etat...">
<polygon fill="white" stroke="black" points="315.5,-38.5 315.5,-57.5 422.5,-57.5 422.5,-38.5 315.5,-38.5"/>
<text text-anchor="middle" x="369" y="-45.5" font-family="Helvetica,sans-Serif" font-size="10.00">Ihm::modifierEtatLed</text>
</a>
</g>
</g>
<!-- Node2&#45;&gt;Node3 -->
<g id="edge2" class="edge"><title>Node2&#45;&gt;Node3</title>
<path fill="none" stroke="midnightblue" d="M270.363,-37.1196C285.46,-38.802 301.087,-40.5434 315.295,-42.1267"/>
<polygon fill="midnightblue" stroke="midnightblue" points="270.346,-33.5961 260.02,-35.967 269.571,-40.5531 270.346,-33.5961"/>
</g>
<!-- Node4 -->
<g id="node4" class="node"><title>Node4</title>
<g id="a_node4"><a xlink:href="class_transmission.html#adcdc6012d99ddb1d0c3159d50984e146" target="_top" xlink:title="destructeur de la classe Transmission ">
<polygon fill="white" stroke="black" points="296,-0.5 296,-19.5 442,-19.5 442,-0.5 296,-0.5"/>
<text text-anchor="middle" x="369" y="-7.5" font-family="Helvetica,sans-Serif" font-size="10.00">Transmission::~Transmission</text>
</a>
</g>
</g>
<!-- Node2&#45;&gt;Node4 -->
<g id="edge3" class="edge"><title>Node2&#45;&gt;Node4</title>
<path fill="none" stroke="midnightblue" d="M270.008,-20.92C278.603,-19.9621 287.376,-18.9845 295.965,-18.0274"/>
<polygon fill="midnightblue" stroke="midnightblue" points="269.571,-17.4469 260.02,-22.033 270.346,-24.4039 269.571,-17.4469"/>
</g>
</g>
</svg>
