<?xml version="1.0" encoding="UTF-8" standalone="no"?>
<!DOCTYPE svg PUBLIC "-//W3C//DTD SVG 1.1//EN"
 "http://www.w3.org/Graphics/SVG/1.1/DTD/svg11.dtd">
<!-- Generated by graphviz version 2.38.0 (20140413.2041)
 -->
<!-- Title: Transmission::fermerPort Pages: 1 -->
<svg width="313pt" height="484pt"
 viewBox="0.00 0.00 313.00 484.00" xmlns="http://www.w3.org/2000/svg" xmlns:xlink="http://www.w3.org/1999/xlink">
<g id="graph0" class="graph" transform="scale(1 1) rotate(0) translate(4 480)">
<title>Transmission::fermerPort</title>
<polygon fill="white" stroke="none" points="-4,4 -4,-480 309,-480 309,4 -4,4"/>
<!-- Node1 -->
<g id="node1" class="node"><title>Node1</title>
<polygon fill="#bfbfbf" stroke="black" points="0,-228.5 0,-247.5 127,-247.5 127,-228.5 0,-228.5"/>
<text text-anchor="middle" x="63.5" y="-235.5" font-family="Helvetica,sans-Serif" font-size="10.00">Transmission::fermerPort</text>
</g>
<!-- Node2 -->
<g id="node2" class="node"><title>Node2</title>
<g id="a_node2"><a xlink:href="class_esp32.html#a8e7a509ed5704bee4bc527ae297f14f0" target="_top" xlink:title="modifie la variable température avec celle&#45;ci passer en paramètre ">
<polygon fill="white" stroke="black" points="174.5,-456.5 174.5,-475.5 293.5,-475.5 293.5,-456.5 174.5,-456.5"/>
<text text-anchor="middle" x="234" y="-463.5" font-family="Helvetica,sans-Serif" font-size="10.00">Esp32::setTemperature</text>
</a>
</g>
</g>
<!-- Node1&#45;&gt;Node2 -->
<g id="edge1" class="edge"><title>Node1&#45;&gt;Node2</title>
<path fill="none" stroke="midnightblue" d="M66.0999,-247.636C72.1277,-280.815 96.6041,-391.335 163,-447 165.026,-448.699 167.191,-450.247 169.459,-451.658"/>
<polygon fill="midnightblue" stroke="midnightblue" points="168.148,-454.922 178.633,-456.444 171.386,-448.715 168.148,-454.922"/>
</g>
<!-- Node3 -->
<g id="node3" class="node"><title>Node3</title>
<g id="a_node3"><a xlink:href="class_esp32.html#a709c261e1cea7b6bbd2ea1b09b1d7ec0" target="_top" xlink:title="modifie la variable de l&#39;uniter utiliser pour la temperature ">
<polygon fill="white" stroke="black" points="163,-418.5 163,-437.5 305,-437.5 305,-418.5 163,-418.5"/>
<text text-anchor="middle" x="234" y="-425.5" font-family="Helvetica,sans-Serif" font-size="10.00">Esp32::setTemperatureUnite</text>
</a>
</g>
</g>
<!-- Node1&#45;&gt;Node3 -->
<g id="edge2" class="edge"><title>Node1&#45;&gt;Node3</title>
<path fill="none" stroke="midnightblue" d="M67.253,-247.903C75.9556,-277.319 105.742,-364.871 163,-409 165.338,-410.802 167.834,-412.433 170.44,-413.909"/>
<polygon fill="midnightblue" stroke="midnightblue" points="169.128,-417.162 179.655,-418.357 172.171,-410.858 169.128,-417.162"/>
</g>
<!-- Node4 -->
<g id="node4" class="node"><title>Node4</title>
<g id="a_node4"><a xlink:href="class_esp32.html#a85dc760b771c9233fa094a49679d9286" target="_top" xlink:title="modifie la variable ressentie avec celle&#45;ci passer en paramètre ">
<polygon fill="white" stroke="black" points="180,-380.5 180,-399.5 288,-399.5 288,-380.5 180,-380.5"/>
<text text-anchor="middle" x="234" y="-387.5" font-family="Helvetica,sans-Serif" font-size="10.00">Esp32::setRessentie</text>
</a>
</g>
</g>
<!-- Node1&#45;&gt;Node4 -->
<g id="edge3" class="edge"><title>Node1&#45;&gt;Node4</title>
<path fill="none" stroke="midnightblue" d="M68.8787,-247.777C80.4562,-272.478 114.358,-337.78 163,-371 165.949,-373.014 169.104,-374.815 172.382,-376.425"/>
<polygon fill="midnightblue" stroke="midnightblue" points="171.311,-379.773 181.882,-380.478 174.058,-373.335 171.311,-379.773"/>
</g>
<!-- Node5 -->
<g id="node5" class="node"><title>Node5</title>
<g id="a_node5"><a xlink:href="class_esp32.html#abf8a7f9942150b6c17cc5d1cc7b0fc8a" target="_top" xlink:title="modifie la variable de l&#39;uniter utiliser pour le ressentie ">
<polygon fill="white" stroke="black" points="168.5,-342.5 168.5,-361.5 299.5,-361.5 299.5,-342.5 168.5,-342.5"/>
<text text-anchor="middle" x="234" y="-349.5" font-family="Helvetica,sans-Serif" font-size="10.00">Esp32::setRessentieUnite</text>
</a>
</g>
</g>
<!-- Node1&#45;&gt;Node5 -->
<g id="edge4" class="edge"><title>Node1&#45;&gt;Node5</title>
<path fill="none" stroke="midnightblue" d="M71.7495,-247.716C86.6469,-266.982 122.707,-310.134 163,-333 166.926,-335.228 171.124,-337.204 175.442,-338.956"/>
<polygon fill="midnightblue" stroke="midnightblue" points="174.433,-342.313 185.027,-342.442 176.826,-335.735 174.433,-342.313"/>
</g>
<!-- Node6 -->
<g id="node6" class="node"><title>Node6</title>
<g id="a_node6"><a xlink:href="class_esp32.html#add0a064335e1ac6d96e1bbb7818d299a" target="_top" xlink:title="modifie la variable de l&#39;humidite ">
<polygon fill="white" stroke="black" points="182.5,-304.5 182.5,-323.5 285.5,-323.5 285.5,-304.5 182.5,-304.5"/>
<text text-anchor="middle" x="234" y="-311.5" font-family="Helvetica,sans-Serif" font-size="10.00">Esp32::setHumidite</text>
</a>
</g>
</g>
<!-- Node1&#45;&gt;Node6 -->
<g id="edge5" class="edge"><title>Node1&#45;&gt;Node6</title>
<path fill="none" stroke="midnightblue" d="M78.2576,-247.514C96.7743,-259.948 131.084,-281.701 163,-295 168.797,-297.416 174.993,-299.611 181.211,-301.581"/>
<polygon fill="midnightblue" stroke="midnightblue" points="180.364,-304.981 190.947,-304.489 182.367,-298.273 180.364,-304.981"/>
</g>
<!-- Node7 -->
<g id="node7" class="node"><title>Node7</title>
<g id="a_node7"><a xlink:href="class_esp32.html#ae9b2704f36bcd246668354d0ac06ea35" target="_top" xlink:title="modifie la variable de l&#39;uniter utiliser pour l&#39;humidite ">
<polygon fill="white" stroke="black" points="171,-266.5 171,-285.5 297,-285.5 297,-266.5 171,-266.5"/>
<text text-anchor="middle" x="234" y="-273.5" font-family="Helvetica,sans-Serif" font-size="10.00">Esp32::setHumiditeUnite</text>
</a>
</g>
</g>
<!-- Node1&#45;&gt;Node7 -->
<g id="edge6" class="edge"><title>Node1&#45;&gt;Node7</title>
<path fill="none" stroke="midnightblue" d="M107.02,-247.589C129.455,-252.649 157.173,-258.9 180.893,-264.249"/>
<polygon fill="midnightblue" stroke="midnightblue" points="180.261,-267.694 190.786,-266.48 181.801,-260.866 180.261,-267.694"/>
</g>
<!-- Node8 -->
<g id="node8" class="node"><title>Node8</title>
<g id="a_node8"><a xlink:href="class_esp32.html#ae60b48e8c808a5108402d5b9f03590ac" target="_top" xlink:title="modifie la variable de la luminosite ">
<polygon fill="white" stroke="black" points="178.5,-228.5 178.5,-247.5 289.5,-247.5 289.5,-228.5 178.5,-228.5"/>
<text text-anchor="middle" x="234" y="-235.5" font-family="Helvetica,sans-Serif" font-size="10.00">Esp32::setLuminosite</text>
</a>
</g>
</g>
<!-- Node1&#45;&gt;Node8 -->
<g id="edge7" class="edge"><title>Node1&#45;&gt;Node8</title>
<path fill="none" stroke="midnightblue" d="M127.243,-238C140.59,-238 154.708,-238 168.132,-238"/>
<polygon fill="midnightblue" stroke="midnightblue" points="168.238,-241.5 178.238,-238 168.238,-234.5 168.238,-241.5"/>
</g>
<!-- Node9 -->
<g id="node9" class="node"><title>Node9</title>
<g id="a_node9"><a xlink:href="class_esp32.html#a36450bcd23e7676d1f0a46e8bec31275" target="_top" xlink:title="modifie la variable de l&#39;uniter utiliser pour la luminosite ">
<polygon fill="white" stroke="black" points="167,-190.5 167,-209.5 301,-209.5 301,-190.5 167,-190.5"/>
<text text-anchor="middle" x="234" y="-197.5" font-family="Helvetica,sans-Serif" font-size="10.00">Esp32::setLuminositeUnite</text>
</a>
</g>
</g>
<!-- Node1&#45;&gt;Node9 -->
<g id="edge8" class="edge"><title>Node1&#45;&gt;Node9</title>
<path fill="none" stroke="midnightblue" d="M107.02,-228.411C129.455,-223.351 157.173,-217.1 180.893,-211.751"/>
<polygon fill="midnightblue" stroke="midnightblue" points="181.801,-215.134 190.786,-209.52 180.261,-208.306 181.801,-215.134"/>
</g>
<!-- Node10 -->
<g id="node10" class="node"><title>Node10</title>
<g id="a_node10"><a xlink:href="class_esp32.html#a583358abbf0b279dabb5a2976f1783de" target="_top" xlink:title="modifie la variable de la pression ">
<polygon fill="white" stroke="black" points="183,-152.5 183,-171.5 285,-171.5 285,-152.5 183,-152.5"/>
<text text-anchor="middle" x="234" y="-159.5" font-family="Helvetica,sans-Serif" font-size="10.00">Esp32::setPression</text>
</a>
</g>
</g>
<!-- Node1&#45;&gt;Node10 -->
<g id="edge9" class="edge"><title>Node1&#45;&gt;Node10</title>
<path fill="none" stroke="midnightblue" d="M78.2576,-228.486C96.7743,-216.052 131.084,-194.299 163,-181 168.797,-178.584 174.993,-176.389 181.211,-174.419"/>
<polygon fill="midnightblue" stroke="midnightblue" points="182.367,-177.727 190.947,-171.511 180.364,-171.019 182.367,-177.727"/>
</g>
<!-- Node11 -->
<g id="node11" class="node"><title>Node11</title>
<g id="a_node11"><a xlink:href="class_esp32.html#a3c6dd57f955aef0738c48be705538337" target="_top" xlink:title="modifie la variable de l&#39;uniter utiliser pour la pression ">
<polygon fill="white" stroke="black" points="171.5,-114.5 171.5,-133.5 296.5,-133.5 296.5,-114.5 171.5,-114.5"/>
<text text-anchor="middle" x="234" y="-121.5" font-family="Helvetica,sans-Serif" font-size="10.00">Esp32::setPressionUnite</text>
</a>
</g>
</g>
<!-- Node1&#45;&gt;Node11 -->
<g id="edge10" class="edge"><title>Node1&#45;&gt;Node11</title>
<path fill="none" stroke="midnightblue" d="M71.7495,-228.284C86.6469,-209.018 122.707,-165.866 163,-143 166.926,-140.772 171.124,-138.796 175.442,-137.044"/>
<polygon fill="midnightblue" stroke="midnightblue" points="176.826,-140.265 185.027,-133.558 174.433,-133.687 176.826,-140.265"/>
</g>
<!-- Node12 -->
<g id="node12" class="node"><title>Node12</title>
<g id="a_node12"><a xlink:href="class_esp32.html#aeb2268155501f27e36e6a7c6caa15412" target="_top" xlink:title="modifie la variable altitude passer en paramètre ">
<polygon fill="white" stroke="black" points="185.5,-76.5 185.5,-95.5 282.5,-95.5 282.5,-76.5 185.5,-76.5"/>
<text text-anchor="middle" x="234" y="-83.5" font-family="Helvetica,sans-Serif" font-size="10.00">Esp32::setAltitude</text>
</a>
</g>
</g>
<!-- Node1&#45;&gt;Node12 -->
<g id="edge11" class="edge"><title>Node1&#45;&gt;Node12</title>
<path fill="none" stroke="midnightblue" d="M68.8787,-228.223C80.4562,-203.522 114.358,-138.22 163,-105 166.952,-102.301 171.272,-99.9851 175.766,-97.9974"/>
<polygon fill="midnightblue" stroke="midnightblue" points="177.104,-101.233 185.168,-94.3613 174.579,-94.7038 177.104,-101.233"/>
</g>
<!-- Node13 -->
<g id="node13" class="node"><title>Node13</title>
<g id="a_node13"><a xlink:href="class_esp32.html#a69b0c6a1c0a31e043b715be3fc40ded1" target="_top" xlink:title="modifie la variable de l&#39;uniter utiliser pour l&#39;altitude ">
<polygon fill="white" stroke="black" points="174,-38.5 174,-57.5 294,-57.5 294,-38.5 174,-38.5"/>
<text text-anchor="middle" x="234" y="-45.5" font-family="Helvetica,sans-Serif" font-size="10.00">Esp32::setAltitudeUnite</text>
</a>
</g>
</g>
<!-- Node1&#45;&gt;Node13 -->
<g id="edge12" class="edge"><title>Node1&#45;&gt;Node13</title>
<path fill="none" stroke="midnightblue" d="M67.253,-228.097C75.9556,-198.681 105.742,-111.129 163,-67 165.338,-65.1984 167.834,-63.5674 170.44,-62.0908"/>
<polygon fill="midnightblue" stroke="midnightblue" points="172.171,-65.1418 179.655,-57.6425 169.128,-58.8379 172.171,-65.1418"/>
</g>
<!-- Node14 -->
<g id="node14" class="node"><title>Node14</title>
<g id="a_node14"><a xlink:href="class_esp32.html#a32d0d1abb41a3762a54e9f5a33b3b247" target="_top" xlink:title="modifie la variable de l&#39;etat de la led ">
<polygon fill="white" stroke="black" points="177.5,-0.5 177.5,-19.5 290.5,-19.5 290.5,-0.5 177.5,-0.5"/>
<text text-anchor="middle" x="234" y="-7.5" font-family="Helvetica,sans-Serif" font-size="10.00">Esp32::setCouleurLed</text>
</a>
</g>
</g>
<!-- Node1&#45;&gt;Node14 -->
<g id="edge13" class="edge"><title>Node1&#45;&gt;Node14</title>
<path fill="none" stroke="midnightblue" d="M66.0999,-228.364C72.1277,-195.185 96.6041,-84.6651 163,-29 165.026,-27.3011 167.191,-25.753 169.459,-24.3425"/>
<polygon fill="midnightblue" stroke="midnightblue" points="171.386,-27.2845 178.633,-19.5558 168.148,-21.0784 171.386,-27.2845"/>
</g>
</g>
</svg>
