<?xml version="1.0" encoding="UTF-8" standalone="no"?>
<!DOCTYPE svg PUBLIC "-//W3C//DTD SVG 1.1//EN"
 "http://www.w3.org/Graphics/SVG/1.1/DTD/svg11.dtd">
<!-- Generated by graphviz version 2.38.0 (20140413.2041)
 -->
<!-- Title: Esp32::getAltitude Pages: 1 -->
<svg width="348pt" height="28pt"
 viewBox="0.00 0.00 348.00 28.00" xmlns="http://www.w3.org/2000/svg" xmlns:xlink="http://www.w3.org/1999/xlink">
<g id="graph0" class="graph" transform="scale(1 1) rotate(0) translate(4 24)">
<title>Esp32::getAltitude</title>
<polygon fill="white" stroke="none" points="-4,4 -4,-24 344,-24 344,4 -4,4"/>
<!-- Node1 -->
<g id="node1" class="node"><title>Node1</title>
<polygon fill="#bfbfbf" stroke="black" points="0,-0.5 0,-19.5 97,-19.5 97,-0.5 0,-0.5"/>
<text text-anchor="middle" x="48.5" y="-7.5" font-family="Helvetica,sans-Serif" font-size="10.00">Esp32::getAltitude</text>
</g>
<!-- Node2 -->
<g id="node2" class="node"><title>Node2</title>
<g id="a_node2"><a xlink:href="class_ihm.html#a7c0a160f30e11a4f8d56b174e07566fe" target="_top" xlink:title="Ihm::actualiserDonnee">
<polygon fill="white" stroke="black" points="133,-0.5 133,-19.5 248,-19.5 248,-0.5 133,-0.5"/>
<text text-anchor="middle" x="190.5" y="-7.5" font-family="Helvetica,sans-Serif" font-size="10.00">Ihm::actualiserDonnee</text>
</a>
</g>
</g>
<!-- Node1&#45;&gt;Node2 -->
<g id="edge1" class="edge"><title>Node1&#45;&gt;Node2</title>
<path fill="none" stroke="midnightblue" d="M107.367,-10C115.754,-10 124.381,-10 132.746,-10"/>
<polygon fill="midnightblue" stroke="midnightblue" points="107.289,-6.5001 97.2885,-10 107.288,-13.5001 107.289,-6.5001"/>
</g>
<!-- Node3 -->
<g id="node3" class="node"><title>Node3</title>
<g id="a_node3"><a xlink:href="class_ihm.html#a50a7a15775452923868348bdbe4fa51e" target="_top" xlink:title="constructeur de la classe Ihm ">
<polygon fill="white" stroke="black" points="284,-0.5 284,-19.5 340,-19.5 340,-0.5 284,-0.5"/>
<text text-anchor="middle" x="312" y="-7.5" font-family="Helvetica,sans-Serif" font-size="10.00">Ihm::Ihm</text>
</a>
</g>
</g>
<!-- Node2&#45;&gt;Node3 -->
<g id="edge2" class="edge"><title>Node2&#45;&gt;Node3</title>
<path fill="none" stroke="midnightblue" d="M258.291,-10C267.276,-10 276.045,-10 283.77,-10"/>
<polygon fill="midnightblue" stroke="midnightblue" points="258.1,-6.5001 248.1,-10 258.1,-13.5001 258.1,-6.5001"/>
</g>
</g>
</svg>
