<?xml version="1.0" encoding="UTF-8" standalone="no"?>
<!DOCTYPE svg PUBLIC "-//W3C//DTD SVG 1.1//EN"
 "http://www.w3.org/Graphics/SVG/1.1/DTD/svg11.dtd">
<!-- Generated by graphviz version 2.38.0 (20140413.2041)
 -->
<!-- Title: Esp32::getPressionUnite Pages: 1 -->
<svg width="376pt" height="28pt"
 viewBox="0.00 0.00 376.00 28.00" xmlns="http://www.w3.org/2000/svg" xmlns:xlink="http://www.w3.org/1999/xlink">
<g id="graph0" class="graph" transform="scale(1 1) rotate(0) translate(4 24)">
<title>Esp32::getPressionUnite</title>
<polygon fill="white" stroke="none" points="-4,4 -4,-24 372,-24 372,4 -4,4"/>
<!-- Node1 -->
<g id="node1" class="node"><title>Node1</title>
<polygon fill="#bfbfbf" stroke="black" points="0,-0.5 0,-19.5 125,-19.5 125,-0.5 0,-0.5"/>
<text text-anchor="middle" x="62.5" y="-7.5" font-family="Helvetica,sans-Serif" font-size="10.00">Esp32::getPressionUnite</text>
</g>
<!-- Node2 -->
<g id="node2" class="node"><title>Node2</title>
<g id="a_node2"><a xlink:href="class_ihm.html#a7c0a160f30e11a4f8d56b174e07566fe" target="_top" xlink:title="Ihm::actualiserDonnee">
<polygon fill="white" stroke="black" points="161,-0.5 161,-19.5 276,-19.5 276,-0.5 161,-0.5"/>
<text text-anchor="middle" x="218.5" y="-7.5" font-family="Helvetica,sans-Serif" font-size="10.00">Ihm::actualiserDonnee</text>
</a>
</g>
</g>
<!-- Node1&#45;&gt;Node2 -->
<g id="edge1" class="edge"><title>Node1&#45;&gt;Node2</title>
<path fill="none" stroke="midnightblue" d="M135.505,-10C143.967,-10 152.511,-10 160.723,-10"/>
<polygon fill="midnightblue" stroke="midnightblue" points="135.25,-6.5001 125.25,-10 135.25,-13.5001 135.25,-6.5001"/>
</g>
<!-- Node3 -->
<g id="node3" class="node"><title>Node3</title>
<g id="a_node3"><a xlink:href="class_ihm.html#a50a7a15775452923868348bdbe4fa51e" target="_top" xlink:title="constructeur de la classe Ihm ">
<polygon fill="white" stroke="black" points="312,-0.5 312,-19.5 368,-19.5 368,-0.5 312,-0.5"/>
<text text-anchor="middle" x="340" y="-7.5" font-family="Helvetica,sans-Serif" font-size="10.00">Ihm::Ihm</text>
</a>
</g>
</g>
<!-- Node2&#45;&gt;Node3 -->
<g id="edge2" class="edge"><title>Node2&#45;&gt;Node3</title>
<path fill="none" stroke="midnightblue" d="M286.291,-10C295.276,-10 304.045,-10 311.77,-10"/>
<polygon fill="midnightblue" stroke="midnightblue" points="286.1,-6.5001 276.1,-10 286.1,-13.5001 286.1,-6.5001"/>
</g>
</g>
</svg>
