<?xml version="1.0" encoding="UTF-8" standalone="no"?>
<!DOCTYPE svg PUBLIC "-//W3C//DTD SVG 1.1//EN"
 "http://www.w3.org/Graphics/SVG/1.1/DTD/svg11.dtd">
<!-- Generated by graphviz version 2.38.0 (20140413.2041)
 -->
<!-- Title: Transmission::~Transmission Pages: 1 -->
<svg width="495pt" height="484pt"
 viewBox="0.00 0.00 495.00 484.00" xmlns="http://www.w3.org/2000/svg" xmlns:xlink="http://www.w3.org/1999/xlink">
<g id="graph0" class="graph" transform="scale(1 1) rotate(0) translate(4 480)">
<title>Transmission::~Transmission</title>
<polygon fill="white" stroke="none" points="-4,4 -4,-480 491,-480 491,4 -4,4"/>
<!-- Node1 -->
<g id="node1" class="node"><title>Node1</title>
<polygon fill="#bfbfbf" stroke="black" points="0,-228.5 0,-247.5 146,-247.5 146,-228.5 0,-228.5"/>
<text text-anchor="middle" x="73" y="-235.5" font-family="Helvetica,sans-Serif" font-size="10.00">Transmission::~Transmission</text>
</g>
<!-- Node2 -->
<g id="node2" class="node"><title>Node2</title>
<g id="a_node2"><a xlink:href="class_transmission.html#a14d36ad615852d6b630fbddf5787f3a3" target="_top" xlink:title="cette methode ferme le port serie ">
<polygon fill="white" stroke="black" points="182,-228.5 182,-247.5 309,-247.5 309,-228.5 182,-228.5"/>
<text text-anchor="middle" x="245.5" y="-235.5" font-family="Helvetica,sans-Serif" font-size="10.00">Transmission::fermerPort</text>
</a>
</g>
</g>
<!-- Node1&#45;&gt;Node2 -->
<g id="edge1" class="edge"><title>Node1&#45;&gt;Node2</title>
<path fill="none" stroke="midnightblue" d="M146.307,-238C154.696,-238 163.255,-238 171.651,-238"/>
<polygon fill="midnightblue" stroke="midnightblue" points="171.788,-241.5 181.788,-238 171.788,-234.5 171.788,-241.5"/>
</g>
<!-- Node3 -->
<g id="node3" class="node"><title>Node3</title>
<g id="a_node3"><a xlink:href="class_esp32.html#a8e7a509ed5704bee4bc527ae297f14f0" target="_top" xlink:title="modifie la variable température avec celle&#45;ci passer en paramètre ">
<polygon fill="white" stroke="black" points="356.5,-456.5 356.5,-475.5 475.5,-475.5 475.5,-456.5 356.5,-456.5"/>
<text text-anchor="middle" x="416" y="-463.5" font-family="Helvetica,sans-Serif" font-size="10.00">Esp32::setTemperature</text>
</a>
</g>
</g>
<!-- Node2&#45;&gt;Node3 -->
<g id="edge2" class="edge"><title>Node2&#45;&gt;Node3</title>
<path fill="none" stroke="midnightblue" d="M248.1,-247.636C254.128,-280.815 278.604,-391.335 345,-447 347.026,-448.699 349.191,-450.247 351.459,-451.658"/>
<polygon fill="midnightblue" stroke="midnightblue" points="350.148,-454.922 360.633,-456.444 353.386,-448.715 350.148,-454.922"/>
</g>
<!-- Node4 -->
<g id="node4" class="node"><title>Node4</title>
<g id="a_node4"><a xlink:href="class_esp32.html#a709c261e1cea7b6bbd2ea1b09b1d7ec0" target="_top" xlink:title="modifie la variable de l&#39;uniter utiliser pour la temperature ">
<polygon fill="white" stroke="black" points="345,-418.5 345,-437.5 487,-437.5 487,-418.5 345,-418.5"/>
<text text-anchor="middle" x="416" y="-425.5" font-family="Helvetica,sans-Serif" font-size="10.00">Esp32::setTemperatureUnite</text>
</a>
</g>
</g>
<!-- Node2&#45;&gt;Node4 -->
<g id="edge3" class="edge"><title>Node2&#45;&gt;Node4</title>
<path fill="none" stroke="midnightblue" d="M249.253,-247.903C257.956,-277.319 287.742,-364.871 345,-409 347.338,-410.802 349.834,-412.433 352.44,-413.909"/>
<polygon fill="midnightblue" stroke="midnightblue" points="351.128,-417.162 361.655,-418.357 354.171,-410.858 351.128,-417.162"/>
</g>
<!-- Node5 -->
<g id="node5" class="node"><title>Node5</title>
<g id="a_node5"><a xlink:href="class_esp32.html#a85dc760b771c9233fa094a49679d9286" target="_top" xlink:title="modifie la variable ressentie avec celle&#45;ci passer en paramètre ">
<polygon fill="white" stroke="black" points="362,-380.5 362,-399.5 470,-399.5 470,-380.5 362,-380.5"/>
<text text-anchor="middle" x="416" y="-387.5" font-family="Helvetica,sans-Serif" font-size="10.00">Esp32::setRessentie</text>
</a>
</g>
</g>
<!-- Node2&#45;&gt;Node5 -->
<g id="edge4" class="edge"><title>Node2&#45;&gt;Node5</title>
<path fill="none" stroke="midnightblue" d="M250.879,-247.777C262.456,-272.478 296.358,-337.78 345,-371 347.949,-373.014 351.104,-374.815 354.382,-376.425"/>
<polygon fill="midnightblue" stroke="midnightblue" points="353.311,-379.773 363.882,-380.478 356.058,-373.335 353.311,-379.773"/>
</g>
<!-- Node6 -->
<g id="node6" class="node"><title>Node6</title>
<g id="a_node6"><a xlink:href="class_esp32.html#abf8a7f9942150b6c17cc5d1cc7b0fc8a" target="_top" xlink:title="modifie la variable de l&#39;uniter utiliser pour le ressentie ">
<polygon fill="white" stroke="black" points="350.5,-342.5 350.5,-361.5 481.5,-361.5 481.5,-342.5 350.5,-342.5"/>
<text text-anchor="middle" x="416" y="-349.5" font-family="Helvetica,sans-Serif" font-size="10.00">Esp32::setRessentieUnite</text>
</a>
</g>
</g>
<!-- Node2&#45;&gt;Node6 -->
<g id="edge5" class="edge"><title>Node2&#45;&gt;Node6</title>
<path fill="none" stroke="midnightblue" d="M253.749,-247.716C268.647,-266.982 304.707,-310.134 345,-333 348.926,-335.228 353.124,-337.204 357.442,-338.956"/>
<polygon fill="midnightblue" stroke="midnightblue" points="356.433,-342.313 367.027,-342.442 358.826,-335.735 356.433,-342.313"/>
</g>
<!-- Node7 -->
<g id="node7" class="node"><title>Node7</title>
<g id="a_node7"><a xlink:href="class_esp32.html#add0a064335e1ac6d96e1bbb7818d299a" target="_top" xlink:title="modifie la variable de l&#39;humidite ">
<polygon fill="white" stroke="black" points="364.5,-304.5 364.5,-323.5 467.5,-323.5 467.5,-304.5 364.5,-304.5"/>
<text text-anchor="middle" x="416" y="-311.5" font-family="Helvetica,sans-Serif" font-size="10.00">Esp32::setHumidite</text>
</a>
</g>
</g>
<!-- Node2&#45;&gt;Node7 -->
<g id="edge6" class="edge"><title>Node2&#45;&gt;Node7</title>
<path fill="none" stroke="midnightblue" d="M260.258,-247.514C278.774,-259.948 313.084,-281.701 345,-295 350.797,-297.416 356.993,-299.611 363.211,-301.581"/>
<polygon fill="midnightblue" stroke="midnightblue" points="362.364,-304.981 372.947,-304.489 364.367,-298.273 362.364,-304.981"/>
</g>
<!-- Node8 -->
<g id="node8" class="node"><title>Node8</title>
<g id="a_node8"><a xlink:href="class_esp32.html#ae9b2704f36bcd246668354d0ac06ea35" target="_top" xlink:title="modifie la variable de l&#39;uniter utiliser pour l&#39;humidite ">
<polygon fill="white" stroke="black" points="353,-266.5 353,-285.5 479,-285.5 479,-266.5 353,-266.5"/>
<text text-anchor="middle" x="416" y="-273.5" font-family="Helvetica,sans-Serif" font-size="10.00">Esp32::setHumiditeUnite</text>
</a>
</g>
</g>
<!-- Node2&#45;&gt;Node8 -->
<g id="edge7" class="edge"><title>Node2&#45;&gt;Node8</title>
<path fill="none" stroke="midnightblue" d="M289.02,-247.589C311.455,-252.649 339.173,-258.9 362.893,-264.249"/>
<polygon fill="midnightblue" stroke="midnightblue" points="362.261,-267.694 372.786,-266.48 363.801,-260.866 362.261,-267.694"/>
</g>
<!-- Node9 -->
<g id="node9" class="node"><title>Node9</title>
<g id="a_node9"><a xlink:href="class_esp32.html#ae60b48e8c808a5108402d5b9f03590ac" target="_top" xlink:title="modifie la variable de la luminosite ">
<polygon fill="white" stroke="black" points="360.5,-228.5 360.5,-247.5 471.5,-247.5 471.5,-228.5 360.5,-228.5"/>
<text text-anchor="middle" x="416" y="-235.5" font-family="Helvetica,sans-Serif" font-size="10.00">Esp32::setLuminosite</text>
</a>
</g>
</g>
<!-- Node2&#45;&gt;Node9 -->
<g id="edge8" class="edge"><title>Node2&#45;&gt;Node9</title>
<path fill="none" stroke="midnightblue" d="M309.243,-238C322.59,-238 336.708,-238 350.132,-238"/>
<polygon fill="midnightblue" stroke="midnightblue" points="350.238,-241.5 360.238,-238 350.238,-234.5 350.238,-241.5"/>
</g>
<!-- Node10 -->
<g id="node10" class="node"><title>Node10</title>
<g id="a_node10"><a xlink:href="class_esp32.html#a36450bcd23e7676d1f0a46e8bec31275" target="_top" xlink:title="modifie la variable de l&#39;uniter utiliser pour la luminosite ">
<polygon fill="white" stroke="black" points="349,-190.5 349,-209.5 483,-209.5 483,-190.5 349,-190.5"/>
<text text-anchor="middle" x="416" y="-197.5" font-family="Helvetica,sans-Serif" font-size="10.00">Esp32::setLuminositeUnite</text>
</a>
</g>
</g>
<!-- Node2&#45;&gt;Node10 -->
<g id="edge9" class="edge"><title>Node2&#45;&gt;Node10</title>
<path fill="none" stroke="midnightblue" d="M289.02,-228.411C311.455,-223.351 339.173,-217.1 362.893,-211.751"/>
<polygon fill="midnightblue" stroke="midnightblue" points="363.801,-215.134 372.786,-209.52 362.261,-208.306 363.801,-215.134"/>
</g>
<!-- Node11 -->
<g id="node11" class="node"><title>Node11</title>
<g id="a_node11"><a xlink:href="class_esp32.html#a583358abbf0b279dabb5a2976f1783de" target="_top" xlink:title="modifie la variable de la pression ">
<polygon fill="white" stroke="black" points="365,-152.5 365,-171.5 467,-171.5 467,-152.5 365,-152.5"/>
<text text-anchor="middle" x="416" y="-159.5" font-family="Helvetica,sans-Serif" font-size="10.00">Esp32::setPression</text>
</a>
</g>
</g>
<!-- Node2&#45;&gt;Node11 -->
<g id="edge10" class="edge"><title>Node2&#45;&gt;Node11</title>
<path fill="none" stroke="midnightblue" d="M260.258,-228.486C278.774,-216.052 313.084,-194.299 345,-181 350.797,-178.584 356.993,-176.389 363.211,-174.419"/>
<polygon fill="midnightblue" stroke="midnightblue" points="364.367,-177.727 372.947,-171.511 362.364,-171.019 364.367,-177.727"/>
</g>
<!-- Node12 -->
<g id="node12" class="node"><title>Node12</title>
<g id="a_node12"><a xlink:href="class_esp32.html#a3c6dd57f955aef0738c48be705538337" target="_top" xlink:title="modifie la variable de l&#39;uniter utiliser pour la pression ">
<polygon fill="white" stroke="black" points="353.5,-114.5 353.5,-133.5 478.5,-133.5 478.5,-114.5 353.5,-114.5"/>
<text text-anchor="middle" x="416" y="-121.5" font-family="Helvetica,sans-Serif" font-size="10.00">Esp32::setPressionUnite</text>
</a>
</g>
</g>
<!-- Node2&#45;&gt;Node12 -->
<g id="edge11" class="edge"><title>Node2&#45;&gt;Node12</title>
<path fill="none" stroke="midnightblue" d="M253.749,-228.284C268.647,-209.018 304.707,-165.866 345,-143 348.926,-140.772 353.124,-138.796 357.442,-137.044"/>
<polygon fill="midnightblue" stroke="midnightblue" points="358.826,-140.265 367.027,-133.558 356.433,-133.687 358.826,-140.265"/>
</g>
<!-- Node13 -->
<g id="node13" class="node"><title>Node13</title>
<g id="a_node13"><a xlink:href="class_esp32.html#aeb2268155501f27e36e6a7c6caa15412" target="_top" xlink:title="modifie la variable altitude passer en paramètre ">
<polygon fill="white" stroke="black" points="367.5,-76.5 367.5,-95.5 464.5,-95.5 464.5,-76.5 367.5,-76.5"/>
<text text-anchor="middle" x="416" y="-83.5" font-family="Helvetica,sans-Serif" font-size="10.00">Esp32::setAltitude</text>
</a>
</g>
</g>
<!-- Node2&#45;&gt;Node13 -->
<g id="edge12" class="edge"><title>Node2&#45;&gt;Node13</title>
<path fill="none" stroke="midnightblue" d="M250.879,-228.223C262.456,-203.522 296.358,-138.22 345,-105 348.952,-102.301 353.272,-99.9851 357.766,-97.9974"/>
<polygon fill="midnightblue" stroke="midnightblue" points="359.104,-101.233 367.168,-94.3613 356.579,-94.7038 359.104,-101.233"/>
</g>
<!-- Node14 -->
<g id="node14" class="node"><title>Node14</title>
<g id="a_node14"><a xlink:href="class_esp32.html#a69b0c6a1c0a31e043b715be3fc40ded1" target="_top" xlink:title="modifie la variable de l&#39;uniter utiliser pour l&#39;altitude ">
<polygon fill="white" stroke="black" points="356,-38.5 356,-57.5 476,-57.5 476,-38.5 356,-38.5"/>
<text text-anchor="middle" x="416" y="-45.5" font-family="Helvetica,sans-Serif" font-size="10.00">Esp32::setAltitudeUnite</text>
</a>
</g>
</g>
<!-- Node2&#45;&gt;Node14 -->
<g id="edge13" class="edge"><title>Node2&#45;&gt;Node14</title>
<path fill="none" stroke="midnightblue" d="M249.253,-228.097C257.956,-198.681 287.742,-111.129 345,-67 347.338,-65.1984 349.834,-63.5674 352.44,-62.0908"/>
<polygon fill="midnightblue" stroke="midnightblue" points="354.171,-65.1418 361.655,-57.6425 351.128,-58.8379 354.171,-65.1418"/>
</g>
<!-- Node15 -->
<g id="node15" class="node"><title>Node15</title>
<g id="a_node15"><a xlink:href="class_esp32.html#a32d0d1abb41a3762a54e9f5a33b3b247" target="_top" xlink:title="modifie la variable de l&#39;etat de la led ">
<polygon fill="white" stroke="black" points="359.5,-0.5 359.5,-19.5 472.5,-19.5 472.5,-0.5 359.5,-0.5"/>
<text text-anchor="middle" x="416" y="-7.5" font-family="Helvetica,sans-Serif" font-size="10.00">Esp32::setCouleurLed</text>
</a>
</g>
</g>
<!-- Node2&#45;&gt;Node15 -->
<g id="edge14" class="edge"><title>Node2&#45;&gt;Node15</title>
<path fill="none" stroke="midnightblue" d="M248.1,-228.364C254.128,-195.185 278.604,-84.6651 345,-29 347.026,-27.3011 349.191,-25.753 351.459,-24.3425"/>
<polygon fill="midnightblue" stroke="midnightblue" points="353.386,-27.2845 360.633,-19.5558 350.148,-21.0784 353.386,-27.2845"/>
</g>
</g>
</svg>
