<?xml version="1.0" encoding="UTF-8" standalone="no"?>
<!DOCTYPE svg PUBLIC "-//W3C//DTD SVG 1.1//EN"
 "http://www.w3.org/Graphics/SVG/1.1/DTD/svg11.dtd">
<!-- Generated by graphviz version 2.38.0 (20140413.2041)
 -->
<!-- Title: Ihm::modifierEtatLed Pages: 1 -->
<svg width="273pt" height="66pt"
 viewBox="0.00 0.00 273.00 66.00" xmlns="http://www.w3.org/2000/svg" xmlns:xlink="http://www.w3.org/1999/xlink">
<g id="graph0" class="graph" transform="scale(1 1) rotate(0) translate(4 62)">
<title>Ihm::modifierEtatLed</title>
<polygon fill="white" stroke="none" points="-4,4 -4,-62 269,-62 269,4 -4,4"/>
<!-- Node1 -->
<g id="node1" class="node"><title>Node1</title>
<polygon fill="#bfbfbf" stroke="black" points="0,-19.5 0,-38.5 107,-38.5 107,-19.5 0,-19.5"/>
<text text-anchor="middle" x="53.5" y="-26.5" font-family="Helvetica,sans-Serif" font-size="10.00">Ihm::modifierEtatLed</text>
</g>
<!-- Node2 -->
<g id="node2" class="node"><title>Node2</title>
<g id="a_node2"><a xlink:href="class_transmission.html#afccd88f8be8c204a0960bc2d6970931f" target="_top" xlink:title="return l&#39;objet Esp32 ">
<polygon fill="white" stroke="black" points="143,-38.5 143,-57.5 265,-57.5 265,-38.5 143,-38.5"/>
<text text-anchor="middle" x="204" y="-45.5" font-family="Helvetica,sans-Serif" font-size="10.00">Transmission::getEsp32</text>
</a>
</g>
</g>
<!-- Node1&#45;&gt;Node2 -->
<g id="edge1" class="edge"><title>Node1&#45;&gt;Node2</title>
<path fill="none" stroke="midnightblue" d="M107.274,-35.7522C115.542,-36.8102 124.2,-37.9179 132.786,-39.0163"/>
<polygon fill="midnightblue" stroke="midnightblue" points="132.44,-42.5006 142.803,-40.2981 133.328,-35.5572 132.44,-42.5006"/>
</g>
<!-- Node3 -->
<g id="node3" class="node"><title>Node3</title>
<g id="a_node3"><a xlink:href="class_esp32.html#ac695656654b5d83ec3924b47f533f465" target="_top" xlink:title="retourne l&#39;etat de la led ">
<polygon fill="white" stroke="black" points="155,-0.5 155,-19.5 253,-19.5 253,-0.5 155,-0.5"/>
<text text-anchor="middle" x="204" y="-7.5" font-family="Helvetica,sans-Serif" font-size="10.00">Esp32::getEtatLed</text>
</a>
</g>
</g>
<!-- Node1&#45;&gt;Node3 -->
<g id="edge2" class="edge"><title>Node1&#45;&gt;Node3</title>
<path fill="none" stroke="midnightblue" d="M107.274,-22.2478C119.388,-20.6979 132.336,-19.0411 144.67,-17.4631"/>
<polygon fill="midnightblue" stroke="midnightblue" points="145.379,-20.901 154.854,-16.1601 144.49,-13.9576 145.379,-20.901"/>
</g>
</g>
</svg>
