<?xml version="1.0" encoding="UTF-8" standalone="no"?>
<!DOCTYPE svg PUBLIC "-//W3C//DTD SVG 1.1//EN"
 "http://www.w3.org/Graphics/SVG/1.1/DTD/svg11.dtd">
<!-- Generated by graphviz version 2.38.0 (20140413.2041)
 -->
<!-- Title: Transmission::envoyerDonnees Pages: 1 -->
<svg width="351pt" height="235pt"
 viewBox="0.00 0.00 351.00 235.00" xmlns="http://www.w3.org/2000/svg" xmlns:xlink="http://www.w3.org/1999/xlink">
<g id="graph0" class="graph" transform="scale(1 1) rotate(0) translate(4 231)">
<title>Transmission::envoyerDonnees</title>
<polygon fill="white" stroke="none" points="-4,4 -4,-231 347,-231 347,4 -4,4"/>
<!-- Node1 -->
<g id="node1" class="node"><title>Node1</title>
<polygon fill="#bfbfbf" stroke="black" points="0,-104 0,-123 155,-123 155,-104 0,-104"/>
<text text-anchor="middle" x="77.5" y="-111" font-family="Helvetica,sans-Serif" font-size="10.00">Transmission::envoyerDonnees</text>
</g>
<!-- Node2 -->
<g id="node2" class="node"><title>Node2</title>
<g id="a_node2"><a xlink:href="class_ihm.html#afd32da9e614eba44bb1d3630b48e6075" target="_top" xlink:title="recuperer le texte de la lineEdit dans l&#39;onglet operateur pour l&#39;envoyer par le port serie ...">
<polygon fill="white" stroke="black" points="197,-196.5 197,-226.5 337,-226.5 337,-196.5 197,-196.5"/>
<text text-anchor="start" x="205" y="-214.5" font-family="Helvetica,sans-Serif" font-size="10.00">Ihm::on_pushButtonEnvoyer</text>
<text text-anchor="middle" x="267" y="-203.5" font-family="Helvetica,sans-Serif" font-size="10.00">Trame_clicked</text>
</a>
</g>
</g>
<!-- Node1&#45;&gt;Node2 -->
<g id="edge1" class="edge"><title>Node1&#45;&gt;Node2</title>
<path fill="none" stroke="midnightblue" d="M98.8026,-129.319C120.589,-145.689 156.703,-171.111 191,-187.5 197.908,-190.801 205.382,-193.806 212.845,-196.487"/>
<polygon fill="midnightblue" stroke="midnightblue" points="100.732,-126.389 90.6556,-123.116 96.4915,-131.959 100.732,-126.389"/>
</g>
<!-- Node3 -->
<g id="node3" class="node"><title>Node3</title>
<g id="a_node3"><a xlink:href="class_ihm.html#a731ee780915cb90a5dfb11f2e02144c9" target="_top" xlink:title="envoit une trame pour allumer la led en rouge ">
<polygon fill="white" stroke="black" points="192.5,-147.5 192.5,-177.5 341.5,-177.5 341.5,-147.5 192.5,-147.5"/>
<text text-anchor="start" x="200.5" y="-165.5" font-family="Helvetica,sans-Serif" font-size="10.00">Ihm::on_radioButtonLedRouge</text>
<text text-anchor="middle" x="267" y="-154.5" font-family="Helvetica,sans-Serif" font-size="10.00">_clicked</text>
</a>
</g>
</g>
<!-- Node1&#45;&gt;Node3 -->
<g id="edge2" class="edge"><title>Node1&#45;&gt;Node3</title>
<path fill="none" stroke="midnightblue" d="M124.808,-125.602C150.087,-132.208 181.614,-140.447 208.461,-147.463"/>
<polygon fill="midnightblue" stroke="midnightblue" points="125.657,-122.206 115.097,-123.064 123.887,-128.979 125.657,-122.206"/>
</g>
<!-- Node4 -->
<g id="node4" class="node"><title>Node4</title>
<g id="a_node4"><a xlink:href="class_ihm.html#afef5bfaa83383427e615d21d9474f466" target="_top" xlink:title="envoit une trame pour allumer la led en vert ">
<polygon fill="white" stroke="black" points="198,-98.5 198,-128.5 336,-128.5 336,-98.5 198,-98.5"/>
<text text-anchor="start" x="206" y="-116.5" font-family="Helvetica,sans-Serif" font-size="10.00">Ihm::on_radioButtonLedVert</text>
<text text-anchor="middle" x="267" y="-105.5" font-family="Helvetica,sans-Serif" font-size="10.00">_clicked</text>
</a>
</g>
</g>
<!-- Node1&#45;&gt;Node4 -->
<g id="edge3" class="edge"><title>Node1&#45;&gt;Node4</title>
<path fill="none" stroke="midnightblue" d="M165.074,-113.5C176.066,-113.5 187.19,-113.5 197.838,-113.5"/>
<polygon fill="midnightblue" stroke="midnightblue" points="165.034,-110 155.034,-113.5 165.034,-117 165.034,-110"/>
</g>
<!-- Node5 -->
<g id="node5" class="node"><title>Node5</title>
<g id="a_node5"><a xlink:href="class_ihm.html#a7e000e198b11fc38a4459f7749561ded" target="_top" xlink:title="envoit une trame pour allumer la led en orange ">
<polygon fill="white" stroke="black" points="191,-49.5 191,-79.5 343,-79.5 343,-49.5 191,-49.5"/>
<text text-anchor="start" x="199" y="-67.5" font-family="Helvetica,sans-Serif" font-size="10.00">Ihm::on_radioButtonLedOrange</text>
<text text-anchor="middle" x="267" y="-56.5" font-family="Helvetica,sans-Serif" font-size="10.00">_clicked</text>
</a>
</g>
</g>
<!-- Node1&#45;&gt;Node5 -->
<g id="edge4" class="edge"><title>Node1&#45;&gt;Node5</title>
<path fill="none" stroke="midnightblue" d="M124.808,-101.398C150.087,-94.792 181.614,-86.5529 208.461,-79.537"/>
<polygon fill="midnightblue" stroke="midnightblue" points="123.887,-98.0212 115.097,-103.936 125.657,-104.794 123.887,-98.0212"/>
</g>
<!-- Node6 -->
<g id="node6" class="node"><title>Node6</title>
<g id="a_node6"><a xlink:href="class_ihm.html#a1e328a2e8165bbef347e901f1bc5534d" target="_top" xlink:title="envoit une trame pour eteindre la led ">
<polygon fill="white" stroke="black" points="200,-0.5 200,-30.5 334,-30.5 334,-0.5 200,-0.5"/>
<text text-anchor="start" x="208" y="-18.5" font-family="Helvetica,sans-Serif" font-size="10.00">Ihm::on_radioButtonLedOff</text>
<text text-anchor="middle" x="267" y="-7.5" font-family="Helvetica,sans-Serif" font-size="10.00">_clicked</text>
</a>
</g>
</g>
<!-- Node1&#45;&gt;Node6 -->
<g id="edge5" class="edge"><title>Node1&#45;&gt;Node6</title>
<path fill="none" stroke="midnightblue" d="M99.2328,-97.7348C121.117,-81.6617 157.074,-56.8326 191,-40.5 198.544,-36.8683 206.751,-33.5479 214.877,-30.5967"/>
<polygon fill="midnightblue" stroke="midnightblue" points="96.9665,-95.0584 91.0311,-103.835 101.144,-100.675 96.9665,-95.0584"/>
</g>
</g>
</svg>
