<?xml version="1.0" encoding="UTF-8" standalone="no"?>
<!DOCTYPE svg PUBLIC "-//W3C//DTD SVG 1.1//EN"
 "http://www.w3.org/Graphics/SVG/1.1/DTD/svg11.dtd">
<!-- Generated by graphviz version 2.38.0 (20140413.2041)
 -->
<!-- Title: Esp32::setPressionUnite Pages: 1 -->
<svg width="1007pt" height="83pt"
 viewBox="0.00 0.00 1007.00 83.00" xmlns="http://www.w3.org/2000/svg" xmlns:xlink="http://www.w3.org/1999/xlink">
<g id="graph0" class="graph" transform="scale(1 1) rotate(0) translate(4 79)">
<title>Esp32::setPressionUnite</title>
<polygon fill="white" stroke="none" points="-4,4 -4,-79 1003,-79 1003,4 -4,4"/>
<!-- Node1 -->
<g id="node1" class="node"><title>Node1</title>
<polygon fill="#bfbfbf" stroke="black" points="0,-28 0,-47 125,-47 125,-28 0,-28"/>
<text text-anchor="middle" x="62.5" y="-35" font-family="Helvetica,sans-Serif" font-size="10.00">Esp32::setPressionUnite</text>
</g>
<!-- Node2 -->
<g id="node2" class="node"><title>Node2</title>
<g id="a_node2"><a xlink:href="class_transmission.html#aa2977705ec793b10bf3212a13e67b097" target="_top" xlink:title="Décompose la trame reçue. ">
<polygon fill="white" stroke="black" points="161,-28 161,-47 295,-47 295,-28 161,-28"/>
<text text-anchor="middle" x="228" y="-35" font-family="Helvetica,sans-Serif" font-size="10.00">Transmission::decomposer</text>
</a>
</g>
</g>
<!-- Node1&#45;&gt;Node2 -->
<g id="edge1" class="edge"><title>Node1&#45;&gt;Node2</title>
<path fill="none" stroke="midnightblue" d="M135.468,-37.5C143.871,-37.5 152.414,-37.5 160.734,-37.5"/>
<polygon fill="midnightblue" stroke="midnightblue" points="135.312,-34.0001 125.312,-37.5 135.312,-41.0001 135.312,-34.0001"/>
</g>
<!-- Node3 -->
<g id="node3" class="node"><title>Node3</title>
<g id="a_node3"><a xlink:href="class_transmission.html#aa54a695d9d1c728ccab04f1d8030da41" target="_top" xlink:title="Récupérer la trame émise. ">
<polygon fill="white" stroke="black" points="331,-28 331,-47 447,-47 447,-28 331,-28"/>
<text text-anchor="middle" x="389" y="-35" font-family="Helvetica,sans-Serif" font-size="10.00">Transmission::recevoir</text>
</a>
</g>
</g>
<!-- Node2&#45;&gt;Node3 -->
<g id="edge2" class="edge"><title>Node2&#45;&gt;Node3</title>
<path fill="none" stroke="midnightblue" d="M305.129,-37.5C313.757,-37.5 322.438,-37.5 330.765,-37.5"/>
<polygon fill="midnightblue" stroke="midnightblue" points="305.049,-34.0001 295.049,-37.5 305.049,-41.0001 305.049,-34.0001"/>
</g>
<!-- Node4 -->
<g id="node4" class="node"><title>Node4</title>
<g id="a_node4"><a xlink:href="class_transmission.html#a41d15e65be472e058b28869f8dfad392" target="_top" xlink:title="Transmission::ouvrirPort">
<polygon fill="white" stroke="black" points="501,-50 501,-69 624,-69 624,-50 501,-50"/>
<text text-anchor="middle" x="562.5" y="-57" font-family="Helvetica,sans-Serif" font-size="10.00">Transmission::ouvrirPort</text>
</a>
</g>
</g>
<!-- Node3&#45;&gt;Node4 -->
<g id="edge3" class="edge"><title>Node3&#45;&gt;Node4</title>
<path fill="none" stroke="midnightblue" d="M457.388,-46.1445C471.715,-47.9824 486.76,-49.9123 500.819,-51.7158"/>
<polygon fill="midnightblue" stroke="midnightblue" points="457.471,-42.6266 447.107,-44.8257 456.58,-49.5697 457.471,-42.6266"/>
</g>
<!-- Node7 -->
<g id="node7" class="node"><title>Node7</title>
<g id="a_node7"><a xlink:href="class_transmission.html#a5a21d201dd0096f96aec12264c2f03d9" target="_top" xlink:title="Permets de se connecter à un appareil. ">
<polygon fill="white" stroke="black" points="483,-0.5 483,-30.5 642,-30.5 642,-0.5 483,-0.5"/>
<text text-anchor="start" x="491" y="-18.5" font-family="Helvetica,sans-Serif" font-size="10.00">Transmission::connecterAppareil</text>
<text text-anchor="middle" x="562.5" y="-7.5" font-family="Helvetica,sans-Serif" font-size="10.00">Bluetooth</text>
</a>
</g>
</g>
<!-- Node3&#45;&gt;Node7 -->
<g id="edge6" class="edge"><title>Node3&#45;&gt;Node7</title>
<path fill="none" stroke="midnightblue" d="M457.249,-28.8733C465.685,-27.7911 474.372,-26.6768 482.961,-25.575"/>
<polygon fill="midnightblue" stroke="midnightblue" points="456.58,-25.4303 447.107,-30.1743 457.471,-32.3734 456.58,-25.4303"/>
</g>
<!-- Node5 -->
<g id="node5" class="node"><title>Node5</title>
<g id="a_node5"><a xlink:href="class_transmission.html#ab4e82ab30c181a8e0d0c0257ea0e1f56" target="_top" xlink:title="configure le port serie ">
<polygon fill="white" stroke="black" points="684,-50 684,-69 826,-69 826,-50 684,-50"/>
<text text-anchor="middle" x="755" y="-57" font-family="Helvetica,sans-Serif" font-size="10.00">Transmission::configurerPort</text>
</a>
</g>
</g>
<!-- Node4&#45;&gt;Node5 -->
<g id="edge4" class="edge"><title>Node4&#45;&gt;Node5</title>
<path fill="none" stroke="midnightblue" d="M634.04,-59.5C650.35,-59.5 667.699,-59.5 683.987,-59.5"/>
<polygon fill="midnightblue" stroke="midnightblue" points="634.037,-56.0001 624.037,-59.5 634.037,-63.0001 634.037,-56.0001"/>
</g>
<!-- Node6 -->
<g id="node6" class="node"><title>Node6</title>
<g id="a_node6"><a xlink:href="class_ihm.html#a9ce167b94baead6e318bbd0c5254f842" target="_top" xlink:title="bouton qui ouvre le port serie ">
<polygon fill="white" stroke="black" points="868,-44.5 868,-74.5 999,-74.5 999,-44.5 868,-44.5"/>
<text text-anchor="start" x="876" y="-62.5" font-family="Helvetica,sans-Serif" font-size="10.00">Ihm::on_pushButtonOuvrir</text>
<text text-anchor="middle" x="933.5" y="-51.5" font-family="Helvetica,sans-Serif" font-size="10.00">Port_clicked</text>
</a>
</g>
</g>
<!-- Node5&#45;&gt;Node6 -->
<g id="edge5" class="edge"><title>Node5&#45;&gt;Node6</title>
<path fill="none" stroke="midnightblue" d="M836.099,-59.5C846.693,-59.5 857.445,-59.5 867.738,-59.5"/>
<polygon fill="midnightblue" stroke="midnightblue" points="836.011,-56.0001 826.011,-59.5 836.011,-63.0001 836.011,-56.0001"/>
</g>
<!-- Node8 -->
<g id="node8" class="node"><title>Node8</title>
<g id="a_node8"><a xlink:href="class_ihm.html#ac154e42263a45f12d696a03a7ed6890f" target="_top" xlink:title="fonction appelée quand le bouton connexion est cliqué ">
<polygon fill="white" stroke="black" points="678,-0.5 678,-30.5 832,-30.5 832,-0.5 678,-0.5"/>
<text text-anchor="start" x="686" y="-18.5" font-family="Helvetica,sans-Serif" font-size="10.00">Ihm::on_pushButtonConnection</text>
<text text-anchor="middle" x="755" y="-7.5" font-family="Helvetica,sans-Serif" font-size="10.00">_clicked</text>
</a>
</g>
</g>
<!-- Node7&#45;&gt;Node8 -->
<g id="edge7" class="edge"><title>Node7&#45;&gt;Node8</title>
<path fill="none" stroke="midnightblue" d="M652.095,-15.5C660.666,-15.5 669.309,-15.5 677.745,-15.5"/>
<polygon fill="midnightblue" stroke="midnightblue" points="652.084,-12.0001 642.083,-15.5 652.083,-19.0001 652.084,-12.0001"/>
</g>
</g>
</svg>
