<?xml version="1.0" encoding="UTF-8" standalone="no"?>
<!DOCTYPE svg PUBLIC "-//W3C//DTD SVG 1.1//EN"
 "http://www.w3.org/Graphics/SVG/1.1/DTD/svg11.dtd">
<!-- Generated by graphviz version 2.38.0 (20140413.2041)
 -->
<!-- Title: Esp32::getTemperature Pages: 1 -->
<svg width="370pt" height="28pt"
 viewBox="0.00 0.00 370.00 28.00" xmlns="http://www.w3.org/2000/svg" xmlns:xlink="http://www.w3.org/1999/xlink">
<g id="graph0" class="graph" transform="scale(1 1) rotate(0) translate(4 24)">
<title>Esp32::getTemperature</title>
<polygon fill="white" stroke="none" points="-4,4 -4,-24 366,-24 366,4 -4,4"/>
<!-- Node1 -->
<g id="node1" class="node"><title>Node1</title>
<polygon fill="#bfbfbf" stroke="black" points="0,-0.5 0,-19.5 119,-19.5 119,-0.5 0,-0.5"/>
<text text-anchor="middle" x="59.5" y="-7.5" font-family="Helvetica,sans-Serif" font-size="10.00">Esp32::getTemperature</text>
</g>
<!-- Node2 -->
<g id="node2" class="node"><title>Node2</title>
<g id="a_node2"><a xlink:href="class_ihm.html#a7c0a160f30e11a4f8d56b174e07566fe" target="_top" xlink:title="Ihm::actualiserDonnee">
<polygon fill="white" stroke="black" points="155,-0.5 155,-19.5 270,-19.5 270,-0.5 155,-0.5"/>
<text text-anchor="middle" x="212.5" y="-7.5" font-family="Helvetica,sans-Serif" font-size="10.00">Ihm::actualiserDonnee</text>
</a>
</g>
</g>
<!-- Node1&#45;&gt;Node2 -->
<g id="edge1" class="edge"><title>Node1&#45;&gt;Node2</title>
<path fill="none" stroke="midnightblue" d="M129.477,-10C137.877,-10 146.385,-10 154.581,-10"/>
<polygon fill="midnightblue" stroke="midnightblue" points="129.313,-6.5001 119.313,-10 129.313,-13.5001 129.313,-6.5001"/>
</g>
<!-- Node3 -->
<g id="node3" class="node"><title>Node3</title>
<g id="a_node3"><a xlink:href="class_ihm.html#a50a7a15775452923868348bdbe4fa51e" target="_top" xlink:title="constructeur de la classe Ihm ">
<polygon fill="white" stroke="black" points="306,-0.5 306,-19.5 362,-19.5 362,-0.5 306,-0.5"/>
<text text-anchor="middle" x="334" y="-7.5" font-family="Helvetica,sans-Serif" font-size="10.00">Ihm::Ihm</text>
</a>
</g>
</g>
<!-- Node2&#45;&gt;Node3 -->
<g id="edge2" class="edge"><title>Node2&#45;&gt;Node3</title>
<path fill="none" stroke="midnightblue" d="M280.291,-10C289.276,-10 298.045,-10 305.77,-10"/>
<polygon fill="midnightblue" stroke="midnightblue" points="280.1,-6.5001 270.1,-10 280.1,-13.5001 280.1,-6.5001"/>
</g>
</g>
</svg>
