<?xml version="1.0" encoding="UTF-8" standalone="no"?>
<!DOCTYPE svg PUBLIC "-//W3C//DTD SVG 1.1//EN"
 "http://www.w3.org/Graphics/SVG/1.1/DTD/svg11.dtd">
<!-- Generated by graphviz version 2.38.0 (20140413.2041)
 -->
<!-- Title: Ihm Pages: 1 -->
<svg width="332pt" height="1320pt"
 viewBox="0.00 0.00 332.00 1320.00" xmlns="http://www.w3.org/2000/svg" xmlns:xlink="http://www.w3.org/1999/xlink">
<g id="graph0" class="graph" transform="scale(1 1) rotate(0) translate(4 1316)">
<title>Ihm</title>
<polygon fill="white" stroke="none" points="-4,4 -4,-1316 328,-1316 328,4 -4,4"/>
<!-- Node1 -->
<g id="node1" class="node"><title>Node1</title>
<polygon fill="#bfbfbf" stroke="black" points="3,-0.5 3,-387.5 180,-387.5 180,-0.5 3,-0.5"/>
<text text-anchor="middle" x="91.5" y="-375.5" font-family="Helvetica,sans-Serif" font-size="10.00">Ihm</text>
<polyline fill="none" stroke="black" points="3,-368.5 180,-368.5 "/>
<text text-anchor="start" x="11" y="-356.5" font-family="Helvetica,sans-Serif" font-size="10.00">&#45; ui</text>
<polyline fill="none" stroke="black" points="3,-349.5 180,-349.5 "/>
<text text-anchor="start" x="11" y="-337.5" font-family="Helvetica,sans-Serif" font-size="10.00">+ Ihm()</text>
<text text-anchor="start" x="11" y="-326.5" font-family="Helvetica,sans-Serif" font-size="10.00">+ ~Ihm()</text>
<text text-anchor="start" x="11" y="-315.5" font-family="Helvetica,sans-Serif" font-size="10.00">+ modifierEtatLed()</text>
<text text-anchor="start" x="11" y="-304.5" font-family="Helvetica,sans-Serif" font-size="10.00">&#45; initialiserAffichage()</text>
<text text-anchor="start" x="11" y="-293.5" font-family="Helvetica,sans-Serif" font-size="10.00">&#45; initialiserInterface()</text>
<text text-anchor="start" x="11" y="-282.5" font-family="Helvetica,sans-Serif" font-size="10.00">&#45; enregistrerConfigurationPort()</text>
<text text-anchor="start" x="11" y="-271.5" font-family="Helvetica,sans-Serif" font-size="10.00">&#45; chargerConfigurationPort()</text>
<text text-anchor="start" x="11" y="-260.5" font-family="Helvetica,sans-Serif" font-size="10.00">&#45; on_pushButtonQuitter</text>
<text text-anchor="start" x="11" y="-249.5" font-family="Helvetica,sans-Serif" font-size="10.00">_clicked()</text>
<text text-anchor="start" x="11" y="-238.5" font-family="Helvetica,sans-Serif" font-size="10.00">&#45; on_ModeOperateur_stateChanged()</text>
<text text-anchor="start" x="11" y="-227.5" font-family="Helvetica,sans-Serif" font-size="10.00">&#45; actualiserTrame()</text>
<text text-anchor="start" x="11" y="-216.5" font-family="Helvetica,sans-Serif" font-size="10.00">&#45; actualiserDonnee()</text>
<text text-anchor="start" x="11" y="-205.5" font-family="Helvetica,sans-Serif" font-size="10.00">&#45; desactiverOuverturePort()</text>
<text text-anchor="start" x="11" y="-194.5" font-family="Helvetica,sans-Serif" font-size="10.00">&#45; desactiverFermerPort()</text>
<text text-anchor="start" x="11" y="-183.5" font-family="Helvetica,sans-Serif" font-size="10.00">&#45; actualiserAffichageMeteo()</text>
<text text-anchor="start" x="11" y="-172.5" font-family="Helvetica,sans-Serif" font-size="10.00">&#45; on_pushButtonOuvrirPort</text>
<text text-anchor="start" x="11" y="-161.5" font-family="Helvetica,sans-Serif" font-size="10.00">_clicked()</text>
<text text-anchor="start" x="11" y="-150.5" font-family="Helvetica,sans-Serif" font-size="10.00">&#45; on_pushButtonFermerPort</text>
<text text-anchor="start" x="11" y="-139.5" font-family="Helvetica,sans-Serif" font-size="10.00">_clicked()</text>
<text text-anchor="start" x="11" y="-128.5" font-family="Helvetica,sans-Serif" font-size="10.00">&#45; on_pushButtonEnvoyerTrame</text>
<text text-anchor="start" x="11" y="-117.5" font-family="Helvetica,sans-Serif" font-size="10.00">_clicked()</text>
<text text-anchor="start" x="11" y="-106.5" font-family="Helvetica,sans-Serif" font-size="10.00">&#45; on_radioButtonLedRouge</text>
<text text-anchor="start" x="11" y="-95.5" font-family="Helvetica,sans-Serif" font-size="10.00">_clicked()</text>
<text text-anchor="start" x="11" y="-84.5" font-family="Helvetica,sans-Serif" font-size="10.00">&#45; on_radioButtonLedVert</text>
<text text-anchor="start" x="11" y="-73.5" font-family="Helvetica,sans-Serif" font-size="10.00">_clicked()</text>
<text text-anchor="start" x="11" y="-62.5" font-family="Helvetica,sans-Serif" font-size="10.00">&#45; on_radioButtonLedOrange</text>
<text text-anchor="start" x="11" y="-51.5" font-family="Helvetica,sans-Serif" font-size="10.00">_clicked()</text>
<text text-anchor="start" x="11" y="-40.5" font-family="Helvetica,sans-Serif" font-size="10.00">&#45; on_radioButtonLedOff</text>
<text text-anchor="start" x="11" y="-29.5" font-family="Helvetica,sans-Serif" font-size="10.00">_clicked()</text>
<text text-anchor="start" x="11" y="-18.5" font-family="Helvetica,sans-Serif" font-size="10.00">&#45; on_pushButtonVille</text>
<text text-anchor="start" x="11" y="-7.5" font-family="Helvetica,sans-Serif" font-size="10.00">_clicked()</text>
</g>
<!-- Node2 -->
<g id="node2" class="node"><title>Node2</title>
<polygon fill="white" stroke="#bfbfbf" points="0,-490.5 0,-547.5 55,-547.5 55,-490.5 0,-490.5"/>
<text text-anchor="middle" x="27.5" y="-535.5" font-family="Helvetica,sans-Serif" font-size="10.00">QWidget</text>
<polyline fill="none" stroke="#bfbfbf" points="0,-528.5 55,-528.5 "/>
<text text-anchor="middle" x="27.5" y="-516.5" font-family="Helvetica,sans-Serif" font-size="10.00"> </text>
<polyline fill="none" stroke="#bfbfbf" points="0,-509.5 55,-509.5 "/>
<text text-anchor="middle" x="27.5" y="-497.5" font-family="Helvetica,sans-Serif" font-size="10.00"> </text>
</g>
<!-- Node2&#45;&gt;Node1 -->
<g id="edge1" class="edge"><title>Node2&#45;&gt;Node1</title>
<path fill="none" stroke="midnightblue" d="M34.95,-480.401C39.7204,-456.325 46.3134,-423.051 53.3172,-387.704"/>
<polygon fill="none" stroke="midnightblue" points="31.4671,-479.972 32.9566,-490.461 38.3336,-481.332 31.4671,-479.972"/>
</g>
<!-- Node3 -->
<g id="node3" class="node"><title>Node3</title>
<g id="a_node3"><a xlink:href="class_meteo.html" target="_top" xlink:title="Declaration de la classe Meteo. ">
<polygon fill="white" stroke="black" points="26,-621.5 26,-898.5 157,-898.5 157,-621.5 26,-621.5"/>
<text text-anchor="middle" x="91.5" y="-886.5" font-family="Helvetica,sans-Serif" font-size="10.00">Meteo</text>
<polyline fill="none" stroke="black" points="26,-879.5 157,-879.5 "/>
<text text-anchor="start" x="34" y="-867.5" font-family="Helvetica,sans-Serif" font-size="10.00">&#45; manager</text>
<text text-anchor="start" x="34" y="-856.5" font-family="Helvetica,sans-Serif" font-size="10.00">&#45; temperature</text>
<text text-anchor="start" x="34" y="-845.5" font-family="Helvetica,sans-Serif" font-size="10.00">&#45; ressentie</text>
<text text-anchor="start" x="34" y="-834.5" font-family="Helvetica,sans-Serif" font-size="10.00">&#45; temperatureMin</text>
<text text-anchor="start" x="34" y="-823.5" font-family="Helvetica,sans-Serif" font-size="10.00">&#45; temperatureMax</text>
<text text-anchor="start" x="34" y="-812.5" font-family="Helvetica,sans-Serif" font-size="10.00">&#45; pression</text>
<text text-anchor="start" x="34" y="-801.5" font-family="Helvetica,sans-Serif" font-size="10.00">&#45; humidite</text>
<polyline fill="none" stroke="black" points="26,-794.5 157,-794.5 "/>
<text text-anchor="start" x="34" y="-782.5" font-family="Helvetica,sans-Serif" font-size="10.00">+ Meteo()</text>
<text text-anchor="start" x="34" y="-771.5" font-family="Helvetica,sans-Serif" font-size="10.00">+ getTemperature()</text>
<text text-anchor="start" x="34" y="-760.5" font-family="Helvetica,sans-Serif" font-size="10.00">+ getRessentie()</text>
<text text-anchor="start" x="34" y="-749.5" font-family="Helvetica,sans-Serif" font-size="10.00">+ getTemperatureMin()</text>
<text text-anchor="start" x="34" y="-738.5" font-family="Helvetica,sans-Serif" font-size="10.00">+ getTemperatureMax()</text>
<text text-anchor="start" x="34" y="-727.5" font-family="Helvetica,sans-Serif" font-size="10.00">+ getPression()</text>
<text text-anchor="start" x="34" y="-716.5" font-family="Helvetica,sans-Serif" font-size="10.00">+ getHumidite()</text>
<text text-anchor="start" x="34" y="-705.5" font-family="Helvetica,sans-Serif" font-size="10.00">+ setTemperature()</text>
<text text-anchor="start" x="34" y="-694.5" font-family="Helvetica,sans-Serif" font-size="10.00">+ setTemperatureMin()</text>
<text text-anchor="start" x="34" y="-683.5" font-family="Helvetica,sans-Serif" font-size="10.00">+ setTemperatureMax()</text>
<text text-anchor="start" x="34" y="-672.5" font-family="Helvetica,sans-Serif" font-size="10.00">+ setRessentie()</text>
<text text-anchor="start" x="34" y="-661.5" font-family="Helvetica,sans-Serif" font-size="10.00">+ setPression()</text>
<text text-anchor="start" x="34" y="-650.5" font-family="Helvetica,sans-Serif" font-size="10.00">+ setHumidite()</text>
<text text-anchor="start" x="34" y="-639.5" font-family="Helvetica,sans-Serif" font-size="10.00">+ recupererDonnerMeteo()</text>
<text text-anchor="start" x="34" y="-628.5" font-family="Helvetica,sans-Serif" font-size="10.00">&#45; replyFinished()</text>
</a>
</g>
</g>
<!-- Node3&#45;&gt;Node1 -->
<g id="edge2" class="edge"><title>Node3&#45;&gt;Node1</title>
<path fill="none" stroke="#404040" d="M91.5,-621.391C91.5,-554.824 91.5,-473.557 91.5,-399.894"/>
<polygon fill="none" stroke="#404040" points="91.5001,-399.666 87.5,-393.666 91.5,-387.666 95.5,-393.666 91.5001,-399.666"/>
<text text-anchor="middle" x="108.5" y="-516.5" font-family="Helvetica,sans-Serif" font-size="10.00"> &#45;meteo</text>
</g>
<!-- Node4 -->
<g id="node4" class="node"><title>Node4</title>
<polygon fill="white" stroke="#bfbfbf" points="146,-1254.5 146,-1311.5 199,-1311.5 199,-1254.5 146,-1254.5"/>
<text text-anchor="middle" x="172.5" y="-1299.5" font-family="Helvetica,sans-Serif" font-size="10.00">QObject</text>
<polyline fill="none" stroke="#bfbfbf" points="146,-1292.5 199,-1292.5 "/>
<text text-anchor="middle" x="172.5" y="-1280.5" font-family="Helvetica,sans-Serif" font-size="10.00"> </text>
<polyline fill="none" stroke="#bfbfbf" points="146,-1273.5 199,-1273.5 "/>
<text text-anchor="middle" x="172.5" y="-1261.5" font-family="Helvetica,sans-Serif" font-size="10.00"> </text>
</g>
<!-- Node4&#45;&gt;Node3 -->
<g id="edge3" class="edge"><title>Node4&#45;&gt;Node3</title>
<path fill="none" stroke="midnightblue" d="M160.604,-1244.64C159.839,-1241.73 159.126,-1238.83 158.5,-1236 133.623,-1123.58 116.075,-994.055 105.195,-898.683"/>
<polygon fill="none" stroke="midnightblue" points="157.285,-1245.77 163.357,-1254.45 164.025,-1243.88 157.285,-1245.77"/>
</g>
<!-- Node5 -->
<g id="node5" class="node"><title>Node5</title>
<g id="a_node5"><a xlink:href="class_transmission.html" target="_top" xlink:title="Declaration de la classe Transmission. ">
<polygon fill="white" stroke="black" points="144,-435.5 144,-602.5 249,-602.5 249,-435.5 144,-435.5"/>
<text text-anchor="middle" x="196.5" y="-590.5" font-family="Helvetica,sans-Serif" font-size="10.00">Transmission</text>
<polyline fill="none" stroke="black" points="144,-583.5 249,-583.5 "/>
<text text-anchor="start" x="152" y="-571.5" font-family="Helvetica,sans-Serif" font-size="10.00">&#45; port</text>
<text text-anchor="start" x="152" y="-560.5" font-family="Helvetica,sans-Serif" font-size="10.00">&#45; trame</text>
<polyline fill="none" stroke="black" points="144,-553.5 249,-553.5 "/>
<text text-anchor="start" x="152" y="-541.5" font-family="Helvetica,sans-Serif" font-size="10.00">+ Transmission()</text>
<text text-anchor="start" x="152" y="-530.5" font-family="Helvetica,sans-Serif" font-size="10.00">+ ~Transmission()</text>
<text text-anchor="start" x="152" y="-519.5" font-family="Helvetica,sans-Serif" font-size="10.00">+ getTrame()</text>
<text text-anchor="start" x="152" y="-508.5" font-family="Helvetica,sans-Serif" font-size="10.00">+ getEsp32()</text>
<text text-anchor="start" x="152" y="-497.5" font-family="Helvetica,sans-Serif" font-size="10.00">+ configurerPort()</text>
<text text-anchor="start" x="152" y="-486.5" font-family="Helvetica,sans-Serif" font-size="10.00">+ fermerPort()</text>
<text text-anchor="start" x="152" y="-475.5" font-family="Helvetica,sans-Serif" font-size="10.00">+ envoyerDonnees()</text>
<text text-anchor="start" x="152" y="-464.5" font-family="Helvetica,sans-Serif" font-size="10.00">+ ouvrirPort()</text>
<text text-anchor="start" x="152" y="-453.5" font-family="Helvetica,sans-Serif" font-size="10.00">+ recevoir()</text>
<text text-anchor="start" x="152" y="-442.5" font-family="Helvetica,sans-Serif" font-size="10.00">&#45; decomposer()</text>
</a>
</g>
</g>
<!-- Node4&#45;&gt;Node5 -->
<g id="edge5" class="edge"><title>Node4&#45;&gt;Node5</title>
<path fill="none" stroke="midnightblue" d="M173.692,-1244.15C177.392,-1126.69 188.739,-766.426 193.898,-602.618"/>
<polygon fill="none" stroke="midnightblue" points="170.185,-1244.32 173.368,-1254.43 177.182,-1244.55 170.185,-1244.32"/>
</g>
<!-- Node6 -->
<g id="node6" class="node"><title>Node6</title>
<g id="a_node6"><a xlink:href="class_esp32.html" target="_top" xlink:title="Declaration de la classe Esp32. ">
<polygon fill="white" stroke="black" points="201,-917.5 201,-1216.5 324,-1216.5 324,-917.5 201,-917.5"/>
<text text-anchor="middle" x="262.5" y="-1204.5" font-family="Helvetica,sans-Serif" font-size="10.00">Esp32</text>
<polyline fill="none" stroke="black" points="201,-1197.5 324,-1197.5 "/>
<text text-anchor="start" x="209" y="-1185.5" font-family="Helvetica,sans-Serif" font-size="10.00">&#45; temperature</text>
<text text-anchor="start" x="209" y="-1174.5" font-family="Helvetica,sans-Serif" font-size="10.00">&#45; temperatureUnite</text>
<text text-anchor="start" x="209" y="-1163.5" font-family="Helvetica,sans-Serif" font-size="10.00">&#45; ressentie</text>
<text text-anchor="start" x="209" y="-1152.5" font-family="Helvetica,sans-Serif" font-size="10.00">&#45; ressentieUnite</text>
<text text-anchor="start" x="209" y="-1141.5" font-family="Helvetica,sans-Serif" font-size="10.00">&#45; humidite</text>
<text text-anchor="start" x="209" y="-1130.5" font-family="Helvetica,sans-Serif" font-size="10.00">&#45; humiditeUnite</text>
<text text-anchor="start" x="209" y="-1119.5" font-family="Helvetica,sans-Serif" font-size="10.00">&#45; luminosite</text>
<text text-anchor="start" x="209" y="-1108.5" font-family="Helvetica,sans-Serif" font-size="10.00">&#45; luminositeUnite</text>
<text text-anchor="start" x="209" y="-1097.5" font-family="Helvetica,sans-Serif" font-size="10.00">&#45; pression</text>
<text text-anchor="start" x="209" y="-1086.5" font-family="Helvetica,sans-Serif" font-size="10.00">&#45; pressionUnite</text>
<text text-anchor="start" x="209" y="-1075.5" font-family="Helvetica,sans-Serif" font-size="10.00">&#45; altitude</text>
<text text-anchor="start" x="209" y="-1064.5" font-family="Helvetica,sans-Serif" font-size="10.00">&#45; altitudeUnite</text>
<text text-anchor="start" x="209" y="-1053.5" font-family="Helvetica,sans-Serif" font-size="10.00">&#45; couleur</text>
<polyline fill="none" stroke="black" points="201,-1046.5 324,-1046.5 "/>
<text text-anchor="start" x="209" y="-1034.5" font-family="Helvetica,sans-Serif" font-size="10.00">+ Esp32()</text>
<text text-anchor="start" x="209" y="-1023.5" font-family="Helvetica,sans-Serif" font-size="10.00">+ getTemperature()</text>
<text text-anchor="start" x="209" y="-1012.5" font-family="Helvetica,sans-Serif" font-size="10.00">+ getRessentie()</text>
<text text-anchor="start" x="209" y="-1001.5" font-family="Helvetica,sans-Serif" font-size="10.00">+ getTemperatureUnite()</text>
<text text-anchor="start" x="209" y="-990.5" font-family="Helvetica,sans-Serif" font-size="10.00">+ getRessentieUnite()</text>
<text text-anchor="start" x="209" y="-979.5" font-family="Helvetica,sans-Serif" font-size="10.00">+ getHumidite()</text>
<text text-anchor="start" x="209" y="-968.5" font-family="Helvetica,sans-Serif" font-size="10.00">+ getLuminosite()</text>
<text text-anchor="start" x="209" y="-957.5" font-family="Helvetica,sans-Serif" font-size="10.00">+ getHumiditeUnite()</text>
<text text-anchor="start" x="209" y="-946.5" font-family="Helvetica,sans-Serif" font-size="10.00">+ getLuminositeUnite()</text>
<text text-anchor="start" x="209" y="-935.5" font-family="Helvetica,sans-Serif" font-size="10.00">+ getPression()</text>
<text text-anchor="start" x="209" y="-924.5" font-family="Helvetica,sans-Serif" font-size="10.00">et 17 de plus...</text>
</a>
</g>
</g>
<!-- Node4&#45;&gt;Node6 -->
<g id="edge7" class="edge"><title>Node4&#45;&gt;Node6</title>
<path fill="none" stroke="midnightblue" d="M188.052,-1245.02C191.906,-1235.86 196.275,-1225.47 200.918,-1214.43"/>
<polygon fill="none" stroke="midnightblue" points="184.732,-1243.89 184.082,-1254.46 191.185,-1246.6 184.732,-1243.89"/>
</g>
<!-- Node5&#45;&gt;Node1 -->
<g id="edge4" class="edge"><title>Node5&#45;&gt;Node1</title>
<path fill="none" stroke="#404040" d="M169.596,-435.239C165.875,-423.79 161.926,-411.643 157.857,-399.128"/>
<polygon fill="none" stroke="#404040" points="157.8,-398.952 152.141,-394.483 154.09,-387.54 159.749,-392.009 157.8,-398.952"/>
<text text-anchor="middle" x="194.5" y="-409" font-family="Helvetica,sans-Serif" font-size="10.00"> &#45;transmission</text>
</g>
<!-- Node6&#45;&gt;Node5 -->
<g id="edge6" class="edge"><title>Node6&#45;&gt;Node5</title>
<path fill="none" stroke="#404040" d="M244.509,-917.164C232.849,-820.705 218.013,-697.968 207.941,-614.647"/>
<polygon fill="none" stroke="#404040" points="207.93,-614.561 203.239,-609.084 206.49,-602.647 211.182,-608.124 207.93,-614.561"/>
<text text-anchor="middle" x="258" y="-757.5" font-family="Helvetica,sans-Serif" font-size="10.00"> &#45;esp32</text>
</g>
</g>
</svg>
