<?xml version="1.0" encoding="UTF-8" standalone="no"?>
<!DOCTYPE svg PUBLIC "-//W3C//DTD SVG 1.1//EN"
 "http://www.w3.org/Graphics/SVG/1.1/DTD/svg11.dtd">
<!-- Generated by graphviz version 2.38.0 (20140413.2041)
 -->
<!-- Title: Esp32::setTemperature Pages: 1 -->
<svg width="1001pt" height="83pt"
 viewBox="0.00 0.00 1001.00 83.00" xmlns="http://www.w3.org/2000/svg" xmlns:xlink="http://www.w3.org/1999/xlink">
<g id="graph0" class="graph" transform="scale(1 1) rotate(0) translate(4 79)">
<title>Esp32::setTemperature</title>
<polygon fill="white" stroke="none" points="-4,4 -4,-79 997,-79 997,4 -4,4"/>
<!-- Node1 -->
<g id="node1" class="node"><title>Node1</title>
<polygon fill="#bfbfbf" stroke="black" points="0,-28 0,-47 119,-47 119,-28 0,-28"/>
<text text-anchor="middle" x="59.5" y="-35" font-family="Helvetica,sans-Serif" font-size="10.00">Esp32::setTemperature</text>
</g>
<!-- Node2 -->
<g id="node2" class="node"><title>Node2</title>
<g id="a_node2"><a xlink:href="class_transmission.html#aa2977705ec793b10bf3212a13e67b097" target="_top" xlink:title="Décompose la trame reçue. ">
<polygon fill="white" stroke="black" points="155,-28 155,-47 289,-47 289,-28 155,-28"/>
<text text-anchor="middle" x="222" y="-35" font-family="Helvetica,sans-Serif" font-size="10.00">Transmission::decomposer</text>
</a>
</g>
</g>
<!-- Node1&#45;&gt;Node2 -->
<g id="edge1" class="edge"><title>Node1&#45;&gt;Node2</title>
<path fill="none" stroke="midnightblue" d="M129.495,-37.5C137.9,-37.5 146.472,-37.5 154.834,-37.5"/>
<polygon fill="midnightblue" stroke="midnightblue" points="129.353,-34.0001 119.353,-37.5 129.353,-41.0001 129.353,-34.0001"/>
</g>
<!-- Node3 -->
<g id="node3" class="node"><title>Node3</title>
<g id="a_node3"><a xlink:href="class_transmission.html#aa54a695d9d1c728ccab04f1d8030da41" target="_top" xlink:title="Récupérer la trame émise. ">
<polygon fill="white" stroke="black" points="325,-28 325,-47 441,-47 441,-28 325,-28"/>
<text text-anchor="middle" x="383" y="-35" font-family="Helvetica,sans-Serif" font-size="10.00">Transmission::recevoir</text>
</a>
</g>
</g>
<!-- Node2&#45;&gt;Node3 -->
<g id="edge2" class="edge"><title>Node2&#45;&gt;Node3</title>
<path fill="none" stroke="midnightblue" d="M299.129,-37.5C307.757,-37.5 316.438,-37.5 324.765,-37.5"/>
<polygon fill="midnightblue" stroke="midnightblue" points="299.049,-34.0001 289.049,-37.5 299.049,-41.0001 299.049,-34.0001"/>
</g>
<!-- Node4 -->
<g id="node4" class="node"><title>Node4</title>
<g id="a_node4"><a xlink:href="class_transmission.html#a41d15e65be472e058b28869f8dfad392" target="_top" xlink:title="Transmission::ouvrirPort">
<polygon fill="white" stroke="black" points="495,-50 495,-69 618,-69 618,-50 495,-50"/>
<text text-anchor="middle" x="556.5" y="-57" font-family="Helvetica,sans-Serif" font-size="10.00">Transmission::ouvrirPort</text>
</a>
</g>
</g>
<!-- Node3&#45;&gt;Node4 -->
<g id="edge3" class="edge"><title>Node3&#45;&gt;Node4</title>
<path fill="none" stroke="midnightblue" d="M451.388,-46.1445C465.715,-47.9824 480.76,-49.9123 494.819,-51.7158"/>
<polygon fill="midnightblue" stroke="midnightblue" points="451.471,-42.6266 441.107,-44.8257 450.58,-49.5697 451.471,-42.6266"/>
</g>
<!-- Node7 -->
<g id="node7" class="node"><title>Node7</title>
<g id="a_node7"><a xlink:href="class_transmission.html#a5a21d201dd0096f96aec12264c2f03d9" target="_top" xlink:title="Permets de se connecter à un appareil. ">
<polygon fill="white" stroke="black" points="477,-0.5 477,-30.5 636,-30.5 636,-0.5 477,-0.5"/>
<text text-anchor="start" x="485" y="-18.5" font-family="Helvetica,sans-Serif" font-size="10.00">Transmission::connecterAppareil</text>
<text text-anchor="middle" x="556.5" y="-7.5" font-family="Helvetica,sans-Serif" font-size="10.00">Bluetooth</text>
</a>
</g>
</g>
<!-- Node3&#45;&gt;Node7 -->
<g id="edge6" class="edge"><title>Node3&#45;&gt;Node7</title>
<path fill="none" stroke="midnightblue" d="M451.249,-28.8733C459.685,-27.7911 468.372,-26.6768 476.961,-25.575"/>
<polygon fill="midnightblue" stroke="midnightblue" points="450.58,-25.4303 441.107,-30.1743 451.471,-32.3734 450.58,-25.4303"/>
</g>
<!-- Node5 -->
<g id="node5" class="node"><title>Node5</title>
<g id="a_node5"><a xlink:href="class_transmission.html#ab4e82ab30c181a8e0d0c0257ea0e1f56" target="_top" xlink:title="configure le port serie ">
<polygon fill="white" stroke="black" points="678,-50 678,-69 820,-69 820,-50 678,-50"/>
<text text-anchor="middle" x="749" y="-57" font-family="Helvetica,sans-Serif" font-size="10.00">Transmission::configurerPort</text>
</a>
</g>
</g>
<!-- Node4&#45;&gt;Node5 -->
<g id="edge4" class="edge"><title>Node4&#45;&gt;Node5</title>
<path fill="none" stroke="midnightblue" d="M628.04,-59.5C644.35,-59.5 661.699,-59.5 677.987,-59.5"/>
<polygon fill="midnightblue" stroke="midnightblue" points="628.037,-56.0001 618.037,-59.5 628.037,-63.0001 628.037,-56.0001"/>
</g>
<!-- Node6 -->
<g id="node6" class="node"><title>Node6</title>
<g id="a_node6"><a xlink:href="class_ihm.html#a9ce167b94baead6e318bbd0c5254f842" target="_top" xlink:title="bouton qui ouvre le port serie ">
<polygon fill="white" stroke="black" points="862,-44.5 862,-74.5 993,-74.5 993,-44.5 862,-44.5"/>
<text text-anchor="start" x="870" y="-62.5" font-family="Helvetica,sans-Serif" font-size="10.00">Ihm::on_pushButtonOuvrir</text>
<text text-anchor="middle" x="927.5" y="-51.5" font-family="Helvetica,sans-Serif" font-size="10.00">Port_clicked</text>
</a>
</g>
</g>
<!-- Node5&#45;&gt;Node6 -->
<g id="edge5" class="edge"><title>Node5&#45;&gt;Node6</title>
<path fill="none" stroke="midnightblue" d="M830.099,-59.5C840.693,-59.5 851.445,-59.5 861.738,-59.5"/>
<polygon fill="midnightblue" stroke="midnightblue" points="830.011,-56.0001 820.011,-59.5 830.011,-63.0001 830.011,-56.0001"/>
</g>
<!-- Node8 -->
<g id="node8" class="node"><title>Node8</title>
<g id="a_node8"><a xlink:href="class_ihm.html#ac154e42263a45f12d696a03a7ed6890f" target="_top" xlink:title="fonction appelée quand le bouton connexion est cliqué ">
<polygon fill="white" stroke="black" points="672,-0.5 672,-30.5 826,-30.5 826,-0.5 672,-0.5"/>
<text text-anchor="start" x="680" y="-18.5" font-family="Helvetica,sans-Serif" font-size="10.00">Ihm::on_pushButtonConnection</text>
<text text-anchor="middle" x="749" y="-7.5" font-family="Helvetica,sans-Serif" font-size="10.00">_clicked</text>
</a>
</g>
</g>
<!-- Node7&#45;&gt;Node8 -->
<g id="edge7" class="edge"><title>Node7&#45;&gt;Node8</title>
<path fill="none" stroke="midnightblue" d="M646.095,-15.5C654.666,-15.5 663.309,-15.5 671.745,-15.5"/>
<polygon fill="midnightblue" stroke="midnightblue" points="646.084,-12.0001 636.083,-15.5 646.083,-19.0001 646.084,-12.0001"/>
</g>
</g>
</svg>
