<?xml version="1.0" encoding="UTF-8" standalone="no"?>
<!DOCTYPE svg PUBLIC "-//W3C//DTD SVG 1.1//EN"
 "http://www.w3.org/Graphics/SVG/1.1/DTD/svg11.dtd">
<!-- Generated by graphviz version 2.38.0 (20140413.2041)
 -->
<!-- Title: Esp32::setRessentie Pages: 1 -->
<svg width="990pt" height="83pt"
 viewBox="0.00 0.00 990.00 83.00" xmlns="http://www.w3.org/2000/svg" xmlns:xlink="http://www.w3.org/1999/xlink">
<g id="graph0" class="graph" transform="scale(1 1) rotate(0) translate(4 79)">
<title>Esp32::setRessentie</title>
<polygon fill="white" stroke="none" points="-4,4 -4,-79 986,-79 986,4 -4,4"/>
<!-- Node1 -->
<g id="node1" class="node"><title>Node1</title>
<polygon fill="#bfbfbf" stroke="black" points="0,-28 0,-47 108,-47 108,-28 0,-28"/>
<text text-anchor="middle" x="54" y="-35" font-family="Helvetica,sans-Serif" font-size="10.00">Esp32::setRessentie</text>
</g>
<!-- Node2 -->
<g id="node2" class="node"><title>Node2</title>
<g id="a_node2"><a xlink:href="class_transmission.html#aa2977705ec793b10bf3212a13e67b097" target="_top" xlink:title="Décompose la trame reçue. ">
<polygon fill="white" stroke="black" points="144,-28 144,-47 278,-47 278,-28 144,-28"/>
<text text-anchor="middle" x="211" y="-35" font-family="Helvetica,sans-Serif" font-size="10.00">Transmission::decomposer</text>
</a>
</g>
</g>
<!-- Node1&#45;&gt;Node2 -->
<g id="edge1" class="edge"><title>Node1&#45;&gt;Node2</title>
<path fill="none" stroke="midnightblue" d="M118.459,-37.5C126.869,-37.5 135.507,-37.5 143.959,-37.5"/>
<polygon fill="midnightblue" stroke="midnightblue" points="118.342,-34.0001 108.342,-37.5 118.342,-41.0001 118.342,-34.0001"/>
</g>
<!-- Node3 -->
<g id="node3" class="node"><title>Node3</title>
<g id="a_node3"><a xlink:href="class_transmission.html#aa54a695d9d1c728ccab04f1d8030da41" target="_top" xlink:title="Récupérer la trame émise. ">
<polygon fill="white" stroke="black" points="314,-28 314,-47 430,-47 430,-28 314,-28"/>
<text text-anchor="middle" x="372" y="-35" font-family="Helvetica,sans-Serif" font-size="10.00">Transmission::recevoir</text>
</a>
</g>
</g>
<!-- Node2&#45;&gt;Node3 -->
<g id="edge2" class="edge"><title>Node2&#45;&gt;Node3</title>
<path fill="none" stroke="midnightblue" d="M288.129,-37.5C296.757,-37.5 305.438,-37.5 313.765,-37.5"/>
<polygon fill="midnightblue" stroke="midnightblue" points="288.049,-34.0001 278.049,-37.5 288.049,-41.0001 288.049,-34.0001"/>
</g>
<!-- Node4 -->
<g id="node4" class="node"><title>Node4</title>
<g id="a_node4"><a xlink:href="class_transmission.html#a41d15e65be472e058b28869f8dfad392" target="_top" xlink:title="Transmission::ouvrirPort">
<polygon fill="white" stroke="black" points="484,-50 484,-69 607,-69 607,-50 484,-50"/>
<text text-anchor="middle" x="545.5" y="-57" font-family="Helvetica,sans-Serif" font-size="10.00">Transmission::ouvrirPort</text>
</a>
</g>
</g>
<!-- Node3&#45;&gt;Node4 -->
<g id="edge3" class="edge"><title>Node3&#45;&gt;Node4</title>
<path fill="none" stroke="midnightblue" d="M440.388,-46.1445C454.715,-47.9824 469.76,-49.9123 483.819,-51.7158"/>
<polygon fill="midnightblue" stroke="midnightblue" points="440.471,-42.6266 430.107,-44.8257 439.58,-49.5697 440.471,-42.6266"/>
</g>
<!-- Node7 -->
<g id="node7" class="node"><title>Node7</title>
<g id="a_node7"><a xlink:href="class_transmission.html#a5a21d201dd0096f96aec12264c2f03d9" target="_top" xlink:title="Permets de se connecter à un appareil. ">
<polygon fill="white" stroke="black" points="466,-0.5 466,-30.5 625,-30.5 625,-0.5 466,-0.5"/>
<text text-anchor="start" x="474" y="-18.5" font-family="Helvetica,sans-Serif" font-size="10.00">Transmission::connecterAppareil</text>
<text text-anchor="middle" x="545.5" y="-7.5" font-family="Helvetica,sans-Serif" font-size="10.00">Bluetooth</text>
</a>
</g>
</g>
<!-- Node3&#45;&gt;Node7 -->
<g id="edge6" class="edge"><title>Node3&#45;&gt;Node7</title>
<path fill="none" stroke="midnightblue" d="M440.249,-28.8733C448.685,-27.7911 457.372,-26.6768 465.961,-25.575"/>
<polygon fill="midnightblue" stroke="midnightblue" points="439.58,-25.4303 430.107,-30.1743 440.471,-32.3734 439.58,-25.4303"/>
</g>
<!-- Node5 -->
<g id="node5" class="node"><title>Node5</title>
<g id="a_node5"><a xlink:href="class_transmission.html#ab4e82ab30c181a8e0d0c0257ea0e1f56" target="_top" xlink:title="configure le port serie ">
<polygon fill="white" stroke="black" points="667,-50 667,-69 809,-69 809,-50 667,-50"/>
<text text-anchor="middle" x="738" y="-57" font-family="Helvetica,sans-Serif" font-size="10.00">Transmission::configurerPort</text>
</a>
</g>
</g>
<!-- Node4&#45;&gt;Node5 -->
<g id="edge4" class="edge"><title>Node4&#45;&gt;Node5</title>
<path fill="none" stroke="midnightblue" d="M617.04,-59.5C633.35,-59.5 650.699,-59.5 666.987,-59.5"/>
<polygon fill="midnightblue" stroke="midnightblue" points="617.037,-56.0001 607.037,-59.5 617.037,-63.0001 617.037,-56.0001"/>
</g>
<!-- Node6 -->
<g id="node6" class="node"><title>Node6</title>
<g id="a_node6"><a xlink:href="class_ihm.html#a9ce167b94baead6e318bbd0c5254f842" target="_top" xlink:title="bouton qui ouvre le port serie ">
<polygon fill="white" stroke="black" points="851,-44.5 851,-74.5 982,-74.5 982,-44.5 851,-44.5"/>
<text text-anchor="start" x="859" y="-62.5" font-family="Helvetica,sans-Serif" font-size="10.00">Ihm::on_pushButtonOuvrir</text>
<text text-anchor="middle" x="916.5" y="-51.5" font-family="Helvetica,sans-Serif" font-size="10.00">Port_clicked</text>
</a>
</g>
</g>
<!-- Node5&#45;&gt;Node6 -->
<g id="edge5" class="edge"><title>Node5&#45;&gt;Node6</title>
<path fill="none" stroke="midnightblue" d="M819.099,-59.5C829.693,-59.5 840.445,-59.5 850.738,-59.5"/>
<polygon fill="midnightblue" stroke="midnightblue" points="819.011,-56.0001 809.011,-59.5 819.011,-63.0001 819.011,-56.0001"/>
</g>
<!-- Node8 -->
<g id="node8" class="node"><title>Node8</title>
<g id="a_node8"><a xlink:href="class_ihm.html#ac154e42263a45f12d696a03a7ed6890f" target="_top" xlink:title="fonction appelée quand le bouton connexion est cliqué ">
<polygon fill="white" stroke="black" points="661,-0.5 661,-30.5 815,-30.5 815,-0.5 661,-0.5"/>
<text text-anchor="start" x="669" y="-18.5" font-family="Helvetica,sans-Serif" font-size="10.00">Ihm::on_pushButtonConnection</text>
<text text-anchor="middle" x="738" y="-7.5" font-family="Helvetica,sans-Serif" font-size="10.00">_clicked</text>
</a>
</g>
</g>
<!-- Node7&#45;&gt;Node8 -->
<g id="edge7" class="edge"><title>Node7&#45;&gt;Node8</title>
<path fill="none" stroke="midnightblue" d="M635.095,-15.5C643.666,-15.5 652.309,-15.5 660.745,-15.5"/>
<polygon fill="midnightblue" stroke="midnightblue" points="635.084,-12.0001 625.083,-15.5 635.083,-19.0001 635.084,-12.0001"/>
</g>
</g>
</svg>
