<?xml version="1.0" encoding="UTF-8" standalone="no"?>
<!DOCTYPE svg PUBLIC "-//W3C//DTD SVG 1.1//EN"
 "http://www.w3.org/Graphics/SVG/1.1/DTD/svg11.dtd">
<!-- Generated by graphviz version 2.38.0 (20140413.2041)
 -->
<!-- Title: Esp32::setRessentieUnite Pages: 1 -->
<svg width="1013pt" height="83pt"
 viewBox="0.00 0.00 1013.00 83.00" xmlns="http://www.w3.org/2000/svg" xmlns:xlink="http://www.w3.org/1999/xlink">
<g id="graph0" class="graph" transform="scale(1 1) rotate(0) translate(4 79)">
<title>Esp32::setRessentieUnite</title>
<polygon fill="white" stroke="none" points="-4,4 -4,-79 1009,-79 1009,4 -4,4"/>
<!-- Node1 -->
<g id="node1" class="node"><title>Node1</title>
<polygon fill="#bfbfbf" stroke="black" points="0,-28 0,-47 131,-47 131,-28 0,-28"/>
<text text-anchor="middle" x="65.5" y="-35" font-family="Helvetica,sans-Serif" font-size="10.00">Esp32::setRessentieUnite</text>
</g>
<!-- Node2 -->
<g id="node2" class="node"><title>Node2</title>
<g id="a_node2"><a xlink:href="class_transmission.html#aa2977705ec793b10bf3212a13e67b097" target="_top" xlink:title="Décompose la trame reçue. ">
<polygon fill="white" stroke="black" points="167,-28 167,-47 301,-47 301,-28 167,-28"/>
<text text-anchor="middle" x="234" y="-35" font-family="Helvetica,sans-Serif" font-size="10.00">Transmission::decomposer</text>
</a>
</g>
</g>
<!-- Node1&#45;&gt;Node2 -->
<g id="edge1" class="edge"><title>Node1&#45;&gt;Node2</title>
<path fill="none" stroke="midnightblue" d="M141.589,-37.5C150.049,-37.5 158.623,-37.5 166.956,-37.5"/>
<polygon fill="midnightblue" stroke="midnightblue" points="141.35,-34.0001 131.35,-37.5 141.35,-41.0001 141.35,-34.0001"/>
</g>
<!-- Node3 -->
<g id="node3" class="node"><title>Node3</title>
<g id="a_node3"><a xlink:href="class_transmission.html#aa54a695d9d1c728ccab04f1d8030da41" target="_top" xlink:title="Récupérer la trame émise. ">
<polygon fill="white" stroke="black" points="337,-28 337,-47 453,-47 453,-28 337,-28"/>
<text text-anchor="middle" x="395" y="-35" font-family="Helvetica,sans-Serif" font-size="10.00">Transmission::recevoir</text>
</a>
</g>
</g>
<!-- Node2&#45;&gt;Node3 -->
<g id="edge2" class="edge"><title>Node2&#45;&gt;Node3</title>
<path fill="none" stroke="midnightblue" d="M311.129,-37.5C319.757,-37.5 328.438,-37.5 336.765,-37.5"/>
<polygon fill="midnightblue" stroke="midnightblue" points="311.049,-34.0001 301.049,-37.5 311.049,-41.0001 311.049,-34.0001"/>
</g>
<!-- Node4 -->
<g id="node4" class="node"><title>Node4</title>
<g id="a_node4"><a xlink:href="class_transmission.html#a41d15e65be472e058b28869f8dfad392" target="_top" xlink:title="Transmission::ouvrirPort">
<polygon fill="white" stroke="black" points="507,-50 507,-69 630,-69 630,-50 507,-50"/>
<text text-anchor="middle" x="568.5" y="-57" font-family="Helvetica,sans-Serif" font-size="10.00">Transmission::ouvrirPort</text>
</a>
</g>
</g>
<!-- Node3&#45;&gt;Node4 -->
<g id="edge3" class="edge"><title>Node3&#45;&gt;Node4</title>
<path fill="none" stroke="midnightblue" d="M463.388,-46.1445C477.715,-47.9824 492.76,-49.9123 506.819,-51.7158"/>
<polygon fill="midnightblue" stroke="midnightblue" points="463.471,-42.6266 453.107,-44.8257 462.58,-49.5697 463.471,-42.6266"/>
</g>
<!-- Node7 -->
<g id="node7" class="node"><title>Node7</title>
<g id="a_node7"><a xlink:href="class_transmission.html#a5a21d201dd0096f96aec12264c2f03d9" target="_top" xlink:title="Permets de se connecter à un appareil. ">
<polygon fill="white" stroke="black" points="489,-0.5 489,-30.5 648,-30.5 648,-0.5 489,-0.5"/>
<text text-anchor="start" x="497" y="-18.5" font-family="Helvetica,sans-Serif" font-size="10.00">Transmission::connecterAppareil</text>
<text text-anchor="middle" x="568.5" y="-7.5" font-family="Helvetica,sans-Serif" font-size="10.00">Bluetooth</text>
</a>
</g>
</g>
<!-- Node3&#45;&gt;Node7 -->
<g id="edge6" class="edge"><title>Node3&#45;&gt;Node7</title>
<path fill="none" stroke="midnightblue" d="M463.249,-28.8733C471.685,-27.7911 480.372,-26.6768 488.961,-25.575"/>
<polygon fill="midnightblue" stroke="midnightblue" points="462.58,-25.4303 453.107,-30.1743 463.471,-32.3734 462.58,-25.4303"/>
</g>
<!-- Node5 -->
<g id="node5" class="node"><title>Node5</title>
<g id="a_node5"><a xlink:href="class_transmission.html#ab4e82ab30c181a8e0d0c0257ea0e1f56" target="_top" xlink:title="configure le port serie ">
<polygon fill="white" stroke="black" points="690,-50 690,-69 832,-69 832,-50 690,-50"/>
<text text-anchor="middle" x="761" y="-57" font-family="Helvetica,sans-Serif" font-size="10.00">Transmission::configurerPort</text>
</a>
</g>
</g>
<!-- Node4&#45;&gt;Node5 -->
<g id="edge4" class="edge"><title>Node4&#45;&gt;Node5</title>
<path fill="none" stroke="midnightblue" d="M640.04,-59.5C656.35,-59.5 673.699,-59.5 689.987,-59.5"/>
<polygon fill="midnightblue" stroke="midnightblue" points="640.037,-56.0001 630.037,-59.5 640.037,-63.0001 640.037,-56.0001"/>
</g>
<!-- Node6 -->
<g id="node6" class="node"><title>Node6</title>
<g id="a_node6"><a xlink:href="class_ihm.html#a9ce167b94baead6e318bbd0c5254f842" target="_top" xlink:title="bouton qui ouvre le port serie ">
<polygon fill="white" stroke="black" points="874,-44.5 874,-74.5 1005,-74.5 1005,-44.5 874,-44.5"/>
<text text-anchor="start" x="882" y="-62.5" font-family="Helvetica,sans-Serif" font-size="10.00">Ihm::on_pushButtonOuvrir</text>
<text text-anchor="middle" x="939.5" y="-51.5" font-family="Helvetica,sans-Serif" font-size="10.00">Port_clicked</text>
</a>
</g>
</g>
<!-- Node5&#45;&gt;Node6 -->
<g id="edge5" class="edge"><title>Node5&#45;&gt;Node6</title>
<path fill="none" stroke="midnightblue" d="M842.099,-59.5C852.693,-59.5 863.445,-59.5 873.738,-59.5"/>
<polygon fill="midnightblue" stroke="midnightblue" points="842.011,-56.0001 832.011,-59.5 842.011,-63.0001 842.011,-56.0001"/>
</g>
<!-- Node8 -->
<g id="node8" class="node"><title>Node8</title>
<g id="a_node8"><a xlink:href="class_ihm.html#ac154e42263a45f12d696a03a7ed6890f" target="_top" xlink:title="fonction appelée quand le bouton connexion est cliqué ">
<polygon fill="white" stroke="black" points="684,-0.5 684,-30.5 838,-30.5 838,-0.5 684,-0.5"/>
<text text-anchor="start" x="692" y="-18.5" font-family="Helvetica,sans-Serif" font-size="10.00">Ihm::on_pushButtonConnection</text>
<text text-anchor="middle" x="761" y="-7.5" font-family="Helvetica,sans-Serif" font-size="10.00">_clicked</text>
</a>
</g>
</g>
<!-- Node7&#45;&gt;Node8 -->
<g id="edge7" class="edge"><title>Node7&#45;&gt;Node8</title>
<path fill="none" stroke="midnightblue" d="M658.095,-15.5C666.666,-15.5 675.309,-15.5 683.745,-15.5"/>
<polygon fill="midnightblue" stroke="midnightblue" points="658.084,-12.0001 648.083,-15.5 658.083,-19.0001 658.084,-12.0001"/>
</g>
</g>
</svg>
