<?xml version="1.0" encoding="UTF-8" standalone="no"?>
<!DOCTYPE svg PUBLIC "-//W3C//DTD SVG 1.1//EN"
 "http://www.w3.org/Graphics/SVG/1.1/DTD/svg11.dtd">
<!-- Generated by graphviz version 2.38.0 (20140413.2041)
 -->
<!-- Title: Transmission::fermerPort Pages: 1 -->
<svg width="317pt" height="78pt"
 viewBox="0.00 0.00 317.00 77.50" xmlns="http://www.w3.org/2000/svg" xmlns:xlink="http://www.w3.org/1999/xlink">
<g id="graph0" class="graph" transform="scale(1 1) rotate(0) translate(4 73.5)">
<title>Transmission::fermerPort</title>
<polygon fill="white" stroke="none" points="-4,4 -4,-73.5 313,-73.5 313,4 -4,4"/>
<!-- Node1 -->
<g id="node1" class="node"><title>Node1</title>
<polygon fill="#bfbfbf" stroke="black" points="0,-22.5 0,-41.5 127,-41.5 127,-22.5 0,-22.5"/>
<text text-anchor="middle" x="63.5" y="-29.5" font-family="Helvetica,sans-Serif" font-size="10.00">Transmission::fermerPort</text>
</g>
<!-- Node2 -->
<g id="node2" class="node"><title>Node2</title>
<g id="a_node2"><a xlink:href="class_ihm.html#abcdae03ce7e83266fb9d3e795df8a171" target="_top" xlink:title="bouton qui ferme le port serie ">
<polygon fill="white" stroke="black" points="168.5,-39 168.5,-69 303.5,-69 303.5,-39 168.5,-39"/>
<text text-anchor="start" x="176.5" y="-57" font-family="Helvetica,sans-Serif" font-size="10.00">Ihm::on_pushButtonFermer</text>
<text text-anchor="middle" x="236" y="-46" font-family="Helvetica,sans-Serif" font-size="10.00">Port_clicked</text>
</a>
</g>
</g>
<!-- Node1&#45;&gt;Node2 -->
<g id="edge1" class="edge"><title>Node1&#45;&gt;Node2</title>
<path fill="none" stroke="midnightblue" d="M136.948,-41.3482C147.41,-42.6981 158.135,-44.082 168.474,-45.416"/>
<polygon fill="midnightblue" stroke="midnightblue" points="137.385,-37.8756 127.02,-40.0671 136.49,-44.8181 137.385,-37.8756"/>
</g>
<!-- Node3 -->
<g id="node3" class="node"><title>Node3</title>
<g id="a_node3"><a xlink:href="class_transmission.html#adcdc6012d99ddb1d0c3159d50984e146" target="_top" xlink:title="destructeur de la classe Transmission ">
<polygon fill="white" stroke="black" points="163,-0.5 163,-19.5 309,-19.5 309,-0.5 163,-0.5"/>
<text text-anchor="middle" x="236" y="-7.5" font-family="Helvetica,sans-Serif" font-size="10.00">Transmission::~Transmission</text>
</a>
</g>
</g>
<!-- Node1&#45;&gt;Node3 -->
<g id="edge2" class="edge"><title>Node1&#45;&gt;Node3</title>
<path fill="none" stroke="midnightblue" d="M137.008,-22.6442C145.603,-21.5351 154.376,-20.4031 162.965,-19.2949"/>
<polygon fill="midnightblue" stroke="midnightblue" points="136.49,-19.1819 127.02,-23.9329 137.385,-26.1244 136.49,-19.1819"/>
</g>
</g>
</svg>
