<?xml version="1.0" encoding="UTF-8" standalone="no"?>
<!DOCTYPE svg PUBLIC "-//W3C//DTD SVG 1.1//EN"
 "http://www.w3.org/Graphics/SVG/1.1/DTD/svg11.dtd">
<!-- Generated by graphviz version 2.38.0 (20140413.2041)
 -->
<!-- Title: Esp32::setPressionUnite Pages: 1 -->
<svg width="478pt" height="66pt"
 viewBox="0.00 0.00 478.00 66.00" xmlns="http://www.w3.org/2000/svg" xmlns:xlink="http://www.w3.org/1999/xlink">
<g id="graph0" class="graph" transform="scale(1 1) rotate(0) translate(4 62)">
<title>Esp32::setPressionUnite</title>
<polygon fill="white" stroke="none" points="-4,4 -4,-62 474,-62 474,4 -4,4"/>
<!-- Node1 -->
<g id="node1" class="node"><title>Node1</title>
<polygon fill="#bfbfbf" stroke="black" points="0,-19.5 0,-38.5 125,-38.5 125,-19.5 0,-19.5"/>
<text text-anchor="middle" x="62.5" y="-26.5" font-family="Helvetica,sans-Serif" font-size="10.00">Esp32::setPressionUnite</text>
</g>
<!-- Node2 -->
<g id="node2" class="node"><title>Node2</title>
<g id="a_node2"><a xlink:href="class_transmission.html#a14d36ad615852d6b630fbddf5787f3a3" target="_top" xlink:title="cette methode ferme le port serie ">
<polygon fill="white" stroke="black" points="161,-19.5 161,-38.5 288,-38.5 288,-19.5 161,-19.5"/>
<text text-anchor="middle" x="224.5" y="-26.5" font-family="Helvetica,sans-Serif" font-size="10.00">Transmission::fermerPort</text>
</a>
</g>
</g>
<!-- Node1&#45;&gt;Node2 -->
<g id="edge1" class="edge"><title>Node1&#45;&gt;Node2</title>
<path fill="none" stroke="midnightblue" d="M135.536,-29C143.947,-29 152.477,-29 160.748,-29"/>
<polygon fill="midnightblue" stroke="midnightblue" points="135.36,-25.5001 125.36,-29 135.36,-32.5001 135.36,-25.5001"/>
</g>
<!-- Node3 -->
<g id="node3" class="node"><title>Node3</title>
<g id="a_node3"><a xlink:href="class_ihm.html#af0426507c2130aefd01bdb4f825ae168" target="_top" xlink:title="Méthode qui actualise l&#39;etat de la led dans ihm et change le radiobutton activer en fontion de l&#39;etat...">
<polygon fill="white" stroke="black" points="343.5,-38.5 343.5,-57.5 450.5,-57.5 450.5,-38.5 343.5,-38.5"/>
<text text-anchor="middle" x="397" y="-45.5" font-family="Helvetica,sans-Serif" font-size="10.00">Ihm::modifierEtatLed</text>
</a>
</g>
</g>
<!-- Node2&#45;&gt;Node3 -->
<g id="edge2" class="edge"><title>Node2&#45;&gt;Node3</title>
<path fill="none" stroke="midnightblue" d="M298.363,-37.1196C313.46,-38.802 329.087,-40.5434 343.295,-42.1267"/>
<polygon fill="midnightblue" stroke="midnightblue" points="298.346,-33.5961 288.02,-35.967 297.571,-40.5531 298.346,-33.5961"/>
</g>
<!-- Node4 -->
<g id="node4" class="node"><title>Node4</title>
<g id="a_node4"><a xlink:href="class_transmission.html#adcdc6012d99ddb1d0c3159d50984e146" target="_top" xlink:title="destructeur de la classe Transmission ">
<polygon fill="white" stroke="black" points="324,-0.5 324,-19.5 470,-19.5 470,-0.5 324,-0.5"/>
<text text-anchor="middle" x="397" y="-7.5" font-family="Helvetica,sans-Serif" font-size="10.00">Transmission::~Transmission</text>
</a>
</g>
</g>
<!-- Node2&#45;&gt;Node4 -->
<g id="edge3" class="edge"><title>Node2&#45;&gt;Node4</title>
<path fill="none" stroke="midnightblue" d="M298.008,-20.92C306.603,-19.9621 315.376,-18.9845 323.965,-18.0274"/>
<polygon fill="midnightblue" stroke="midnightblue" points="297.571,-17.4469 288.02,-22.033 298.346,-24.4039 297.571,-17.4469"/>
</g>
</g>
</svg>
