<?xml version="1.0" encoding="UTF-8" standalone="no"?>
<!DOCTYPE svg PUBLIC "-//W3C//DTD SVG 1.1//EN"
 "http://www.w3.org/Graphics/SVG/1.1/DTD/svg11.dtd">
<!-- Generated by graphviz version 2.38.0 (20140413.2041)
 -->
<!-- Title: Ihm Pages: 1 -->
<svg width="332pt" height="1364pt"
 viewBox="0.00 0.00 332.00 1364.00" xmlns="http://www.w3.org/2000/svg" xmlns:xlink="http://www.w3.org/1999/xlink">
<g id="graph0" class="graph" transform="scale(1 1) rotate(0) translate(4 1360)">
<title>Ihm</title>
<polygon fill="white" stroke="none" points="-4,4 -4,-1360 328,-1360 328,4 -4,4"/>
<!-- Node1 -->
<g id="node1" class="node"><title>Node1</title>
<polygon fill="#bfbfbf" stroke="black" points="2.5,-0.5 2.5,-266.5 180.5,-266.5 180.5,-0.5 2.5,-0.5"/>
<text text-anchor="middle" x="91.5" y="-254.5" font-family="Helvetica,sans-Serif" font-size="10.00">Ihm</text>
<polyline fill="none" stroke="black" points="2.5,-247.5 180.5,-247.5 "/>
<text text-anchor="start" x="10.5" y="-235.5" font-family="Helvetica,sans-Serif" font-size="10.00">&#45; ui</text>
<polyline fill="none" stroke="black" points="2.5,-228.5 180.5,-228.5 "/>
<text text-anchor="start" x="10.5" y="-216.5" font-family="Helvetica,sans-Serif" font-size="10.00">+ Ihm()</text>
<text text-anchor="start" x="10.5" y="-205.5" font-family="Helvetica,sans-Serif" font-size="10.00">+ ~Ihm()</text>
<text text-anchor="start" x="10.5" y="-194.5" font-family="Helvetica,sans-Serif" font-size="10.00">+ modifierEtatLed()</text>
<text text-anchor="start" x="10.5" y="-183.5" font-family="Helvetica,sans-Serif" font-size="10.00">&#45; initialiserAffichage()</text>
<text text-anchor="start" x="10.5" y="-172.5" font-family="Helvetica,sans-Serif" font-size="10.00">&#45; initialiserInterface()</text>
<text text-anchor="start" x="10.5" y="-161.5" font-family="Helvetica,sans-Serif" font-size="10.00">&#45; enregistrerConfigurationPort()</text>
<text text-anchor="start" x="10.5" y="-150.5" font-family="Helvetica,sans-Serif" font-size="10.00">&#45; chargerConfigurationPort()</text>
<text text-anchor="start" x="10.5" y="-139.5" font-family="Helvetica,sans-Serif" font-size="10.00">&#45; on_pushButtonQuitter</text>
<text text-anchor="start" x="10.5" y="-128.5" font-family="Helvetica,sans-Serif" font-size="10.00">_clicked()</text>
<text text-anchor="start" x="10.5" y="-117.5" font-family="Helvetica,sans-Serif" font-size="10.00">&#45; on_ModeOperateur_stateChanged()</text>
<text text-anchor="start" x="10.5" y="-106.5" font-family="Helvetica,sans-Serif" font-size="10.00">&#45; actualiserTrame()</text>
<text text-anchor="start" x="10.5" y="-95.5" font-family="Helvetica,sans-Serif" font-size="10.00">&#45; actualiserDonnee()</text>
<text text-anchor="start" x="10.5" y="-84.5" font-family="Helvetica,sans-Serif" font-size="10.00">&#45; desactiverOuverturePort()</text>
<text text-anchor="start" x="10.5" y="-73.5" font-family="Helvetica,sans-Serif" font-size="10.00">&#45; desactiverFermerPort()</text>
<text text-anchor="start" x="10.5" y="-62.5" font-family="Helvetica,sans-Serif" font-size="10.00">&#45; actualiserAffichageMeteo()</text>
<text text-anchor="start" x="10.5" y="-51.5" font-family="Helvetica,sans-Serif" font-size="10.00">&#45; mettreAjourAppareilBluetooth</text>
<text text-anchor="start" x="10.5" y="-40.5" font-family="Helvetica,sans-Serif" font-size="10.00">Disponible()</text>
<text text-anchor="start" x="10.5" y="-29.5" font-family="Helvetica,sans-Serif" font-size="10.00">&#45; actualiserAffichageBluetooth()</text>
<text text-anchor="start" x="10.5" y="-18.5" font-family="Helvetica,sans-Serif" font-size="10.00">&#45; actualiserMessageStatutBluetooth()</text>
<text text-anchor="start" x="10.5" y="-7.5" font-family="Helvetica,sans-Serif" font-size="10.00">et 10 de plus...</text>
</g>
<!-- Node2 -->
<g id="node2" class="node"><title>Node2</title>
<polygon fill="white" stroke="#bfbfbf" points="0,-452 0,-509 55,-509 55,-452 0,-452"/>
<text text-anchor="middle" x="27.5" y="-497" font-family="Helvetica,sans-Serif" font-size="10.00">QWidget</text>
<polyline fill="none" stroke="#bfbfbf" points="0,-490 55,-490 "/>
<text text-anchor="middle" x="27.5" y="-478" font-family="Helvetica,sans-Serif" font-size="10.00"> </text>
<polyline fill="none" stroke="#bfbfbf" points="0,-471 55,-471 "/>
<text text-anchor="middle" x="27.5" y="-459" font-family="Helvetica,sans-Serif" font-size="10.00"> </text>
</g>
<!-- Node2&#45;&gt;Node1 -->
<g id="edge1" class="edge"><title>Node2&#45;&gt;Node1</title>
<path fill="none" stroke="midnightblue" d="M34.4955,-441.79C42.2977,-399.731 55.3556,-329.341 67.0065,-266.535"/>
<polygon fill="none" stroke="midnightblue" points="31.0119,-441.38 32.6292,-451.85 37.8945,-442.657 31.0119,-441.38"/>
</g>
<!-- Node3 -->
<g id="node3" class="node"><title>Node3</title>
<g id="a_node3"><a xlink:href="class_meteo.html" target="_top" xlink:title="Declaration de la classe Meteo. ">
<polygon fill="white" stroke="black" points="26,-665.5 26,-942.5 157,-942.5 157,-665.5 26,-665.5"/>
<text text-anchor="middle" x="91.5" y="-930.5" font-family="Helvetica,sans-Serif" font-size="10.00">Meteo</text>
<polyline fill="none" stroke="black" points="26,-923.5 157,-923.5 "/>
<text text-anchor="start" x="34" y="-911.5" font-family="Helvetica,sans-Serif" font-size="10.00">&#45; manager</text>
<text text-anchor="start" x="34" y="-900.5" font-family="Helvetica,sans-Serif" font-size="10.00">&#45; temperature</text>
<text text-anchor="start" x="34" y="-889.5" font-family="Helvetica,sans-Serif" font-size="10.00">&#45; ressentie</text>
<text text-anchor="start" x="34" y="-878.5" font-family="Helvetica,sans-Serif" font-size="10.00">&#45; temperatureMin</text>
<text text-anchor="start" x="34" y="-867.5" font-family="Helvetica,sans-Serif" font-size="10.00">&#45; temperatureMax</text>
<text text-anchor="start" x="34" y="-856.5" font-family="Helvetica,sans-Serif" font-size="10.00">&#45; pression</text>
<text text-anchor="start" x="34" y="-845.5" font-family="Helvetica,sans-Serif" font-size="10.00">&#45; humidite</text>
<polyline fill="none" stroke="black" points="26,-838.5 157,-838.5 "/>
<text text-anchor="start" x="34" y="-826.5" font-family="Helvetica,sans-Serif" font-size="10.00">+ Meteo()</text>
<text text-anchor="start" x="34" y="-815.5" font-family="Helvetica,sans-Serif" font-size="10.00">+ getTemperature()</text>
<text text-anchor="start" x="34" y="-804.5" font-family="Helvetica,sans-Serif" font-size="10.00">+ getRessentie()</text>
<text text-anchor="start" x="34" y="-793.5" font-family="Helvetica,sans-Serif" font-size="10.00">+ getTemperatureMin()</text>
<text text-anchor="start" x="34" y="-782.5" font-family="Helvetica,sans-Serif" font-size="10.00">+ getTemperatureMax()</text>
<text text-anchor="start" x="34" y="-771.5" font-family="Helvetica,sans-Serif" font-size="10.00">+ getPression()</text>
<text text-anchor="start" x="34" y="-760.5" font-family="Helvetica,sans-Serif" font-size="10.00">+ getHumidite()</text>
<text text-anchor="start" x="34" y="-749.5" font-family="Helvetica,sans-Serif" font-size="10.00">+ setTemperature()</text>
<text text-anchor="start" x="34" y="-738.5" font-family="Helvetica,sans-Serif" font-size="10.00">+ setTemperatureMin()</text>
<text text-anchor="start" x="34" y="-727.5" font-family="Helvetica,sans-Serif" font-size="10.00">+ setTemperatureMax()</text>
<text text-anchor="start" x="34" y="-716.5" font-family="Helvetica,sans-Serif" font-size="10.00">+ setRessentie()</text>
<text text-anchor="start" x="34" y="-705.5" font-family="Helvetica,sans-Serif" font-size="10.00">+ setPression()</text>
<text text-anchor="start" x="34" y="-694.5" font-family="Helvetica,sans-Serif" font-size="10.00">+ setHumidite()</text>
<text text-anchor="start" x="34" y="-683.5" font-family="Helvetica,sans-Serif" font-size="10.00">+ recupererDonnerMeteo()</text>
<text text-anchor="start" x="34" y="-672.5" font-family="Helvetica,sans-Serif" font-size="10.00">&#45; replyFinished()</text>
</a>
</g>
</g>
<!-- Node3&#45;&gt;Node1 -->
<g id="edge2" class="edge"><title>Node3&#45;&gt;Node1</title>
<path fill="none" stroke="#404040" d="M91.5,-665.297C91.5,-552.543 91.5,-393.509 91.5,-278.957"/>
<polygon fill="none" stroke="#404040" points="91.5001,-278.617 87.5,-272.617 91.5,-266.617 95.5,-272.617 91.5001,-278.617"/>
<text text-anchor="middle" x="108.5" y="-478" font-family="Helvetica,sans-Serif" font-size="10.00"> &#45;meteo</text>
</g>
<!-- Node4 -->
<g id="node4" class="node"><title>Node4</title>
<polygon fill="white" stroke="#bfbfbf" points="146,-1298.5 146,-1355.5 199,-1355.5 199,-1298.5 146,-1298.5"/>
<text text-anchor="middle" x="172.5" y="-1343.5" font-family="Helvetica,sans-Serif" font-size="10.00">QObject</text>
<polyline fill="none" stroke="#bfbfbf" points="146,-1336.5 199,-1336.5 "/>
<text text-anchor="middle" x="172.5" y="-1324.5" font-family="Helvetica,sans-Serif" font-size="10.00"> </text>
<polyline fill="none" stroke="#bfbfbf" points="146,-1317.5 199,-1317.5 "/>
<text text-anchor="middle" x="172.5" y="-1305.5" font-family="Helvetica,sans-Serif" font-size="10.00"> </text>
</g>
<!-- Node4&#45;&gt;Node3 -->
<g id="edge3" class="edge"><title>Node4&#45;&gt;Node3</title>
<path fill="none" stroke="midnightblue" d="M160.604,-1288.64C159.839,-1285.73 159.126,-1282.83 158.5,-1280 133.623,-1167.58 116.075,-1038.06 105.195,-942.683"/>
<polygon fill="none" stroke="midnightblue" points="157.285,-1289.77 163.357,-1298.45 164.025,-1287.88 157.285,-1289.77"/>
</g>
<!-- Node5 -->
<g id="node5" class="node"><title>Node5</title>
<g id="a_node5"><a xlink:href="class_transmission.html" target="_top" xlink:title="Declaration de la classe Transmission. ">
<polygon fill="white" stroke="black" points="144,-314.5 144,-646.5 295,-646.5 295,-314.5 144,-314.5"/>
<text text-anchor="middle" x="219.5" y="-634.5" font-family="Helvetica,sans-Serif" font-size="10.00">Transmission</text>
<polyline fill="none" stroke="black" points="144,-627.5 295,-627.5 "/>
<text text-anchor="start" x="152" y="-615.5" font-family="Helvetica,sans-Serif" font-size="10.00">&#45; port</text>
<text text-anchor="start" x="152" y="-604.5" font-family="Helvetica,sans-Serif" font-size="10.00">&#45; scan</text>
<text text-anchor="start" x="152" y="-593.5" font-family="Helvetica,sans-Serif" font-size="10.00">&#45; m_controller</text>
<text text-anchor="start" x="152" y="-582.5" font-family="Helvetica,sans-Serif" font-size="10.00">&#45; socket</text>
<text text-anchor="start" x="152" y="-571.5" font-family="Helvetica,sans-Serif" font-size="10.00">&#45; trame</text>
<text text-anchor="start" x="152" y="-560.5" font-family="Helvetica,sans-Serif" font-size="10.00">&#45; statutBluetooth</text>
<text text-anchor="start" x="152" y="-549.5" font-family="Helvetica,sans-Serif" font-size="10.00">&#45; appareilDisponible</text>
<polyline fill="none" stroke="black" points="144,-542.5 295,-542.5 "/>
<text text-anchor="start" x="152" y="-530.5" font-family="Helvetica,sans-Serif" font-size="10.00">+ Transmission()</text>
<text text-anchor="start" x="152" y="-519.5" font-family="Helvetica,sans-Serif" font-size="10.00">+ ~Transmission()</text>
<text text-anchor="start" x="152" y="-508.5" font-family="Helvetica,sans-Serif" font-size="10.00">+ getTrame()</text>
<text text-anchor="start" x="152" y="-497.5" font-family="Helvetica,sans-Serif" font-size="10.00">+ getEsp32()</text>
<text text-anchor="start" x="152" y="-486.5" font-family="Helvetica,sans-Serif" font-size="10.00">+ getAppareilDisponible()</text>
<text text-anchor="start" x="152" y="-475.5" font-family="Helvetica,sans-Serif" font-size="10.00">+ getStatutBluetooth()</text>
<text text-anchor="start" x="152" y="-464.5" font-family="Helvetica,sans-Serif" font-size="10.00">+ setStatutBluetooth()</text>
<text text-anchor="start" x="152" y="-453.5" font-family="Helvetica,sans-Serif" font-size="10.00">+ setAppareilDisponible()</text>
<text text-anchor="start" x="152" y="-442.5" font-family="Helvetica,sans-Serif" font-size="10.00">+ configurerPort()</text>
<text text-anchor="start" x="152" y="-431.5" font-family="Helvetica,sans-Serif" font-size="10.00">+ fermerPort()</text>
<text text-anchor="start" x="152" y="-420.5" font-family="Helvetica,sans-Serif" font-size="10.00">+ envoyerDonnees()</text>
<text text-anchor="start" x="152" y="-409.5" font-family="Helvetica,sans-Serif" font-size="10.00">+ ouvrirPort()</text>
<text text-anchor="start" x="152" y="-398.5" font-family="Helvetica,sans-Serif" font-size="10.00">+ demarrerScan()</text>
<text text-anchor="start" x="152" y="-387.5" font-family="Helvetica,sans-Serif" font-size="10.00">+ connecterAppareilBluetooth()</text>
<text text-anchor="start" x="152" y="-376.5" font-family="Helvetica,sans-Serif" font-size="10.00">+ recevoir()</text>
<text text-anchor="start" x="152" y="-365.5" font-family="Helvetica,sans-Serif" font-size="10.00">+ ajouterAppareil()</text>
<text text-anchor="start" x="152" y="-354.5" font-family="Helvetica,sans-Serif" font-size="10.00">+ scanTerminer()</text>
<text text-anchor="start" x="152" y="-343.5" font-family="Helvetica,sans-Serif" font-size="10.00">+ socketConnected()</text>
<text text-anchor="start" x="152" y="-332.5" font-family="Helvetica,sans-Serif" font-size="10.00">+ socketDisconnected()</text>
<text text-anchor="start" x="152" y="-321.5" font-family="Helvetica,sans-Serif" font-size="10.00">&#45; decomposer()</text>
</a>
</g>
</g>
<!-- Node4&#45;&gt;Node5 -->
<g id="edge5" class="edge"><title>Node4&#45;&gt;Node5</title>
<path fill="none" stroke="midnightblue" d="M174.416,-1287.67C177.756,-1221.17 184.921,-1080.13 191.5,-961 197.276,-856.403 204.126,-738.994 209.605,-646.536"/>
<polygon fill="none" stroke="midnightblue" points="170.9,-1287.9 173.894,-1298.06 177.891,-1288.25 170.9,-1287.9"/>
</g>
<!-- Node6 -->
<g id="node6" class="node"><title>Node6</title>
<g id="a_node6"><a xlink:href="class_esp32.html" target="_top" xlink:title="Declaration de la classe Esp32. ">
<polygon fill="white" stroke="black" points="201,-961.5 201,-1260.5 324,-1260.5 324,-961.5 201,-961.5"/>
<text text-anchor="middle" x="262.5" y="-1248.5" font-family="Helvetica,sans-Serif" font-size="10.00">Esp32</text>
<polyline fill="none" stroke="black" points="201,-1241.5 324,-1241.5 "/>
<text text-anchor="start" x="209" y="-1229.5" font-family="Helvetica,sans-Serif" font-size="10.00">&#45; temperature</text>
<text text-anchor="start" x="209" y="-1218.5" font-family="Helvetica,sans-Serif" font-size="10.00">&#45; temperatureUnite</text>
<text text-anchor="start" x="209" y="-1207.5" font-family="Helvetica,sans-Serif" font-size="10.00">&#45; ressentie</text>
<text text-anchor="start" x="209" y="-1196.5" font-family="Helvetica,sans-Serif" font-size="10.00">&#45; ressentieUnite</text>
<text text-anchor="start" x="209" y="-1185.5" font-family="Helvetica,sans-Serif" font-size="10.00">&#45; humidite</text>
<text text-anchor="start" x="209" y="-1174.5" font-family="Helvetica,sans-Serif" font-size="10.00">&#45; humiditeUnite</text>
<text text-anchor="start" x="209" y="-1163.5" font-family="Helvetica,sans-Serif" font-size="10.00">&#45; luminosite</text>
<text text-anchor="start" x="209" y="-1152.5" font-family="Helvetica,sans-Serif" font-size="10.00">&#45; luminositeUnite</text>
<text text-anchor="start" x="209" y="-1141.5" font-family="Helvetica,sans-Serif" font-size="10.00">&#45; pression</text>
<text text-anchor="start" x="209" y="-1130.5" font-family="Helvetica,sans-Serif" font-size="10.00">&#45; pressionUnite</text>
<text text-anchor="start" x="209" y="-1119.5" font-family="Helvetica,sans-Serif" font-size="10.00">&#45; altitude</text>
<text text-anchor="start" x="209" y="-1108.5" font-family="Helvetica,sans-Serif" font-size="10.00">&#45; altitudeUnite</text>
<text text-anchor="start" x="209" y="-1097.5" font-family="Helvetica,sans-Serif" font-size="10.00">&#45; couleur</text>
<polyline fill="none" stroke="black" points="201,-1090.5 324,-1090.5 "/>
<text text-anchor="start" x="209" y="-1078.5" font-family="Helvetica,sans-Serif" font-size="10.00">+ Esp32()</text>
<text text-anchor="start" x="209" y="-1067.5" font-family="Helvetica,sans-Serif" font-size="10.00">+ getTemperature()</text>
<text text-anchor="start" x="209" y="-1056.5" font-family="Helvetica,sans-Serif" font-size="10.00">+ getRessentie()</text>
<text text-anchor="start" x="209" y="-1045.5" font-family="Helvetica,sans-Serif" font-size="10.00">+ getTemperatureUnite()</text>
<text text-anchor="start" x="209" y="-1034.5" font-family="Helvetica,sans-Serif" font-size="10.00">+ getRessentieUnite()</text>
<text text-anchor="start" x="209" y="-1023.5" font-family="Helvetica,sans-Serif" font-size="10.00">+ getHumidite()</text>
<text text-anchor="start" x="209" y="-1012.5" font-family="Helvetica,sans-Serif" font-size="10.00">+ getLuminosite()</text>
<text text-anchor="start" x="209" y="-1001.5" font-family="Helvetica,sans-Serif" font-size="10.00">+ getHumiditeUnite()</text>
<text text-anchor="start" x="209" y="-990.5" font-family="Helvetica,sans-Serif" font-size="10.00">+ getLuminositeUnite()</text>
<text text-anchor="start" x="209" y="-979.5" font-family="Helvetica,sans-Serif" font-size="10.00">+ getPression()</text>
<text text-anchor="start" x="209" y="-968.5" font-family="Helvetica,sans-Serif" font-size="10.00">et 17 de plus...</text>
</a>
</g>
</g>
<!-- Node4&#45;&gt;Node6 -->
<g id="edge7" class="edge"><title>Node4&#45;&gt;Node6</title>
<path fill="none" stroke="midnightblue" d="M188.052,-1289.02C191.906,-1279.86 196.275,-1269.47 200.918,-1258.43"/>
<polygon fill="none" stroke="midnightblue" points="184.732,-1287.89 184.082,-1298.46 191.185,-1290.6 184.732,-1287.89"/>
</g>
<!-- Node5&#45;&gt;Node1 -->
<g id="edge4" class="edge"><title>Node5&#45;&gt;Node1</title>
<path fill="none" stroke="#404040" d="M158.218,-314.326C153.716,-302.193 149.197,-290.011 144.749,-278.022"/>
<polygon fill="none" stroke="#404040" points="144.683,-277.845 138.846,-273.611 140.509,-266.594 146.346,-270.828 144.683,-277.845"/>
<text text-anchor="middle" x="179.5" y="-288" font-family="Helvetica,sans-Serif" font-size="10.00"> &#45;transmission</text>
</g>
<!-- Node6&#45;&gt;Node5 -->
<g id="edge6" class="edge"><title>Node6&#45;&gt;Node5</title>
<path fill="none" stroke="#404040" d="M252.337,-961.452C246.133,-870.78 238.166,-754.329 231.633,-658.841"/>
<polygon fill="none" stroke="#404040" points="231.622,-658.68 227.222,-652.967 230.803,-646.708 235.203,-652.421 231.622,-658.68"/>
<text text-anchor="middle" x="268" y="-801.5" font-family="Helvetica,sans-Serif" font-size="10.00"> &#45;esp32</text>
</g>
</g>
</svg>
