<?xml version="1.0" encoding="UTF-8" standalone="no"?>
<!DOCTYPE svg PUBLIC "-//W3C//DTD SVG 1.1//EN"
 "http://www.w3.org/Graphics/SVG/1.1/DTD/svg11.dtd">
<!-- Generated by graphviz version 2.38.0 (20140413.2041)
 -->
<!-- Title: Ihm::modifierEtatLed Pages: 1 -->
<svg width="636pt" height="845pt"
 viewBox="0.00 0.00 636.00 845.00" xmlns="http://www.w3.org/2000/svg" xmlns:xlink="http://www.w3.org/1999/xlink">
<g id="graph0" class="graph" transform="scale(1 1) rotate(0) translate(4 841)">
<title>Ihm::modifierEtatLed</title>
<polygon fill="white" stroke="none" points="-4,4 -4,-841 632,-841 632,4 -4,4"/>
<!-- Node1 -->
<g id="node1" class="node"><title>Node1</title>
<polygon fill="#bfbfbf" stroke="black" points="0,-513.5 0,-532.5 107,-532.5 107,-513.5 0,-513.5"/>
<text text-anchor="middle" x="53.5" y="-520.5" font-family="Helvetica,sans-Serif" font-size="10.00">Ihm::modifierEtatLed</text>
</g>
<!-- Node2 -->
<g id="node2" class="node"><title>Node2</title>
<g id="a_node2"><a xlink:href="class_transmission.html#afccd88f8be8c204a0960bc2d6970931f" target="_top" xlink:title="return l&#39;objet Esp32 ">
<polygon fill="white" stroke="black" points="159.5,-817.5 159.5,-836.5 281.5,-836.5 281.5,-817.5 159.5,-817.5"/>
<text text-anchor="middle" x="220.5" y="-824.5" font-family="Helvetica,sans-Serif" font-size="10.00">Transmission::getEsp32</text>
</a>
</g>
</g>
<!-- Node1&#45;&gt;Node2 -->
<g id="edge1" class="edge"><title>Node1&#45;&gt;Node2</title>
<path fill="none" stroke="midnightblue" d="M54.3425,-532.568C54.2299,-572.704 59.3601,-729.048 143,-808 145.266,-810.139 147.733,-812.047 150.349,-813.749"/>
<polygon fill="midnightblue" stroke="midnightblue" points="148.682,-816.827 159.141,-818.514 152.017,-810.672 148.682,-816.827"/>
</g>
<!-- Node3 -->
<g id="node3" class="node"><title>Node3</title>
<g id="a_node3"><a xlink:href="class_esp32.html#ac695656654b5d83ec3924b47f533f465" target="_top" xlink:title="retourne l&#39;etat de la led ">
<polygon fill="white" stroke="black" points="171.5,-779.5 171.5,-798.5 269.5,-798.5 269.5,-779.5 171.5,-779.5"/>
<text text-anchor="middle" x="220.5" y="-786.5" font-family="Helvetica,sans-Serif" font-size="10.00">Esp32::getEtatLed</text>
</a>
</g>
</g>
<!-- Node1&#45;&gt;Node3 -->
<g id="edge2" class="edge"><title>Node1&#45;&gt;Node3</title>
<path fill="none" stroke="midnightblue" d="M54.8612,-532.542C56.7884,-569.291 68.8341,-702.944 143,-770 148.443,-774.922 154.963,-778.615 161.869,-781.379"/>
<polygon fill="midnightblue" stroke="midnightblue" points="160.868,-784.734 171.462,-784.599 163.096,-778.098 160.868,-784.734"/>
</g>
<!-- Node4 -->
<g id="node4" class="node"><title>Node4</title>
<g id="a_node4"><a xlink:href="class_esp32.html#adb339413686f3d78df1ecd41f106fd4e" target="_top" xlink:title="retourne la valeur de temperature ">
<polygon fill="white" stroke="black" points="161,-741.5 161,-760.5 280,-760.5 280,-741.5 161,-741.5"/>
<text text-anchor="middle" x="220.5" y="-748.5" font-family="Helvetica,sans-Serif" font-size="10.00">Esp32::getTemperature</text>
</a>
</g>
</g>
<!-- Node1&#45;&gt;Node4 -->
<g id="edge3" class="edge"><title>Node1&#45;&gt;Node4</title>
<path fill="none" stroke="midnightblue" d="M55.5665,-532.665C59.7704,-565.937 78.2794,-676.725 143,-732 145.683,-734.291 148.601,-736.314 151.68,-738.098"/>
<polygon fill="midnightblue" stroke="midnightblue" points="150.201,-741.271 160.722,-742.523 153.279,-734.984 150.201,-741.271"/>
</g>
<!-- Node5 -->
<g id="node5" class="node"><title>Node5</title>
<g id="a_node5"><a xlink:href="class_esp32.html#a87f581ef8f01bcb71a7294cc545b242e" target="_top" xlink:title="retourne la valeur d&#39;humiditer ">
<polygon fill="white" stroke="black" points="169,-703.5 169,-722.5 272,-722.5 272,-703.5 169,-703.5"/>
<text text-anchor="middle" x="220.5" y="-710.5" font-family="Helvetica,sans-Serif" font-size="10.00">Esp32::getHumidite</text>
</a>
</g>
</g>
<!-- Node1&#45;&gt;Node5 -->
<g id="edge4" class="edge"><title>Node1&#45;&gt;Node5</title>
<path fill="none" stroke="midnightblue" d="M56.5152,-532.526C63.1879,-561.634 87.3794,-650.086 143,-694 147.934,-697.896 153.56,-701.005 159.472,-703.485"/>
<polygon fill="midnightblue" stroke="midnightblue" points="158.344,-706.798 168.938,-706.886 160.711,-700.21 158.344,-706.798"/>
</g>
<!-- Node6 -->
<g id="node6" class="node"><title>Node6</title>
<g id="a_node6"><a xlink:href="class_esp32.html#ae29854a5127d760a216f96ec7d797412" target="_top" xlink:title="retourne la valeur de ressentie ">
<polygon fill="white" stroke="black" points="166.5,-665.5 166.5,-684.5 274.5,-684.5 274.5,-665.5 166.5,-665.5"/>
<text text-anchor="middle" x="220.5" y="-672.5" font-family="Helvetica,sans-Serif" font-size="10.00">Esp32::getRessentie</text>
</a>
</g>
</g>
<!-- Node1&#45;&gt;Node6 -->
<g id="edge5" class="edge"><title>Node1&#45;&gt;Node6</title>
<path fill="none" stroke="midnightblue" d="M58.1028,-532.835C67.7273,-557.67 96.5134,-623.263 143,-656 147.227,-658.977 151.873,-661.489 156.722,-663.609"/>
<polygon fill="midnightblue" stroke="midnightblue" points="155.648,-666.945 166.239,-667.22 158.131,-660.4 155.648,-666.945"/>
</g>
<!-- Node7 -->
<g id="node7" class="node"><title>Node7</title>
<g id="a_node7"><a xlink:href="class_esp32.html#aa2cdabace1ce70928c53d25e306a16d1" target="_top" xlink:title="retourne la valeur de luminositer ">
<polygon fill="white" stroke="black" points="165,-627.5 165,-646.5 276,-646.5 276,-627.5 165,-627.5"/>
<text text-anchor="middle" x="220.5" y="-634.5" font-family="Helvetica,sans-Serif" font-size="10.00">Esp32::getLuminosite</text>
</a>
</g>
</g>
<!-- Node1&#45;&gt;Node7 -->
<g id="edge6" class="edge"><title>Node1&#45;&gt;Node7</title>
<path fill="none" stroke="midnightblue" d="M60.5316,-532.515C73.2769,-551.806 104.929,-595.585 143,-618 146.886,-620.288 151.039,-622.302 155.326,-624.074"/>
<polygon fill="midnightblue" stroke="midnightblue" points="154.28,-627.418 164.874,-627.581 156.694,-620.848 154.28,-627.418"/>
</g>
<!-- Node8 -->
<g id="node8" class="node"><title>Node8</title>
<g id="a_node8"><a xlink:href="class_esp32.html#a31155a36108b37febae371d9ae65385a" target="_top" xlink:title="retourne la valeur de pression ">
<polygon fill="white" stroke="black" points="169.5,-589.5 169.5,-608.5 271.5,-608.5 271.5,-589.5 169.5,-589.5"/>
<text text-anchor="middle" x="220.5" y="-596.5" font-family="Helvetica,sans-Serif" font-size="10.00">Esp32::getPression</text>
</a>
</g>
</g>
<!-- Node1&#45;&gt;Node8 -->
<g id="edge7" class="edge"><title>Node1&#45;&gt;Node8</title>
<path fill="none" stroke="midnightblue" d="M66.6555,-532.699C83.0649,-545.337 113.641,-567.316 143,-580 148.688,-582.458 154.758,-584.64 160.896,-586.568"/>
<polygon fill="midnightblue" stroke="midnightblue" points="159.972,-589.945 170.552,-589.392 161.936,-583.226 159.972,-589.945"/>
</g>
<!-- Node9 -->
<g id="node9" class="node"><title>Node9</title>
<g id="a_node9"><a xlink:href="class_esp32.html#a31b691e6c75c1f9859bde4c0df8fe12f" target="_top" xlink:title="retourne la valeur de l&#39;altitude ">
<polygon fill="white" stroke="black" points="172,-551.5 172,-570.5 269,-570.5 269,-551.5 172,-551.5"/>
<text text-anchor="middle" x="220.5" y="-558.5" font-family="Helvetica,sans-Serif" font-size="10.00">Esp32::getAltitude</text>
</a>
</g>
</g>
<!-- Node1&#45;&gt;Node9 -->
<g id="edge8" class="edge"><title>Node1&#45;&gt;Node9</title>
<path fill="none" stroke="midnightblue" d="M96.1365,-532.589C118.008,-537.626 145.006,-543.844 168.164,-549.177"/>
<polygon fill="midnightblue" stroke="midnightblue" points="167.633,-552.646 178.163,-551.48 169.204,-545.825 167.633,-552.646"/>
</g>
<!-- Node10 -->
<g id="node10" class="node"><title>Node10</title>
<g id="a_node10"><a xlink:href="class_esp32.html#ae20c976b79f87de083ca8ee49b2abf25" target="_top" xlink:title="retourne l&#39;uniter de la valeur de temperature ">
<polygon fill="white" stroke="black" points="149.5,-513.5 149.5,-532.5 291.5,-532.5 291.5,-513.5 149.5,-513.5"/>
<text text-anchor="middle" x="220.5" y="-520.5" font-family="Helvetica,sans-Serif" font-size="10.00">Esp32::getTemperatureUnite</text>
</a>
</g>
</g>
<!-- Node1&#45;&gt;Node10 -->
<g id="edge9" class="edge"><title>Node1&#45;&gt;Node10</title>
<path fill="none" stroke="midnightblue" d="M107.161,-523C117.31,-523 128.155,-523 138.956,-523"/>
<polygon fill="midnightblue" stroke="midnightblue" points="139.273,-526.5 149.273,-523 139.273,-519.5 139.273,-526.5"/>
</g>
<!-- Node11 -->
<g id="node11" class="node"><title>Node11</title>
<g id="a_node11"><a xlink:href="class_esp32.html#a548ed7533f742d087c65df256479ed00" target="_top" xlink:title="retourne l&#39;uniter de la valeur de ressentie ">
<polygon fill="white" stroke="black" points="155,-475.5 155,-494.5 286,-494.5 286,-475.5 155,-475.5"/>
<text text-anchor="middle" x="220.5" y="-482.5" font-family="Helvetica,sans-Serif" font-size="10.00">Esp32::getRessentieUnite</text>
</a>
</g>
</g>
<!-- Node1&#45;&gt;Node11 -->
<g id="edge10" class="edge"><title>Node1&#45;&gt;Node11</title>
<path fill="none" stroke="midnightblue" d="M96.1365,-513.411C118.008,-508.374 145.006,-502.156 168.164,-496.823"/>
<polygon fill="midnightblue" stroke="midnightblue" points="169.204,-500.175 178.163,-494.52 167.633,-493.354 169.204,-500.175"/>
</g>
<!-- Node12 -->
<g id="node12" class="node"><title>Node12</title>
<g id="a_node12"><a xlink:href="class_esp32.html#ab2a1fc92c11af031814569f3d2836f33" target="_top" xlink:title="retourne l&#39;uniter de la valeur d&#39;humidite ">
<polygon fill="white" stroke="black" points="157.5,-437.5 157.5,-456.5 283.5,-456.5 283.5,-437.5 157.5,-437.5"/>
<text text-anchor="middle" x="220.5" y="-444.5" font-family="Helvetica,sans-Serif" font-size="10.00">Esp32::getHumiditeUnite</text>
</a>
</g>
</g>
<!-- Node1&#45;&gt;Node12 -->
<g id="edge11" class="edge"><title>Node1&#45;&gt;Node12</title>
<path fill="none" stroke="midnightblue" d="M66.6555,-513.301C83.0649,-500.663 113.641,-478.684 143,-466 148.688,-463.542 154.758,-461.36 160.896,-459.432"/>
<polygon fill="midnightblue" stroke="midnightblue" points="161.936,-462.774 170.552,-456.608 159.972,-456.055 161.936,-462.774"/>
</g>
<!-- Node13 -->
<g id="node13" class="node"><title>Node13</title>
<g id="a_node13"><a xlink:href="class_esp32.html#a50f4ef373379d2dbc0fd960438ab6f93" target="_top" xlink:title="retourne l&#39;uniter de la valeur de luminosite ">
<polygon fill="white" stroke="black" points="153.5,-399.5 153.5,-418.5 287.5,-418.5 287.5,-399.5 153.5,-399.5"/>
<text text-anchor="middle" x="220.5" y="-406.5" font-family="Helvetica,sans-Serif" font-size="10.00">Esp32::getLuminositeUnite</text>
</a>
</g>
</g>
<!-- Node1&#45;&gt;Node13 -->
<g id="edge12" class="edge"><title>Node1&#45;&gt;Node13</title>
<path fill="none" stroke="midnightblue" d="M60.5316,-513.485C73.2769,-494.194 104.929,-450.415 143,-428 146.715,-425.813 150.673,-423.876 154.76,-422.162"/>
<polygon fill="midnightblue" stroke="midnightblue" points="156.319,-425.316 164.472,-418.551 153.88,-418.755 156.319,-425.316"/>
</g>
<!-- Node14 -->
<g id="node14" class="node"><title>Node14</title>
<g id="a_node14"><a xlink:href="class_esp32.html#a398d4a1cbc61f7af2f3af7ecbcf2f93f" target="_top" xlink:title="retourne l&#39;uniter de la valeur de pression ">
<polygon fill="white" stroke="black" points="158,-361.5 158,-380.5 283,-380.5 283,-361.5 158,-361.5"/>
<text text-anchor="middle" x="220.5" y="-368.5" font-family="Helvetica,sans-Serif" font-size="10.00">Esp32::getPressionUnite</text>
</a>
</g>
</g>
<!-- Node1&#45;&gt;Node14 -->
<g id="edge13" class="edge"><title>Node1&#45;&gt;Node14</title>
<path fill="none" stroke="midnightblue" d="M58.1028,-513.165C67.7273,-488.33 96.5134,-422.737 143,-390 145.741,-388.07 148.658,-386.335 151.693,-384.775"/>
<polygon fill="midnightblue" stroke="midnightblue" points="153.369,-387.861 161.089,-380.605 150.529,-381.463 153.369,-387.861"/>
</g>
<!-- Node15 -->
<g id="node15" class="node"><title>Node15</title>
<g id="a_node15"><a xlink:href="class_esp32.html#aad3c2e4b5d15a02abc62d0329f43942d" target="_top" xlink:title="retourne l&#39;uniter de la valeur de l&#39;altitude ">
<polygon fill="white" stroke="black" points="160.5,-323.5 160.5,-342.5 280.5,-342.5 280.5,-323.5 160.5,-323.5"/>
<text text-anchor="middle" x="220.5" y="-330.5" font-family="Helvetica,sans-Serif" font-size="10.00">Esp32::getAltitudeUnite</text>
</a>
</g>
</g>
<!-- Node1&#45;&gt;Node15 -->
<g id="edge14" class="edge"><title>Node1&#45;&gt;Node15</title>
<path fill="none" stroke="midnightblue" d="M56.5152,-513.474C63.1879,-484.366 87.3794,-395.914 143,-352 145.578,-349.965 148.345,-348.144 151.242,-346.516"/>
<polygon fill="midnightblue" stroke="midnightblue" points="152.768,-349.666 160.27,-342.185 149.74,-343.355 152.768,-349.666"/>
</g>
<!-- Node16 -->
<g id="node16" class="node"><title>Node16</title>
<g id="a_node16"><a xlink:href="class_transmission.html#ab4e82ab30c181a8e0d0c0257ea0e1f56" target="_top" xlink:title="configure le port serie ">
<polygon fill="white" stroke="black" points="149.5,-285.5 149.5,-304.5 291.5,-304.5 291.5,-285.5 149.5,-285.5"/>
<text text-anchor="middle" x="220.5" y="-292.5" font-family="Helvetica,sans-Serif" font-size="10.00">Transmission::configurerPort</text>
</a>
</g>
</g>
<!-- Node1&#45;&gt;Node16 -->
<g id="edge15" class="edge"><title>Node1&#45;&gt;Node16</title>
<path fill="none" stroke="midnightblue" d="M55.5665,-513.335C59.7704,-480.063 78.2794,-369.275 143,-314 144.958,-312.328 147.041,-310.799 149.22,-309.402"/>
<polygon fill="midnightblue" stroke="midnightblue" points="150.908,-312.468 158.043,-304.635 147.581,-306.309 150.908,-312.468"/>
</g>
<!-- Node19 -->
<g id="node19" class="node"><title>Node19</title>
<g id="a_node19"><a xlink:href="class_transmission.html#a14d36ad615852d6b630fbddf5787f3a3" target="_top" xlink:title="cette methode ferme le port serie ">
<polygon fill="white" stroke="black" points="157,-247.5 157,-266.5 284,-266.5 284,-247.5 157,-247.5"/>
<text text-anchor="middle" x="220.5" y="-254.5" font-family="Helvetica,sans-Serif" font-size="10.00">Transmission::fermerPort</text>
</a>
</g>
</g>
<!-- Node1&#45;&gt;Node19 -->
<g id="edge18" class="edge"><title>Node1&#45;&gt;Node19</title>
<path fill="none" stroke="midnightblue" d="M54.8612,-513.458C56.7884,-476.709 68.8341,-343.056 143,-276 144.732,-274.434 146.573,-272.992 148.501,-271.666"/>
<polygon fill="midnightblue" stroke="midnightblue" points="150.497,-274.556 157.439,-266.553 147.021,-268.48 150.497,-274.556"/>
</g>
<!-- Node33 -->
<g id="node33" class="node"><title>Node33</title>
<g id="a_node33"><a xlink:href="class_transmission.html#a21e35372ada18cd35411c0e8c0984fd7" target="_top" xlink:title="envoyer les données par le port serie ">
<polygon fill="white" stroke="black" points="143,-209.5 143,-228.5 298,-228.5 298,-209.5 143,-209.5"/>
<text text-anchor="middle" x="220.5" y="-216.5" font-family="Helvetica,sans-Serif" font-size="10.00">Transmission::envoyerDonnees</text>
</a>
</g>
</g>
<!-- Node1&#45;&gt;Node33 -->
<g id="edge32" class="edge"><title>Node1&#45;&gt;Node33</title>
<path fill="none" stroke="midnightblue" d="M54.3425,-513.432C54.2299,-473.296 59.3601,-316.952 143,-238 144.658,-236.435 146.423,-234.994 148.276,-233.666"/>
<polygon fill="midnightblue" stroke="midnightblue" points="150.084,-236.663 156.892,-228.544 146.507,-230.646 150.084,-236.663"/>
</g>
<!-- Node17 -->
<g id="node17" class="node"><title>Node17</title>
<g id="a_node17"><a xlink:href="class_transmission.html#a41d15e65be472e058b28869f8dfad392" target="_top" xlink:title="Transmission::ouvrirPort">
<polygon fill="white" stroke="black" points="343.5,-494.5 343.5,-513.5 466.5,-513.5 466.5,-494.5 343.5,-494.5"/>
<text text-anchor="middle" x="405" y="-501.5" font-family="Helvetica,sans-Serif" font-size="10.00">Transmission::ouvrirPort</text>
</a>
</g>
</g>
<!-- Node16&#45;&gt;Node17 -->
<g id="edge16" class="edge"><title>Node16&#45;&gt;Node17</title>
<path fill="none" stroke="midnightblue" d="M285.227,-304.532C289.943,-307.047 294.295,-310.159 298,-314 351.922,-369.896 280.685,-428.525 334,-485 335.248,-486.322 336.578,-487.555 337.977,-488.706"/>
<polygon fill="midnightblue" stroke="midnightblue" points="336.372,-491.84 346.645,-494.429 340.228,-485.998 336.372,-491.84"/>
</g>
<!-- Node18 -->
<g id="node18" class="node"><title>Node18</title>
<g id="a_node18"><a xlink:href="class_transmission.html#aa54a695d9d1c728ccab04f1d8030da41" target="_top" xlink:title="Récupérer la trame émise. ">
<polygon fill="white" stroke="black" points="512,-494.5 512,-513.5 628,-513.5 628,-494.5 512,-494.5"/>
<text text-anchor="middle" x="570" y="-501.5" font-family="Helvetica,sans-Serif" font-size="10.00">Transmission::recevoir</text>
</a>
</g>
</g>
<!-- Node17&#45;&gt;Node18 -->
<g id="edge17" class="edge"><title>Node17&#45;&gt;Node18</title>
<path fill="none" stroke="midnightblue" d="M466.695,-504C478.106,-504 490.101,-504 501.699,-504"/>
<polygon fill="midnightblue" stroke="midnightblue" points="501.765,-507.5 511.765,-504 501.765,-500.5 501.765,-507.5"/>
</g>
<!-- Node20 -->
<g id="node20" class="node"><title>Node20</title>
<g id="a_node20"><a xlink:href="class_esp32.html#a8e7a509ed5704bee4bc527ae297f14f0" target="_top" xlink:title="modifie la variable température avec celle&#45;ci passer en paramètre ">
<polygon fill="white" stroke="black" points="345.5,-456.5 345.5,-475.5 464.5,-475.5 464.5,-456.5 345.5,-456.5"/>
<text text-anchor="middle" x="405" y="-463.5" font-family="Helvetica,sans-Serif" font-size="10.00">Esp32::setTemperature</text>
</a>
</g>
</g>
<!-- Node19&#45;&gt;Node20 -->
<g id="edge19" class="edge"><title>Node19&#45;&gt;Node20</title>
<path fill="none" stroke="midnightblue" d="M284.133,-265.962C289.269,-268.573 294.01,-271.863 298,-276 351.922,-331.896 280.685,-390.525 334,-447 335.248,-448.322 336.578,-449.555 337.977,-450.706"/>
<polygon fill="midnightblue" stroke="midnightblue" points="336.372,-453.84 346.645,-456.429 340.228,-447.998 336.372,-453.84"/>
</g>
<!-- Node21 -->
<g id="node21" class="node"><title>Node21</title>
<g id="a_node21"><a xlink:href="class_esp32.html#a709c261e1cea7b6bbd2ea1b09b1d7ec0" target="_top" xlink:title="modifie la variable de l&#39;uniter utiliser pour la temperature ">
<polygon fill="white" stroke="black" points="334,-418.5 334,-437.5 476,-437.5 476,-418.5 334,-418.5"/>
<text text-anchor="middle" x="405" y="-425.5" font-family="Helvetica,sans-Serif" font-size="10.00">Esp32::setTemperatureUnite</text>
</a>
</g>
</g>
<!-- Node19&#45;&gt;Node21 -->
<g id="edge20" class="edge"><title>Node19&#45;&gt;Node21</title>
<path fill="none" stroke="midnightblue" d="M284.26,-266.387C289.305,-268.919 293.991,-272.074 298,-276 341.752,-318.847 290.713,-365.683 334,-409 335.435,-410.436 336.968,-411.767 338.579,-413"/>
<polygon fill="midnightblue" stroke="midnightblue" points="336.873,-416.061 347.21,-418.383 340.577,-410.121 336.873,-416.061"/>
</g>
<!-- Node22 -->
<g id="node22" class="node"><title>Node22</title>
<g id="a_node22"><a xlink:href="class_esp32.html#a85dc760b771c9233fa094a49679d9286" target="_top" xlink:title="modifie la variable ressentie avec celle&#45;ci passer en paramètre ">
<polygon fill="white" stroke="black" points="351,-380.5 351,-399.5 459,-399.5 459,-380.5 351,-380.5"/>
<text text-anchor="middle" x="405" y="-387.5" font-family="Helvetica,sans-Serif" font-size="10.00">Esp32::setRessentie</text>
</a>
</g>
</g>
<!-- Node19&#45;&gt;Node22 -->
<g id="edge21" class="edge"><title>Node19&#45;&gt;Node22</title>
<path fill="none" stroke="midnightblue" d="M283.488,-266.634C288.755,-269.109 293.702,-272.184 298,-276 331.766,-305.976 300.559,-340.661 334,-371 336.349,-373.131 338.913,-375.027 341.628,-376.713"/>
<polygon fill="midnightblue" stroke="midnightblue" points="340.239,-379.935 350.73,-381.415 343.452,-373.716 340.239,-379.935"/>
</g>
<!-- Node23 -->
<g id="node23" class="node"><title>Node23</title>
<g id="a_node23"><a xlink:href="class_esp32.html#abf8a7f9942150b6c17cc5d1cc7b0fc8a" target="_top" xlink:title="modifie la variable de l&#39;uniter utiliser pour le ressentie ">
<polygon fill="white" stroke="black" points="339.5,-342.5 339.5,-361.5 470.5,-361.5 470.5,-342.5 339.5,-342.5"/>
<text text-anchor="middle" x="405" y="-349.5" font-family="Helvetica,sans-Serif" font-size="10.00">Esp32::setRessentieUnite</text>
</a>
</g>
</g>
<!-- Node19&#45;&gt;Node23 -->
<g id="edge22" class="edge"><title>Node19&#45;&gt;Node23</title>
<path fill="none" stroke="midnightblue" d="M280.394,-266.63C286.657,-269.083 292.675,-272.154 298,-276 322.291,-293.542 309.9,-315.196 334,-333 336.633,-334.945 339.454,-336.692 342.396,-338.259"/>
<polygon fill="midnightblue" stroke="midnightblue" points="340.976,-341.458 351.525,-342.445 343.894,-335.095 340.976,-341.458"/>
</g>
<!-- Node24 -->
<g id="node24" class="node"><title>Node24</title>
<g id="a_node24"><a xlink:href="class_esp32.html#add0a064335e1ac6d96e1bbb7818d299a" target="_top" xlink:title="modifie la variable de l&#39;humidite ">
<polygon fill="white" stroke="black" points="353.5,-304.5 353.5,-323.5 456.5,-323.5 456.5,-304.5 353.5,-304.5"/>
<text text-anchor="middle" x="405" y="-311.5" font-family="Helvetica,sans-Serif" font-size="10.00">Esp32::setHumidite</text>
</a>
</g>
</g>
<!-- Node19&#45;&gt;Node24 -->
<g id="edge23" class="edge"><title>Node19&#45;&gt;Node24</title>
<path fill="none" stroke="midnightblue" d="M267.768,-266.576C277.874,-269.195 288.411,-272.341 298,-276 314.903,-282.45 317.168,-288.368 334,-295 339.997,-297.363 346.395,-299.541 352.792,-301.512"/>
<polygon fill="midnightblue" stroke="midnightblue" points="352.209,-304.988 362.789,-304.439 354.176,-298.27 352.209,-304.988"/>
</g>
<!-- Node25 -->
<g id="node25" class="node"><title>Node25</title>
<g id="a_node25"><a xlink:href="class_esp32.html#ae9b2704f36bcd246668354d0ac06ea35" target="_top" xlink:title="modifie la variable de l&#39;uniter utiliser pour l&#39;humidite ">
<polygon fill="white" stroke="black" points="342,-266.5 342,-285.5 468,-285.5 468,-266.5 342,-266.5"/>
<text text-anchor="middle" x="405" y="-273.5" font-family="Helvetica,sans-Serif" font-size="10.00">Esp32::setHumiditeUnite</text>
</a>
</g>
</g>
<!-- Node19&#45;&gt;Node25 -->
<g id="edge24" class="edge"><title>Node19&#45;&gt;Node25</title>
<path fill="none" stroke="midnightblue" d="M284.051,-263.512C299.371,-265.107 315.893,-266.827 331.632,-268.466"/>
<polygon fill="midnightblue" stroke="midnightblue" points="331.532,-271.974 341.84,-269.529 332.256,-265.012 331.532,-271.974"/>
</g>
<!-- Node26 -->
<g id="node26" class="node"><title>Node26</title>
<g id="a_node26"><a xlink:href="class_esp32.html#ae60b48e8c808a5108402d5b9f03590ac" target="_top" xlink:title="modifie la variable de la luminosite ">
<polygon fill="white" stroke="black" points="349.5,-228.5 349.5,-247.5 460.5,-247.5 460.5,-228.5 349.5,-228.5"/>
<text text-anchor="middle" x="405" y="-235.5" font-family="Helvetica,sans-Serif" font-size="10.00">Esp32::setLuminosite</text>
</a>
</g>
</g>
<!-- Node19&#45;&gt;Node26 -->
<g id="edge25" class="edge"><title>Node19&#45;&gt;Node26</title>
<path fill="none" stroke="midnightblue" d="M284.051,-250.488C301.902,-248.629 321.386,-246.601 339.359,-244.73"/>
<polygon fill="midnightblue" stroke="midnightblue" points="339.872,-248.195 349.455,-243.679 339.147,-241.233 339.872,-248.195"/>
</g>
<!-- Node27 -->
<g id="node27" class="node"><title>Node27</title>
<g id="a_node27"><a xlink:href="class_esp32.html#a36450bcd23e7676d1f0a46e8bec31275" target="_top" xlink:title="modifie la variable de l&#39;uniter utiliser pour la luminosite ">
<polygon fill="white" stroke="black" points="338,-190.5 338,-209.5 472,-209.5 472,-190.5 338,-190.5"/>
<text text-anchor="middle" x="405" y="-197.5" font-family="Helvetica,sans-Serif" font-size="10.00">Esp32::setLuminositeUnite</text>
</a>
</g>
</g>
<!-- Node19&#45;&gt;Node27 -->
<g id="edge26" class="edge"><title>Node19&#45;&gt;Node27</title>
<path fill="none" stroke="midnightblue" d="M267.768,-247.424C277.874,-244.805 288.411,-241.659 298,-238 314.903,-231.55 317.168,-225.632 334,-219 339.997,-216.637 346.395,-214.459 352.792,-212.488"/>
<polygon fill="midnightblue" stroke="midnightblue" points="354.176,-215.73 362.789,-209.561 352.209,-209.012 354.176,-215.73"/>
</g>
<!-- Node28 -->
<g id="node28" class="node"><title>Node28</title>
<g id="a_node28"><a xlink:href="class_esp32.html#a583358abbf0b279dabb5a2976f1783de" target="_top" xlink:title="modifie la variable de la pression ">
<polygon fill="white" stroke="black" points="354,-152.5 354,-171.5 456,-171.5 456,-152.5 354,-152.5"/>
<text text-anchor="middle" x="405" y="-159.5" font-family="Helvetica,sans-Serif" font-size="10.00">Esp32::setPression</text>
</a>
</g>
</g>
<!-- Node19&#45;&gt;Node28 -->
<g id="edge27" class="edge"><title>Node19&#45;&gt;Node28</title>
<path fill="none" stroke="midnightblue" d="M280.394,-247.37C286.657,-244.917 292.675,-241.846 298,-238 322.291,-220.458 309.9,-198.804 334,-181 337.213,-178.627 340.704,-176.55 344.355,-174.732"/>
<polygon fill="midnightblue" stroke="midnightblue" points="345.882,-177.886 353.694,-170.728 343.124,-171.452 345.882,-177.886"/>
</g>
<!-- Node29 -->
<g id="node29" class="node"><title>Node29</title>
<g id="a_node29"><a xlink:href="class_esp32.html#a3c6dd57f955aef0738c48be705538337" target="_top" xlink:title="modifie la variable de l&#39;uniter utiliser pour la pression ">
<polygon fill="white" stroke="black" points="342.5,-114.5 342.5,-133.5 467.5,-133.5 467.5,-114.5 342.5,-114.5"/>
<text text-anchor="middle" x="405" y="-121.5" font-family="Helvetica,sans-Serif" font-size="10.00">Esp32::setPressionUnite</text>
</a>
</g>
</g>
<!-- Node19&#45;&gt;Node29 -->
<g id="edge28" class="edge"><title>Node19&#45;&gt;Node29</title>
<path fill="none" stroke="midnightblue" d="M283.488,-247.366C288.755,-244.891 293.702,-241.816 298,-238 331.766,-208.024 300.559,-173.339 334,-143 335.743,-141.419 337.604,-139.967 339.558,-138.635"/>
<polygon fill="midnightblue" stroke="midnightblue" points="341.635,-141.482 348.629,-133.523 338.198,-135.383 341.635,-141.482"/>
</g>
<!-- Node30 -->
<g id="node30" class="node"><title>Node30</title>
<g id="a_node30"><a xlink:href="class_esp32.html#aeb2268155501f27e36e6a7c6caa15412" target="_top" xlink:title="modifie la variable altitude passer en paramètre ">
<polygon fill="white" stroke="black" points="356.5,-76.5 356.5,-95.5 453.5,-95.5 453.5,-76.5 356.5,-76.5"/>
<text text-anchor="middle" x="405" y="-83.5" font-family="Helvetica,sans-Serif" font-size="10.00">Esp32::setAltitude</text>
</a>
</g>
</g>
<!-- Node19&#45;&gt;Node30 -->
<g id="edge29" class="edge"><title>Node19&#45;&gt;Node30</title>
<path fill="none" stroke="midnightblue" d="M284.26,-247.613C289.305,-245.081 293.991,-241.926 298,-238 341.752,-195.153 290.713,-148.317 334,-105 337.743,-101.255 342.144,-98.2272 346.887,-95.7827"/>
<polygon fill="midnightblue" stroke="midnightblue" points="348.51,-98.896 356.346,-91.7648 345.774,-92.4531 348.51,-98.896"/>
</g>
<!-- Node31 -->
<g id="node31" class="node"><title>Node31</title>
<g id="a_node31"><a xlink:href="class_esp32.html#a69b0c6a1c0a31e043b715be3fc40ded1" target="_top" xlink:title="modifie la variable de l&#39;uniter utiliser pour l&#39;altitude ">
<polygon fill="white" stroke="black" points="345,-38.5 345,-57.5 465,-57.5 465,-38.5 345,-38.5"/>
<text text-anchor="middle" x="405" y="-45.5" font-family="Helvetica,sans-Serif" font-size="10.00">Esp32::setAltitudeUnite</text>
</a>
</g>
</g>
<!-- Node19&#45;&gt;Node31 -->
<g id="edge30" class="edge"><title>Node19&#45;&gt;Node31</title>
<path fill="none" stroke="midnightblue" d="M284.133,-248.038C289.269,-245.427 294.01,-242.137 298,-238 351.922,-182.104 280.685,-123.475 334,-67 335.248,-65.678 336.578,-64.4447 337.977,-63.2942"/>
<polygon fill="midnightblue" stroke="midnightblue" points="340.228,-66.0017 346.645,-57.5713 336.372,-60.1598 340.228,-66.0017"/>
</g>
<!-- Node32 -->
<g id="node32" class="node"><title>Node32</title>
<g id="a_node32"><a xlink:href="class_esp32.html#a32d0d1abb41a3762a54e9f5a33b3b247" target="_top" xlink:title="modifie la variable de l&#39;etat de la led ">
<polygon fill="white" stroke="black" points="348.5,-0.5 348.5,-19.5 461.5,-19.5 461.5,-0.5 348.5,-0.5"/>
<text text-anchor="middle" x="405" y="-7.5" font-family="Helvetica,sans-Serif" font-size="10.00">Esp32::setCouleurLed</text>
</a>
</g>
</g>
<!-- Node19&#45;&gt;Node32 -->
<g id="edge31" class="edge"><title>Node19&#45;&gt;Node32</title>
<path fill="none" stroke="midnightblue" d="M284.294,-248.191C289.398,-245.549 294.087,-242.21 298,-238 362.178,-168.967 270.572,-98.7222 334,-29 335.618,-27.2215 337.384,-25.6025 339.267,-24.1293"/>
<polygon fill="midnightblue" stroke="midnightblue" points="341.552,-26.8288 348.176,-18.56 337.841,-20.8932 341.552,-26.8288"/>
</g>
</g>
</svg>
