<?xml version="1.0" encoding="UTF-8" standalone="no"?>
<!DOCTYPE svg PUBLIC "-//W3C//DTD SVG 1.1//EN"
 "http://www.w3.org/Graphics/SVG/1.1/DTD/svg11.dtd">
<!-- Generated by graphviz version 2.38.0 (20140413.2041)
 -->
<!-- Title: Transmission Pages: 1 -->
<svg width="196pt" height="618pt"
 viewBox="0.00 0.00 196.00 618.00" xmlns="http://www.w3.org/2000/svg" xmlns:xlink="http://www.w3.org/1999/xlink">
<g id="graph0" class="graph" transform="scale(1 1) rotate(0) translate(4 614)">
<title>Transmission</title>
<polygon fill="white" stroke="none" points="-4,4 -4,-614 192,-614 192,4 -4,4"/>
<!-- Node1 -->
<g id="node1" class="node"><title>Node1</title>
<polygon fill="#bfbfbf" stroke="black" points="0,-0.5 0,-167.5 105,-167.5 105,-0.5 0,-0.5"/>
<text text-anchor="middle" x="52.5" y="-155.5" font-family="Helvetica,sans-Serif" font-size="10.00">Transmission</text>
<polyline fill="none" stroke="black" points="0,-148.5 105,-148.5 "/>
<text text-anchor="start" x="8" y="-136.5" font-family="Helvetica,sans-Serif" font-size="10.00">&#45; port</text>
<text text-anchor="start" x="8" y="-125.5" font-family="Helvetica,sans-Serif" font-size="10.00">&#45; trame</text>
<polyline fill="none" stroke="black" points="0,-118.5 105,-118.5 "/>
<text text-anchor="start" x="8" y="-106.5" font-family="Helvetica,sans-Serif" font-size="10.00">+ Transmission()</text>
<text text-anchor="start" x="8" y="-95.5" font-family="Helvetica,sans-Serif" font-size="10.00">+ ~Transmission()</text>
<text text-anchor="start" x="8" y="-84.5" font-family="Helvetica,sans-Serif" font-size="10.00">+ getTrame()</text>
<text text-anchor="start" x="8" y="-73.5" font-family="Helvetica,sans-Serif" font-size="10.00">+ getEsp32()</text>
<text text-anchor="start" x="8" y="-62.5" font-family="Helvetica,sans-Serif" font-size="10.00">+ configurerPort()</text>
<text text-anchor="start" x="8" y="-51.5" font-family="Helvetica,sans-Serif" font-size="10.00">+ fermerPort()</text>
<text text-anchor="start" x="8" y="-40.5" font-family="Helvetica,sans-Serif" font-size="10.00">+ envoyerDonnees()</text>
<text text-anchor="start" x="8" y="-29.5" font-family="Helvetica,sans-Serif" font-size="10.00">+ ouvrirPort()</text>
<text text-anchor="start" x="8" y="-18.5" font-family="Helvetica,sans-Serif" font-size="10.00">+ recevoir()</text>
<text text-anchor="start" x="8" y="-7.5" font-family="Helvetica,sans-Serif" font-size="10.00">&#45; decomposer()</text>
</g>
<!-- Node2 -->
<g id="node2" class="node"><title>Node2</title>
<polygon fill="white" stroke="#bfbfbf" points="38,-552.5 38,-609.5 91,-609.5 91,-552.5 38,-552.5"/>
<text text-anchor="middle" x="64.5" y="-597.5" font-family="Helvetica,sans-Serif" font-size="10.00">QObject</text>
<polyline fill="none" stroke="#bfbfbf" points="38,-590.5 91,-590.5 "/>
<text text-anchor="middle" x="64.5" y="-578.5" font-family="Helvetica,sans-Serif" font-size="10.00"> </text>
<polyline fill="none" stroke="#bfbfbf" points="38,-571.5 91,-571.5 "/>
<text text-anchor="middle" x="64.5" y="-559.5" font-family="Helvetica,sans-Serif" font-size="10.00"> </text>
</g>
<!-- Node2&#45;&gt;Node1 -->
<g id="edge1" class="edge"><title>Node2&#45;&gt;Node1</title>
<path fill="none" stroke="midnightblue" d="M58.4109,-542.151C57.2175,-533.268 56.1387,-523.82 55.5,-515 46.7658,-394.375 47.8845,-254.222 49.8836,-167.56"/>
<polygon fill="none" stroke="midnightblue" points="54.9736,-542.841 59.8448,-552.249 61.904,-541.857 54.9736,-542.841"/>
</g>
<!-- Node3 -->
<g id="node3" class="node"><title>Node3</title>
<g id="a_node3"><a xlink:href="class_esp32.html" target="_top" xlink:title="Declaration de la classe Esp32. ">
<polygon fill="white" stroke="black" points="65,-215.5 65,-514.5 188,-514.5 188,-215.5 65,-215.5"/>
<text text-anchor="middle" x="126.5" y="-502.5" font-family="Helvetica,sans-Serif" font-size="10.00">Esp32</text>
<polyline fill="none" stroke="black" points="65,-495.5 188,-495.5 "/>
<text text-anchor="start" x="73" y="-483.5" font-family="Helvetica,sans-Serif" font-size="10.00">&#45; temperature</text>
<text text-anchor="start" x="73" y="-472.5" font-family="Helvetica,sans-Serif" font-size="10.00">&#45; temperatureUnite</text>
<text text-anchor="start" x="73" y="-461.5" font-family="Helvetica,sans-Serif" font-size="10.00">&#45; ressentie</text>
<text text-anchor="start" x="73" y="-450.5" font-family="Helvetica,sans-Serif" font-size="10.00">&#45; ressentieUnite</text>
<text text-anchor="start" x="73" y="-439.5" font-family="Helvetica,sans-Serif" font-size="10.00">&#45; humidite</text>
<text text-anchor="start" x="73" y="-428.5" font-family="Helvetica,sans-Serif" font-size="10.00">&#45; humiditeUnite</text>
<text text-anchor="start" x="73" y="-417.5" font-family="Helvetica,sans-Serif" font-size="10.00">&#45; luminosite</text>
<text text-anchor="start" x="73" y="-406.5" font-family="Helvetica,sans-Serif" font-size="10.00">&#45; luminositeUnite</text>
<text text-anchor="start" x="73" y="-395.5" font-family="Helvetica,sans-Serif" font-size="10.00">&#45; pression</text>
<text text-anchor="start" x="73" y="-384.5" font-family="Helvetica,sans-Serif" font-size="10.00">&#45; pressionUnite</text>
<text text-anchor="start" x="73" y="-373.5" font-family="Helvetica,sans-Serif" font-size="10.00">&#45; altitude</text>
<text text-anchor="start" x="73" y="-362.5" font-family="Helvetica,sans-Serif" font-size="10.00">&#45; altitudeUnite</text>
<text text-anchor="start" x="73" y="-351.5" font-family="Helvetica,sans-Serif" font-size="10.00">&#45; couleur</text>
<polyline fill="none" stroke="black" points="65,-344.5 188,-344.5 "/>
<text text-anchor="start" x="73" y="-332.5" font-family="Helvetica,sans-Serif" font-size="10.00">+ Esp32()</text>
<text text-anchor="start" x="73" y="-321.5" font-family="Helvetica,sans-Serif" font-size="10.00">+ getTemperature()</text>
<text text-anchor="start" x="73" y="-310.5" font-family="Helvetica,sans-Serif" font-size="10.00">+ getRessentie()</text>
<text text-anchor="start" x="73" y="-299.5" font-family="Helvetica,sans-Serif" font-size="10.00">+ getTemperatureUnite()</text>
<text text-anchor="start" x="73" y="-288.5" font-family="Helvetica,sans-Serif" font-size="10.00">+ getRessentieUnite()</text>
<text text-anchor="start" x="73" y="-277.5" font-family="Helvetica,sans-Serif" font-size="10.00">+ getHumidite()</text>
<text text-anchor="start" x="73" y="-266.5" font-family="Helvetica,sans-Serif" font-size="10.00">+ getLuminosite()</text>
<text text-anchor="start" x="73" y="-255.5" font-family="Helvetica,sans-Serif" font-size="10.00">+ getHumiditeUnite()</text>
<text text-anchor="start" x="73" y="-244.5" font-family="Helvetica,sans-Serif" font-size="10.00">+ getLuminositeUnite()</text>
<text text-anchor="start" x="73" y="-233.5" font-family="Helvetica,sans-Serif" font-size="10.00">+ getPression()</text>
<text text-anchor="start" x="73" y="-222.5" font-family="Helvetica,sans-Serif" font-size="10.00">et 17 de plus...</text>
</a>
</g>
</g>
<!-- Node2&#45;&gt;Node3 -->
<g id="edge3" class="edge"><title>Node2&#45;&gt;Node3</title>
<path fill="none" stroke="midnightblue" d="M75.3093,-542.69C77.7582,-534.238 80.5045,-524.759 83.4198,-514.696"/>
<polygon fill="none" stroke="midnightblue" points="71.8996,-541.882 72.4785,-552.461 78.6231,-543.83 71.8996,-541.882"/>
</g>
<!-- Node3&#45;&gt;Node1 -->
<g id="edge2" class="edge"><title>Node3&#45;&gt;Node1</title>
<path fill="none" stroke="#404040" d="M87.0085,-215.106C83.8134,-203.06 80.6432,-191.107 77.5937,-179.61"/>
<polygon fill="none" stroke="#404040" points="77.5401,-179.408 72.1355,-174.634 74.4636,-167.809 79.8682,-172.583 77.5401,-179.408"/>
<text text-anchor="middle" x="98" y="-189" font-family="Helvetica,sans-Serif" font-size="10.00"> &#45;esp32</text>
</g>
</g>
</svg>
