<?xml version="1.0" encoding="UTF-8" standalone="no"?>
<!DOCTYPE svg PUBLIC "-//W3C//DTD SVG 1.1//EN"
 "http://www.w3.org/Graphics/SVG/1.1/DTD/svg11.dtd">
<!-- Generated by graphviz version 2.38.0 (20140413.2041)
 -->
<!-- Title: Esp32::getHumiditeUnite Pages: 1 -->
<svg width="377pt" height="28pt"
 viewBox="0.00 0.00 377.00 28.00" xmlns="http://www.w3.org/2000/svg" xmlns:xlink="http://www.w3.org/1999/xlink">
<g id="graph0" class="graph" transform="scale(1 1) rotate(0) translate(4 24)">
<title>Esp32::getHumiditeUnite</title>
<polygon fill="white" stroke="none" points="-4,4 -4,-24 373,-24 373,4 -4,4"/>
<!-- Node1 -->
<g id="node1" class="node"><title>Node1</title>
<polygon fill="#bfbfbf" stroke="black" points="0,-0.5 0,-19.5 126,-19.5 126,-0.5 0,-0.5"/>
<text text-anchor="middle" x="63" y="-7.5" font-family="Helvetica,sans-Serif" font-size="10.00">Esp32::getHumiditeUnite</text>
</g>
<!-- Node2 -->
<g id="node2" class="node"><title>Node2</title>
<g id="a_node2"><a xlink:href="class_ihm.html#a7c0a160f30e11a4f8d56b174e07566fe" target="_top" xlink:title="Ihm::actualiserDonnee">
<polygon fill="white" stroke="black" points="162,-0.5 162,-19.5 277,-19.5 277,-0.5 162,-0.5"/>
<text text-anchor="middle" x="219.5" y="-7.5" font-family="Helvetica,sans-Serif" font-size="10.00">Ihm::actualiserDonnee</text>
</a>
</g>
</g>
<!-- Node1&#45;&gt;Node2 -->
<g id="edge1" class="edge"><title>Node1&#45;&gt;Node2</title>
<path fill="none" stroke="midnightblue" d="M136.655,-10C145.118,-10 153.655,-10 161.857,-10"/>
<polygon fill="midnightblue" stroke="midnightblue" points="136.396,-6.5001 126.396,-10 136.396,-13.5001 136.396,-6.5001"/>
</g>
<!-- Node3 -->
<g id="node3" class="node"><title>Node3</title>
<g id="a_node3"><a xlink:href="class_ihm.html#a50a7a15775452923868348bdbe4fa51e" target="_top" xlink:title="constructeur de la classe Ihm ">
<polygon fill="white" stroke="black" points="313,-0.5 313,-19.5 369,-19.5 369,-0.5 313,-0.5"/>
<text text-anchor="middle" x="341" y="-7.5" font-family="Helvetica,sans-Serif" font-size="10.00">Ihm::Ihm</text>
</a>
</g>
</g>
<!-- Node2&#45;&gt;Node3 -->
<g id="edge2" class="edge"><title>Node2&#45;&gt;Node3</title>
<path fill="none" stroke="midnightblue" d="M287.291,-10C296.276,-10 305.045,-10 312.77,-10"/>
<polygon fill="midnightblue" stroke="midnightblue" points="287.1,-6.5001 277.1,-10 287.1,-13.5001 287.1,-6.5001"/>
</g>
</g>
</svg>
