<?xml version="1.0" encoding="UTF-8" standalone="no"?>
<!DOCTYPE svg PUBLIC "-//W3C//DTD SVG 1.1//EN"
 "http://www.w3.org/Graphics/SVG/1.1/DTD/svg11.dtd">
<!-- Generated by graphviz version 2.38.0 (20140413.2041)
 -->
<!-- Title: Transmission::configurerPort Pages: 1 -->
<svg width="461pt" height="28pt"
 viewBox="0.00 0.00 461.00 28.00" xmlns="http://www.w3.org/2000/svg" xmlns:xlink="http://www.w3.org/1999/xlink">
<g id="graph0" class="graph" transform="scale(1 1) rotate(0) translate(4 24)">
<title>Transmission::configurerPort</title>
<polygon fill="white" stroke="none" points="-4,4 -4,-24 457,-24 457,4 -4,4"/>
<!-- Node1 -->
<g id="node1" class="node"><title>Node1</title>
<polygon fill="#bfbfbf" stroke="black" points="0,-0.5 0,-19.5 142,-19.5 142,-0.5 0,-0.5"/>
<text text-anchor="middle" x="71" y="-7.5" font-family="Helvetica,sans-Serif" font-size="10.00">Transmission::configurerPort</text>
</g>
<!-- Node2 -->
<g id="node2" class="node"><title>Node2</title>
<g id="a_node2"><a xlink:href="class_transmission.html#a41d15e65be472e058b28869f8dfad392" target="_top" xlink:title="Transmission::ouvrirPort">
<polygon fill="white" stroke="black" points="178,-0.5 178,-19.5 301,-19.5 301,-0.5 178,-0.5"/>
<text text-anchor="middle" x="239.5" y="-7.5" font-family="Helvetica,sans-Serif" font-size="10.00">Transmission::ouvrirPort</text>
</a>
</g>
</g>
<!-- Node1&#45;&gt;Node2 -->
<g id="edge1" class="edge"><title>Node1&#45;&gt;Node2</title>
<path fill="none" stroke="midnightblue" d="M142.128,-10C150.595,-10 159.247,-10 167.723,-10"/>
<polygon fill="midnightblue" stroke="midnightblue" points="167.95,-13.5001 177.95,-10 167.95,-6.5001 167.95,-13.5001"/>
</g>
<!-- Node3 -->
<g id="node3" class="node"><title>Node3</title>
<g id="a_node3"><a xlink:href="class_transmission.html#aa54a695d9d1c728ccab04f1d8030da41" target="_top" xlink:title="Récupérer la trame émise. ">
<polygon fill="white" stroke="black" points="337,-0.5 337,-19.5 453,-19.5 453,-0.5 337,-0.5"/>
<text text-anchor="middle" x="395" y="-7.5" font-family="Helvetica,sans-Serif" font-size="10.00">Transmission::recevoir</text>
</a>
</g>
</g>
<!-- Node2&#45;&gt;Node3 -->
<g id="edge2" class="edge"><title>Node2&#45;&gt;Node3</title>
<path fill="none" stroke="midnightblue" d="M301.167,-10C309.508,-10 318.114,-10 326.567,-10"/>
<polygon fill="midnightblue" stroke="midnightblue" points="326.774,-13.5001 336.774,-10 326.774,-6.5001 326.774,-13.5001"/>
</g>
</g>
</svg>
