<?xml version="1.0" encoding="UTF-8" standalone="no"?>
<!DOCTYPE svg PUBLIC "-//W3C//DTD SVG 1.1//EN"
 "http://www.w3.org/Graphics/SVG/1.1/DTD/svg11.dtd">
<!-- Generated by graphviz version 2.38.0 (20140413.2041)
 -->
<!-- Title: Sonde/esp32.h Pages: 1 -->
<svg width="292pt" height="196pt"
 viewBox="0.00 0.00 292.00 196.00" xmlns="http://www.w3.org/2000/svg" xmlns:xlink="http://www.w3.org/1999/xlink">
<g id="graph0" class="graph" transform="scale(1 1) rotate(0) translate(4 192)">
<title>Sonde/esp32.h</title>
<polygon fill="white" stroke="none" points="-4,4 -4,-192 288,-192 288,4 -4,4"/>
<!-- Node1 -->
<g id="node1" class="node"><title>Node1</title>
<polygon fill="#bfbfbf" stroke="black" points="65,-168.5 65,-187.5 147,-187.5 147,-168.5 65,-168.5"/>
<text text-anchor="middle" x="106" y="-175.5" font-family="Helvetica,sans-Serif" font-size="10.00">Sonde/esp32.h</text>
</g>
<!-- Node2 -->
<g id="node2" class="node"><title>Node2</title>
<g id="a_node2"><a xlink:href="esp32_8cpp.html" target="_top" xlink:title="programme qui contient les valeur des different capteur ">
<polygon fill="white" stroke="black" points="0,-112.5 0,-131.5 92,-131.5 92,-112.5 0,-112.5"/>
<text text-anchor="middle" x="46" y="-119.5" font-family="Helvetica,sans-Serif" font-size="10.00">Sonde/esp32.cpp</text>
</a>
</g>
</g>
<!-- Node1&#45;&gt;Node2 -->
<g id="edge1" class="edge"><title>Node1&#45;&gt;Node2</title>
<path fill="none" stroke="midnightblue" d="M88.8191,-161.537C78.1208,-151.909 64.7437,-139.869 55.8154,-131.834"/>
<polygon fill="midnightblue" stroke="midnightblue" points="86.5856,-164.236 96.36,-168.324 91.2684,-159.033 86.5856,-164.236"/>
</g>
<!-- Node3 -->
<g id="node3" class="node"><title>Node3</title>
<g id="a_node3"><a xlink:href="transmission_8h.html" target="_top" xlink:title="Declaration de la classe Transmission. ">
<polygon fill="white" stroke="black" points="110.5,-112.5 110.5,-131.5 221.5,-131.5 221.5,-112.5 110.5,-112.5"/>
<text text-anchor="middle" x="166" y="-119.5" font-family="Helvetica,sans-Serif" font-size="10.00">Sonde/transmission.h</text>
</a>
</g>
</g>
<!-- Node1&#45;&gt;Node3 -->
<g id="edge2" class="edge"><title>Node1&#45;&gt;Node3</title>
<path fill="none" stroke="midnightblue" d="M123.181,-161.537C133.879,-151.909 147.256,-139.869 156.185,-131.834"/>
<polygon fill="midnightblue" stroke="midnightblue" points="120.732,-159.033 115.64,-168.324 125.414,-164.236 120.732,-159.033"/>
</g>
<!-- Node4 -->
<g id="node4" class="node"><title>Node4</title>
<g id="a_node4"><a xlink:href="ihm_8h.html" target="_top" xlink:title="Declaration de la classe Ihm. ">
<polygon fill="white" stroke="black" points="72.5,-56.5 72.5,-75.5 143.5,-75.5 143.5,-56.5 72.5,-56.5"/>
<text text-anchor="middle" x="108" y="-63.5" font-family="Helvetica,sans-Serif" font-size="10.00">Sonde/ihm.h</text>
</a>
</g>
</g>
<!-- Node3&#45;&gt;Node4 -->
<g id="edge3" class="edge"><title>Node3&#45;&gt;Node4</title>
<path fill="none" stroke="midnightblue" d="M149.087,-105.253C138.797,-95.6731 126.034,-83.7906 117.488,-75.8339"/>
<polygon fill="midnightblue" stroke="midnightblue" points="146.977,-108.071 156.681,-112.324 151.747,-102.948 146.977,-108.071"/>
</g>
<!-- Node7 -->
<g id="node7" class="node"><title>Node7</title>
<g id="a_node7"><a xlink:href="transmission_8cpp.html" target="_top" xlink:title="programme qui s&#39;occupe de la parti trame (configuration, reception / envoie de trame) ...">
<polygon fill="white" stroke="black" points="162,-56.5 162,-75.5 284,-75.5 284,-56.5 162,-56.5"/>
<text text-anchor="middle" x="223" y="-63.5" font-family="Helvetica,sans-Serif" font-size="10.00">Sonde/transmission.cpp</text>
</a>
</g>
</g>
<!-- Node3&#45;&gt;Node7 -->
<g id="edge6" class="edge"><title>Node3&#45;&gt;Node7</title>
<path fill="none" stroke="midnightblue" d="M182.621,-105.253C192.734,-95.6731 205.277,-83.7906 213.675,-75.8339"/>
<polygon fill="midnightblue" stroke="midnightblue" points="180.01,-102.906 175.158,-112.324 184.825,-107.987 180.01,-102.906"/>
</g>
<!-- Node5 -->
<g id="node5" class="node"><title>Node5</title>
<g id="a_node5"><a xlink:href="ihm_8cpp.html" target="_top" xlink:title="programme qui s&#39;occupe de l&#39;affichage dans l&#39;ihm ">
<polygon fill="white" stroke="black" points="16,-0.5 16,-19.5 98,-19.5 98,-0.5 16,-0.5"/>
<text text-anchor="middle" x="57" y="-7.5" font-family="Helvetica,sans-Serif" font-size="10.00">Sonde/ihm.cpp</text>
</a>
</g>
</g>
<!-- Node4&#45;&gt;Node5 -->
<g id="edge4" class="edge"><title>Node4&#45;&gt;Node5</title>
<path fill="none" stroke="midnightblue" d="M92.6221,-48.7175C83.6331,-39.1997 72.6408,-27.5608 65.2649,-19.7511"/>
<polygon fill="midnightblue" stroke="midnightblue" points="90.1676,-51.216 99.5784,-56.083 95.2567,-46.4096 90.1676,-51.216"/>
</g>
<!-- Node6 -->
<g id="node6" class="node"><title>Node6</title>
<g id="a_node6"><a xlink:href="main_8cpp.html" target="_top" xlink:title="Programme principal ... ">
<polygon fill="white" stroke="black" points="116.5,-0.5 116.5,-19.5 203.5,-19.5 203.5,-0.5 116.5,-0.5"/>
<text text-anchor="middle" x="160" y="-7.5" font-family="Helvetica,sans-Serif" font-size="10.00">Sonde/main.cpp</text>
</a>
</g>
</g>
<!-- Node4&#45;&gt;Node6 -->
<g id="edge5" class="edge"><title>Node4&#45;&gt;Node6</title>
<path fill="none" stroke="midnightblue" d="M123.679,-48.7175C132.845,-39.1997 144.053,-27.5608 151.573,-19.7511"/>
<polygon fill="midnightblue" stroke="midnightblue" points="121.002,-46.452 116.587,-56.083 126.044,-51.3075 121.002,-46.452"/>
</g>
</g>
</svg>
