<?xml version="1.0" encoding="UTF-8" standalone="no"?>
<!DOCTYPE svg PUBLIC "-//W3C//DTD SVG 1.1//EN"
 "http://www.w3.org/Graphics/SVG/1.1/DTD/svg11.dtd">
<!-- Generated by graphviz version 2.38.0 (20140413.2041)
 -->
<!-- Title: Sonde/ihm.cpp Pages: 1 -->
<svg width="1749pt" height="252pt"
 viewBox="0.00 0.00 1748.50 252.00" xmlns="http://www.w3.org/2000/svg" xmlns:xlink="http://www.w3.org/1999/xlink">
<g id="graph0" class="graph" transform="scale(1 1) rotate(0) translate(4 248)">
<title>Sonde/ihm.cpp</title>
<polygon fill="white" stroke="none" points="-4,4 -4,-248 1744.5,-248 1744.5,4 -4,4"/>
<!-- Node1 -->
<g id="node1" class="node"><title>Node1</title>
<polygon fill="#bfbfbf" stroke="black" points="680,-224.5 680,-243.5 762,-243.5 762,-224.5 680,-224.5"/>
<text text-anchor="middle" x="721" y="-231.5" font-family="Helvetica,sans-Serif" font-size="10.00">Sonde/ihm.cpp</text>
</g>
<!-- Node2 -->
<g id="node2" class="node"><title>Node2</title>
<g id="a_node2"><a xlink:href="ihm_8h.html" target="_top" xlink:title="Declaration de la classe Ihm. ">
<polygon fill="white" stroke="black" points="601.5,-168.5 601.5,-187.5 642.5,-187.5 642.5,-168.5 601.5,-168.5"/>
<text text-anchor="middle" x="622" y="-175.5" font-family="Helvetica,sans-Serif" font-size="10.00">ihm.h</text>
</a>
</g>
</g>
<!-- Node1&#45;&gt;Node2 -->
<g id="edge1" class="edge"><title>Node1&#45;&gt;Node2</title>
<path fill="none" stroke="midnightblue" d="M705.094,-224.324C689.362,-215.743 665.058,-202.486 646.791,-192.522"/>
<polygon fill="midnightblue" stroke="midnightblue" points="648.322,-189.37 637.867,-187.655 644.97,-195.516 648.322,-189.37"/>
</g>
<!-- Node25 -->
<g id="node25" class="node"><title>Node25</title>
<polygon fill="white" stroke="#bfbfbf" points="694.5,-56.5 694.5,-75.5 747.5,-75.5 747.5,-56.5 694.5,-56.5"/>
<text text-anchor="middle" x="721" y="-63.5" font-family="Helvetica,sans-Serif" font-size="10.00">QDebug</text>
</g>
<!-- Node1&#45;&gt;Node25 -->
<g id="edge29" class="edge"><title>Node1&#45;&gt;Node25</title>
<path fill="none" stroke="midnightblue" d="M721,-224.075C721,-197.945 721,-121.211 721,-85.577"/>
<polygon fill="midnightblue" stroke="midnightblue" points="724.5,-85.5681 721,-75.5681 717.5,-85.5681 724.5,-85.5681"/>
</g>
<!-- Node26 -->
<g id="node26" class="node"><title>Node26</title>
<polygon fill="white" stroke="#bfbfbf" points="749.5,-168.5 749.5,-187.5 802.5,-187.5 802.5,-168.5 749.5,-168.5"/>
<text text-anchor="middle" x="776" y="-175.5" font-family="Helvetica,sans-Serif" font-size="10.00">ui_ihm.h</text>
</g>
<!-- Node1&#45;&gt;Node26 -->
<g id="edge28" class="edge"><title>Node1&#45;&gt;Node26</title>
<path fill="none" stroke="midnightblue" d="M730.082,-224.083C738.171,-216.141 750.195,-204.335 759.91,-194.797"/>
<polygon fill="midnightblue" stroke="midnightblue" points="762.403,-197.254 767.087,-187.751 757.499,-192.26 762.403,-197.254"/>
</g>
<!-- Node3 -->
<g id="node3" class="node"><title>Node3</title>
<polygon fill="white" stroke="#bfbfbf" points="474.5,-112.5 474.5,-131.5 529.5,-131.5 529.5,-112.5 474.5,-112.5"/>
<text text-anchor="middle" x="502" y="-119.5" font-family="Helvetica,sans-Serif" font-size="10.00">QWidget</text>
</g>
<!-- Node2&#45;&gt;Node3 -->
<g id="edge2" class="edge"><title>Node2&#45;&gt;Node3</title>
<path fill="none" stroke="midnightblue" d="M602.986,-168.444C583.412,-159.636 552.692,-145.812 530.271,-135.722"/>
<polygon fill="midnightblue" stroke="midnightblue" points="531.481,-132.428 520.925,-131.516 528.608,-138.812 531.481,-132.428"/>
</g>
<!-- Node4 -->
<g id="node4" class="node"><title>Node4</title>
<polygon fill="white" stroke="#bfbfbf" points="547.5,-112.5 547.5,-131.5 614.5,-131.5 614.5,-112.5 547.5,-112.5"/>
<text text-anchor="middle" x="581" y="-119.5" font-family="Helvetica,sans-Serif" font-size="10.00">QDateTime</text>
</g>
<!-- Node2&#45;&gt;Node4 -->
<g id="edge3" class="edge"><title>Node2&#45;&gt;Node4</title>
<path fill="none" stroke="midnightblue" d="M615.23,-168.083C609.438,-160.455 600.942,-149.264 593.862,-139.941"/>
<polygon fill="midnightblue" stroke="midnightblue" points="596.479,-137.599 587.644,-131.751 590.904,-141.832 596.479,-137.599"/>
</g>
<!-- Node5 -->
<g id="node5" class="node"><title>Node5</title>
<polygon fill="white" stroke="#bfbfbf" points="633,-112.5 633,-131.5 693,-131.5 693,-112.5 633,-112.5"/>
<text text-anchor="middle" x="663" y="-119.5" font-family="Helvetica,sans-Serif" font-size="10.00">QSettings</text>
</g>
<!-- Node2&#45;&gt;Node5 -->
<g id="edge4" class="edge"><title>Node2&#45;&gt;Node5</title>
<path fill="none" stroke="midnightblue" d="M628.77,-168.083C634.562,-160.455 643.058,-149.264 650.138,-139.941"/>
<polygon fill="midnightblue" stroke="midnightblue" points="653.096,-141.832 656.356,-131.751 647.521,-137.599 653.096,-141.832"/>
</g>
<!-- Node6 -->
<g id="node6" class="node"><title>Node6</title>
<g id="a_node6"><a xlink:href="transmission_8h.html" target="_top" xlink:title="Declaration de la classe Transmission. ">
<polygon fill="white" stroke="black" points="1295,-112.5 1295,-131.5 1375,-131.5 1375,-112.5 1295,-112.5"/>
<text text-anchor="middle" x="1335" y="-119.5" font-family="Helvetica,sans-Serif" font-size="10.00">transmission.h</text>
</a>
</g>
</g>
<!-- Node2&#45;&gt;Node6 -->
<g id="edge5" class="edge"><title>Node2&#45;&gt;Node6</title>
<path fill="none" stroke="midnightblue" d="M642.889,-175.403C666.473,-173.6 705.992,-170.583 740,-168 941.98,-152.659 1182.54,-134.5 1284.9,-126.778"/>
<polygon fill="midnightblue" stroke="midnightblue" points="1285.25,-130.262 1294.95,-126.02 1284.72,-123.282 1285.25,-130.262"/>
</g>
<!-- Node18 -->
<g id="node18" class="node"><title>Node18</title>
<g id="a_node18"><a xlink:href="meteo_8h.html" target="_top" xlink:title="Declaration de la classe Meteo. ">
<polygon fill="white" stroke="black" points="349,-112.5 349,-131.5 401,-131.5 401,-112.5 349,-112.5"/>
<text text-anchor="middle" x="375" y="-119.5" font-family="Helvetica,sans-Serif" font-size="10.00">meteo.h</text>
</a>
</g>
</g>
<!-- Node2&#45;&gt;Node18 -->
<g id="edge19" class="edge"><title>Node2&#45;&gt;Node18</title>
<path fill="none" stroke="midnightblue" d="M601.366,-172.489C559.408,-163.316 463.68,-142.388 411.15,-130.903"/>
<polygon fill="midnightblue" stroke="midnightblue" points="411.766,-127.455 401.249,-128.739 410.27,-134.294 411.766,-127.455"/>
</g>
<!-- Node7 -->
<g id="node7" class="node"><title>Node7</title>
<polygon fill="white" stroke="#bfbfbf" points="1482.5,-0.5 1482.5,-19.5 1535.5,-19.5 1535.5,-0.5 1482.5,-0.5"/>
<text text-anchor="middle" x="1509" y="-7.5" font-family="Helvetica,sans-Serif" font-size="10.00">QObject</text>
</g>
<!-- Node6&#45;&gt;Node7 -->
<g id="edge6" class="edge"><title>Node6&#45;&gt;Node7</title>
<path fill="none" stroke="midnightblue" d="M1375.15,-116.849C1423.55,-110.92 1500.59,-98.2085 1518,-76 1528.41,-62.7247 1523.76,-43.0623 1518,-28.8416"/>
<polygon fill="midnightblue" stroke="midnightblue" points="1521.13,-27.2706 1513.8,-19.6177 1514.76,-30.1694 1521.13,-27.2706"/>
</g>
<!-- Node8 -->
<g id="node8" class="node"><title>Node8</title>
<polygon fill="white" stroke="#bfbfbf" points="1628,-0.5 1628,-19.5 1678,-19.5 1678,-0.5 1628,-0.5"/>
<text text-anchor="middle" x="1653" y="-7.5" font-family="Helvetica,sans-Serif" font-size="10.00">QString</text>
</g>
<!-- Node6&#45;&gt;Node8 -->
<g id="edge7" class="edge"><title>Node6&#45;&gt;Node8</title>
<path fill="none" stroke="midnightblue" d="M1375.16,-119.56C1445.63,-116.272 1587.74,-106.017 1626,-76 1640.25,-64.8203 1647.05,-44.7971 1650.25,-29.9185"/>
<polygon fill="midnightblue" stroke="midnightblue" points="1653.75,-30.2344 1652.06,-19.7751 1646.86,-29.0052 1653.75,-30.2344"/>
</g>
<!-- Node9 -->
<g id="node9" class="node"><title>Node9</title>
<polygon fill="white" stroke="#bfbfbf" points="1673.5,-56.5 1673.5,-75.5 1740.5,-75.5 1740.5,-56.5 1673.5,-56.5"/>
<text text-anchor="middle" x="1707" y="-63.5" font-family="Helvetica,sans-Serif" font-size="10.00">QSerialPort</text>
</g>
<!-- Node6&#45;&gt;Node9 -->
<g id="edge8" class="edge"><title>Node6&#45;&gt;Node9</title>
<path fill="none" stroke="midnightblue" d="M1375.25,-116.032C1436.6,-108.32 1557.13,-92.615 1659,-76 1660.46,-75.7612 1661.95,-75.5129 1663.46,-75.2577"/>
<polygon fill="midnightblue" stroke="midnightblue" points="1664.22,-78.6763 1673.47,-73.4969 1663.01,-71.7822 1664.22,-78.6763"/>
</g>
<!-- Node10 -->
<g id="node10" class="node"><title>Node10</title>
<polygon fill="white" stroke="#bfbfbf" points="765.5,-56.5 765.5,-75.5 816.5,-75.5 816.5,-56.5 765.5,-56.5"/>
<text text-anchor="middle" x="791" y="-63.5" font-family="Helvetica,sans-Serif" font-size="10.00">unistd.h</text>
</g>
<!-- Node6&#45;&gt;Node10 -->
<g id="edge9" class="edge"><title>Node6&#45;&gt;Node10</title>
<path fill="none" stroke="midnightblue" d="M1294.79,-119.679C1209.96,-116.413 1006.43,-106.052 826.421,-75.7656"/>
<polygon fill="midnightblue" stroke="midnightblue" points="826.956,-72.3064 816.51,-74.0736 825.778,-79.2066 826.956,-72.3064"/>
</g>
<!-- Node11 -->
<g id="node11" class="node"><title>Node11</title>
<polygon fill="white" stroke="#bfbfbf" points="835,-56.5 835,-75.5 939,-75.5 939,-56.5 835,-56.5"/>
<text text-anchor="middle" x="887" y="-63.5" font-family="Helvetica,sans-Serif" font-size="10.00">qbluetoothaddress.h</text>
</g>
<!-- Node6&#45;&gt;Node11 -->
<g id="edge10" class="edge"><title>Node6&#45;&gt;Node11</title>
<path fill="none" stroke="midnightblue" d="M1294.95,-116.706C1224.78,-109.099 1075.1,-92.4997 949,-76 948.899,-75.9868 948.798,-75.9735 948.696,-75.9602"/>
<polygon fill="midnightblue" stroke="midnightblue" points="949.458,-72.5311 939.081,-74.6684 948.525,-79.4688 949.458,-72.5311"/>
</g>
<!-- Node12 -->
<g id="node12" class="node"><title>Node12</title>
<polygon fill="white" stroke="#bfbfbf" points="957.5,-56.5 957.5,-75.5 1124.5,-75.5 1124.5,-56.5 957.5,-56.5"/>
<text text-anchor="middle" x="1041" y="-63.5" font-family="Helvetica,sans-Serif" font-size="10.00">qbluetoothservicediscoveryagent.h</text>
</g>
<!-- Node6&#45;&gt;Node12 -->
<g id="edge11" class="edge"><title>Node6&#45;&gt;Node12</title>
<path fill="none" stroke="midnightblue" d="M1294.74,-113.605C1243.7,-104.231 1155.43,-88.0174 1097.62,-77.4001"/>
<polygon fill="midnightblue" stroke="midnightblue" points="1098.02,-73.9151 1087.55,-75.5509 1096.76,-80.7999 1098.02,-73.9151"/>
</g>
<!-- Node13 -->
<g id="node13" class="node"><title>Node13</title>
<polygon fill="white" stroke="#bfbfbf" points="1142.5,-56.5 1142.5,-75.5 1257.5,-75.5 1257.5,-56.5 1142.5,-56.5"/>
<text text-anchor="middle" x="1200" y="-63.5" font-family="Helvetica,sans-Serif" font-size="10.00">QLowEnergyController</text>
</g>
<!-- Node6&#45;&gt;Node13 -->
<g id="edge12" class="edge"><title>Node6&#45;&gt;Node13</title>
<path fill="none" stroke="midnightblue" d="M1313.61,-112.444C1291.29,-103.517 1256.1,-89.4387 1230.79,-79.3168"/>
<polygon fill="midnightblue" stroke="midnightblue" points="1231.88,-75.9807 1221.29,-75.5164 1229.28,-82.4801 1231.88,-75.9807"/>
</g>
<!-- Node14 -->
<g id="node14" class="node"><title>Node14</title>
<polygon fill="white" stroke="#bfbfbf" points="1275.5,-56.5 1275.5,-75.5 1394.5,-75.5 1394.5,-56.5 1275.5,-56.5"/>
<text text-anchor="middle" x="1335" y="-63.5" font-family="Helvetica,sans-Serif" font-size="10.00">QBluetoothLocalDevice</text>
</g>
<!-- Node6&#45;&gt;Node14 -->
<g id="edge13" class="edge"><title>Node6&#45;&gt;Node14</title>
<path fill="none" stroke="midnightblue" d="M1335,-112.083C1335,-105.006 1335,-94.8611 1335,-85.9865"/>
<polygon fill="midnightblue" stroke="midnightblue" points="1338.5,-85.751 1335,-75.7511 1331.5,-85.7511 1338.5,-85.751"/>
</g>
<!-- Node15 -->
<g id="node15" class="node"><title>Node15</title>
<polygon fill="white" stroke="#bfbfbf" points="1413,-56.5 1413,-75.5 1509,-75.5 1509,-56.5 1413,-56.5"/>
<text text-anchor="middle" x="1461" y="-63.5" font-family="Helvetica,sans-Serif" font-size="10.00">QBluetoothSocket</text>
</g>
<!-- Node6&#45;&gt;Node15 -->
<g id="edge14" class="edge"><title>Node6&#45;&gt;Node15</title>
<path fill="none" stroke="midnightblue" d="M1354.97,-112.444C1375.61,-103.596 1408.06,-89.6875 1431.63,-79.5865"/>
<polygon fill="midnightblue" stroke="midnightblue" points="1433.32,-82.6727 1441.13,-75.5164 1430.56,-76.2387 1433.32,-82.6727"/>
</g>
<!-- Node16 -->
<g id="node16" class="node"><title>Node16</title>
<g id="a_node16"><a xlink:href="esp32_8h.html" target="_top" xlink:title="Declaration de la classe Esp32. ">
<polygon fill="white" stroke="black" points="1565.5,-56.5 1565.5,-75.5 1616.5,-75.5 1616.5,-56.5 1565.5,-56.5"/>
<text text-anchor="middle" x="1591" y="-63.5" font-family="Helvetica,sans-Serif" font-size="10.00">esp32.h</text>
</a>
</g>
</g>
<!-- Node6&#45;&gt;Node16 -->
<g id="edge15" class="edge"><title>Node6&#45;&gt;Node16</title>
<path fill="none" stroke="midnightblue" d="M1375.25,-112.814C1418.66,-103.939 1489.79,-89.261 1551,-76 1552.43,-75.6891 1553.9,-75.37 1555.38,-75.0458"/>
<polygon fill="midnightblue" stroke="midnightblue" points="1556.19,-78.4511 1565.19,-72.87 1554.67,-71.6169 1556.19,-78.4511"/>
</g>
<!-- Node16&#45;&gt;Node7 -->
<g id="edge16" class="edge"><title>Node16&#45;&gt;Node7</title>
<path fill="none" stroke="midnightblue" d="M1577.83,-56.324C1565.15,-47.979 1545.77,-35.2122 1530.79,-25.3524"/>
<polygon fill="midnightblue" stroke="midnightblue" points="1532.42,-22.2313 1522.14,-19.6545 1528.57,-28.0776 1532.42,-22.2313"/>
</g>
<!-- Node16&#45;&gt;Node8 -->
<g id="edge17" class="edge"><title>Node16&#45;&gt;Node8</title>
<path fill="none" stroke="midnightblue" d="M1600.96,-56.324C1610.13,-48.3414 1623.94,-36.3128 1635.03,-26.6529"/>
<polygon fill="midnightblue" stroke="midnightblue" points="1637.62,-29.041 1642.86,-19.8339 1633.02,-23.7624 1637.62,-29.041"/>
</g>
<!-- Node17 -->
<g id="node17" class="node"><title>Node17</title>
<polygon fill="white" stroke="#bfbfbf" points="1554,-0.5 1554,-19.5 1610,-19.5 1610,-0.5 1554,-0.5"/>
<text text-anchor="middle" x="1582" y="-7.5" font-family="Helvetica,sans-Serif" font-size="10.00">QtDebug</text>
</g>
<!-- Node16&#45;&gt;Node17 -->
<g id="edge18" class="edge"><title>Node16&#45;&gt;Node17</title>
<path fill="none" stroke="midnightblue" d="M1589.51,-56.083C1588.32,-48.9272 1586.61,-38.6353 1585.12,-29.6911"/>
<polygon fill="midnightblue" stroke="midnightblue" points="1588.55,-29.0396 1583.46,-19.7511 1581.65,-30.1904 1588.55,-29.0396"/>
</g>
<!-- Node18&#45;&gt;Node7 -->
<g id="edge20" class="edge"><title>Node18&#45;&gt;Node7</title>
<path fill="none" stroke="midnightblue" d="M348.592,-119.518C291.163,-115.425 163.434,-101.097 207,-56 252.131,-9.28222 1264.98,-10.1748 1472.18,-10.8489"/>
<polygon fill="midnightblue" stroke="midnightblue" points="1472.23,-14.349 1482.24,-10.8836 1472.26,-7.34902 1472.23,-14.349"/>
</g>
<!-- Node19 -->
<g id="node19" class="node"><title>Node19</title>
<polygon fill="white" stroke="#bfbfbf" points="216,-56.5 216,-75.5 314,-75.5 314,-56.5 216,-56.5"/>
<text text-anchor="middle" x="265" y="-63.5" font-family="Helvetica,sans-Serif" font-size="10.00">QNetworkRequest</text>
</g>
<!-- Node18&#45;&gt;Node19 -->
<g id="edge21" class="edge"><title>Node18&#45;&gt;Node19</title>
<path fill="none" stroke="midnightblue" d="M357.327,-112.324C339.606,-103.625 312.097,-90.1202 291.712,-80.113"/>
<polygon fill="midnightblue" stroke="midnightblue" points="293.149,-76.9195 282.63,-75.6545 290.064,-83.2031 293.149,-76.9195"/>
</g>
<!-- Node20 -->
<g id="node20" class="node"><title>Node20</title>
<polygon fill="white" stroke="#bfbfbf" points="332,-56.5 332,-75.5 418,-75.5 418,-56.5 332,-56.5"/>
<text text-anchor="middle" x="375" y="-63.5" font-family="Helvetica,sans-Serif" font-size="10.00">QNetworkReply</text>
</g>
<!-- Node18&#45;&gt;Node20 -->
<g id="edge22" class="edge"><title>Node18&#45;&gt;Node20</title>
<path fill="none" stroke="midnightblue" d="M375,-112.083C375,-105.006 375,-94.8611 375,-85.9865"/>
<polygon fill="midnightblue" stroke="midnightblue" points="378.5,-85.751 375,-75.7511 371.5,-85.7511 378.5,-85.751"/>
</g>
<!-- Node21 -->
<g id="node21" class="node"><title>Node21</title>
<polygon fill="white" stroke="#bfbfbf" points="436.5,-56.5 436.5,-75.5 567.5,-75.5 567.5,-56.5 436.5,-56.5"/>
<text text-anchor="middle" x="502" y="-63.5" font-family="Helvetica,sans-Serif" font-size="10.00">QNetworkAccessManager</text>
</g>
<!-- Node18&#45;&gt;Node21 -->
<g id="edge23" class="edge"><title>Node18&#45;&gt;Node21</title>
<path fill="none" stroke="midnightblue" d="M395.124,-112.444C416.024,-103.557 448.935,-89.5632 472.716,-79.4514"/>
<polygon fill="midnightblue" stroke="midnightblue" points="474.138,-82.6504 481.971,-75.5164 471.398,-76.2085 474.138,-82.6504"/>
</g>
<!-- Node22 -->
<g id="node22" class="node"><title>Node22</title>
<polygon fill="white" stroke="#bfbfbf" points="586,-56.5 586,-75.5 676,-75.5 676,-56.5 586,-56.5"/>
<text text-anchor="middle" x="631" y="-63.5" font-family="Helvetica,sans-Serif" font-size="10.00">QJsonDocument</text>
</g>
<!-- Node18&#45;&gt;Node22 -->
<g id="edge24" class="edge"><title>Node18&#45;&gt;Node22</title>
<path fill="none" stroke="midnightblue" d="M401.432,-115.424C443.557,-106.539 526.644,-89.0127 580.457,-77.6614"/>
<polygon fill="midnightblue" stroke="midnightblue" points="581.416,-81.0363 590.478,-75.5476 579.971,-74.187 581.416,-81.0363"/>
</g>
<!-- Node23 -->
<g id="node23" class="node"><title>Node23</title>
<polygon fill="white" stroke="#bfbfbf" points="0,-56.5 0,-75.5 74,-75.5 74,-56.5 0,-56.5"/>
<text text-anchor="middle" x="37" y="-63.5" font-family="Helvetica,sans-Serif" font-size="10.00">QJsonObject</text>
</g>
<!-- Node18&#45;&gt;Node23 -->
<g id="edge25" class="edge"><title>Node18&#45;&gt;Node23</title>
<path fill="none" stroke="midnightblue" d="M348.767,-117.319C299.165,-110.282 188.005,-94.1416 84.1578,-76.1456"/>
<polygon fill="midnightblue" stroke="midnightblue" points="84.5857,-72.6675 74.1332,-74.3985 83.3838,-79.5635 84.5857,-72.6675"/>
</g>
<!-- Node24 -->
<g id="node24" class="node"><title>Node24</title>
<polygon fill="white" stroke="#bfbfbf" points="92,-56.5 92,-75.5 160,-75.5 160,-56.5 92,-56.5"/>
<text text-anchor="middle" x="126" y="-63.5" font-family="Helvetica,sans-Serif" font-size="10.00">QJsonArray</text>
</g>
<!-- Node18&#45;&gt;Node24 -->
<g id="edge26" class="edge"><title>Node18&#45;&gt;Node24</title>
<path fill="none" stroke="midnightblue" d="M348.823,-115.323C306.331,-106.108 221.884,-87.7942 170.028,-76.5483"/>
<polygon fill="midnightblue" stroke="midnightblue" points="170.628,-73.0971 160.114,-74.3981 169.145,-79.9381 170.628,-73.0971"/>
</g>
<!-- Node18&#45;&gt;Node25 -->
<g id="edge27" class="edge"><title>Node18&#45;&gt;Node25</title>
<path fill="none" stroke="midnightblue" d="M401.28,-118.092C453.334,-112.139 573.378,-97.4506 684.314,-75.9506"/>
<polygon fill="midnightblue" stroke="midnightblue" points="685.192,-79.3451 694.331,-73.9854 683.844,-72.476 685.192,-79.3451"/>
</g>
</g>
</svg>
