<?xml version="1.0" encoding="UTF-8" standalone="no"?>
<!DOCTYPE svg PUBLIC "-//W3C//DTD SVG 1.1//EN"
 "http://www.w3.org/Graphics/SVG/1.1/DTD/svg11.dtd">
<!-- Generated by graphviz version 2.38.0 (20140413.2041)
 -->
<!-- Title: Sonde/ihm.cpp Pages: 1 -->
<svg width="1031pt" height="252pt"
 viewBox="0.00 0.00 1031.25 252.00" xmlns="http://www.w3.org/2000/svg" xmlns:xlink="http://www.w3.org/1999/xlink">
<g id="graph0" class="graph" transform="scale(1 1) rotate(0) translate(4 248)">
<title>Sonde/ihm.cpp</title>
<polygon fill="white" stroke="none" points="-4,4 -4,-248 1027.25,-248 1027.25,4 -4,4"/>
<!-- Node1 -->
<g id="node1" class="node"><title>Node1</title>
<polygon fill="#bfbfbf" stroke="black" points="745.748,-224.5 745.748,-243.5 827.748,-243.5 827.748,-224.5 745.748,-224.5"/>
<text text-anchor="middle" x="786.748" y="-231.5" font-family="Helvetica,sans-Serif" font-size="10.00">Sonde/ihm.cpp</text>
</g>
<!-- Node2 -->
<g id="node2" class="node"><title>Node2</title>
<g id="a_node2"><a xlink:href="ihm_8h.html" target="_top" xlink:title="Declaration de la classe Ihm. ">
<polygon fill="white" stroke="black" points="342.248,-168.5 342.248,-187.5 383.248,-187.5 383.248,-168.5 342.248,-168.5"/>
<text text-anchor="middle" x="362.748" y="-175.5" font-family="Helvetica,sans-Serif" font-size="10.00">ihm.h</text>
</a>
</g>
</g>
<!-- Node1&#45;&gt;Node2 -->
<g id="edge1" class="edge"><title>Node1&#45;&gt;Node2</title>
<path fill="none" stroke="midnightblue" d="M745.707,-227.773C661.125,-217.001 469.036,-192.537 393.796,-182.954"/>
<polygon fill="midnightblue" stroke="midnightblue" points="393.932,-179.443 383.57,-181.652 393.048,-186.387 393.932,-179.443"/>
</g>
<!-- Node20 -->
<g id="node20" class="node"><title>Node20</title>
<polygon fill="white" stroke="#bfbfbf" points="970.248,-56.5 970.248,-75.5 1023.25,-75.5 1023.25,-56.5 970.248,-56.5"/>
<text text-anchor="middle" x="996.748" y="-63.5" font-family="Helvetica,sans-Serif" font-size="10.00">QDebug</text>
</g>
<!-- Node1&#45;&gt;Node20 -->
<g id="edge24" class="edge"><title>Node1&#45;&gt;Node20</title>
<path fill="none" stroke="midnightblue" d="M787.321,-224.442C788.634,-211.001 792.913,-184.75 806.748,-168 847.161,-119.069 917.607,-90.6025 960.429,-76.9874"/>
<polygon fill="midnightblue" stroke="midnightblue" points="961.635,-80.2786 970.166,-73.9963 959.579,-73.5872 961.635,-80.2786"/>
</g>
<!-- Node21 -->
<g id="node21" class="node"><title>Node21</title>
<polygon fill="white" stroke="#bfbfbf" points="815.248,-168.5 815.248,-187.5 868.248,-187.5 868.248,-168.5 815.248,-168.5"/>
<text text-anchor="middle" x="841.748" y="-175.5" font-family="Helvetica,sans-Serif" font-size="10.00">ui_ihm.h</text>
</g>
<!-- Node1&#45;&gt;Node21 -->
<g id="edge23" class="edge"><title>Node1&#45;&gt;Node21</title>
<path fill="none" stroke="midnightblue" d="M795.83,-224.083C803.919,-216.141 815.943,-204.335 825.658,-194.797"/>
<polygon fill="midnightblue" stroke="midnightblue" points="828.151,-197.254 832.834,-187.751 823.247,-192.26 828.151,-197.254"/>
</g>
<!-- Node3 -->
<g id="node3" class="node"><title>Node3</title>
<polygon fill="white" stroke="#bfbfbf" points="548.248,-112.5 548.248,-131.5 603.248,-131.5 603.248,-112.5 548.248,-112.5"/>
<text text-anchor="middle" x="575.748" y="-119.5" font-family="Helvetica,sans-Serif" font-size="10.00">QWidget</text>
</g>
<!-- Node2&#45;&gt;Node3 -->
<g id="edge2" class="edge"><title>Node2&#45;&gt;Node3</title>
<path fill="none" stroke="midnightblue" d="M383.559,-171.724C419.394,-162.639 493.228,-143.92 538.226,-132.512"/>
<polygon fill="midnightblue" stroke="midnightblue" points="539.352,-135.838 548.185,-129.988 537.632,-129.052 539.352,-135.838"/>
</g>
<!-- Node4 -->
<g id="node4" class="node"><title>Node4</title>
<polygon fill="white" stroke="#bfbfbf" points="17.2476,-112.5 17.2476,-131.5 84.2476,-131.5 84.2476,-112.5 17.2476,-112.5"/>
<text text-anchor="middle" x="50.7476" y="-119.5" font-family="Helvetica,sans-Serif" font-size="10.00">QDateTime</text>
</g>
<!-- Node2&#45;&gt;Node4 -->
<g id="edge3" class="edge"><title>Node2&#45;&gt;Node4</title>
<path fill="none" stroke="midnightblue" d="M342.111,-173.84C298.427,-167.09 193.193,-150.501 94.3713,-132.053"/>
<polygon fill="midnightblue" stroke="midnightblue" points="94.997,-128.609 84.5229,-130.204 93.7054,-135.489 94.997,-128.609"/>
</g>
<!-- Node5 -->
<g id="node5" class="node"><title>Node5</title>
<polygon fill="white" stroke="#bfbfbf" points="102.748,-112.5 102.748,-131.5 162.748,-131.5 162.748,-112.5 102.748,-112.5"/>
<text text-anchor="middle" x="132.748" y="-119.5" font-family="Helvetica,sans-Serif" font-size="10.00">QSettings</text>
</g>
<!-- Node2&#45;&gt;Node5 -->
<g id="edge4" class="edge"><title>Node2&#45;&gt;Node5</title>
<path fill="none" stroke="midnightblue" d="M341.931,-172.113C303.837,-163.169 222.304,-144.026 173.034,-132.458"/>
<polygon fill="midnightblue" stroke="midnightblue" points="173.572,-128.99 163.037,-130.111 171.972,-135.804 173.572,-128.99"/>
</g>
<!-- Node6 -->
<g id="node6" class="node"><title>Node6</title>
<g id="a_node6"><a xlink:href="transmission_8h.html" target="_top" xlink:title="Declaration de la classe Transmission. ">
<polygon fill="white" stroke="black" points="180.748,-112.5 180.748,-131.5 260.748,-131.5 260.748,-112.5 180.748,-112.5"/>
<text text-anchor="middle" x="220.748" y="-119.5" font-family="Helvetica,sans-Serif" font-size="10.00">transmission.h</text>
</a>
</g>
</g>
<!-- Node2&#45;&gt;Node6 -->
<g id="edge5" class="edge"><title>Node2&#45;&gt;Node6</title>
<path fill="none" stroke="midnightblue" d="M342.1,-169.148C318.67,-160.238 280.169,-145.597 252.821,-135.197"/>
<polygon fill="midnightblue" stroke="midnightblue" points="253.889,-131.859 243.298,-131.576 251.401,-138.402 253.889,-131.859"/>
</g>
<!-- Node13 -->
<g id="node13" class="node"><title>Node13</title>
<g id="a_node13"><a xlink:href="meteo_8h.html" target="_top" xlink:title="Declaration de la classe Meteo. ">
<polygon fill="white" stroke="black" points="477.748,-112.5 477.748,-131.5 529.748,-131.5 529.748,-112.5 477.748,-112.5"/>
<text text-anchor="middle" x="503.748" y="-119.5" font-family="Helvetica,sans-Serif" font-size="10.00">meteo.h</text>
</a>
</g>
</g>
<!-- Node2&#45;&gt;Node13 -->
<g id="edge14" class="edge"><title>Node2&#45;&gt;Node13</title>
<path fill="none" stroke="midnightblue" d="M383.25,-169.148C406.515,-160.238 444.745,-145.597 471.9,-135.197"/>
<polygon fill="midnightblue" stroke="midnightblue" points="473.269,-138.421 481.356,-131.576 470.765,-131.884 473.269,-138.421"/>
</g>
<!-- Node7 -->
<g id="node7" class="node"><title>Node7</title>
<polygon fill="white" stroke="#bfbfbf" points="230.248,-0.5 230.248,-19.5 283.248,-19.5 283.248,-0.5 230.248,-0.5"/>
<text text-anchor="middle" x="256.748" y="-7.5" font-family="Helvetica,sans-Serif" font-size="10.00">QObject</text>
</g>
<!-- Node6&#45;&gt;Node7 -->
<g id="edge6" class="edge"><title>Node6&#45;&gt;Node7</title>
<path fill="none" stroke="midnightblue" d="M223.572,-112.368C229.408,-94.5366 242.905,-53.2953 250.768,-29.2717"/>
<polygon fill="midnightblue" stroke="midnightblue" points="254.152,-30.1841 253.936,-19.5914 247.499,-28.0067 254.152,-30.1841"/>
</g>
<!-- Node8 -->
<g id="node8" class="node"><title>Node8</title>
<polygon fill="white" stroke="#bfbfbf" points="28.7476,-0.5 28.7476,-19.5 78.7476,-19.5 78.7476,-0.5 28.7476,-0.5"/>
<text text-anchor="middle" x="53.7476" y="-7.5" font-family="Helvetica,sans-Serif" font-size="10.00">QString</text>
</g>
<!-- Node6&#45;&gt;Node8 -->
<g id="edge7" class="edge"><title>Node6&#45;&gt;Node8</title>
<path fill="none" stroke="midnightblue" d="M180.514,-113.28C118.798,-101.347 7.53803,-79.4317 4.74758,-76 -9.10664,-58.962 11.9117,-38.6592 30.5722,-25.3325"/>
<polygon fill="midnightblue" stroke="midnightblue" points="32.7832,-28.0628 39.1127,-19.5665 28.8663,-22.2613 32.7832,-28.0628"/>
</g>
<!-- Node9 -->
<g id="node9" class="node"><title>Node9</title>
<polygon fill="white" stroke="#bfbfbf" points="14.2476,-56.5 14.2476,-75.5 81.2476,-75.5 81.2476,-56.5 14.2476,-56.5"/>
<text text-anchor="middle" x="47.7476" y="-63.5" font-family="Helvetica,sans-Serif" font-size="10.00">QSerialPort</text>
</g>
<!-- Node6&#45;&gt;Node9 -->
<g id="edge8" class="edge"><title>Node6&#45;&gt;Node9</title>
<path fill="none" stroke="midnightblue" d="M193.335,-112.444C163.978,-103.28 117.228,-88.6876 84.6516,-78.5192"/>
<polygon fill="midnightblue" stroke="midnightblue" points="85.6204,-75.1551 75.0317,-75.5164 83.5346,-81.8371 85.6204,-75.1551"/>
</g>
<!-- Node10 -->
<g id="node10" class="node"><title>Node10</title>
<polygon fill="white" stroke="#bfbfbf" points="99.2476,-56.5 99.2476,-75.5 150.248,-75.5 150.248,-56.5 99.2476,-56.5"/>
<text text-anchor="middle" x="124.748" y="-63.5" font-family="Helvetica,sans-Serif" font-size="10.00">unistd.h</text>
</g>
<!-- Node6&#45;&gt;Node10 -->
<g id="edge9" class="edge"><title>Node6&#45;&gt;Node10</title>
<path fill="none" stroke="midnightblue" d="M205.324,-112.324C190.208,-103.822 166.932,-90.7288 149.276,-80.7975"/>
<polygon fill="midnightblue" stroke="midnightblue" points="150.565,-77.5066 140.133,-75.6545 147.133,-83.6077 150.565,-77.5066"/>
</g>
<!-- Node11 -->
<g id="node11" class="node"><title>Node11</title>
<g id="a_node11"><a xlink:href="esp32_8h.html" target="_top" xlink:title="Declaration de la classe Esp32. ">
<polygon fill="white" stroke="black" points="168.248,-56.5 168.248,-75.5 219.248,-75.5 219.248,-56.5 168.248,-56.5"/>
<text text-anchor="middle" x="193.748" y="-63.5" font-family="Helvetica,sans-Serif" font-size="10.00">esp32.h</text>
</a>
</g>
</g>
<!-- Node6&#45;&gt;Node11 -->
<g id="edge10" class="edge"><title>Node6&#45;&gt;Node11</title>
<path fill="none" stroke="midnightblue" d="M216.289,-112.083C212.593,-104.691 207.224,-93.9533 202.653,-84.8111"/>
<polygon fill="midnightblue" stroke="midnightblue" points="205.726,-83.1301 198.123,-75.7511 199.465,-86.2606 205.726,-83.1301"/>
</g>
<!-- Node11&#45;&gt;Node7 -->
<g id="edge11" class="edge"><title>Node11&#45;&gt;Node7</title>
<path fill="none" stroke="midnightblue" d="M203.87,-56.324C213.274,-48.2631 227.492,-36.0765 238.817,-26.3695"/>
<polygon fill="midnightblue" stroke="midnightblue" points="241.127,-28.9993 246.441,-19.8339 236.571,-23.6844 241.127,-28.9993"/>
</g>
<!-- Node11&#45;&gt;Node8 -->
<g id="edge12" class="edge"><title>Node11&#45;&gt;Node8</title>
<path fill="none" stroke="midnightblue" d="M171.564,-56.4435C148.319,-47.4776 111.599,-33.314 85.3323,-23.1827"/>
<polygon fill="midnightblue" stroke="midnightblue" points="86.4168,-19.8497 75.8272,-19.5164 83.8977,-26.3807 86.4168,-19.8497"/>
</g>
<!-- Node12 -->
<g id="node12" class="node"><title>Node12</title>
<polygon fill="white" stroke="#bfbfbf" points="155.748,-0.5 155.748,-19.5 211.748,-19.5 211.748,-0.5 155.748,-0.5"/>
<text text-anchor="middle" x="183.748" y="-7.5" font-family="Helvetica,sans-Serif" font-size="10.00">QtDebug</text>
</g>
<!-- Node11&#45;&gt;Node12 -->
<g id="edge13" class="edge"><title>Node11&#45;&gt;Node12</title>
<path fill="none" stroke="midnightblue" d="M192.096,-56.083C190.771,-48.9272 188.865,-38.6353 187.209,-29.6911"/>
<polygon fill="midnightblue" stroke="midnightblue" points="190.631,-28.9466 185.368,-19.7511 183.748,-30.2212 190.631,-28.9466"/>
</g>
<!-- Node13&#45;&gt;Node7 -->
<g id="edge15" class="edge"><title>Node13&#45;&gt;Node7</title>
<path fill="none" stroke="midnightblue" d="M480.069,-112.403C456.992,-103.83 421.05,-89.9609 390.748,-76 373.414,-68.0139 369.837,-64.4969 352.748,-56 330.047,-44.7131 303.985,-32.5457 284.749,-23.7122"/>
<polygon fill="midnightblue" stroke="midnightblue" points="286.183,-20.5193 275.633,-19.5408 283.27,-26.8845 286.183,-20.5193"/>
</g>
<!-- Node14 -->
<g id="node14" class="node"><title>Node14</title>
<polygon fill="white" stroke="#bfbfbf" points="399.748,-56.5 399.748,-75.5 497.748,-75.5 497.748,-56.5 399.748,-56.5"/>
<text text-anchor="middle" x="448.748" y="-63.5" font-family="Helvetica,sans-Serif" font-size="10.00">QNetworkRequest</text>
</g>
<!-- Node13&#45;&gt;Node14 -->
<g id="edge16" class="edge"><title>Node13&#45;&gt;Node14</title>
<path fill="none" stroke="midnightblue" d="M494.665,-112.083C486.576,-104.141 474.552,-92.3354 464.837,-82.7973"/>
<polygon fill="midnightblue" stroke="midnightblue" points="467.248,-80.2595 457.661,-75.7511 462.344,-85.2545 467.248,-80.2595"/>
</g>
<!-- Node15 -->
<g id="node15" class="node"><title>Node15</title>
<polygon fill="white" stroke="#bfbfbf" points="515.748,-56.5 515.748,-75.5 601.748,-75.5 601.748,-56.5 515.748,-56.5"/>
<text text-anchor="middle" x="558.748" y="-63.5" font-family="Helvetica,sans-Serif" font-size="10.00">QNetworkReply</text>
</g>
<!-- Node13&#45;&gt;Node15 -->
<g id="edge17" class="edge"><title>Node13&#45;&gt;Node15</title>
<path fill="none" stroke="midnightblue" d="M512.83,-112.083C520.919,-104.141 532.943,-92.3354 542.658,-82.7973"/>
<polygon fill="midnightblue" stroke="midnightblue" points="545.151,-85.2545 549.834,-75.7511 540.247,-80.2595 545.151,-85.2545"/>
</g>
<!-- Node16 -->
<g id="node16" class="node"><title>Node16</title>
<polygon fill="white" stroke="#bfbfbf" points="620.248,-56.5 620.248,-75.5 751.248,-75.5 751.248,-56.5 620.248,-56.5"/>
<text text-anchor="middle" x="685.748" y="-63.5" font-family="Helvetica,sans-Serif" font-size="10.00">QNetworkAccessManager</text>
</g>
<!-- Node13&#45;&gt;Node16 -->
<g id="edge18" class="edge"><title>Node13&#45;&gt;Node16</title>
<path fill="none" stroke="midnightblue" d="M529.824,-113.263C560.508,-104.159 611.743,-88.9575 647.059,-78.479"/>
<polygon fill="midnightblue" stroke="midnightblue" points="648.426,-81.7243 657.017,-75.5243 646.435,-75.0135 648.426,-81.7243"/>
</g>
<!-- Node17 -->
<g id="node17" class="node"><title>Node17</title>
<polygon fill="white" stroke="#bfbfbf" points="769.748,-56.5 769.748,-75.5 859.748,-75.5 859.748,-56.5 769.748,-56.5"/>
<text text-anchor="middle" x="814.748" y="-63.5" font-family="Helvetica,sans-Serif" font-size="10.00">QJsonDocument</text>
</g>
<!-- Node13&#45;&gt;Node17 -->
<g id="edge19" class="edge"><title>Node13&#45;&gt;Node17</title>
<path fill="none" stroke="midnightblue" d="M530.061,-113.962C532.983,-113.262 535.923,-112.592 538.748,-112 636.148,-91.5873 661.531,-92.0354 759.748,-76 759.849,-75.9834 759.951,-75.9669 760.052,-75.9503"/>
<polygon fill="midnightblue" stroke="midnightblue" points="760.42,-79.4366 769.725,-74.37 759.292,-72.5282 760.42,-79.4366"/>
</g>
<!-- Node18 -->
<g id="node18" class="node"><title>Node18</title>
<polygon fill="white" stroke="#bfbfbf" points="877.748,-56.5 877.748,-75.5 951.748,-75.5 951.748,-56.5 877.748,-56.5"/>
<text text-anchor="middle" x="914.748" y="-63.5" font-family="Helvetica,sans-Serif" font-size="10.00">QJsonObject</text>
</g>
<!-- Node13&#45;&gt;Node18 -->
<g id="edge20" class="edge"><title>Node13&#45;&gt;Node18</title>
<path fill="none" stroke="midnightblue" d="M530.032,-113.811C532.959,-113.139 535.908,-112.517 538.748,-112 680.636,-86.1549 721.083,-97.6369 867.383,-76.0793"/>
<polygon fill="midnightblue" stroke="midnightblue" points="868.268,-79.4858 877.637,-74.5402 867.229,-72.5633 868.268,-79.4858"/>
</g>
<!-- Node19 -->
<g id="node19" class="node"><title>Node19</title>
<polygon fill="white" stroke="#bfbfbf" points="275.748,-56.5 275.748,-75.5 343.748,-75.5 343.748,-56.5 275.748,-56.5"/>
<text text-anchor="middle" x="309.748" y="-63.5" font-family="Helvetica,sans-Serif" font-size="10.00">QJsonArray</text>
</g>
<!-- Node13&#45;&gt;Node19 -->
<g id="edge21" class="edge"><title>Node13&#45;&gt;Node19</title>
<path fill="none" stroke="midnightblue" d="M477.584,-113.717C444.924,-104.626 388.707,-88.9784 350.415,-78.3197"/>
<polygon fill="midnightblue" stroke="midnightblue" points="351.18,-74.8998 340.608,-75.59 349.303,-81.6435 351.18,-74.8998"/>
</g>
<!-- Node13&#45;&gt;Node20 -->
<g id="edge22" class="edge"><title>Node13&#45;&gt;Node20</title>
<path fill="none" stroke="midnightblue" d="M530.02,-113.744C532.95,-113.084 535.902,-112.484 538.748,-112 721.15,-80.9904 773.295,-106.038 960.236,-75.7917"/>
<polygon fill="midnightblue" stroke="midnightblue" points="960.814,-79.2438 970.111,-74.1633 959.675,-72.3371 960.814,-79.2438"/>
</g>
</g>
</svg>
