<?xml version="1.0" encoding="UTF-8" standalone="no"?>
<!DOCTYPE svg PUBLIC "-//W3C//DTD SVG 1.1//EN"
 "http://www.w3.org/Graphics/SVG/1.1/DTD/svg11.dtd">
<!-- Generated by graphviz version 2.38.0 (20140413.2041)
 -->
<!-- Title: Sonde/ihm.h Pages: 1 -->
<svg width="1727pt" height="196pt"
 viewBox="0.00 0.00 1727.04 196.00" xmlns="http://www.w3.org/2000/svg" xmlns:xlink="http://www.w3.org/1999/xlink">
<g id="graph0" class="graph" transform="scale(1 1) rotate(0) translate(4 192)">
<title>Sonde/ihm.h</title>
<polygon fill="white" stroke="none" points="-4,4 -4,-192 1723.04,-192 1723.04,4 -4,4"/>
<!-- Node1 -->
<g id="node1" class="node"><title>Node1</title>
<polygon fill="#bfbfbf" stroke="black" points="321.538,-168.5 321.538,-187.5 392.538,-187.5 392.538,-168.5 321.538,-168.5"/>
<text text-anchor="middle" x="357.038" y="-175.5" font-family="Helvetica,sans-Serif" font-size="10.00">Sonde/ihm.h</text>
</g>
<!-- Node2 -->
<g id="node2" class="node"><title>Node2</title>
<polygon fill="white" stroke="#bfbfbf" points="168.538,-112.5 168.538,-131.5 223.538,-131.5 223.538,-112.5 168.538,-112.5"/>
<text text-anchor="middle" x="196.038" y="-119.5" font-family="Helvetica,sans-Serif" font-size="10.00">QWidget</text>
</g>
<!-- Node1&#45;&gt;Node2 -->
<g id="edge1" class="edge"><title>Node1&#45;&gt;Node2</title>
<path fill="none" stroke="midnightblue" d="M331.527,-168.444C304.442,-159.359 261.448,-144.939 231.169,-134.783"/>
<polygon fill="midnightblue" stroke="midnightblue" points="232.023,-131.378 221.429,-131.516 229.797,-138.015 232.023,-131.378"/>
</g>
<!-- Node3 -->
<g id="node3" class="node"><title>Node3</title>
<polygon fill="white" stroke="#bfbfbf" points="241.538,-112.5 241.538,-131.5 308.538,-131.5 308.538,-112.5 241.538,-112.5"/>
<text text-anchor="middle" x="275.038" y="-119.5" font-family="Helvetica,sans-Serif" font-size="10.00">QDateTime</text>
</g>
<!-- Node1&#45;&gt;Node3 -->
<g id="edge2" class="edge"><title>Node1&#45;&gt;Node3</title>
<path fill="none" stroke="midnightblue" d="M343.863,-168.324C331.191,-159.979 311.804,-147.212 296.832,-137.352"/>
<polygon fill="midnightblue" stroke="midnightblue" points="298.456,-134.231 288.18,-131.655 294.606,-140.078 298.456,-134.231"/>
</g>
<!-- Node4 -->
<g id="node4" class="node"><title>Node4</title>
<polygon fill="white" stroke="#bfbfbf" points="327.038,-112.5 327.038,-131.5 387.038,-131.5 387.038,-112.5 327.038,-112.5"/>
<text text-anchor="middle" x="357.038" y="-119.5" font-family="Helvetica,sans-Serif" font-size="10.00">QSettings</text>
</g>
<!-- Node1&#45;&gt;Node4 -->
<g id="edge3" class="edge"><title>Node1&#45;&gt;Node4</title>
<path fill="none" stroke="midnightblue" d="M357.038,-168.083C357.038,-161.006 357.038,-150.861 357.038,-141.986"/>
<polygon fill="midnightblue" stroke="midnightblue" points="360.538,-141.751 357.038,-131.751 353.538,-141.751 360.538,-141.751"/>
</g>
<!-- Node5 -->
<g id="node5" class="node"><title>Node5</title>
<g id="a_node5"><a xlink:href="transmission_8h.html" target="_top" xlink:title="Declaration de la classe Transmission. ">
<polygon fill="white" stroke="black" points="961.038,-112.5 961.038,-131.5 1041.04,-131.5 1041.04,-112.5 961.038,-112.5"/>
<text text-anchor="middle" x="1001.04" y="-119.5" font-family="Helvetica,sans-Serif" font-size="10.00">transmission.h</text>
</a>
</g>
</g>
<!-- Node1&#45;&gt;Node5 -->
<g id="edge4" class="edge"><title>Node1&#45;&gt;Node5</title>
<path fill="none" stroke="midnightblue" d="M392.579,-174.02C500.556,-164.966 825.018,-137.759 950.616,-127.228"/>
<polygon fill="midnightblue" stroke="midnightblue" points="951.055,-130.703 960.728,-126.38 950.47,-123.728 951.055,-130.703"/>
</g>
<!-- Node17 -->
<g id="node17" class="node"><title>Node17</title>
<g id="a_node17"><a xlink:href="meteo_8h.html" target="_top" xlink:title="Declaration de la classe Meteo. ">
<polygon fill="white" stroke="black" points="405.038,-112.5 405.038,-131.5 457.038,-131.5 457.038,-112.5 405.038,-112.5"/>
<text text-anchor="middle" x="431.038" y="-119.5" font-family="Helvetica,sans-Serif" font-size="10.00">meteo.h</text>
</a>
</g>
</g>
<!-- Node1&#45;&gt;Node17 -->
<g id="edge18" class="edge"><title>Node1&#45;&gt;Node17</title>
<path fill="none" stroke="midnightblue" d="M368.927,-168.324C380.188,-160.107 397.324,-147.602 410.747,-137.807"/>
<polygon fill="midnightblue" stroke="midnightblue" points="412.917,-140.556 418.932,-131.834 408.791,-134.901 412.917,-140.556"/>
</g>
<!-- Node6 -->
<g id="node6" class="node"><title>Node6</title>
<polygon fill="white" stroke="#bfbfbf" points="699.538,-0.5 699.538,-19.5 752.538,-19.5 752.538,-0.5 699.538,-0.5"/>
<text text-anchor="middle" x="726.038" y="-7.5" font-family="Helvetica,sans-Serif" font-size="10.00">QObject</text>
</g>
<!-- Node5&#45;&gt;Node6 -->
<g id="edge5" class="edge"><title>Node5&#45;&gt;Node6</title>
<path fill="none" stroke="midnightblue" d="M960.686,-121.704C912.384,-120.705 830.791,-113.002 773.038,-76 755.317,-64.6467 742.14,-44.0459 734.317,-29.0723"/>
<polygon fill="midnightblue" stroke="midnightblue" points="737.31,-27.2269 729.766,-19.7877 731.024,-30.3076 737.31,-27.2269"/>
</g>
<!-- Node7 -->
<g id="node7" class="node"><title>Node7</title>
<polygon fill="white" stroke="#bfbfbf" points="845.038,-0.5 845.038,-19.5 895.038,-19.5 895.038,-0.5 845.038,-0.5"/>
<text text-anchor="middle" x="870.038" y="-7.5" font-family="Helvetica,sans-Serif" font-size="10.00">QString</text>
</g>
<!-- Node5&#45;&gt;Node7 -->
<g id="edge6" class="edge"><title>Node5&#45;&gt;Node7</title>
<path fill="none" stroke="midnightblue" d="M960.798,-116.285C934.164,-110.992 900.649,-99.7702 881.038,-76 870.462,-63.1825 868.344,-43.9966 868.492,-29.7885"/>
<polygon fill="midnightblue" stroke="midnightblue" points="871.994,-29.8344 868.978,-19.6779 865.002,-29.4983 871.994,-29.8344"/>
</g>
<!-- Node8 -->
<g id="node8" class="node"><title>Node8</title>
<polygon fill="white" stroke="#bfbfbf" points="890.538,-56.5 890.538,-75.5 957.538,-75.5 957.538,-56.5 890.538,-56.5"/>
<text text-anchor="middle" x="924.038" y="-63.5" font-family="Helvetica,sans-Serif" font-size="10.00">QSerialPort</text>
</g>
<!-- Node5&#45;&gt;Node8 -->
<g id="edge7" class="edge"><title>Node5&#45;&gt;Node8</title>
<path fill="none" stroke="midnightblue" d="M988.666,-112.324C976.879,-104.058 958.905,-91.4527 944.902,-81.6322"/>
<polygon fill="midnightblue" stroke="midnightblue" points="946.575,-78.5307 936.378,-75.6545 942.556,-84.2619 946.575,-78.5307"/>
</g>
<!-- Node9 -->
<g id="node9" class="node"><title>Node9</title>
<polygon fill="white" stroke="#bfbfbf" points="975.538,-56.5 975.538,-75.5 1026.54,-75.5 1026.54,-56.5 975.538,-56.5"/>
<text text-anchor="middle" x="1001.04" y="-63.5" font-family="Helvetica,sans-Serif" font-size="10.00">unistd.h</text>
</g>
<!-- Node5&#45;&gt;Node9 -->
<g id="edge8" class="edge"><title>Node5&#45;&gt;Node9</title>
<path fill="none" stroke="midnightblue" d="M1001.04,-112.083C1001.04,-105.006 1001.04,-94.8611 1001.04,-85.9865"/>
<polygon fill="midnightblue" stroke="midnightblue" points="1004.54,-85.751 1001.04,-75.7511 997.538,-85.7511 1004.54,-85.751"/>
</g>
<!-- Node10 -->
<g id="node10" class="node"><title>Node10</title>
<polygon fill="white" stroke="#bfbfbf" points="1045.04,-56.5 1045.04,-75.5 1149.04,-75.5 1149.04,-56.5 1045.04,-56.5"/>
<text text-anchor="middle" x="1097.04" y="-63.5" font-family="Helvetica,sans-Serif" font-size="10.00">qbluetoothaddress.h</text>
</g>
<!-- Node5&#45;&gt;Node10 -->
<g id="edge9" class="edge"><title>Node5&#45;&gt;Node10</title>
<path fill="none" stroke="midnightblue" d="M1016.46,-112.324C1031.58,-103.822 1054.85,-90.7288 1072.51,-80.7975"/>
<polygon fill="midnightblue" stroke="midnightblue" points="1074.65,-83.6077 1081.65,-75.6545 1071.22,-77.5066 1074.65,-83.6077"/>
</g>
<!-- Node11 -->
<g id="node11" class="node"><title>Node11</title>
<polygon fill="white" stroke="#bfbfbf" points="1167.54,-56.5 1167.54,-75.5 1334.54,-75.5 1334.54,-56.5 1167.54,-56.5"/>
<text text-anchor="middle" x="1251.04" y="-63.5" font-family="Helvetica,sans-Serif" font-size="10.00">qbluetoothservicediscoveryagent.h</text>
</g>
<!-- Node5&#45;&gt;Node11 -->
<g id="edge10" class="edge"><title>Node5&#45;&gt;Node11</title>
<path fill="none" stroke="midnightblue" d="M1040.65,-112.444C1084.26,-103.023 1154.44,-87.8656 1201.62,-77.6752"/>
<polygon fill="midnightblue" stroke="midnightblue" points="1202.57,-81.0489 1211.61,-75.5164 1201.1,-74.2067 1202.57,-81.0489"/>
</g>
<!-- Node12 -->
<g id="node12" class="node"><title>Node12</title>
<polygon fill="white" stroke="#bfbfbf" points="1352.54,-56.5 1352.54,-75.5 1467.54,-75.5 1467.54,-56.5 1352.54,-56.5"/>
<text text-anchor="middle" x="1410.04" y="-63.5" font-family="Helvetica,sans-Serif" font-size="10.00">QLowEnergyController</text>
</g>
<!-- Node5&#45;&gt;Node12 -->
<g id="edge11" class="edge"><title>Node5&#45;&gt;Node12</title>
<path fill="none" stroke="midnightblue" d="M1041.18,-115.801C1103.42,-107.725 1227.24,-91.5999 1342.4,-76.214"/>
<polygon fill="midnightblue" stroke="midnightblue" points="1343,-79.6653 1352.45,-74.8708 1342.07,-72.727 1343,-79.6653"/>
</g>
<!-- Node13 -->
<g id="node13" class="node"><title>Node13</title>
<polygon fill="white" stroke="#bfbfbf" points="1485.54,-56.5 1485.54,-75.5 1604.54,-75.5 1604.54,-56.5 1485.54,-56.5"/>
<text text-anchor="middle" x="1545.04" y="-63.5" font-family="Helvetica,sans-Serif" font-size="10.00">QBluetoothLocalDevice</text>
</g>
<!-- Node5&#45;&gt;Node13 -->
<g id="edge12" class="edge"><title>Node5&#45;&gt;Node13</title>
<path fill="none" stroke="midnightblue" d="M1041.21,-117.712C1121.62,-111.02 1308.31,-94.9309 1475.39,-76.1534"/>
<polygon fill="midnightblue" stroke="midnightblue" points="1475.81,-79.6287 1485.35,-75.0281 1475.02,-72.673 1475.81,-79.6287"/>
</g>
<!-- Node14 -->
<g id="node14" class="node"><title>Node14</title>
<polygon fill="white" stroke="#bfbfbf" points="1623.04,-56.5 1623.04,-75.5 1719.04,-75.5 1719.04,-56.5 1623.04,-56.5"/>
<text text-anchor="middle" x="1671.04" y="-63.5" font-family="Helvetica,sans-Serif" font-size="10.00">QBluetoothSocket</text>
</g>
<!-- Node5&#45;&gt;Node14 -->
<g id="edge13" class="edge"><title>Node5&#45;&gt;Node14</title>
<path fill="none" stroke="midnightblue" d="M1041.31,-119.207C1137.99,-114.653 1391.03,-101.257 1612.68,-76.0637"/>
<polygon fill="midnightblue" stroke="midnightblue" points="1613.34,-79.5109 1622.87,-74.8937 1612.54,-72.5566 1613.34,-79.5109"/>
</g>
<!-- Node15 -->
<g id="node15" class="node"><title>Node15</title>
<g id="a_node15"><a xlink:href="esp32_8h.html" target="_top" xlink:title="Declaration de la classe Esp32. ">
<polygon fill="white" stroke="black" points="782.538,-56.5 782.538,-75.5 833.538,-75.5 833.538,-56.5 782.538,-56.5"/>
<text text-anchor="middle" x="808.038" y="-63.5" font-family="Helvetica,sans-Serif" font-size="10.00">esp32.h</text>
</a>
</g>
</g>
<!-- Node5&#45;&gt;Node15 -->
<g id="edge14" class="edge"><title>Node5&#45;&gt;Node15</title>
<path fill="none" stroke="midnightblue" d="M970.456,-112.444C935.869,-102.766 879.639,-87.0336 843.249,-76.8518"/>
<polygon fill="midnightblue" stroke="midnightblue" points="844.118,-73.4608 833.545,-74.1368 842.232,-80.2019 844.118,-73.4608"/>
</g>
<!-- Node15&#45;&gt;Node6 -->
<g id="edge15" class="edge"><title>Node15&#45;&gt;Node6</title>
<path fill="none" stroke="midnightblue" d="M794.863,-56.324C782.191,-47.979 762.804,-35.2122 747.832,-25.3524"/>
<polygon fill="midnightblue" stroke="midnightblue" points="749.456,-22.2313 739.18,-19.6545 745.606,-28.0776 749.456,-22.2313"/>
</g>
<!-- Node15&#45;&gt;Node7 -->
<g id="edge16" class="edge"><title>Node15&#45;&gt;Node7</title>
<path fill="none" stroke="midnightblue" d="M817.999,-56.324C827.164,-48.3414 840.975,-36.3128 852.066,-26.6529"/>
<polygon fill="midnightblue" stroke="midnightblue" points="854.653,-29.041 859.895,-19.8339 850.055,-23.7624 854.653,-29.041"/>
</g>
<!-- Node16 -->
<g id="node16" class="node"><title>Node16</title>
<polygon fill="white" stroke="#bfbfbf" points="771.038,-0.5 771.038,-19.5 827.038,-19.5 827.038,-0.5 771.038,-0.5"/>
<text text-anchor="middle" x="799.038" y="-7.5" font-family="Helvetica,sans-Serif" font-size="10.00">QtDebug</text>
</g>
<!-- Node15&#45;&gt;Node16 -->
<g id="edge17" class="edge"><title>Node15&#45;&gt;Node16</title>
<path fill="none" stroke="midnightblue" d="M806.551,-56.083C805.359,-48.9272 803.643,-38.6353 802.153,-29.6911"/>
<polygon fill="midnightblue" stroke="midnightblue" points="805.593,-29.0396 800.496,-19.7511 798.688,-30.1904 805.593,-29.0396"/>
</g>
<!-- Node17&#45;&gt;Node6 -->
<g id="edge19" class="edge"><title>Node17&#45;&gt;Node6</title>
<path fill="none" stroke="midnightblue" d="M404.762,-113.764C401.833,-113.101 398.881,-112.494 396.038,-112 309.99,-97.0534 -52.7582,-119.655 7.03754,-56 30.6118,-30.9042 545.776,-15.6828 689.245,-11.9199"/>
<polygon fill="midnightblue" stroke="midnightblue" points="689.399,-15.4172 699.305,-11.659 689.217,-8.41956 689.399,-15.4172"/>
</g>
<!-- Node18 -->
<g id="node18" class="node"><title>Node18</title>
<polygon fill="white" stroke="#bfbfbf" points="16.0375,-56.5 16.0375,-75.5 114.038,-75.5 114.038,-56.5 16.0375,-56.5"/>
<text text-anchor="middle" x="65.0375" y="-63.5" font-family="Helvetica,sans-Serif" font-size="10.00">QNetworkRequest</text>
</g>
<!-- Node17&#45;&gt;Node18 -->
<g id="edge20" class="edge"><title>Node17&#45;&gt;Node18</title>
<path fill="none" stroke="midnightblue" d="M404.741,-113.876C401.816,-113.191 398.871,-112.549 396.038,-112 279.057,-89.3323 245.914,-93.1575 124.163,-76.1205"/>
<polygon fill="midnightblue" stroke="midnightblue" points="124.466,-72.6285 114.073,-74.6896 123.483,-79.5592 124.466,-72.6285"/>
</g>
<!-- Node19 -->
<g id="node19" class="node"><title>Node19</title>
<polygon fill="white" stroke="#bfbfbf" points="132.038,-56.5 132.038,-75.5 218.038,-75.5 218.038,-56.5 132.038,-56.5"/>
<text text-anchor="middle" x="175.038" y="-63.5" font-family="Helvetica,sans-Serif" font-size="10.00">QNetworkReply</text>
</g>
<!-- Node17&#45;&gt;Node19 -->
<g id="edge21" class="edge"><title>Node17&#45;&gt;Node19</title>
<path fill="none" stroke="midnightblue" d="M404.699,-114.074C401.782,-113.353 398.85,-112.648 396.038,-112 339.044,-98.8787 273.324,-85.7498 228.462,-77.089"/>
<polygon fill="midnightblue" stroke="midnightblue" points="228.853,-73.6001 218.372,-75.1485 227.531,-80.4742 228.853,-73.6001"/>
</g>
<!-- Node20 -->
<g id="node20" class="node"><title>Node20</title>
<polygon fill="white" stroke="#bfbfbf" points="236.538,-56.5 236.538,-75.5 367.538,-75.5 367.538,-56.5 236.538,-56.5"/>
<text text-anchor="middle" x="302.038" y="-63.5" font-family="Helvetica,sans-Serif" font-size="10.00">QNetworkAccessManager</text>
</g>
<!-- Node17&#45;&gt;Node20 -->
<g id="edge22" class="edge"><title>Node17&#45;&gt;Node20</title>
<path fill="none" stroke="midnightblue" d="M410.597,-112.444C389.367,-103.557 355.939,-89.5632 331.783,-79.4514"/>
<polygon fill="midnightblue" stroke="midnightblue" points="332.958,-76.1493 322.382,-75.5164 330.255,-82.6064 332.958,-76.1493"/>
</g>
<!-- Node21 -->
<g id="node21" class="node"><title>Node21</title>
<polygon fill="white" stroke="#bfbfbf" points="386.038,-56.5 386.038,-75.5 476.038,-75.5 476.038,-56.5 386.038,-56.5"/>
<text text-anchor="middle" x="431.038" y="-63.5" font-family="Helvetica,sans-Serif" font-size="10.00">QJsonDocument</text>
</g>
<!-- Node17&#45;&gt;Node21 -->
<g id="edge23" class="edge"><title>Node17&#45;&gt;Node21</title>
<path fill="none" stroke="midnightblue" d="M431.038,-112.083C431.038,-105.006 431.038,-94.8611 431.038,-85.9865"/>
<polygon fill="midnightblue" stroke="midnightblue" points="434.538,-85.751 431.038,-75.7511 427.538,-85.7511 434.538,-85.751"/>
</g>
<!-- Node22 -->
<g id="node22" class="node"><title>Node22</title>
<polygon fill="white" stroke="#bfbfbf" points="494.038,-56.5 494.038,-75.5 568.038,-75.5 568.038,-56.5 494.038,-56.5"/>
<text text-anchor="middle" x="531.038" y="-63.5" font-family="Helvetica,sans-Serif" font-size="10.00">QJsonObject</text>
</g>
<!-- Node17&#45;&gt;Node22 -->
<g id="edge24" class="edge"><title>Node17&#45;&gt;Node22</title>
<path fill="none" stroke="midnightblue" d="M447.104,-112.324C462.995,-103.743 487.545,-90.486 505.996,-80.5224"/>
<polygon fill="midnightblue" stroke="midnightblue" points="507.875,-83.4857 515.011,-75.6545 504.549,-77.3264 507.875,-83.4857"/>
</g>
<!-- Node23 -->
<g id="node23" class="node"><title>Node23</title>
<polygon fill="white" stroke="#bfbfbf" points="586.038,-56.5 586.038,-75.5 654.038,-75.5 654.038,-56.5 586.038,-56.5"/>
<text text-anchor="middle" x="620.038" y="-63.5" font-family="Helvetica,sans-Serif" font-size="10.00">QJsonArray</text>
</g>
<!-- Node17&#45;&gt;Node23 -->
<g id="edge25" class="edge"><title>Node17&#45;&gt;Node23</title>
<path fill="none" stroke="midnightblue" d="M457.317,-113.492C489.21,-104.379 543.302,-88.9244 580.298,-78.3542"/>
<polygon fill="midnightblue" stroke="midnightblue" points="581.593,-81.6244 590.246,-75.5118 579.67,-74.8937 581.593,-81.6244"/>
</g>
<!-- Node24 -->
<g id="node24" class="node"><title>Node24</title>
<polygon fill="white" stroke="#bfbfbf" points="672.538,-56.5 672.538,-75.5 725.538,-75.5 725.538,-56.5 672.538,-56.5"/>
<text text-anchor="middle" x="699.038" y="-63.5" font-family="Helvetica,sans-Serif" font-size="10.00">QDebug</text>
</g>
<!-- Node17&#45;&gt;Node24 -->
<g id="edge26" class="edge"><title>Node17&#45;&gt;Node24</title>
<path fill="none" stroke="midnightblue" d="M457.226,-116.391C498.617,-109.006 581.896,-93.7359 662.522,-76.016"/>
<polygon fill="midnightblue" stroke="midnightblue" points="663.331,-79.4217 672.339,-73.8432 661.819,-72.5871 663.331,-79.4217"/>
</g>
</g>
</svg>
