<?xml version="1.0" encoding="UTF-8" standalone="no"?>
<!DOCTYPE svg PUBLIC "-//W3C//DTD SVG 1.1//EN"
 "http://www.w3.org/Graphics/SVG/1.1/DTD/svg11.dtd">
<!-- Generated by graphviz version 2.38.0 (20140413.2041)
 -->
<!-- Title: Graphe hiérarchique des classes Pages: 1 -->
<svg width="172pt" height="104pt"
 viewBox="0.00 0.00 172.00 104.00" xmlns="http://www.w3.org/2000/svg" xmlns:xlink="http://www.w3.org/1999/xlink">
<g id="graph0" class="graph" transform="scale(1 1) rotate(0) translate(4 100)">
<title>Graphe hiérarchique des classes</title>
<polygon fill="white" stroke="none" points="-4,4 -4,-100 168,-100 168,4 -4,4"/>
<!-- Node1 -->
<g id="node1" class="node"><title>Node1</title>
<polygon fill="white" stroke="#bfbfbf" points="0,-38.5 0,-57.5 53,-57.5 53,-38.5 0,-38.5"/>
<text text-anchor="middle" x="26.5" y="-45.5" font-family="Helvetica,sans-Serif" font-size="10.00">QObject</text>
</g>
<!-- Node2 -->
<g id="node2" class="node"><title>Node2</title>
<g id="a_node2"><a xlink:href="class_esp32.html" target="_top" xlink:title="Declaration de la classe Esp32. ">
<polygon fill="white" stroke="black" points="104.5,-76.5 104.5,-95.5 148.5,-95.5 148.5,-76.5 104.5,-76.5"/>
<text text-anchor="middle" x="126.5" y="-83.5" font-family="Helvetica,sans-Serif" font-size="10.00">Esp32</text>
</a>
</g>
</g>
<!-- Node1&#45;&gt;Node2 -->
<g id="edge1" class="edge"><title>Node1&#45;&gt;Node2</title>
<path fill="none" stroke="midnightblue" d="M61.7144,-61.2668C75.9343,-66.7806 91.9872,-73.0052 104.431,-77.8305"/>
<polygon fill="midnightblue" stroke="midnightblue" points="62.8185,-57.9411 52.2295,-57.589 60.2878,-64.4676 62.8185,-57.9411"/>
</g>
<!-- Node3 -->
<g id="node3" class="node"><title>Node3</title>
<g id="a_node3"><a xlink:href="class_meteo.html" target="_top" xlink:title="Declaration de la classe Meteo. ">
<polygon fill="white" stroke="black" points="104.5,-38.5 104.5,-57.5 148.5,-57.5 148.5,-38.5 104.5,-38.5"/>
<text text-anchor="middle" x="126.5" y="-45.5" font-family="Helvetica,sans-Serif" font-size="10.00">Meteo</text>
</a>
</g>
</g>
<!-- Node1&#45;&gt;Node3 -->
<g id="edge2" class="edge"><title>Node1&#45;&gt;Node3</title>
<path fill="none" stroke="midnightblue" d="M63.3708,-48C77.0886,-48 92.2885,-48 104.22,-48"/>
<polygon fill="midnightblue" stroke="midnightblue" points="63.2484,-44.5001 53.2483,-48 63.2483,-51.5001 63.2484,-44.5001"/>
</g>
<!-- Node4 -->
<g id="node4" class="node"><title>Node4</title>
<g id="a_node4"><a xlink:href="class_transmission.html" target="_top" xlink:title="Declaration de la classe Transmission. ">
<polygon fill="white" stroke="black" points="89,-0.5 89,-19.5 164,-19.5 164,-0.5 89,-0.5"/>
<text text-anchor="middle" x="126.5" y="-7.5" font-family="Helvetica,sans-Serif" font-size="10.00">Transmission</text>
</a>
</g>
</g>
<!-- Node1&#45;&gt;Node4 -->
<g id="edge3" class="edge"><title>Node1&#45;&gt;Node4</title>
<path fill="none" stroke="midnightblue" d="M61.7086,-34.7354C74.5742,-29.7467 88.9411,-24.1759 100.778,-19.5859"/>
<polygon fill="midnightblue" stroke="midnightblue" points="60.2878,-31.5324 52.2295,-38.411 62.8185,-38.0589 60.2878,-31.5324"/>
</g>
</g>
</svg>
