<?xml version="1.0" encoding="UTF-8" standalone="no"?>
<!DOCTYPE svg PUBLIC "-//W3C//DTD SVG 1.1//EN"
 "http://www.w3.org/Graphics/SVG/1.1/DTD/svg11.dtd">
<!-- Generated by graphviz version 2.38.0 (20140413.2041)
 -->
<!-- Title: Sonde/main.cpp Pages: 1 -->
<svg width="1149pt" height="252pt"
 viewBox="0.00 0.00 1148.50 252.00" xmlns="http://www.w3.org/2000/svg" xmlns:xlink="http://www.w3.org/1999/xlink">
<g id="graph0" class="graph" transform="scale(1 1) rotate(0) translate(4 248)">
<title>Sonde/main.cpp</title>
<polygon fill="white" stroke="none" points="-4,4 -4,-248 1144.5,-248 1144.5,4 -4,4"/>
<!-- Node1 -->
<g id="node1" class="node"><title>Node1</title>
<polygon fill="#bfbfbf" stroke="black" points="182,-224.5 182,-243.5 269,-243.5 269,-224.5 182,-224.5"/>
<text text-anchor="middle" x="225.5" y="-231.5" font-family="Helvetica,sans-Serif" font-size="10.00">Sonde/main.cpp</text>
</g>
<!-- Node2 -->
<g id="node2" class="node"><title>Node2</title>
<g id="a_node2"><a xlink:href="ihm_8h.html" target="_top" xlink:title="Declaration de la classe Ihm. ">
<polygon fill="white" stroke="black" points="168,-168.5 168,-187.5 209,-187.5 209,-168.5 168,-168.5"/>
<text text-anchor="middle" x="188.5" y="-175.5" font-family="Helvetica,sans-Serif" font-size="10.00">ihm.h</text>
</a>
</g>
</g>
<!-- Node1&#45;&gt;Node2 -->
<g id="edge1" class="edge"><title>Node1&#45;&gt;Node2</title>
<path fill="none" stroke="midnightblue" d="M219.39,-224.083C214.218,-216.534 206.654,-205.495 200.306,-196.23"/>
<polygon fill="midnightblue" stroke="midnightblue" points="203.036,-194.022 194.496,-187.751 197.261,-197.979 203.036,-194.022"/>
</g>
<!-- Node21 -->
<g id="node21" class="node"><title>Node21</title>
<polygon fill="white" stroke="#bfbfbf" points="227.5,-168.5 227.5,-187.5 299.5,-187.5 299.5,-168.5 227.5,-168.5"/>
<text text-anchor="middle" x="263.5" y="-175.5" font-family="Helvetica,sans-Serif" font-size="10.00">QApplication</text>
</g>
<!-- Node1&#45;&gt;Node21 -->
<g id="edge23" class="edge"><title>Node1&#45;&gt;Node21</title>
<path fill="none" stroke="midnightblue" d="M231.775,-224.083C237.142,-216.455 245.018,-205.264 251.579,-195.941"/>
<polygon fill="midnightblue" stroke="midnightblue" points="254.449,-197.943 257.342,-187.751 248.725,-193.915 254.449,-197.943"/>
</g>
<!-- Node3 -->
<g id="node3" class="node"><title>Node3</title>
<polygon fill="white" stroke="#bfbfbf" points="0,-112.5 0,-131.5 55,-131.5 55,-112.5 0,-112.5"/>
<text text-anchor="middle" x="27.5" y="-119.5" font-family="Helvetica,sans-Serif" font-size="10.00">QWidget</text>
</g>
<!-- Node2&#45;&gt;Node3 -->
<g id="edge2" class="edge"><title>Node2&#45;&gt;Node3</title>
<path fill="none" stroke="midnightblue" d="M167.782,-170.051C141.266,-161.158 94.9258,-145.615 62.7981,-134.839"/>
<polygon fill="midnightblue" stroke="midnightblue" points="63.5035,-131.384 52.9096,-131.522 61.2775,-138.021 63.5035,-131.384"/>
</g>
<!-- Node4 -->
<g id="node4" class="node"><title>Node4</title>
<polygon fill="white" stroke="#bfbfbf" points="73,-112.5 73,-131.5 140,-131.5 140,-112.5 73,-112.5"/>
<text text-anchor="middle" x="106.5" y="-119.5" font-family="Helvetica,sans-Serif" font-size="10.00">QDateTime</text>
</g>
<!-- Node2&#45;&gt;Node4 -->
<g id="edge3" class="edge"><title>Node2&#45;&gt;Node4</title>
<path fill="none" stroke="midnightblue" d="M175.325,-168.324C162.653,-159.979 143.267,-147.212 128.294,-137.352"/>
<polygon fill="midnightblue" stroke="midnightblue" points="129.919,-134.231 119.642,-131.655 126.069,-140.078 129.919,-134.231"/>
</g>
<!-- Node5 -->
<g id="node5" class="node"><title>Node5</title>
<polygon fill="white" stroke="#bfbfbf" points="158.5,-112.5 158.5,-131.5 218.5,-131.5 218.5,-112.5 158.5,-112.5"/>
<text text-anchor="middle" x="188.5" y="-119.5" font-family="Helvetica,sans-Serif" font-size="10.00">QSettings</text>
</g>
<!-- Node2&#45;&gt;Node5 -->
<g id="edge4" class="edge"><title>Node2&#45;&gt;Node5</title>
<path fill="none" stroke="midnightblue" d="M188.5,-168.083C188.5,-161.006 188.5,-150.861 188.5,-141.986"/>
<polygon fill="midnightblue" stroke="midnightblue" points="192,-141.751 188.5,-131.751 185,-141.751 192,-141.751"/>
</g>
<!-- Node6 -->
<g id="node6" class="node"><title>Node6</title>
<g id="a_node6"><a xlink:href="transmission_8h.html" target="_top" xlink:title="Declaration de la classe Transmission. ">
<polygon fill="white" stroke="black" points="236.5,-112.5 236.5,-131.5 316.5,-131.5 316.5,-112.5 236.5,-112.5"/>
<text text-anchor="middle" x="276.5" y="-119.5" font-family="Helvetica,sans-Serif" font-size="10.00">transmission.h</text>
</a>
</g>
</g>
<!-- Node2&#45;&gt;Node6 -->
<g id="edge5" class="edge"><title>Node2&#45;&gt;Node6</title>
<path fill="none" stroke="midnightblue" d="M202.639,-168.324C216.366,-159.9 237.436,-146.971 253.564,-137.074"/>
<polygon fill="midnightblue" stroke="midnightblue" points="255.704,-139.868 262.396,-131.655 252.043,-133.902 255.704,-139.868"/>
</g>
<!-- Node13 -->
<g id="node13" class="node"><title>Node13</title>
<g id="a_node13"><a xlink:href="meteo_8h.html" target="_top" xlink:title="Declaration de la classe Meteo. ">
<polygon fill="white" stroke="black" points="626.5,-112.5 626.5,-131.5 678.5,-131.5 678.5,-112.5 626.5,-112.5"/>
<text text-anchor="middle" x="652.5" y="-119.5" font-family="Helvetica,sans-Serif" font-size="10.00">meteo.h</text>
</a>
</g>
</g>
<!-- Node2&#45;&gt;Node13 -->
<g id="edge14" class="edge"><title>Node2&#45;&gt;Node13</title>
<path fill="none" stroke="midnightblue" d="M209.028,-170.287C212.176,-169.419 215.407,-168.618 218.5,-168 363.991,-138.903 540.908,-127.988 615.994,-124.466"/>
<polygon fill="midnightblue" stroke="midnightblue" points="616.486,-127.947 626.317,-123.999 616.169,-120.955 616.486,-127.947"/>
</g>
<!-- Node7 -->
<g id="node7" class="node"><title>Node7</title>
<polygon fill="white" stroke="#bfbfbf" points="347,-0.5 347,-19.5 400,-19.5 400,-0.5 347,-0.5"/>
<text text-anchor="middle" x="373.5" y="-7.5" font-family="Helvetica,sans-Serif" font-size="10.00">QObject</text>
</g>
<!-- Node6&#45;&gt;Node7 -->
<g id="edge6" class="edge"><title>Node6&#45;&gt;Node7</title>
<path fill="none" stroke="midnightblue" d="M295.062,-112.422C310.066,-104.697 330.864,-92.0932 344.5,-76 355.972,-62.4608 363.699,-43.6569 368.273,-29.7557"/>
<polygon fill="midnightblue" stroke="midnightblue" points="371.723,-30.438 371.276,-19.8526 365.024,-28.4064 371.723,-30.438"/>
</g>
<!-- Node8 -->
<g id="node8" class="node"><title>Node8</title>
<polygon fill="white" stroke="#bfbfbf" points="145.5,-0.5 145.5,-19.5 195.5,-19.5 195.5,-0.5 145.5,-0.5"/>
<text text-anchor="middle" x="170.5" y="-7.5" font-family="Helvetica,sans-Serif" font-size="10.00">QString</text>
</g>
<!-- Node6&#45;&gt;Node8 -->
<g id="edge7" class="edge"><title>Node6&#45;&gt;Node8</title>
<path fill="none" stroke="midnightblue" d="M238.58,-112.49C195.045,-102.341 128.672,-85.5507 121.5,-76 108.446,-58.6169 128.772,-38.6549 147.077,-25.4899"/>
<polygon fill="midnightblue" stroke="midnightblue" points="149.431,-28.1222 155.745,-19.6141 145.504,-22.3279 149.431,-28.1222"/>
</g>
<!-- Node9 -->
<g id="node9" class="node"><title>Node9</title>
<polygon fill="white" stroke="#bfbfbf" points="131,-56.5 131,-75.5 198,-75.5 198,-56.5 131,-56.5"/>
<text text-anchor="middle" x="164.5" y="-63.5" font-family="Helvetica,sans-Serif" font-size="10.00">QSerialPort</text>
</g>
<!-- Node6&#45;&gt;Node9 -->
<g id="edge8" class="edge"><title>Node6&#45;&gt;Node9</title>
<path fill="none" stroke="midnightblue" d="M258.505,-112.324C240.462,-103.625 212.453,-90.1202 191.697,-80.113"/>
<polygon fill="midnightblue" stroke="midnightblue" points="192.978,-76.8449 182.45,-75.6545 189.938,-83.1502 192.978,-76.8449"/>
</g>
<!-- Node10 -->
<g id="node10" class="node"><title>Node10</title>
<polygon fill="white" stroke="#bfbfbf" points="216,-56.5 216,-75.5 267,-75.5 267,-56.5 216,-56.5"/>
<text text-anchor="middle" x="241.5" y="-63.5" font-family="Helvetica,sans-Serif" font-size="10.00">unistd.h</text>
</g>
<!-- Node6&#45;&gt;Node10 -->
<g id="edge9" class="edge"><title>Node6&#45;&gt;Node10</title>
<path fill="none" stroke="midnightblue" d="M270.72,-112.083C265.828,-104.534 258.673,-93.4948 252.667,-84.2298"/>
<polygon fill="midnightblue" stroke="midnightblue" points="255.548,-82.239 247.172,-75.7511 249.674,-86.0463 255.548,-82.239"/>
</g>
<!-- Node11 -->
<g id="node11" class="node"><title>Node11</title>
<g id="a_node11"><a xlink:href="esp32_8h.html" target="_top" xlink:title="Declaration de la classe Esp32. ">
<polygon fill="white" stroke="black" points="285,-56.5 285,-75.5 336,-75.5 336,-56.5 285,-56.5"/>
<text text-anchor="middle" x="310.5" y="-63.5" font-family="Helvetica,sans-Serif" font-size="10.00">esp32.h</text>
</a>
</g>
</g>
<!-- Node6&#45;&gt;Node11 -->
<g id="edge10" class="edge"><title>Node6&#45;&gt;Node11</title>
<path fill="none" stroke="midnightblue" d="M282.114,-112.083C286.867,-104.534 293.818,-93.4948 299.652,-84.2298"/>
<polygon fill="midnightblue" stroke="midnightblue" points="302.624,-86.0783 304.99,-75.7511 296.7,-82.3486 302.624,-86.0783"/>
</g>
<!-- Node11&#45;&gt;Node7 -->
<g id="edge11" class="edge"><title>Node11&#45;&gt;Node7</title>
<path fill="none" stroke="midnightblue" d="M320.622,-56.324C330.026,-48.2631 344.244,-36.0765 355.569,-26.3695"/>
<polygon fill="midnightblue" stroke="midnightblue" points="357.879,-28.9993 363.194,-19.8339 353.323,-23.6844 357.879,-28.9993"/>
</g>
<!-- Node11&#45;&gt;Node8 -->
<g id="edge12" class="edge"><title>Node11&#45;&gt;Node8</title>
<path fill="none" stroke="midnightblue" d="M288.317,-56.4435C265.072,-47.4776 228.351,-33.314 202.085,-23.1827"/>
<polygon fill="midnightblue" stroke="midnightblue" points="203.169,-19.8497 192.58,-19.5164 200.65,-26.3807 203.169,-19.8497"/>
</g>
<!-- Node12 -->
<g id="node12" class="node"><title>Node12</title>
<polygon fill="white" stroke="#bfbfbf" points="272.5,-0.5 272.5,-19.5 328.5,-19.5 328.5,-0.5 272.5,-0.5"/>
<text text-anchor="middle" x="300.5" y="-7.5" font-family="Helvetica,sans-Serif" font-size="10.00">QtDebug</text>
</g>
<!-- Node11&#45;&gt;Node12 -->
<g id="edge13" class="edge"><title>Node11&#45;&gt;Node12</title>
<path fill="none" stroke="midnightblue" d="M308.849,-56.083C307.524,-48.9272 305.618,-38.6353 303.961,-29.6911"/>
<polygon fill="midnightblue" stroke="midnightblue" points="307.383,-28.9466 302.121,-19.7511 300.5,-30.2212 307.383,-28.9466"/>
</g>
<!-- Node13&#45;&gt;Node7 -->
<g id="edge15" class="edge"><title>Node13&#45;&gt;Node7</title>
<path fill="none" stroke="midnightblue" d="M652.528,-112.334C652.07,-98.2516 648.979,-70.5162 632.5,-56 600.06,-27.4231 473.786,-16.4975 410.329,-12.7484"/>
<polygon fill="midnightblue" stroke="midnightblue" points="410.523,-9.25385 400.342,-12.1872 410.13,-16.2428 410.523,-9.25385"/>
</g>
<!-- Node14 -->
<g id="node14" class="node"><title>Node14</title>
<polygon fill="white" stroke="#bfbfbf" points="680.5,-56.5 680.5,-75.5 778.5,-75.5 778.5,-56.5 680.5,-56.5"/>
<text text-anchor="middle" x="729.5" y="-63.5" font-family="Helvetica,sans-Serif" font-size="10.00">QNetworkRequest</text>
</g>
<!-- Node13&#45;&gt;Node14 -->
<g id="edge16" class="edge"><title>Node13&#45;&gt;Node14</title>
<path fill="none" stroke="midnightblue" d="M664.871,-112.324C676.658,-104.058 694.632,-91.4527 708.636,-81.6322"/>
<polygon fill="midnightblue" stroke="midnightblue" points="710.982,-84.2619 717.159,-75.6545 706.962,-78.5307 710.982,-84.2619"/>
</g>
<!-- Node15 -->
<g id="node15" class="node"><title>Node15</title>
<polygon fill="white" stroke="#bfbfbf" points="796.5,-56.5 796.5,-75.5 882.5,-75.5 882.5,-56.5 796.5,-56.5"/>
<text text-anchor="middle" x="839.5" y="-63.5" font-family="Helvetica,sans-Serif" font-size="10.00">QNetworkReply</text>
</g>
<!-- Node13&#45;&gt;Node15 -->
<g id="edge17" class="edge"><title>Node13&#45;&gt;Node15</title>
<path fill="none" stroke="midnightblue" d="M678.502,-113.492C710.057,-104.379 763.577,-88.9244 800.181,-78.3542"/>
<polygon fill="midnightblue" stroke="midnightblue" points="801.388,-81.6488 810.024,-75.5118 799.446,-74.9236 801.388,-81.6488"/>
</g>
<!-- Node16 -->
<g id="node16" class="node"><title>Node16</title>
<polygon fill="white" stroke="#bfbfbf" points="901,-56.5 901,-75.5 1032,-75.5 1032,-56.5 901,-56.5"/>
<text text-anchor="middle" x="966.5" y="-63.5" font-family="Helvetica,sans-Serif" font-size="10.00">QNetworkAccessManager</text>
</g>
<!-- Node13&#45;&gt;Node16 -->
<g id="edge18" class="edge"><title>Node13&#45;&gt;Node16</title>
<path fill="none" stroke="midnightblue" d="M678.731,-116.489C728.572,-107.918 838.096,-89.0822 906.731,-77.2787"/>
<polygon fill="midnightblue" stroke="midnightblue" points="907.702,-80.6632 916.964,-75.5189 906.516,-73.7645 907.702,-80.6632"/>
</g>
<!-- Node17 -->
<g id="node17" class="node"><title>Node17</title>
<polygon fill="white" stroke="#bfbfbf" points="1050.5,-56.5 1050.5,-75.5 1140.5,-75.5 1140.5,-56.5 1050.5,-56.5"/>
<text text-anchor="middle" x="1095.5" y="-63.5" font-family="Helvetica,sans-Serif" font-size="10.00">QJsonDocument</text>
</g>
<!-- Node13&#45;&gt;Node17 -->
<g id="edge19" class="edge"><title>Node13&#45;&gt;Node17</title>
<path fill="none" stroke="midnightblue" d="M678.506,-118.445C739.655,-112.342 897.546,-96.0218 1040.2,-76.1211"/>
<polygon fill="midnightblue" stroke="midnightblue" points="1041.03,-79.5393 1050.44,-74.6822 1040.06,-72.6074 1041.03,-79.5393"/>
</g>
<!-- Node18 -->
<g id="node18" class="node"><title>Node18</title>
<polygon fill="white" stroke="#bfbfbf" points="392.5,-56.5 392.5,-75.5 466.5,-75.5 466.5,-56.5 392.5,-56.5"/>
<text text-anchor="middle" x="429.5" y="-63.5" font-family="Helvetica,sans-Serif" font-size="10.00">QJsonObject</text>
</g>
<!-- Node13&#45;&gt;Node18 -->
<g id="edge20" class="edge"><title>Node13&#45;&gt;Node18</title>
<path fill="none" stroke="midnightblue" d="M626.483,-114.7C589.311,-105.699 520.463,-89.0269 474.813,-77.9727"/>
<polygon fill="midnightblue" stroke="midnightblue" points="475.42,-74.5186 464.877,-75.5667 473.773,-81.322 475.42,-74.5186"/>
</g>
<!-- Node19 -->
<g id="node19" class="node"><title>Node19</title>
<polygon fill="white" stroke="#bfbfbf" points="484.5,-56.5 484.5,-75.5 552.5,-75.5 552.5,-56.5 484.5,-56.5"/>
<text text-anchor="middle" x="518.5" y="-63.5" font-family="Helvetica,sans-Serif" font-size="10.00">QJsonArray</text>
</g>
<!-- Node13&#45;&gt;Node19 -->
<g id="edge21" class="edge"><title>Node13&#45;&gt;Node19</title>
<path fill="none" stroke="midnightblue" d="M631.267,-112.444C609.116,-103.517 574.181,-89.4387 549.064,-79.3168"/>
<polygon fill="midnightblue" stroke="midnightblue" points="550.217,-76.0079 539.633,-75.5164 547.6,-82.5006 550.217,-76.0079"/>
</g>
<!-- Node20 -->
<g id="node20" class="node"><title>Node20</title>
<polygon fill="white" stroke="#bfbfbf" points="571,-56.5 571,-75.5 624,-75.5 624,-56.5 571,-56.5"/>
<text text-anchor="middle" x="597.5" y="-63.5" font-family="Helvetica,sans-Serif" font-size="10.00">QDebug</text>
</g>
<!-- Node13&#45;&gt;Node20 -->
<g id="edge22" class="edge"><title>Node13&#45;&gt;Node20</title>
<path fill="none" stroke="midnightblue" d="M643.418,-112.083C635.329,-104.141 623.305,-92.3354 613.59,-82.7973"/>
<polygon fill="midnightblue" stroke="midnightblue" points="616.001,-80.2595 606.413,-75.7511 611.097,-85.2545 616.001,-80.2595"/>
</g>
</g>
</svg>
