<?xml version="1.0" encoding="UTF-8" standalone="no"?>
<!DOCTYPE svg PUBLIC "-//W3C//DTD SVG 1.1//EN"
 "http://www.w3.org/Graphics/SVG/1.1/DTD/svg11.dtd">
<!-- Generated by graphviz version 2.38.0 (20140413.2041)
 -->
<!-- Title: Sonde/main.cpp Pages: 1 -->
<svg width="400pt" height="252pt"
 viewBox="0.00 0.00 400.42 252.00" xmlns="http://www.w3.org/2000/svg" xmlns:xlink="http://www.w3.org/1999/xlink">
<g id="graph0" class="graph" transform="scale(1 1) rotate(0) translate(4 248)">
<title>Sonde/main.cpp</title>
<polygon fill="white" stroke="none" points="-4,4 -4,-248 396.419,-248 396.419,4 -4,4"/>
<!-- Node1 -->
<g id="node1" class="node"><title>Node1</title>
<polygon fill="#bfbfbf" stroke="black" points="141,-224.5 141,-243.5 228,-243.5 228,-224.5 141,-224.5"/>
<text text-anchor="middle" x="184.5" y="-231.5" font-family="Helvetica,sans-Serif" font-size="10.00">Sonde/main.cpp</text>
</g>
<!-- Node2 -->
<g id="node2" class="node"><title>Node2</title>
<g id="a_node2"><a xlink:href="ihm_8h.html" target="_top" xlink:title="Declaration de la classe Ihm. ">
<polygon fill="white" stroke="black" points="127,-168.5 127,-187.5 168,-187.5 168,-168.5 127,-168.5"/>
<text text-anchor="middle" x="147.5" y="-175.5" font-family="Helvetica,sans-Serif" font-size="10.00">ihm.h</text>
</a>
</g>
</g>
<!-- Node1&#45;&gt;Node2 -->
<g id="edge1" class="edge"><title>Node1&#45;&gt;Node2</title>
<path fill="none" stroke="midnightblue" d="M178.39,-224.083C173.218,-216.534 165.654,-205.495 159.306,-196.23"/>
<polygon fill="midnightblue" stroke="midnightblue" points="162.036,-194.022 153.496,-187.751 156.261,-197.979 162.036,-194.022"/>
</g>
<!-- Node13 -->
<g id="node13" class="node"><title>Node13</title>
<polygon fill="white" stroke="#bfbfbf" points="186.5,-168.5 186.5,-187.5 258.5,-187.5 258.5,-168.5 186.5,-168.5"/>
<text text-anchor="middle" x="222.5" y="-175.5" font-family="Helvetica,sans-Serif" font-size="10.00">QApplication</text>
</g>
<!-- Node1&#45;&gt;Node13 -->
<g id="edge14" class="edge"><title>Node1&#45;&gt;Node13</title>
<path fill="none" stroke="midnightblue" d="M190.775,-224.083C196.142,-216.455 204.018,-205.264 210.579,-195.941"/>
<polygon fill="midnightblue" stroke="midnightblue" points="213.449,-197.943 216.342,-187.751 207.725,-193.915 213.449,-197.943"/>
</g>
<!-- Node3 -->
<g id="node3" class="node"><title>Node3</title>
<polygon fill="white" stroke="#bfbfbf" points="0,-112.5 0,-131.5 55,-131.5 55,-112.5 0,-112.5"/>
<text text-anchor="middle" x="27.5" y="-119.5" font-family="Helvetica,sans-Serif" font-size="10.00">QWidget</text>
</g>
<!-- Node2&#45;&gt;Node3 -->
<g id="edge2" class="edge"><title>Node2&#45;&gt;Node3</title>
<path fill="none" stroke="midnightblue" d="M128.486,-168.444C108.912,-159.636 78.1924,-145.812 55.7711,-135.722"/>
<polygon fill="midnightblue" stroke="midnightblue" points="56.9809,-132.428 46.4254,-131.516 54.1083,-138.812 56.9809,-132.428"/>
</g>
<!-- Node4 -->
<g id="node4" class="node"><title>Node4</title>
<polygon fill="white" stroke="#bfbfbf" points="73,-112.5 73,-131.5 140,-131.5 140,-112.5 73,-112.5"/>
<text text-anchor="middle" x="106.5" y="-119.5" font-family="Helvetica,sans-Serif" font-size="10.00">QDateTime</text>
</g>
<!-- Node2&#45;&gt;Node4 -->
<g id="edge3" class="edge"><title>Node2&#45;&gt;Node4</title>
<path fill="none" stroke="midnightblue" d="M140.73,-168.083C134.938,-160.455 126.442,-149.264 119.362,-139.941"/>
<polygon fill="midnightblue" stroke="midnightblue" points="121.979,-137.599 113.144,-131.751 116.404,-141.832 121.979,-137.599"/>
</g>
<!-- Node5 -->
<g id="node5" class="node"><title>Node5</title>
<polygon fill="white" stroke="#bfbfbf" points="158.5,-112.5 158.5,-131.5 218.5,-131.5 218.5,-112.5 158.5,-112.5"/>
<text text-anchor="middle" x="188.5" y="-119.5" font-family="Helvetica,sans-Serif" font-size="10.00">QSettings</text>
</g>
<!-- Node2&#45;&gt;Node5 -->
<g id="edge4" class="edge"><title>Node2&#45;&gt;Node5</title>
<path fill="none" stroke="midnightblue" d="M154.27,-168.083C160.062,-160.455 168.558,-149.264 175.638,-139.941"/>
<polygon fill="midnightblue" stroke="midnightblue" points="178.596,-141.832 181.856,-131.751 173.021,-137.599 178.596,-141.832"/>
</g>
<!-- Node6 -->
<g id="node6" class="node"><title>Node6</title>
<g id="a_node6"><a xlink:href="transmission_8h.html" target="_top" xlink:title="Declaration de la classe Transmission. ">
<polygon fill="white" stroke="black" points="236.5,-112.5 236.5,-131.5 316.5,-131.5 316.5,-112.5 236.5,-112.5"/>
<text text-anchor="middle" x="276.5" y="-119.5" font-family="Helvetica,sans-Serif" font-size="10.00">transmission.h</text>
</a>
</g>
</g>
<!-- Node2&#45;&gt;Node6 -->
<g id="edge5" class="edge"><title>Node2&#45;&gt;Node6</title>
<path fill="none" stroke="midnightblue" d="M167.94,-168.444C189.17,-159.557 222.599,-145.563 246.755,-135.451"/>
<polygon fill="midnightblue" stroke="midnightblue" points="248.282,-138.606 256.155,-131.516 245.579,-132.149 248.282,-138.606"/>
</g>
<!-- Node7 -->
<g id="node7" class="node"><title>Node7</title>
<polygon fill="white" stroke="#bfbfbf" points="119,-0.5 119,-19.5 172,-19.5 172,-0.5 119,-0.5"/>
<text text-anchor="middle" x="145.5" y="-7.5" font-family="Helvetica,sans-Serif" font-size="10.00">QObject</text>
</g>
<!-- Node6&#45;&gt;Node7 -->
<g id="edge6" class="edge"><title>Node6&#45;&gt;Node7</title>
<path fill="none" stroke="midnightblue" d="M236.474,-114.047C212.499,-107.9 183.152,-96.5682 164.5,-76 153.033,-63.3552 148.462,-44.1461 146.653,-29.8856"/>
<polygon fill="midnightblue" stroke="midnightblue" points="150.12,-29.3656 145.715,-19.7298 143.149,-30.0093 150.12,-29.3656"/>
</g>
<!-- Node8 -->
<g id="node8" class="node"><title>Node8</title>
<polygon fill="white" stroke="#bfbfbf" points="323.5,-0.5 323.5,-19.5 373.5,-19.5 373.5,-0.5 323.5,-0.5"/>
<text text-anchor="middle" x="348.5" y="-7.5" font-family="Helvetica,sans-Serif" font-size="10.00">QString</text>
</g>
<!-- Node6&#45;&gt;Node8 -->
<g id="edge7" class="edge"><title>Node6&#45;&gt;Node8</title>
<path fill="none" stroke="midnightblue" d="M316.737,-116.171C341.929,-110.836 372.541,-99.6115 388.5,-76 399.769,-59.3274 383.589,-39.5599 368.562,-26.2377"/>
<polygon fill="midnightblue" stroke="midnightblue" points="370.445,-23.2521 360.514,-19.5602 365.975,-28.6392 370.445,-23.2521"/>
</g>
<!-- Node9 -->
<g id="node9" class="node"><title>Node9</title>
<polygon fill="white" stroke="#bfbfbf" points="243,-56.5 243,-75.5 310,-75.5 310,-56.5 243,-56.5"/>
<text text-anchor="middle" x="276.5" y="-63.5" font-family="Helvetica,sans-Serif" font-size="10.00">QSerialPort</text>
</g>
<!-- Node6&#45;&gt;Node9 -->
<g id="edge8" class="edge"><title>Node6&#45;&gt;Node9</title>
<path fill="none" stroke="midnightblue" d="M276.5,-112.083C276.5,-105.006 276.5,-94.8611 276.5,-85.9865"/>
<polygon fill="midnightblue" stroke="midnightblue" points="280,-85.751 276.5,-75.7511 273,-85.7511 280,-85.751"/>
</g>
<!-- Node10 -->
<g id="node10" class="node"><title>Node10</title>
<polygon fill="white" stroke="#bfbfbf" points="328,-56.5 328,-75.5 379,-75.5 379,-56.5 328,-56.5"/>
<text text-anchor="middle" x="353.5" y="-63.5" font-family="Helvetica,sans-Serif" font-size="10.00">unistd.h</text>
</g>
<!-- Node6&#45;&gt;Node10 -->
<g id="edge9" class="edge"><title>Node6&#45;&gt;Node10</title>
<path fill="none" stroke="midnightblue" d="M288.871,-112.324C300.658,-104.058 318.632,-91.4527 332.636,-81.6322"/>
<polygon fill="midnightblue" stroke="midnightblue" points="334.982,-84.2619 341.159,-75.6545 330.962,-78.5307 334.982,-84.2619"/>
</g>
<!-- Node11 -->
<g id="node11" class="node"><title>Node11</title>
<g id="a_node11"><a xlink:href="esp32_8h.html" target="_top" xlink:title="Declaration de la classe Esp32. ">
<polygon fill="white" stroke="black" points="174,-56.5 174,-75.5 225,-75.5 225,-56.5 174,-56.5"/>
<text text-anchor="middle" x="199.5" y="-63.5" font-family="Helvetica,sans-Serif" font-size="10.00">esp32.h</text>
</a>
</g>
</g>
<!-- Node6&#45;&gt;Node11 -->
<g id="edge10" class="edge"><title>Node6&#45;&gt;Node11</title>
<path fill="none" stroke="midnightblue" d="M264.129,-112.324C252.342,-104.058 234.368,-91.4527 220.364,-81.6322"/>
<polygon fill="midnightblue" stroke="midnightblue" points="222.038,-78.5307 211.841,-75.6545 218.018,-84.2619 222.038,-78.5307"/>
</g>
<!-- Node11&#45;&gt;Node7 -->
<g id="edge11" class="edge"><title>Node11&#45;&gt;Node7</title>
<path fill="none" stroke="midnightblue" d="M190.583,-56.083C182.72,-48.2195 171.069,-36.5688 161.581,-27.0813"/>
<polygon fill="midnightblue" stroke="midnightblue" points="163.797,-24.3473 154.251,-19.7511 158.847,-29.2971 163.797,-24.3473"/>
</g>
<!-- Node11&#45;&gt;Node8 -->
<g id="edge12" class="edge"><title>Node11&#45;&gt;Node8</title>
<path fill="none" stroke="midnightblue" d="M223.109,-56.4435C247.958,-47.4381 287.274,-33.1891 315.254,-23.049"/>
<polygon fill="midnightblue" stroke="midnightblue" points="316.792,-26.2144 325.001,-19.5164 314.407,-19.6332 316.792,-26.2144"/>
</g>
<!-- Node12 -->
<g id="node12" class="node"><title>Node12</title>
<polygon fill="white" stroke="#bfbfbf" points="190.5,-0.5 190.5,-19.5 246.5,-19.5 246.5,-0.5 190.5,-0.5"/>
<text text-anchor="middle" x="218.5" y="-7.5" font-family="Helvetica,sans-Serif" font-size="10.00">QtDebug</text>
</g>
<!-- Node11&#45;&gt;Node12 -->
<g id="edge13" class="edge"><title>Node11&#45;&gt;Node12</title>
<path fill="none" stroke="midnightblue" d="M202.637,-56.083C205.183,-48.8486 208.856,-38.4087 212.027,-29.3968"/>
<polygon fill="midnightblue" stroke="midnightblue" points="215.403,-30.3459 215.421,-19.7511 208.8,-28.0225 215.403,-30.3459"/>
</g>
</g>
</svg>
