<?xml version="1.0" encoding="UTF-8" standalone="no"?>
<!DOCTYPE svg PUBLIC "-//W3C//DTD SVG 1.1//EN"
 "http://www.w3.org/Graphics/SVG/1.1/DTD/svg11.dtd">
<!-- Generated by graphviz version 2.38.0 (20140413.2041)
 -->
<!-- Title: Sonde/transmission.h Pages: 1 -->
<svg width="276pt" height="140pt"
 viewBox="0.00 0.00 276.00 140.00" xmlns="http://www.w3.org/2000/svg" xmlns:xlink="http://www.w3.org/1999/xlink">
<g id="graph0" class="graph" transform="scale(1 1) rotate(0) translate(4 136)">
<title>Sonde/transmission.h</title>
<polygon fill="white" stroke="none" points="-4,4 -4,-136 272,-136 272,4 -4,4"/>
<!-- Node1 -->
<g id="node1" class="node"><title>Node1</title>
<polygon fill="#bfbfbf" stroke="black" points="93.5,-112.5 93.5,-131.5 204.5,-131.5 204.5,-112.5 93.5,-112.5"/>
<text text-anchor="middle" x="149" y="-119.5" font-family="Helvetica,sans-Serif" font-size="10.00">Sonde/transmission.h</text>
</g>
<!-- Node2 -->
<g id="node2" class="node"><title>Node2</title>
<g id="a_node2"><a xlink:href="ihm_8h.html" target="_top" xlink:title="Declaration de la classe Ihm. ">
<polygon fill="white" stroke="black" points="56.5,-56.5 56.5,-75.5 127.5,-75.5 127.5,-56.5 56.5,-56.5"/>
<text text-anchor="middle" x="92" y="-63.5" font-family="Helvetica,sans-Serif" font-size="10.00">Sonde/ihm.h</text>
</a>
</g>
</g>
<!-- Node1&#45;&gt;Node2 -->
<g id="edge1" class="edge"><title>Node1&#45;&gt;Node2</title>
<path fill="none" stroke="midnightblue" d="M132.379,-105.253C122.266,-95.6731 109.723,-83.7906 101.325,-75.8339"/>
<polygon fill="midnightblue" stroke="midnightblue" points="130.175,-107.987 139.842,-112.324 134.99,-102.906 130.175,-107.987"/>
</g>
<!-- Node5 -->
<g id="node5" class="node"><title>Node5</title>
<g id="a_node5"><a xlink:href="transmission_8cpp.html" target="_top" xlink:title="programme qui s&#39;occupe de la parti trame (configuration, reception / envoie de trame) ...">
<polygon fill="white" stroke="black" points="146,-56.5 146,-75.5 268,-75.5 268,-56.5 146,-56.5"/>
<text text-anchor="middle" x="207" y="-63.5" font-family="Helvetica,sans-Serif" font-size="10.00">Sonde/transmission.cpp</text>
</a>
</g>
</g>
<!-- Node1&#45;&gt;Node5 -->
<g id="edge4" class="edge"><title>Node1&#45;&gt;Node5</title>
<path fill="none" stroke="midnightblue" d="M165.913,-105.253C176.203,-95.6731 188.966,-83.7906 197.512,-75.8339"/>
<polygon fill="midnightblue" stroke="midnightblue" points="163.253,-102.948 158.319,-112.324 168.023,-108.071 163.253,-102.948"/>
</g>
<!-- Node3 -->
<g id="node3" class="node"><title>Node3</title>
<g id="a_node3"><a xlink:href="ihm_8cpp.html" target="_top" xlink:title="programme qui s&#39;occupe de l&#39;affichage dans l&#39;ihm ">
<polygon fill="white" stroke="black" points="0,-0.5 0,-19.5 82,-19.5 82,-0.5 0,-0.5"/>
<text text-anchor="middle" x="41" y="-7.5" font-family="Helvetica,sans-Serif" font-size="10.00">Sonde/ihm.cpp</text>
</a>
</g>
</g>
<!-- Node2&#45;&gt;Node3 -->
<g id="edge2" class="edge"><title>Node2&#45;&gt;Node3</title>
<path fill="none" stroke="midnightblue" d="M76.6221,-48.7175C67.6331,-39.1997 56.6408,-27.5608 49.2649,-19.7511"/>
<polygon fill="midnightblue" stroke="midnightblue" points="74.1676,-51.216 83.5784,-56.083 79.2567,-46.4096 74.1676,-51.216"/>
</g>
<!-- Node4 -->
<g id="node4" class="node"><title>Node4</title>
<g id="a_node4"><a xlink:href="main_8cpp.html" target="_top" xlink:title="Programme principal ... ">
<polygon fill="white" stroke="black" points="100.5,-0.5 100.5,-19.5 187.5,-19.5 187.5,-0.5 100.5,-0.5"/>
<text text-anchor="middle" x="144" y="-7.5" font-family="Helvetica,sans-Serif" font-size="10.00">Sonde/main.cpp</text>
</a>
</g>
</g>
<!-- Node2&#45;&gt;Node4 -->
<g id="edge3" class="edge"><title>Node2&#45;&gt;Node4</title>
<path fill="none" stroke="midnightblue" d="M107.679,-48.7175C116.845,-39.1997 128.053,-27.5608 135.573,-19.7511"/>
<polygon fill="midnightblue" stroke="midnightblue" points="105.002,-46.452 100.587,-56.083 110.044,-51.3075 105.002,-46.452"/>
</g>
</g>
</svg>
