<?xml version="1.0" encoding="UTF-8" standalone="no"?>
<!DOCTYPE svg PUBLIC "-//W3C//DTD SVG 1.1//EN"
 "http://www.w3.org/Graphics/SVG/1.1/DTD/svg11.dtd">
<!-- Generated by graphviz version 2.38.0 (20140413.2041)
 -->
<!-- Title: Sonde/transmission.h Pages: 1 -->
<svg width="1019pt" height="140pt"
 viewBox="0.00 0.00 1018.50 140.00" xmlns="http://www.w3.org/2000/svg" xmlns:xlink="http://www.w3.org/1999/xlink">
<g id="graph0" class="graph" transform="scale(1 1) rotate(0) translate(4 136)">
<title>Sonde/transmission.h</title>
<polygon fill="white" stroke="none" points="-4,4 -4,-136 1014.5,-136 1014.5,4 -4,4"/>
<!-- Node1 -->
<g id="node1" class="node"><title>Node1</title>
<polygon fill="#bfbfbf" stroke="black" points="285,-112.5 285,-131.5 396,-131.5 396,-112.5 285,-112.5"/>
<text text-anchor="middle" x="340.5" y="-119.5" font-family="Helvetica,sans-Serif" font-size="10.00">Sonde/transmission.h</text>
</g>
<!-- Node2 -->
<g id="node2" class="node"><title>Node2</title>
<polygon fill="white" stroke="#bfbfbf" points="0,-0.5 0,-19.5 53,-19.5 53,-0.5 0,-0.5"/>
<text text-anchor="middle" x="26.5" y="-7.5" font-family="Helvetica,sans-Serif" font-size="10.00">QObject</text>
</g>
<!-- Node1&#45;&gt;Node2 -->
<g id="edge1" class="edge"><title>Node1&#45;&gt;Node2</title>
<path fill="none" stroke="midnightblue" d="M284.708,-117.489C214.642,-112.14 99.3701,-99.9427 64.5,-76 48.3714,-64.9257 38.1129,-44.5822 32.3736,-29.5936"/>
<polygon fill="midnightblue" stroke="midnightblue" points="35.5691,-28.1269 28.974,-19.8351 28.9587,-30.4299 35.5691,-28.1269"/>
</g>
<!-- Node3 -->
<g id="node3" class="node"><title>Node3</title>
<polygon fill="white" stroke="#bfbfbf" points="145.5,-0.5 145.5,-19.5 195.5,-19.5 195.5,-0.5 145.5,-0.5"/>
<text text-anchor="middle" x="170.5" y="-7.5" font-family="Helvetica,sans-Serif" font-size="10.00">QString</text>
</g>
<!-- Node1&#45;&gt;Node3 -->
<g id="edge2" class="edge"><title>Node1&#45;&gt;Node3</title>
<path fill="none" stroke="midnightblue" d="M284.708,-113.127C241.786,-105.822 187.511,-93.4387 173.5,-76 163.227,-63.2143 163.642,-44.0241 165.925,-29.8064"/>
<polygon fill="midnightblue" stroke="midnightblue" points="169.42,-30.1852 167.989,-19.6874 162.561,-28.7863 169.42,-30.1852"/>
</g>
<!-- Node4 -->
<g id="node4" class="node"><title>Node4</title>
<polygon fill="white" stroke="#bfbfbf" points="182,-56.5 182,-75.5 249,-75.5 249,-56.5 182,-56.5"/>
<text text-anchor="middle" x="215.5" y="-63.5" font-family="Helvetica,sans-Serif" font-size="10.00">QSerialPort</text>
</g>
<!-- Node1&#45;&gt;Node4 -->
<g id="edge3" class="edge"><title>Node1&#45;&gt;Node4</title>
<path fill="none" stroke="midnightblue" d="M320.693,-112.444C300.213,-103.596 268.017,-89.6875 244.635,-79.5865"/>
<polygon fill="midnightblue" stroke="midnightblue" points="245.782,-76.2692 235.214,-75.5164 243.006,-82.6953 245.782,-76.2692"/>
</g>
<!-- Node5 -->
<g id="node5" class="node"><title>Node5</title>
<polygon fill="white" stroke="#bfbfbf" points="267,-56.5 267,-75.5 318,-75.5 318,-56.5 267,-56.5"/>
<text text-anchor="middle" x="292.5" y="-63.5" font-family="Helvetica,sans-Serif" font-size="10.00">unistd.h</text>
</g>
<!-- Node1&#45;&gt;Node5 -->
<g id="edge4" class="edge"><title>Node1&#45;&gt;Node5</title>
<path fill="none" stroke="midnightblue" d="M332.574,-112.083C325.654,-104.298 315.435,-92.8015 307.048,-83.3665"/>
<polygon fill="midnightblue" stroke="midnightblue" points="309.538,-80.8999 300.279,-75.7511 304.306,-85.5505 309.538,-80.8999"/>
</g>
<!-- Node6 -->
<g id="node6" class="node"><title>Node6</title>
<polygon fill="white" stroke="#bfbfbf" points="336.5,-56.5 336.5,-75.5 440.5,-75.5 440.5,-56.5 336.5,-56.5"/>
<text text-anchor="middle" x="388.5" y="-63.5" font-family="Helvetica,sans-Serif" font-size="10.00">qbluetoothaddress.h</text>
</g>
<!-- Node1&#45;&gt;Node6 -->
<g id="edge5" class="edge"><title>Node1&#45;&gt;Node6</title>
<path fill="none" stroke="midnightblue" d="M348.426,-112.083C355.346,-104.298 365.565,-92.8015 373.952,-83.3665"/>
<polygon fill="midnightblue" stroke="midnightblue" points="376.694,-85.5505 380.721,-75.7511 371.462,-80.8999 376.694,-85.5505"/>
</g>
<!-- Node7 -->
<g id="node7" class="node"><title>Node7</title>
<polygon fill="white" stroke="#bfbfbf" points="459,-56.5 459,-75.5 626,-75.5 626,-56.5 459,-56.5"/>
<text text-anchor="middle" x="542.5" y="-63.5" font-family="Helvetica,sans-Serif" font-size="10.00">qbluetoothservicediscoveryagent.h</text>
</g>
<!-- Node1&#45;&gt;Node7 -->
<g id="edge6" class="edge"><title>Node1&#45;&gt;Node7</title>
<path fill="none" stroke="midnightblue" d="M372.508,-112.444C407.229,-103.162 462.788,-88.3093 500.877,-78.127"/>
<polygon fill="midnightblue" stroke="midnightblue" points="501.885,-81.4803 510.642,-75.5164 500.078,-74.7178 501.885,-81.4803"/>
</g>
<!-- Node8 -->
<g id="node8" class="node"><title>Node8</title>
<polygon fill="white" stroke="#bfbfbf" points="644,-56.5 644,-75.5 759,-75.5 759,-56.5 644,-56.5"/>
<text text-anchor="middle" x="701.5" y="-63.5" font-family="Helvetica,sans-Serif" font-size="10.00">QLowEnergyController</text>
</g>
<!-- Node1&#45;&gt;Node8 -->
<g id="edge7" class="edge"><title>Node1&#45;&gt;Node8</title>
<path fill="none" stroke="midnightblue" d="M396.115,-112.681C460.265,-103.085 565.694,-87.3145 634.357,-77.0436"/>
<polygon fill="midnightblue" stroke="midnightblue" points="635.258,-80.4479 644.63,-75.5069 634.222,-73.5249 635.258,-80.4479"/>
</g>
<!-- Node9 -->
<g id="node9" class="node"><title>Node9</title>
<polygon fill="white" stroke="#bfbfbf" points="777,-56.5 777,-75.5 896,-75.5 896,-56.5 777,-56.5"/>
<text text-anchor="middle" x="836.5" y="-63.5" font-family="Helvetica,sans-Serif" font-size="10.00">QBluetoothLocalDevice</text>
</g>
<!-- Node1&#45;&gt;Node9 -->
<g id="edge8" class="edge"><title>Node1&#45;&gt;Node9</title>
<path fill="none" stroke="midnightblue" d="M396.297,-115.616C476.129,-107.805 627.814,-92.5692 766.822,-76.1749"/>
<polygon fill="midnightblue" stroke="midnightblue" points="767.288,-79.6442 776.807,-74.9926 766.465,-72.6928 767.288,-79.6442"/>
</g>
<!-- Node10 -->
<g id="node10" class="node"><title>Node10</title>
<polygon fill="white" stroke="#bfbfbf" points="914.5,-56.5 914.5,-75.5 1010.5,-75.5 1010.5,-56.5 914.5,-56.5"/>
<text text-anchor="middle" x="962.5" y="-63.5" font-family="Helvetica,sans-Serif" font-size="10.00">QBluetoothSocket</text>
</g>
<!-- Node1&#45;&gt;Node10 -->
<g id="edge9" class="edge"><title>Node1&#45;&gt;Node10</title>
<path fill="none" stroke="midnightblue" d="M396.376,-117.982C496.224,-112.277 712.055,-98.5273 904.327,-76.0528"/>
<polygon fill="midnightblue" stroke="midnightblue" points="904.813,-79.5199 914.334,-74.8726 903.993,-72.5681 904.813,-79.5199"/>
</g>
<!-- Node11 -->
<g id="node11" class="node"><title>Node11</title>
<g id="a_node11"><a xlink:href="esp32_8h.html" target="_top" xlink:title="Declaration de la classe Esp32. ">
<polygon fill="white" stroke="black" points="74,-56.5 74,-75.5 125,-75.5 125,-56.5 74,-56.5"/>
<text text-anchor="middle" x="99.5" y="-63.5" font-family="Helvetica,sans-Serif" font-size="10.00">esp32.h</text>
</a>
</g>
</g>
<!-- Node1&#45;&gt;Node11 -->
<g id="edge10" class="edge"><title>Node1&#45;&gt;Node11</title>
<path fill="none" stroke="midnightblue" d="M302.338,-112.469C261.905,-103.427 196.199,-88.7255 139.5,-76 138.068,-75.6785 136.606,-75.3504 135.13,-75.0188"/>
<polygon fill="midnightblue" stroke="midnightblue" points="135.844,-71.592 125.32,-72.8137 134.309,-78.4216 135.844,-71.592"/>
</g>
<!-- Node11&#45;&gt;Node2 -->
<g id="edge11" class="edge"><title>Node11&#45;&gt;Node2</title>
<path fill="none" stroke="midnightblue" d="M87.7713,-56.324C76.6626,-48.1066 59.7578,-35.6017 46.5167,-25.8069"/>
<polygon fill="midnightblue" stroke="midnightblue" points="48.5631,-22.9671 38.4421,-19.8339 44.4001,-28.5948 48.5631,-22.9671"/>
</g>
<!-- Node11&#45;&gt;Node3 -->
<g id="edge12" class="edge"><title>Node11&#45;&gt;Node3</title>
<path fill="none" stroke="midnightblue" d="M110.907,-56.324C121.609,-48.1849 137.841,-35.8395 150.663,-26.0874"/>
<polygon fill="midnightblue" stroke="midnightblue" points="153.044,-28.6734 158.885,-19.8339 148.807,-23.1018 153.044,-28.6734"/>
</g>
<!-- Node12 -->
<g id="node12" class="node"><title>Node12</title>
<polygon fill="white" stroke="#bfbfbf" points="71.5,-0.5 71.5,-19.5 127.5,-19.5 127.5,-0.5 71.5,-0.5"/>
<text text-anchor="middle" x="99.5" y="-7.5" font-family="Helvetica,sans-Serif" font-size="10.00">QtDebug</text>
</g>
<!-- Node11&#45;&gt;Node12 -->
<g id="edge13" class="edge"><title>Node11&#45;&gt;Node12</title>
<path fill="none" stroke="midnightblue" d="M99.5,-56.083C99.5,-49.0059 99.5,-38.8611 99.5,-29.9865"/>
<polygon fill="midnightblue" stroke="midnightblue" points="103,-29.751 99.5,-19.7511 96.0001,-29.7511 103,-29.751"/>
</g>
</g>
</svg>
