<?xml version="1.0" encoding="UTF-8" standalone="no"?>
<!DOCTYPE svg PUBLIC "-//W3C//DTD SVG 1.1//EN"
 "http://www.w3.org/Graphics/SVG/1.1/DTD/svg11.dtd">
<!-- Generated by graphviz version 2.38.0 (20140413.2041)
 -->
<!-- Title: Sonde/transmission.h Pages: 1 -->
<svg width="281pt" height="140pt"
 viewBox="0.00 0.00 281.42 140.00" xmlns="http://www.w3.org/2000/svg" xmlns:xlink="http://www.w3.org/1999/xlink">
<g id="graph0" class="graph" transform="scale(1 1) rotate(0) translate(4 136)">
<title>Sonde/transmission.h</title>
<polygon fill="white" stroke="none" points="-4,4 -4,-136 277.419,-136 277.419,4 -4,4"/>
<!-- Node1 -->
<g id="node1" class="node"><title>Node1</title>
<polygon fill="#bfbfbf" stroke="black" points="102,-112.5 102,-131.5 213,-131.5 213,-112.5 102,-112.5"/>
<text text-anchor="middle" x="157.5" y="-119.5" font-family="Helvetica,sans-Serif" font-size="10.00">Sonde/transmission.h</text>
</g>
<!-- Node2 -->
<g id="node2" class="node"><title>Node2</title>
<polygon fill="white" stroke="#bfbfbf" points="0,-0.5 0,-19.5 53,-19.5 53,-0.5 0,-0.5"/>
<text text-anchor="middle" x="26.5" y="-7.5" font-family="Helvetica,sans-Serif" font-size="10.00">QObject</text>
</g>
<!-- Node1&#45;&gt;Node2 -->
<g id="edge1" class="edge"><title>Node1&#45;&gt;Node2</title>
<path fill="none" stroke="midnightblue" d="M111.681,-112.486C88.9151,-106.046 62.6735,-94.9383 45.5,-76 34.0335,-63.3552 29.4619,-44.1461 27.6526,-29.8856"/>
<polygon fill="midnightblue" stroke="midnightblue" points="31.1196,-29.3656 26.7149,-19.7298 24.1493,-30.0093 31.1196,-29.3656"/>
</g>
<!-- Node3 -->
<g id="node3" class="node"><title>Node3</title>
<polygon fill="white" stroke="#bfbfbf" points="204.5,-0.5 204.5,-19.5 254.5,-19.5 254.5,-0.5 204.5,-0.5"/>
<text text-anchor="middle" x="229.5" y="-7.5" font-family="Helvetica,sans-Serif" font-size="10.00">QString</text>
</g>
<!-- Node1&#45;&gt;Node3 -->
<g id="edge2" class="edge"><title>Node1&#45;&gt;Node3</title>
<path fill="none" stroke="midnightblue" d="M212.639,-112.42C234.098,-106.092 256.592,-95.0975 269.5,-76 280.769,-59.3274 264.589,-39.5599 249.562,-26.2377"/>
<polygon fill="midnightblue" stroke="midnightblue" points="251.445,-23.2521 241.514,-19.5602 246.975,-28.6392 251.445,-23.2521"/>
</g>
<!-- Node4 -->
<g id="node4" class="node"><title>Node4</title>
<polygon fill="white" stroke="#bfbfbf" points="124,-56.5 124,-75.5 191,-75.5 191,-56.5 124,-56.5"/>
<text text-anchor="middle" x="157.5" y="-63.5" font-family="Helvetica,sans-Serif" font-size="10.00">QSerialPort</text>
</g>
<!-- Node1&#45;&gt;Node4 -->
<g id="edge3" class="edge"><title>Node1&#45;&gt;Node4</title>
<path fill="none" stroke="midnightblue" d="M157.5,-112.083C157.5,-105.006 157.5,-94.8611 157.5,-85.9865"/>
<polygon fill="midnightblue" stroke="midnightblue" points="161,-85.751 157.5,-75.7511 154,-85.7511 161,-85.751"/>
</g>
<!-- Node5 -->
<g id="node5" class="node"><title>Node5</title>
<polygon fill="white" stroke="#bfbfbf" points="209,-56.5 209,-75.5 260,-75.5 260,-56.5 209,-56.5"/>
<text text-anchor="middle" x="234.5" y="-63.5" font-family="Helvetica,sans-Serif" font-size="10.00">unistd.h</text>
</g>
<!-- Node1&#45;&gt;Node5 -->
<g id="edge4" class="edge"><title>Node1&#45;&gt;Node5</title>
<path fill="none" stroke="midnightblue" d="M169.871,-112.324C181.658,-104.058 199.632,-91.4527 213.636,-81.6322"/>
<polygon fill="midnightblue" stroke="midnightblue" points="215.982,-84.2619 222.159,-75.6545 211.962,-78.5307 215.982,-84.2619"/>
</g>
<!-- Node6 -->
<g id="node6" class="node"><title>Node6</title>
<g id="a_node6"><a xlink:href="esp32_8h.html" target="_top" xlink:title="Declaration de la classe Esp32. ">
<polygon fill="white" stroke="black" points="55,-56.5 55,-75.5 106,-75.5 106,-56.5 55,-56.5"/>
<text text-anchor="middle" x="80.5" y="-63.5" font-family="Helvetica,sans-Serif" font-size="10.00">esp32.h</text>
</a>
</g>
</g>
<!-- Node1&#45;&gt;Node6 -->
<g id="edge5" class="edge"><title>Node1&#45;&gt;Node6</title>
<path fill="none" stroke="midnightblue" d="M145.129,-112.324C133.342,-104.058 115.368,-91.4527 101.364,-81.6322"/>
<polygon fill="midnightblue" stroke="midnightblue" points="103.038,-78.5307 92.8407,-75.6545 99.0184,-84.2619 103.038,-78.5307"/>
</g>
<!-- Node6&#45;&gt;Node2 -->
<g id="edge6" class="edge"><title>Node6&#45;&gt;Node2</title>
<path fill="none" stroke="midnightblue" d="M71.583,-56.083C63.7195,-48.2195 52.0688,-36.5688 42.5813,-27.0813"/>
<polygon fill="midnightblue" stroke="midnightblue" points="44.7971,-24.3473 35.2511,-19.7511 39.8473,-29.2971 44.7971,-24.3473"/>
</g>
<!-- Node6&#45;&gt;Node3 -->
<g id="edge7" class="edge"><title>Node6&#45;&gt;Node3</title>
<path fill="none" stroke="midnightblue" d="M104.109,-56.4435C128.958,-47.4381 168.274,-33.1891 196.254,-23.049"/>
<polygon fill="midnightblue" stroke="midnightblue" points="197.792,-26.2144 206.001,-19.5164 195.407,-19.6332 197.792,-26.2144"/>
</g>
<!-- Node7 -->
<g id="node7" class="node"><title>Node7</title>
<polygon fill="white" stroke="#bfbfbf" points="71.5,-0.5 71.5,-19.5 127.5,-19.5 127.5,-0.5 71.5,-0.5"/>
<text text-anchor="middle" x="99.5" y="-7.5" font-family="Helvetica,sans-Serif" font-size="10.00">QtDebug</text>
</g>
<!-- Node6&#45;&gt;Node7 -->
<g id="edge8" class="edge"><title>Node6&#45;&gt;Node7</title>
<path fill="none" stroke="midnightblue" d="M83.6375,-56.083C86.1829,-48.8486 89.8562,-38.4087 93.0271,-29.3968"/>
<polygon fill="midnightblue" stroke="midnightblue" points="96.4034,-30.3459 96.4209,-19.7511 89.8002,-28.0225 96.4034,-30.3459"/>
</g>
</g>
</svg>
